<svg width="20" height="20" viewBox="0 0 20 20" fill="none" xmlns="http://www.w3.org/2000/svg">
<path d="M8.27083 17.6038L6.20833 13.7705L2.375 11.708L3.85417 10.2497L6.875 10.7705L9 8.64551L2.39583 5.83301L4.14583 4.04134L12.1667 5.45801L14.75 2.87467C15.0694 2.55523 15.4653 2.39551 15.9375 2.39551C16.4097 2.39551 16.8056 2.55523 17.125 2.87467C17.4444 3.19412 17.6042 3.58648 17.6042 4.05176C17.6042 4.51704 17.4444 4.9094 17.125 5.22884L14.5208 7.83301L15.9375 15.833L14.1667 17.6038L11.3333 10.9997L9.20833 13.1247L9.75 16.1247L8.27083 17.6038Z" fill="#595959"/>
</svg>
