<svg width="20" height="22" viewBox="0 0 20 22" fill="none" xmlns="http://www.w3.org/2000/svg">
<path d="M0 9.02461C0 7.35794 0.370833 5.82878 1.1125 4.43711C1.85417 3.04544 2.85 1.89128 4.1 0.974609L5.275 2.57461C4.275 3.30794 3.47917 4.23294 2.8875 5.34961C2.29583 6.46628 2 7.69128 2 9.02461H0ZM18 9.02461C18 7.69128 17.7042 6.46628 17.1125 5.34961C16.5208 4.23294 15.725 3.30794 14.725 2.57461L15.9 0.974609C17.15 1.89128 18.1458 3.04544 18.8875 4.43711C19.6292 5.82878 20 7.35794 20 9.02461H18ZM2 18.0246V16.0246H4V9.02461C4 7.64128 4.41667 6.41211 5.25 5.33711C6.08333 4.26211 7.16667 3.55794 8.5 3.22461V2.52461C8.5 2.10794 8.64583 1.75378 8.9375 1.46211C9.22917 1.17044 9.58333 1.02461 10 1.02461C10.4167 1.02461 10.7708 1.17044 11.0625 1.46211C11.3542 1.75378 11.5 2.10794 11.5 2.52461V3.22461C12.8333 3.55794 13.9167 4.26211 14.75 5.33711C15.5833 6.41211 16 7.64128 16 9.02461V16.0246H18V18.0246H2ZM10 21.0246C9.45 21.0246 8.97917 20.8288 8.5875 20.4371C8.19583 20.0454 8 19.5746 8 19.0246H12C12 19.5746 11.8042 20.0454 11.4125 20.4371C11.0208 20.8288 10.55 21.0246 10 21.0246ZM6 16.0246H14V9.02461C14 7.92461 13.6083 6.98294 12.825 6.19961C12.0417 5.41628 11.1 5.02461 10 5.02461C8.9 5.02461 7.95833 5.41628 7.175 6.19961C6.39167 6.98294 6 7.92461 6 9.02461V16.0246Z" fill="#1B393B"/>
</svg>
