<svg width="24" height="24" viewBox="0 0 24 24" fill="none" xmlns="http://www.w3.org/2000/svg">
<path fill-rule="evenodd" clip-rule="evenodd" d="M6 2.25C3.37665 2.25 1.25 4.37665 1.25 7V17C1.25 19.6233 3.37664 21.75 6 21.75H6.53989C6.55337 21.7504 6.56682 21.7504 6.58024 21.75H18C20.6233 21.75 22.75 19.6233 22.75 17V14.6585C22.7507 14.6392 22.7508 14.6197 22.75 14.6003V7C22.75 4.37664 20.6233 2.25 18 2.25H6ZM21.25 12.361V7C21.25 5.20508 19.7949 3.75 18 3.75H6C4.20507 3.75 2.75 5.20507 2.75 7V17C2.75 18.7949 4.20508 20.25 6 20.25H6.08178C7.41303 17.4039 8.70458 15.0993 9.98045 13.3536C11.3135 11.5297 12.6762 10.2505 14.112 9.64309C15.5971 9.01488 17.0859 9.13733 18.5317 9.96032C19.4578 10.4875 20.3599 11.2971 21.25 12.361ZM7.74151 20.25H18C19.7949 20.25 21.25 18.7949 21.25 17V14.8585C20.015 13.044 18.8634 11.8752 17.7896 11.2639C16.7194 10.6547 15.7201 10.5915 14.6964 11.0246C13.6235 11.4784 12.4569 12.5073 11.1915 14.2387C10.0861 15.7512 8.94077 17.7503 7.74151 20.25ZM5.24999 8.99996C5.24999 7.48118 6.48121 6.24996 7.99999 6.24996C9.51877 6.24996 10.75 7.48118 10.75 8.99996C10.75 10.5188 9.51877 11.75 7.99999 11.75C6.48121 11.75 5.24999 10.5188 5.24999 8.99996ZM7.99999 7.74996C7.30963 7.74996 6.74999 8.3096 6.74999 8.99996C6.74999 9.69034 7.30963 10.25 7.99999 10.25C8.69035 10.25 9.24999 9.69034 9.24999 8.99996C9.24999 8.3096 8.69035 7.74996 7.99999 7.74996Z" fill="black"/>
</svg>
