<svg width="20" height="20" viewBox="0 0 20 20" fill="none" xmlns="http://www.w3.org/2000/svg">
<path d="M2.5 17.5V5.83333H5.83333V2.5H14.1667V9.16667H17.5V17.5H10.8333V14.1667H9.16667V17.5H2.5ZM4.16667 15.8333H5.83333V14.1667H4.16667V15.8333ZM4.16667 12.5H5.83333V10.8333H4.16667V12.5ZM4.16667 9.16667H5.83333V7.5H4.16667V9.16667ZM7.5 12.5H9.16667V10.8333H7.5V12.5ZM7.5 9.16667H9.16667V7.5H7.5V9.16667ZM7.5 5.83333H9.16667V4.16667H7.5V5.83333ZM10.8333 12.5H12.5V10.8333H10.8333V12.5ZM10.8333 9.16667H12.5V7.5H10.8333V9.16667ZM10.8333 5.83333H12.5V4.16667H10.8333V5.83333ZM14.1667 15.8333H15.8333V14.1667H14.1667V15.8333ZM14.1667 12.5H15.8333V10.8333H14.1667V12.5Z" fill="#B09676"/>
</svg>
