<svg width="20" height="20" viewBox="0 0 20 20" fill="none" xmlns="http://www.w3.org/2000/svg">
<path d="M17.4974 8.33333H5.83073V5.83333C5.83073 4.91417 6.57823 4.16667 7.4974 4.16667C8.41656 4.16667 9.16406 4.91417 9.16406 5.83333H10.8307C10.8307 3.995 9.33573 2.5 7.4974 2.5C5.65906 2.5 4.16406 3.995 4.16406 5.83333V8.33333H2.4974C2.27638 8.33333 2.06442 8.42113 1.90814 8.57741C1.75186 8.73369 1.66406 8.94565 1.66406 9.16667V10.8333C1.66406 13.005 3.05906 14.8525 4.9974 15.5417V18.3333H6.66406V15.8333H13.3307V18.3333H14.9974V15.5417C16.9357 14.8525 18.3307 13.005 18.3307 10.8333V9.16667C18.3307 8.94565 18.2429 8.73369 18.0867 8.57741C17.9304 8.42113 17.7184 8.33333 17.4974 8.33333ZM16.6641 10.8333C16.6641 12.6717 15.1691 14.1667 13.3307 14.1667H6.66406C4.82573 14.1667 3.33073 12.6717 3.33073 10.8333V10H16.6641V10.8333Z" fill="#B09676"/>
</svg>
