<svg width="20" height="20" viewBox="0 0 20 20" fill="none" xmlns="http://www.w3.org/2000/svg">
<path d="M17.4974 8.98268V6.66602C17.4974 5.29102 16.3724 4.16602 14.9974 4.16602H11.6641C11.0224 4.16602 10.4391 4.41602 9.9974 4.81602C9.55573 4.41602 8.9724 4.16602 8.33073 4.16602H4.9974C3.6224 4.16602 2.4974 5.29102 2.4974 6.66602V8.98268C1.98906 9.44102 1.66406 10.0994 1.66406 10.8327V15.8327H3.33073V14.166H16.6641V15.8327H18.3307V10.8327C18.3307 10.0994 18.0057 9.44102 17.4974 8.98268ZM11.6641 5.83268H14.9974C15.4557 5.83268 15.8307 6.20768 15.8307 6.66602V8.33268H10.8307V6.66602C10.8307 6.20768 11.2057 5.83268 11.6641 5.83268ZM4.16406 6.66602C4.16406 6.20768 4.53906 5.83268 4.9974 5.83268H8.33073C8.78906 5.83268 9.16406 6.20768 9.16406 6.66602V8.33268H4.16406V6.66602ZM3.33073 12.4994V10.8327C3.33073 10.3744 3.70573 9.99935 4.16406 9.99935H15.8307C16.2891 9.99935 16.6641 10.3744 16.6641 10.8327V12.4994H3.33073Z" fill="#B09676"/>
</svg>
