<svg width="17" height="17" viewBox="0 0 17 17" fill="none" xmlns="http://www.w3.org/2000/svg">
<path d="M8.125 0C3.63672 0 0 3.63672 0 8.125C0 12.6133 3.63672 16.25 8.125 16.25C12.6133 16.25 16.25 12.6133 16.25 8.125C16.25 3.63672 12.6133 0 8.125 0ZM11.9531 5.80469L7.26562 10.4922C7.19531 10.5625 7.10156 10.5977 7.00781 10.5977C6.91406 10.5977 6.82031 10.5625 6.75 10.4922L4.29688 8.03906C4.15625 7.89844 4.15625 7.66406 4.29688 7.52344L4.94531 6.875C5.08594 6.73438 5.32031 6.73438 5.46094 6.875L7.00781 8.4219L10.7891 4.64062C10.9297 4.5 11.1641 4.5 11.3047 4.64062L11.9531 5.28906C12.0938 5.42969 12.0938 5.66406 11.9531 5.80469Z" fill="#B09676"/>
</svg>
