<svg width="20" height="20" viewBox="0 0 20 20" fill="none" xmlns="http://www.w3.org/2000/svg">
<path d="M3.33268 18.3337C2.87435 18.3337 2.48199 18.1705 2.1556 17.8441C1.82921 17.5177 1.66602 17.1253 1.66602 16.667V6.66699C1.66602 6.20866 1.82921 5.8163 2.1556 5.48991C2.48199 5.16352 2.87435 5.00033 3.33268 5.00033H6.66602V3.33366C6.66602 2.87533 6.82921 2.48296 7.1556 2.15658C7.48199 1.83019 7.87435 1.66699 8.33268 1.66699H11.666C12.1244 1.66699 12.5167 1.83019 12.8431 2.15658C13.1695 2.48296 13.3327 2.87533 13.3327 3.33366V5.00033H16.666C17.1244 5.00033 17.5167 5.16352 17.8431 5.48991C18.1695 5.8163 18.3327 6.20866 18.3327 6.66699V16.667C18.3327 17.1253 18.1695 17.5177 17.8431 17.8441C17.5167 18.1705 17.1244 18.3337 16.666 18.3337H3.33268ZM3.33268 16.667H16.666V6.66699H3.33268V16.667ZM8.33268 5.00033H11.666V3.33366H8.33268V5.00033ZM9.16602 12.5003V15.0003H10.8327V12.5003H13.3327V10.8337H10.8327V8.33366H9.16602V10.8337H6.66602V12.5003H9.16602Z" fill="#595959"/>
</svg>
