<svg width="20" height="20" viewBox="0 0 20 20" fill="none" xmlns="http://www.w3.org/2000/svg">
<path d="M1.66602 15.8337V10.8337C1.66602 10.4587 1.7424 10.1184 1.89518 9.81283C2.04796 9.50727 2.24935 9.23644 2.49935 9.00033V6.66699C2.49935 5.97255 2.7424 5.38227 3.22852 4.89616C3.71463 4.41005 4.3049 4.16699 4.99935 4.16699H8.33268C8.65213 4.16699 8.95074 4.22602 9.22852 4.34408C9.50629 4.46213 9.76324 4.62533 9.99935 4.83366C10.2355 4.62533 10.4924 4.46213 10.7702 4.34408C11.048 4.22602 11.3466 4.16699 11.666 4.16699H14.9994C15.6938 4.16699 16.2841 4.41005 16.7702 4.89616C17.2563 5.38227 17.4994 5.97255 17.4994 6.66699V9.00033C17.7494 9.23644 17.9507 9.50727 18.1035 9.81283C18.2563 10.1184 18.3327 10.4587 18.3327 10.8337V15.8337H16.666V14.167H3.33268V15.8337H1.66602ZM10.8327 8.33366H15.8327V6.66699C15.8327 6.43088 15.7528 6.23296 15.5931 6.07324C15.4334 5.91352 15.2355 5.83366 14.9994 5.83366H11.666C11.4299 5.83366 11.232 5.91352 11.0723 6.07324C10.9125 6.23296 10.8327 6.43088 10.8327 6.66699V8.33366ZM4.16602 8.33366H9.16602V6.66699C9.16602 6.43088 9.08616 6.23296 8.92643 6.07324C8.76671 5.91352 8.56879 5.83366 8.33268 5.83366H4.99935C4.76324 5.83366 4.56532 5.91352 4.4056 6.07324C4.24588 6.23296 4.16602 6.43088 4.16602 6.66699V8.33366ZM3.33268 12.5003H16.666V10.8337C16.666 10.5975 16.5862 10.3996 16.4264 10.2399C16.2667 10.0802 16.0688 10.0003 15.8327 10.0003H4.16602C3.9299 10.0003 3.73199 10.0802 3.57227 10.2399C3.41254 10.3996 3.33268 10.5975 3.33268 10.8337V12.5003Z" fill="#595959"/>
</svg>
