<svg width="32" height="33" viewBox="0 0 32 33" fill="none" xmlns="http://www.w3.org/2000/svg">
<g clip-path="url(#clip0_295_11615)">
<path d="M29.6378 0.230469H2.36222C1.73572 0.230469 1.13488 0.479345 0.691879 0.922348C0.248877 1.36535 0 1.96619 0 2.59269V29.8682C0 30.4947 0.248877 31.0956 0.691879 31.5386C1.13488 31.9816 1.73572 32.2305 2.36222 32.2305H29.6378C30.2643 32.2305 30.8651 31.9816 31.3081 31.5386C31.7511 31.0956 32 30.4947 32 29.8682V2.59269C32 1.96619 31.7511 1.36535 31.3081 0.922348C30.8651 0.479345 30.2643 0.230469 29.6378 0.230469ZM9.53778 27.4905H4.72667V12.2082H9.53778V27.4905ZM7.12889 10.0905C6.58315 10.0874 6.05055 9.92273 5.59831 9.61725C5.14607 9.31178 4.79445 8.87918 4.58784 8.37405C4.38122 7.86893 4.32886 7.31392 4.43738 6.77908C4.54589 6.24423 4.8104 5.7535 5.19754 5.36884C5.58468 4.98418 6.07709 4.72283 6.61262 4.61775C7.14816 4.51267 7.70282 4.56859 8.2066 4.77845C8.71039 4.98831 9.14072 5.34269 9.44329 5.79689C9.74585 6.25108 9.9071 6.78472 9.90667 7.33047C9.91182 7.69585 9.84335 8.05852 9.70535 8.39688C9.56735 8.73523 9.36264 9.04234 9.10343 9.29989C8.84421 9.55745 8.5358 9.76018 8.19657 9.896C7.85733 10.0318 7.49423 10.098 7.12889 10.0905ZM27.2711 27.5038H22.4622V19.1549C22.4622 16.6927 21.4156 15.9327 20.0644 15.9327C18.6378 15.9327 17.2378 17.0082 17.2378 19.2171V27.5038H12.4267V12.2194H17.0533V14.3371H17.1156C17.58 13.3971 19.2067 11.7905 21.6889 11.7905C24.3733 11.7905 27.2733 13.3838 27.2733 18.0505L27.2711 27.5038Z" fill="#0A66C2"/>
</g>
<defs>
<clipPath id="clip0_295_11615">
<rect width="32" height="32" fill="white" transform="translate(0 0.230469)"/>
</clipPath>
</defs>
</svg>
