<svg width="32" height="33" viewBox="0 0 32 33" fill="none" xmlns="http://www.w3.org/2000/svg">
<g clip-path="url(#clip0_295_11616)">
<path d="M16 2.99648C20.275 2.99648 20.7813 3.01523 22.4625 3.09023C24.025 3.15898 24.8688 3.42148 25.4313 3.64023C26.175 3.92773 26.7125 4.27773 27.2688 4.83398C27.8313 5.39648 28.175 5.92773 28.4625 6.67148C28.6813 7.23398 28.9438 8.08398 29.0125 9.64023C29.0875 11.3277 29.1063 11.834 29.1063 16.1027C29.1063 20.3777 29.0875 20.884 29.0125 22.5652C28.9438 24.1277 28.6813 24.9715 28.4625 25.534C28.175 26.2777 27.825 26.8152 27.2688 27.3715C26.7063 27.934 26.175 28.2777 25.4313 28.5652C24.8688 28.784 24.0188 29.0465 22.4625 29.1152C20.775 29.1902 20.2688 29.209 16 29.209C11.725 29.209 11.2188 29.1902 9.5375 29.1152C7.975 29.0465 7.13125 28.784 6.56875 28.5652C5.825 28.2777 5.2875 27.9277 4.73125 27.3715C4.16875 26.809 3.825 26.2777 3.5375 25.534C3.31875 24.9715 3.05625 24.1215 2.9875 22.5652C2.9125 20.8777 2.89375 20.3715 2.89375 16.1027C2.89375 11.8277 2.9125 11.3215 2.9875 9.64023C3.05625 8.07773 3.31875 7.23398 3.5375 6.67148C3.825 5.92773 4.175 5.39023 4.73125 4.83398C5.29375 4.27148 5.825 3.92773 6.56875 3.64023C7.13125 3.42148 7.98125 3.15898 9.5375 3.09023C11.2188 3.01523 11.725 2.99648 16 2.99648ZM16 0.115234C11.6563 0.115234 11.1125 0.133984 9.40625 0.208984C7.70625 0.283984 6.5375 0.558984 5.525 0.952734C4.46875 1.36523 3.575 1.90898 2.6875 2.80273C1.79375 3.69023 1.25 4.58398 0.8375 5.63399C0.44375 6.65274 0.16875 7.81523 0.09375 9.51523C0.01875 11.2277 0 11.7715 0 16.1152C0 20.459 0.01875 21.0027 0.09375 22.709C0.16875 24.409 0.44375 25.5777 0.8375 26.5902C1.25 27.6465 1.79375 28.5402 2.6875 29.4277C3.575 30.3152 4.46875 30.8652 5.51875 31.2715C6.5375 31.6652 7.7 31.9402 9.4 32.0152C11.1063 32.0902 11.65 32.109 15.9938 32.109C20.3375 32.109 20.8813 32.0902 22.5875 32.0152C24.2875 31.9402 25.4563 31.6652 26.4688 31.2715C27.5188 30.8652 28.4125 30.3152 29.3 29.4277C30.1875 28.5402 30.7375 27.6465 31.1438 26.5965C31.5375 25.5777 31.8125 24.4152 31.8875 22.7152C31.9625 21.009 31.9813 20.4652 31.9813 16.1215C31.9813 11.7777 31.9625 11.234 31.8875 9.52773C31.8125 7.82773 31.5375 6.65898 31.1438 5.64648C30.75 4.58398 30.2063 3.69023 29.3125 2.80273C28.425 1.91523 27.5313 1.36523 26.4813 0.958984C25.4625 0.565234 24.3 0.290234 22.6 0.215234C20.8875 0.133984 20.3438 0.115234 16 0.115234Z" fill="#000100"/>
<path d="M16 7.89648C11.4625 7.89648 7.78125 11.5777 7.78125 16.1152C7.78125 20.6527 11.4625 24.334 16 24.334C20.5375 24.334 24.2188 20.6527 24.2188 16.1152C24.2188 11.5777 20.5375 7.89648 16 7.89648ZM16 21.4465C13.0563 21.4465 10.6687 19.059 10.6687 16.1152C10.6687 13.1715 13.0563 10.784 16 10.784C18.9438 10.784 21.3312 13.1715 21.3312 16.1152C21.3312 19.059 18.9438 21.4465 16 21.4465Z" fill="#000100"/>
<path d="M26.4625 7.5711C26.4625 8.6336 25.6 9.48985 24.5438 9.48985C23.4813 9.48985 22.625 8.62735 22.625 7.5711C22.625 6.5086 23.4875 5.65234 24.5438 5.65234C25.6 5.65234 26.4625 6.51485 26.4625 7.5711Z" fill="#000100"/>
</g>
<defs>
<clipPath id="clip0_295_11616">
<rect width="32" height="32" fill="white" transform="translate(0 0.115234)"/>
</clipPath>
</defs>
</svg>
