<svg width="16" height="13" viewBox="0 0 16 13" fill="none" xmlns="http://www.w3.org/2000/svg">
<g filter="url(#filter0_d_294_12055)">
<path d="M3.91304 7C3.55435 7 3.24728 6.85313 2.99185 6.55937C2.73641 6.26562 2.6087 5.9125 2.6087 5.5C2.6087 5.0875 2.73641 4.73438 2.99185 4.44063C3.24728 4.14688 3.55435 4 3.91304 4C4.27174 4 4.5788 4.14688 4.83424 4.44063C5.08967 4.73438 5.21739 5.0875 5.21739 5.5C5.21739 5.9125 5.08967 6.26562 4.83424 6.55937C4.5788 6.85313 4.27174 7 3.91304 7ZM3.91304 10C2.82609 10 1.90217 9.5625 1.1413 8.6875C0.380435 7.8125 0 6.75 0 5.5C0 4.25 0.380435 3.1875 1.1413 2.3125C1.90217 1.4375 2.82609 1 3.91304 1C4.6413 1 5.30163 1.20625 5.89402 1.61875C6.48641 2.03125 6.95652 2.575 7.30435 3.25H13.0435L15 5.5L12.0652 8.875L10.7609 7.75L9.45652 8.875L8.07065 7.75H7.30435C6.95652 8.425 6.48641 8.96875 5.89402 9.38125C5.30163 9.79375 4.6413 10 3.91304 10ZM3.91304 8.5C4.52174 8.5 5.05707 8.2875 5.51902 7.8625C5.98098 7.4375 6.28804 6.9 6.44022 6.25H8.47826L9.42391 7.01875L10.7609 5.875L11.9185 6.90625L13.1413 5.5L12.4891 4.75H6.44022C6.28804 4.1 5.98098 3.5625 5.51902 3.1375C5.05707 2.7125 4.52174 2.5 3.91304 2.5C3.19565 2.5 2.58152 2.79375 2.07065 3.38125C1.55978 3.96875 1.30435 4.675 1.30435 5.5C1.30435 6.325 1.55978 7.03125 2.07065 7.61875C2.58152 8.20625 3.19565 8.5 3.91304 8.5Z" fill="white"/>
</g>
<defs>
<filter id="filter0_d_294_12055" x="-2" y="0" width="19" height="13" filterUnits="userSpaceOnUse" color-interpolation-filters="sRGB">
<feFlood flood-opacity="0" result="BackgroundImageFix"/>
<feColorMatrix in="SourceAlpha" type="matrix" values="0 0 0 0 0 0 0 0 0 0 0 0 0 0 0 0 0 0 127 0" result="hardAlpha"/>
<feOffset dy="1"/>
<feGaussianBlur stdDeviation="1"/>
<feComposite in2="hardAlpha" operator="out"/>
<feColorMatrix type="matrix" values="0 0 0 0 0.181829 0 0 0 0 0.387265 0 0 0 0 0.176562 0 0 0 1 0"/>
<feBlend mode="normal" in2="BackgroundImageFix" result="effect1_dropShadow_294_12055"/>
<feBlend mode="normal" in="SourceGraphic" in2="effect1_dropShadow_294_12055" result="shape"/>
</filter>
</defs>
</svg>
