<svg width="16" height="16" viewBox="0 0 16 16" fill="none" xmlns="http://www.w3.org/2000/svg">
<g clip-path="url(#clip0_288_10746)">
<g filter="url(#filter0_d_288_10746)">
<path fill-rule="evenodd" clip-rule="evenodd" d="M3.99961 1.59961C4.21178 1.59961 4.41527 1.68389 4.56529 1.83392C4.71532 1.98395 4.79961 2.18744 4.79961 2.39961V3.19961H5.59961C5.81178 3.19961 6.01527 3.28389 6.16529 3.43392C6.31532 3.58395 6.39961 3.78744 6.39961 3.99961C6.39961 4.21178 6.31532 4.41527 6.16529 4.56529C6.01527 4.71532 5.81178 4.79961 5.59961 4.79961H4.79961V5.59961C4.79961 5.81178 4.71532 6.01527 4.56529 6.16529C4.41527 6.31532 4.21178 6.39961 3.99961 6.39961C3.78744 6.39961 3.58395 6.31532 3.43392 6.16529C3.2839 6.01527 3.19961 5.81178 3.19961 5.59961V4.79961H2.39961C2.18744 4.79961 1.98395 4.71532 1.83392 4.56529C1.68389 4.41527 1.59961 4.21178 1.59961 3.99961C1.59961 3.78744 1.68389 3.58395 1.83392 3.43392C1.98395 3.28389 2.18744 3.19961 2.39961 3.19961H3.19961V2.39961C3.19961 2.18744 3.2839 1.98395 3.43392 1.83392C3.58395 1.68389 3.78744 1.59961 3.99961 1.59961ZM3.99961 9.59961C4.21178 9.59961 4.41527 9.68389 4.56529 9.83392C4.71532 9.98395 4.79961 10.1874 4.79961 10.3996V11.1996H5.59961C5.81178 11.1996 6.01527 11.2839 6.16529 11.4339C6.31532 11.584 6.39961 11.7874 6.39961 11.9996C6.39961 12.2118 6.31532 12.4153 6.16529 12.5653C6.01527 12.7153 5.81178 12.7996 5.59961 12.7996H4.79961V13.5996C4.79961 13.8118 4.71532 14.0153 4.56529 14.1653C4.41527 14.3153 4.21178 14.3996 3.99961 14.3996C3.78744 14.3996 3.58395 14.3153 3.43392 14.1653C3.2839 14.0153 3.19961 13.8118 3.19961 13.5996V12.7996H2.39961C2.18744 12.7996 1.98395 12.7153 1.83392 12.5653C1.68389 12.4153 1.59961 12.2118 1.59961 11.9996C1.59961 11.7874 1.68389 11.584 1.83392 11.4339C1.98395 11.2839 2.18744 11.1996 2.39961 11.1996H3.19961V10.3996C3.19961 10.1874 3.2839 9.98395 3.43392 9.83392C3.58395 9.68389 3.78744 9.59961 3.99961 9.59961ZM9.59961 1.59961C9.77616 1.59955 9.94777 1.6579 10.0877 1.76556C10.2276 1.87322 10.328 2.02414 10.3732 2.19481L11.3164 5.75961L13.9996 7.30681C14.1212 7.37703 14.2222 7.47802 14.2924 7.59963C14.3626 7.72124 14.3996 7.85919 14.3996 7.99961C14.3996 8.14003 14.3626 8.27798 14.2924 8.39959C14.2222 8.5212 14.1212 8.62219 13.9996 8.69241L11.3164 10.2404L10.3724 13.8044C10.3271 13.9749 10.2268 14.1257 10.0869 14.2332C9.94709 14.3408 9.77562 14.3991 9.59921 14.3991C9.4228 14.3991 9.25133 14.3408 9.11149 14.2332C8.97166 14.1257 8.87129 13.9749 8.82601 13.8044L7.88281 10.2396L5.19961 8.69241C5.078 8.62219 4.97702 8.5212 4.90681 8.39959C4.83661 8.27798 4.79964 8.14003 4.79964 7.99961C4.79964 7.85919 4.83661 7.72124 4.90681 7.59963C4.97702 7.47802 5.078 7.37703 5.19961 7.30681L7.88281 5.75881L8.82681 2.19481C8.87197 2.02427 8.97224 1.87345 9.112 1.7658C9.25177 1.65816 9.4232 1.59973 9.59961 1.59961Z" fill="white"/>
</g>
</g>
<defs>
<filter id="filter0_d_288_10746" x="-0.400391" y="0.599609" width="16.8008" height="16.8008" filterUnits="userSpaceOnUse" color-interpolation-filters="sRGB">
<feFlood flood-opacity="0" result="BackgroundImageFix"/>
<feColorMatrix in="SourceAlpha" type="matrix" values="0 0 0 0 0 0 0 0 0 0 0 0 0 0 0 0 0 0 127 0" result="hardAlpha"/>
<feOffset dy="1"/>
<feGaussianBlur stdDeviation="1"/>
<feComposite in2="hardAlpha" operator="out"/>
<feColorMatrix type="matrix" values="0 0 0 0 0.362788 0 0 0 0 0.297223 0 0 0 0 0.216527 0 0 0 1 0"/>
<feBlend mode="normal" in2="BackgroundImageFix" result="effect1_dropShadow_288_10746"/>
<feBlend mode="normal" in="SourceGraphic" in2="effect1_dropShadow_288_10746" result="shape"/>
</filter>
<clipPath id="clip0_288_10746">
<rect width="16" height="16" fill="white"/>
</clipPath>
</defs>
</svg>
