<svg width="20" height="20" viewBox="0 0 20 20" fill="none" xmlns="http://www.w3.org/2000/svg">
<path d="M1.66602 17.4997V3.95801L5.83268 0.833008L9.99935 3.95801V5.83301H18.3327V17.4997H1.66602ZM3.33268 15.833H4.99935V14.1663H3.33268V15.833ZM3.33268 12.4997H4.99935V10.833H3.33268V12.4997ZM3.33268 9.16634H4.99935V7.49967H3.33268V9.16634ZM3.33268 5.83301H4.99935V4.16634H3.33268V5.83301ZM6.66602 5.83301H8.33268V4.16634H6.66602V5.83301ZM6.66602 15.833H16.666V7.49967H6.66602V15.833ZM11.666 10.833V9.16634H14.9994V10.833H11.666ZM11.666 14.1663V12.4997H14.9994V14.1663H11.666ZM8.33268 10.833V9.16634H9.99935V10.833H8.33268ZM8.33268 14.1663V12.4997H9.99935V14.1663H8.33268Z" fill="#595959"/>
</svg>
