<svg width="16" height="16" viewBox="0 0 16 16" fill="none" xmlns="http://www.w3.org/2000/svg">
<path fill-rule="evenodd" clip-rule="evenodd" d="M4.00156 1.59961C4.21374 1.59961 4.41722 1.68389 4.56725 1.83392C4.71728 1.98395 4.80156 2.18744 4.80156 2.39961V3.19961H5.60156C5.81374 3.19961 6.01722 3.28389 6.16725 3.43392C6.31728 3.58395 6.40156 3.78744 6.40156 3.99961C6.40156 4.21178 6.31728 4.41527 6.16725 4.56529C6.01722 4.71532 5.81374 4.79961 5.60156 4.79961H4.80156V5.59961C4.80156 5.81178 4.71728 6.01527 4.56725 6.16529C4.41722 6.31532 4.21374 6.39961 4.00156 6.39961C3.78939 6.39961 3.58591 6.31532 3.43588 6.16529C3.28585 6.01527 3.20156 5.81178 3.20156 5.59961V4.79961H2.40156C2.18939 4.79961 1.98591 4.71532 1.83588 4.56529C1.68585 4.41527 1.60156 4.21178 1.60156 3.99961C1.60156 3.78744 1.68585 3.58395 1.83588 3.43392C1.98591 3.28389 2.18939 3.19961 2.40156 3.19961H3.20156V2.39961C3.20156 2.18744 3.28585 1.98395 3.43588 1.83392C3.58591 1.68389 3.78939 1.59961 4.00156 1.59961ZM4.00156 9.59961C4.21374 9.59961 4.41722 9.68389 4.56725 9.83392C4.71728 9.98395 4.80156 10.1874 4.80156 10.3996V11.1996H5.60156C5.81374 11.1996 6.01722 11.2839 6.16725 11.4339C6.31728 11.584 6.40156 11.7874 6.40156 11.9996C6.40156 12.2118 6.31728 12.4153 6.16725 12.5653C6.01722 12.7153 5.81374 12.7996 5.60156 12.7996H4.80156V13.5996C4.80156 13.8118 4.71728 14.0153 4.56725 14.1653C4.41722 14.3153 4.21374 14.3996 4.00156 14.3996C3.78939 14.3996 3.58591 14.3153 3.43588 14.1653C3.28585 14.0153 3.20156 13.8118 3.20156 13.5996V12.7996H2.40156C2.18939 12.7996 1.98591 12.7153 1.83588 12.5653C1.68585 12.4153 1.60156 12.2118 1.60156 11.9996C1.60156 11.7874 1.68585 11.584 1.83588 11.4339C1.98591 11.2839 2.18939 11.1996 2.40156 11.1996H3.20156V10.3996C3.20156 10.1874 3.28585 9.98395 3.43588 9.83392C3.58591 9.68389 3.78939 9.59961 4.00156 9.59961ZM9.60156 1.59961C9.77811 1.59955 9.94973 1.6579 10.0897 1.76556C10.2296 1.87322 10.33 2.02414 10.3752 2.19481L11.3184 5.75961L14.0016 7.30681C14.1232 7.37703 14.2241 7.47802 14.2944 7.59963C14.3646 7.72124 14.4015 7.85919 14.4015 7.99961C14.4015 8.14003 14.3646 8.27798 14.2944 8.39959C14.2241 8.5212 14.1232 8.62219 14.0016 8.69241L11.3184 10.2404L10.3744 13.8044C10.3291 13.9749 10.2287 14.1257 10.0889 14.2332C9.94904 14.3408 9.77758 14.3991 9.60116 14.3991C9.42475 14.3991 9.25328 14.3408 9.11345 14.2332C8.97361 14.1257 8.87324 13.9749 8.82796 13.8044L7.88476 10.2396L5.20156 8.69241C5.07996 8.62219 4.97898 8.5212 4.90877 8.39959C4.83856 8.27798 4.8016 8.14003 4.8016 7.99961C4.8016 7.85919 4.83856 7.72124 4.90877 7.59963C4.97898 7.47802 5.07996 7.37703 5.20156 7.30681L7.88476 5.75881L8.82876 2.19481C8.87392 2.02427 8.97419 1.87345 9.11396 1.7658C9.25372 1.65816 9.42515 1.59973 9.60156 1.59961Z" fill="white"/>
</svg>
