<svg width="24" height="25" viewBox="0 0 24 25" fill="none" xmlns="http://www.w3.org/2000/svg">
<path d="M18.875 10.6243C19.3341 10.6243 19.7106 10.9779 19.7471 11.4275L19.75 11.4993V18.6243C19.75 20.1752 18.522 21.4393 16.9853 21.4972L16.875 21.4993H7.125C5.57411 21.4993 4.31003 20.2713 4.25208 18.7346L4.25 18.6243V11.4993C4.25 11.0161 4.64175 10.6243 5.125 10.6243C5.58409 10.6243 5.9606 10.9779 5.9971 11.4275L6 11.4993V18.6243C6 19.2197 6.46258 19.7071 7.04798 19.7467L7.125 19.7493H16.875C17.4704 19.7493 17.9578 19.2867 17.9974 18.7013L18 18.6243V11.4993C18 11.0161 18.3918 10.6243 18.875 10.6243ZM11.7495 3.63324L11.8239 3.62579L11.9113 3.625L11.9885 3.6315L12.0775 3.64764L12.1119 3.65676C12.2096 3.68372 12.3035 3.7282 12.3887 3.78993L12.4484 3.83744L12.4949 3.88058L16.384 7.76967C16.7257 8.11138 16.7257 8.6654 16.384 9.00711C16.0624 9.32871 15.5527 9.34763 15.209 9.06386L15.1466 9.00711L12.75 6.6103V16.2493C12.75 16.7084 12.3964 17.0849 11.9468 17.1214L11.875 17.1243C11.4159 17.1243 11.0394 16.7707 11.0029 16.3211L11 16.2493V6.6123L8.60582 9.00711C8.28422 9.32871 7.77454 9.34763 7.43081 9.06386L7.36839 9.00711C7.04678 8.6855 7.02786 8.17582 7.31163 7.83209L7.36839 7.76967L11.2444 3.89269C11.2723 3.86366 11.3023 3.83655 11.334 3.81158L11.3906 3.7712C11.4095 3.75792 11.4292 3.74586 11.4494 3.73458L11.4588 3.72999C11.5474 3.68141 11.6455 3.64818 11.7495 3.63324Z" fill="#1B393B"/>
</svg>
