<svg width="16" height="16" viewBox="0 0 16 16" fill="none" xmlns="http://www.w3.org/2000/svg">
<g filter="url(#filter0_d_294_12059)">
<path d="M5.33333 1.42857V0H9.66667V1.42857H5.33333ZM6.77778 9.28572H8.22222V5H6.77778V9.28572ZM7.5 15C6.60926 15 5.76968 14.8304 4.98125 14.4911C4.19282 14.1518 3.5037 13.6905 2.91389 13.1071C2.32407 12.5238 1.85764 11.8423 1.51458 11.0625C1.17153 10.2827 1 9.45238 1 8.57143C1 7.69048 1.17153 6.86012 1.51458 6.08036C1.85764 5.3006 2.32407 4.61905 2.91389 4.03571C3.5037 3.45238 4.19282 2.99107 4.98125 2.65179C5.76968 2.3125 6.60926 2.14286 7.5 2.14286C8.2463 2.14286 8.9625 2.2619 9.64861 2.5C10.3347 2.7381 10.9787 3.08333 11.5806 3.53571L12.5917 2.53571L13.6028 3.53571L12.5917 4.53571C13.0491 5.13095 13.3981 5.76786 13.6389 6.44643C13.8796 7.125 14 7.83333 14 8.57143C14 9.45238 13.8285 10.2827 13.4854 11.0625C13.1424 11.8423 12.6759 12.5238 12.0861 13.1071C11.4963 13.6905 10.8072 14.1518 10.0188 14.4911C9.23032 14.8304 8.39074 15 7.5 15ZM7.5 13.5714C8.8963 13.5714 10.088 13.0833 11.075 12.1071C12.062 11.131 12.5556 9.95238 12.5556 8.57143C12.5556 7.19048 12.062 6.01191 11.075 5.03571C10.088 4.05952 8.8963 3.57143 7.5 3.57143C6.1037 3.57143 4.91204 4.05952 3.925 5.03571C2.93796 6.01191 2.44444 7.19048 2.44444 8.57143C2.44444 9.95238 2.93796 11.131 3.925 12.1071C4.91204 13.0833 6.1037 13.5714 7.5 13.5714Z" fill="white"/>
</g>
<defs>
<filter id="filter0_d_294_12059" x="-1" y="-1" width="17" height="19" filterUnits="userSpaceOnUse" color-interpolation-filters="sRGB">
<feFlood flood-opacity="0" result="BackgroundImageFix"/>
<feColorMatrix in="SourceAlpha" type="matrix" values="0 0 0 0 0 0 0 0 0 0 0 0 0 0 0 0 0 0 127 0" result="hardAlpha"/>
<feOffset dy="1"/>
<feGaussianBlur stdDeviation="1"/>
<feComposite in2="hardAlpha" operator="out"/>
<feColorMatrix type="matrix" values="0 0 0 0 0.476936 0 0 0 0 0.400447 0 0 0 0 0.306308 0 0 0 1 0"/>
<feBlend mode="normal" in2="BackgroundImageFix" result="effect1_dropShadow_294_12059"/>
<feBlend mode="normal" in="SourceGraphic" in2="effect1_dropShadow_294_12059" result="shape"/>
</filter>
</defs>
</svg>
