<svg width="20" height="20" viewBox="0 0 20 20" fill="none" xmlns="http://www.w3.org/2000/svg">
<path d="M2.49935 5.83366V2.50033L5.83268 4.16699L2.49935 5.83366ZM14.9994 5.83366V2.50033L18.3327 4.16699L14.9994 5.83366ZM9.16602 5.00033V1.66699L12.4994 3.33366L9.16602 5.00033ZM9.16602 18.3337C8.11046 18.3059 7.12782 18.2191 6.2181 18.0732C5.30838 17.9274 4.51671 17.7434 3.8431 17.5212C3.16949 17.2989 2.63824 17.042 2.24935 16.7503C1.86046 16.4587 1.66602 16.1531 1.66602 15.8337V8.33366C1.66602 7.98644 1.88477 7.66352 2.32227 7.36491C2.75977 7.0663 3.35352 6.80241 4.10352 6.57324C4.85352 6.34408 5.73546 6.16352 6.74935 6.03158C7.76324 5.89963 8.84657 5.83366 9.99935 5.83366C11.1521 5.83366 12.2355 5.89963 13.2494 6.03158C14.2632 6.16352 15.1452 6.34408 15.8952 6.57324C16.6452 6.80241 17.2389 7.0663 17.6764 7.36491C18.1139 7.66352 18.3327 7.98644 18.3327 8.33366V15.8337C18.3327 16.1531 18.1382 16.4587 17.7494 16.7503C17.3605 17.042 16.8292 17.2989 16.1556 17.5212C15.482 17.7434 14.6903 17.9274 13.7806 18.0732C12.8709 18.2191 11.8882 18.3059 10.8327 18.3337V15.0003H9.16602V18.3337ZM9.99935 9.16699C11.3466 9.16699 12.5098 9.08713 13.4889 8.92741C14.4681 8.76769 15.2494 8.58366 15.8327 8.37533C15.8327 8.30588 15.3049 8.14269 14.2494 7.88574C13.1938 7.6288 11.7771 7.50033 9.99935 7.50033C8.22157 7.50033 6.80491 7.6288 5.74935 7.88574C4.69379 8.14269 4.16602 8.30588 4.16602 8.37533C4.74935 8.58366 5.5306 8.76769 6.50977 8.92741C7.48893 9.08713 8.65213 9.16699 9.99935 9.16699ZM7.49935 16.542V13.3337H12.4994V16.542C13.6105 16.4309 14.5202 16.2677 15.2285 16.0524C15.9369 15.8371 16.416 15.6462 16.666 15.4795V9.83366C15.9021 10.1392 14.9438 10.3823 13.791 10.5628C12.6382 10.7434 11.3744 10.8337 9.99935 10.8337C8.62435 10.8337 7.36046 10.7434 6.20768 10.5628C5.0549 10.3823 4.09657 10.1392 3.33268 9.83366V15.4795C3.58268 15.6462 4.06185 15.8371 4.77018 16.0524C5.47852 16.2677 6.38824 16.4309 7.49935 16.542Z" fill="#595959"/>
</svg>
