<svg width="20" height="20" viewBox="0 0 20 20" fill="none" xmlns="http://www.w3.org/2000/svg">
<path fill-rule="evenodd" clip-rule="evenodd" d="M10 2.75C9.73373 2.75 9.50362 2.84483 9.36181 2.98664L3.98664 8.36181C3.84483 8.50362 3.75 8.73373 3.75 9C3.75 9.26627 3.84483 9.49638 3.98664 9.63819L9.36181 15.0134C9.50362 15.1552 9.73373 15.25 10 15.25C10.2663 15.25 10.4964 15.1552 10.6382 15.0134L16.0134 9.63819C16.1552 9.49638 16.25 9.26627 16.25 9C16.25 8.73373 16.1552 8.50362 16.0134 8.36181L10.6382 2.98664C10.4964 2.84483 10.2663 2.75 10 2.75ZM10 1.25C10.598 1.25 11.2322 1.45937 11.6988 1.92598L17.074 7.30115C17.5406 7.76776 17.75 8.40196 17.75 9C17.75 9.59804 17.5406 10.2322 17.074 10.6988L11.6988 16.074C11.2322 16.5406 10.598 16.75 10 16.75C9.40196 16.75 8.76776 16.5406 8.30115 16.074L2.92598 10.6988C2.45937 10.2322 2.25 9.59804 2.25 9C2.25 8.40196 2.45937 7.76776 2.92598 7.30115L8.30115 1.92598C8.76776 1.45937 9.40196 1.25 10 1.25ZM1.46967 12.6415C1.76256 12.3487 2.23744 12.3487 2.53033 12.6415L6.89404 17.0053C7.18694 17.2982 7.18694 17.773 6.89404 18.0659C6.60115 18.3588 6.12628 18.3588 5.83338 18.0659L1.46967 13.7022C1.17678 13.4093 1.17678 12.9344 1.46967 12.6415ZM18.5308 13.7022C18.8237 13.4093 18.8237 12.9344 18.5308 12.6415C18.2379 12.3487 17.763 12.3487 17.4701 12.6415L13.1064 17.0053C12.8135 17.2982 12.8135 17.773 13.1064 18.0659C13.3993 18.3588 13.8742 18.3588 14.167 18.0659L18.5308 13.7022Z" fill="#B09676"/>
</svg>
