<svg width="32" height="33" viewBox="0 0 32 33" fill="none" xmlns="http://www.w3.org/2000/svg">
<g clip-path="url(#clip0_295_11613)">
<path d="M16 32.4609C24.8366 32.4609 32 25.2975 32 16.4609C32 7.62438 24.8366 0.460938 16 0.460938C7.16344 0.460938 0 7.62438 0 16.4609C0 25.2975 7.16344 32.4609 16 32.4609Z" fill="url(#paint0_linear_295_11613)"/>
<path fill-rule="evenodd" clip-rule="evenodd" d="M7.24334 16.2919C11.9077 14.2597 15.0179 12.92 16.5742 12.2727C21.0176 10.4245 21.9408 10.1035 22.5426 10.0929C22.675 10.0906 22.9709 10.1234 23.1626 10.2789C23.3245 10.4103 23.369 10.5877 23.3904 10.7122C23.4117 10.8367 23.4382 11.1204 23.4171 11.3421C23.1763 13.872 22.1344 20.0116 21.6044 22.8452C21.3801 24.0443 20.9385 24.4463 20.5109 24.4856C19.5818 24.5711 18.8762 23.8716 17.9763 23.2817C16.5681 22.3586 15.7725 21.7839 14.4056 20.8832C12.8259 19.8422 13.85 19.27 14.7503 18.335C14.9859 18.0902 19.0797 14.3666 19.1589 14.0288C19.1689 13.9865 19.1781 13.8291 19.0845 13.7459C18.9909 13.6627 18.8529 13.6912 18.7532 13.7138C18.612 13.7459 16.3624 15.2328 12.0043 18.1746C11.3658 18.613 10.7874 18.8267 10.2692 18.8155C9.69792 18.8031 8.599 18.4925 7.78206 18.2269C6.78006 17.9012 5.98369 17.729 6.05304 17.1758C6.08916 16.8877 6.48592 16.5931 7.24334 16.2919Z" fill="white"/>
</g>
<defs>
<linearGradient id="paint0_linear_295_11613" x1="16" y1="0.460938" x2="16" y2="32.2236" gradientUnits="userSpaceOnUse">
<stop stop-color="#2AABEE"/>
<stop offset="1" stop-color="#229ED9"/>
</linearGradient>
<clipPath id="clip0_295_11613">
<rect width="32" height="32" fill="white" transform="translate(0 0.460938)"/>
</clipPath>
</defs>
</svg>
