<svg width="20" height="20" viewBox="0 0 20 20" fill="none" xmlns="http://www.w3.org/2000/svg">
<path d="M5.00065 17.5003C4.76454 17.5003 4.56662 17.4205 4.4069 17.2607C4.24718 17.101 4.16732 16.9031 4.16732 16.667V14.9587C3.91732 14.6809 3.71593 14.3719 3.56315 14.0316C3.41037 13.6913 3.33398 13.3198 3.33398 12.917V5.00033C3.33398 3.84755 3.86871 3.0038 4.93815 2.46908C6.0076 1.93435 7.6951 1.66699 10.0007 1.66699C12.3895 1.66699 14.0979 1.92394 15.1257 2.43783C16.1534 2.95171 16.6673 3.80588 16.6673 5.00033V12.917C16.6673 13.3198 16.5909 13.6913 16.4382 14.0316C16.2854 14.3719 16.084 14.6809 15.834 14.9587V16.667C15.834 16.9031 15.7541 17.101 15.5944 17.2607C15.4347 17.4205 15.2368 17.5003 15.0007 17.5003H14.1673C13.9312 17.5003 13.7333 17.4205 13.5736 17.2607C13.4138 17.101 13.334 16.9031 13.334 16.667V15.8337H6.66732V16.667C6.66732 16.9031 6.58746 17.101 6.42773 17.2607C6.26801 17.4205 6.0701 17.5003 5.83398 17.5003H5.00065ZM10.0423 4.16699H14.709H5.37565H10.0423ZM13.334 10.0003H5.00065H15.0007H13.334ZM5.00065 8.33366H15.0007V5.83366H5.00065V8.33366ZM7.08398 13.3337C7.43121 13.3337 7.72635 13.2121 7.9694 12.9691C8.21246 12.726 8.33398 12.4309 8.33398 12.0837C8.33398 11.7364 8.21246 11.4413 7.9694 11.1982C7.72635 10.9552 7.43121 10.8337 7.08398 10.8337C6.73676 10.8337 6.44162 10.9552 6.19857 11.1982C5.95551 11.4413 5.83398 11.7364 5.83398 12.0837C5.83398 12.4309 5.95551 12.726 6.19857 12.9691C6.44162 13.2121 6.73676 13.3337 7.08398 13.3337ZM12.9173 13.3337C13.2645 13.3337 13.5597 13.2121 13.8027 12.9691C14.0458 12.726 14.1673 12.4309 14.1673 12.0837C14.1673 11.7364 14.0458 11.4413 13.8027 11.1982C13.5597 10.9552 13.2645 10.8337 12.9173 10.8337C12.5701 10.8337 12.275 10.9552 12.0319 11.1982C11.7888 11.4413 11.6673 11.7364 11.6673 12.0837C11.6673 12.4309 11.7888 12.726 12.0319 12.9691C12.275 13.2121 12.5701 13.3337 12.9173 13.3337ZM5.37565 4.16699H14.709C14.5007 3.93088 14.0527 3.73296 13.3652 3.57324C12.6777 3.41352 11.5701 3.33366 10.0423 3.33366C8.55621 3.33366 7.4694 3.42046 6.7819 3.59408C6.0944 3.76769 5.62565 3.95866 5.37565 4.16699ZM6.66732 14.167H13.334C13.7923 14.167 14.1847 14.0038 14.5111 13.6774C14.8375 13.351 15.0007 12.9587 15.0007 12.5003V10.0003H5.00065V12.5003C5.00065 12.9587 5.16385 13.351 5.49023 13.6774C5.81662 14.0038 6.20898 14.167 6.66732 14.167Z" fill="#1B393B"/>
</svg>
