<svg width="16" height="16" viewBox="0 0 16 16" fill="none" xmlns="http://www.w3.org/2000/svg">
<g filter="url(#filter0_d_288_10767)">
<path d="M5.52727 15L4.14545 12.7143L1.52727 12.1429L1.78182 9.5L0 7.5L1.78182 5.5L1.52727 2.85714L4.14545 2.28571L5.52727 0L8 1.03571L10.4727 0L11.8545 2.28571L14.4727 2.85714L14.2182 5.5L16 7.5L14.2182 9.5L14.4727 12.1429L11.8545 12.7143L10.4727 15L8 13.9643L5.52727 15ZM6.14545 13.1786L8 12.3929L9.89091 13.1786L10.9091 11.4643L12.9091 11L12.7273 9L14.0727 7.5L12.7273 5.96429L12.9091 3.96429L10.9091 3.53571L9.85455 1.82143L8 2.60714L6.10909 1.82143L5.09091 3.53571L3.09091 3.96429L3.27273 5.96429L1.92727 7.5L3.27273 9L3.09091 11.0357L5.09091 11.4643L6.14545 13.1786ZM7.23636 10.0357L11.3455 6L10.3273 4.96429L7.23636 8L5.67273 6.5L4.65455 7.5L7.23636 10.0357Z" fill="white"/>
</g>
<defs>
<filter id="filter0_d_288_10767" x="-2" y="-1" width="20" height="19" filterUnits="userSpaceOnUse" color-interpolation-filters="sRGB">
<feFlood flood-opacity="0" result="BackgroundImageFix"/>
<feColorMatrix in="SourceAlpha" type="matrix" values="0 0 0 0 0 0 0 0 0 0 0 0 0 0 0 0 0 0 127 0" result="hardAlpha"/>
<feOffset dy="1"/>
<feGaussianBlur stdDeviation="1"/>
<feComposite in2="hardAlpha" operator="out"/>
<feColorMatrix type="matrix" values="0 0 0 0 0.0941176 0 0 0 0 0.407843 0 0 0 0 0.431373 0 0 0 1 0"/>
<feBlend mode="normal" in2="BackgroundImageFix" result="effect1_dropShadow_288_10767"/>
<feBlend mode="normal" in="SourceGraphic" in2="effect1_dropShadow_288_10767" result="shape"/>
</filter>
</defs>
</svg>
