<svg width="18" height="18" viewBox="0 0 18 18" fill="none" xmlns="http://www.w3.org/2000/svg">
<path d="M8.90867 0C4.16426 0 0.317734 3.81645 0.317734 8.52469C0.317734 10.1352 0.768203 11.6415 1.55051 12.9265L0 17.5L4.75641 15.989C5.98719 16.6642 7.4027 17.0494 8.90867 17.0494C13.6537 17.0494 17.5 13.2324 17.5 8.52469C17.5 3.81645 13.6537 0 8.90867 0ZM13.1806 11.7621C12.9785 12.2632 12.0645 12.7204 11.6611 12.7415C11.2582 12.7629 11.2468 13.0537 9.0502 12.0995C6.85391 11.1451 5.53254 8.82438 5.42836 8.67492C5.3241 8.52602 4.57758 7.46215 4.61785 6.39152C4.6584 5.3207 5.24469 4.81551 5.45395 4.60539C5.66297 4.39496 5.90262 4.35727 6.04895 4.35488C6.22191 4.35207 6.33395 4.34973 6.46195 4.35445C6.58984 4.3593 6.78195 4.3277 6.94828 4.77004C7.11453 5.21234 7.51246 6.29945 7.56336 6.41023C7.61422 6.52113 7.6457 6.64953 7.56734 6.79191C7.48875 6.93461 7.44852 7.02375 7.33449 7.14672C7.21984 7.26969 7.09332 7.4218 6.99105 7.51582C6.87699 7.61992 6.75785 7.73348 6.87777 7.95602C6.99762 8.1784 7.41109 8.90742 8.04102 9.5082C8.85059 10.2805 9.54875 10.5367 9.76359 10.6534C9.97902 10.7707 10.1076 10.7577 10.2412 10.6171C10.3741 10.4765 10.813 10.002 10.9676 9.7902C11.1221 9.57777 11.2668 9.61937 11.4653 9.69922C11.6637 9.77937 12.7214 10.3459 12.9369 10.4629C13.1521 10.5797 13.296 10.6398 13.3475 10.7325C13.3989 10.8254 13.3827 11.261 13.1806 11.7621Z" fill="#B09676"/>
</svg>
