<svg width="32" height="33" viewBox="0 0 32 33" fill="none" xmlns="http://www.w3.org/2000/svg">
<path d="M0 32.3457L2.24933 24.1284C0.861331 21.723 0.132 18.9964 0.133333 16.2004C0.137333 7.45904 7.25065 0.345703 15.9906 0.345703C20.232 0.347036 24.2133 1.99904 27.2079 4.99637C30.2013 7.9937 31.8493 11.9777 31.8479 16.215C31.8439 24.9577 24.7306 32.071 15.9906 32.071C13.3373 32.0697 10.7226 31.4044 8.40665 30.1404L0 32.3457ZM8.79598 27.2697C11.0306 28.5964 13.164 29.391 15.9853 29.3924C23.2493 29.3924 29.1666 23.4804 29.1706 16.2124C29.1733 8.9297 23.2839 3.0257 15.996 3.02304C8.72665 3.02304 2.81333 8.93504 2.81066 16.2017C2.80933 19.1684 3.67866 21.3897 5.13866 23.7137L3.80666 28.5777L8.79598 27.2697ZM23.9786 19.9844C23.8799 19.819 23.6159 19.7204 23.2186 19.5217C22.8226 19.323 20.8746 18.3644 20.5106 18.2324C20.148 18.1004 19.884 18.0337 19.6186 18.431C19.3546 18.827 18.5946 19.7204 18.364 19.9844C18.1333 20.2484 17.9013 20.2817 17.5053 20.083C17.1093 19.8844 15.832 19.467 14.3186 18.1164C13.1413 17.0657 12.3453 15.7684 12.1146 15.371C11.884 14.975 12.0906 14.7604 12.288 14.563C12.4666 14.3857 12.684 14.1004 12.8826 13.8684C13.084 13.639 13.1493 13.4737 13.2826 13.2084C13.4146 12.9444 13.3493 12.7124 13.2493 12.5137C13.1493 12.3164 12.3573 10.3657 12.028 9.57237C11.7053 8.80037 11.3786 8.90437 11.136 8.89237L10.376 8.87904C10.112 8.87904 9.68264 8.9777 9.31998 9.37504C8.95731 9.77237 7.93332 10.7297 7.93332 12.6804C7.93332 14.631 9.35331 16.515 9.55064 16.779C9.74931 17.043 12.344 21.0457 16.3186 22.7617C17.264 23.1697 18.0026 23.4137 18.5773 23.5964C19.5266 23.8977 20.3906 23.855 21.0733 23.7537C21.8346 23.6404 23.4173 22.795 23.7479 21.8697C24.0786 20.943 24.0786 20.1497 23.9786 19.9844Z" fill="#25D366"/>
</svg>
