<svg width="24" height="24" viewBox="0 0 24 24" fill="none" xmlns="http://www.w3.org/2000/svg">
<g clip-path="url(#clip0_672_31676)">
<path d="M20.5191 3.47998C18.279 1.23743 15.2588 -0.00488281 12.1191 -0.00488281C5.57914 -0.00488281 0.239141 5.33512 0.239141 11.875C0.239445 13.7969 0.753096 15.6841 1.72914 17.345L0.119141 23.995L6.92914 22.425C8.5234 23.3078 10.3068 23.7698 12.1191 23.765C18.6591 23.765 23.9991 18.425 23.9991 11.885C23.9991 8.76998 22.7591 5.79998 20.5191 3.47998ZM12.1191 21.785C10.5216 21.7874 8.95328 21.356 7.57914 20.535L7.22914 20.325L3.26914 21.395L4.35914 17.545L4.12914 17.175C3.22606 15.7515 2.74537 14.0965 2.74914 12.405C2.74914 6.74998 7.41914 2.07998 13.0741 2.07998C15.8157 2.07998 18.3958 3.14998 20.3158 5.06998C21.2629 6.01265 22.0155 7.12915 22.5308 8.35757C23.0461 9.58599 23.3143 10.9039 23.3208 12.235C23.3691 17.89 18.6991 22.56 12.1191 21.785ZM18.6691 14.795C18.3391 14.625 16.7191 13.835 16.4191 13.715C16.1191 13.615 15.8991 13.565 15.6791 13.885C15.4591 14.205 14.8491 14.945 14.6591 15.165C14.4691 15.385 14.2691 15.415 13.9391 15.235C13.6091 15.055 12.5491 14.715 11.2891 13.595C10.3091 12.715 9.64914 11.625 9.44914 11.295C9.24914 10.965 9.42914 10.775 9.59914 10.605C9.74914 10.455 9.92914 10.215 10.0991 10.025C10.2691 9.83498 10.3391 9.68498 10.4291 9.46498C10.5191 9.24498 10.4791 9.05498 10.3891 8.88498C10.2991 8.71498 9.64914 7.09498 9.37914 6.43498C9.10914 5.79498 8.82914 5.87498 8.62914 5.86498H7.99914C7.77914 5.86498 7.43914 5.94498 7.13914 6.27498C6.83914 6.60498 5.99914 7.39498 5.99914 9.01498C5.99914 10.635 7.16914 12.205 7.32914 12.425C7.48914 12.645 9.63914 15.935 12.8991 17.365C13.6291 17.685 14.1991 17.875 14.6491 18.015C15.3791 18.245 16.0491 18.215 16.5791 18.125C17.1791 18.025 18.4891 17.395 18.7591 16.695C19.0491 15.995 19.0491 15.395 18.9491 15.235C18.8491 15.075 18.6391 14.995 18.3091 14.825L18.6691 14.795Z" fill="white"/>
</g>
<defs>
<clipPath id="clip0_672_31676">
<rect width="24" height="24" fill="white"/>
</clipPath>
</defs>
</svg>
