<svg width="110" height="100" viewBox="0 0 110 100" fill="none" xmlns="http://www.w3.org/2000/svg">
<path d="M40.1 30.1V55.7H55.7C57.0333 55.7 57.9667 55.0667 58.5 53.8C59.1 52.4667 59.5667 50.8667 59.9 49C60.1 48.1333 60.7 47.7 61.7 47.7C61.9 47.7 62.1667 47.7333 62.5 47.8C62.8333 47.8667 63.1 47.9333 63.3 48C63.1667 49.4667 63.0333 51.1333 62.9 53C62.8333 54.8667 62.8 56.5 62.8 57.9C62.8 59.0333 62.8333 60.4333 62.9 62.1C62.9667 63.7 63.1 65.5333 63.3 67.6C62.7667 67.7333 62.2667 67.8 61.8 67.8C60.7333 67.8 60.1 67.3667 59.9 66.5C59.5667 64.6333 59.1 63.0667 58.5 61.8C57.9667 60.4667 57.0333 59.8 55.7 59.8H40.1V83.4C40.1 84.8 41 85.7333 42.8 86.2C44.6 86.6667 47.5667 86.9 51.7 86.9H57.2C59.1333 86.9 60.8 86.6333 62.2 86.1C63.6667 85.5 64.9333 84.7333 66 83.8C67.1333 82.8 68.1333 81.6333 69 80.3C69.8667 78.9667 70.7 77.5 71.5 75.9C71.7 75.4333 72.2 75.2 73 75.2C73.3333 75.2 73.6667 75.3 74 75.5C74.4 75.7 74.7667 75.9 75.1 76.1C74.5 77.3667 73.9667 78.9 73.5 80.7C73.1 82.4333 72.7 84.1 72.3 85.7C71.9 87.3 71.4667 88.6667 71 89.8C70.6 90.9333 70.0667 91.5 69.4 91.5C68.8667 91.5 68.1 91.4667 67.1 91.4C66.1 91.3333 65 91.2667 63.8 91.2C62.6667 91.2 61.5 91.1667 60.3 91.1C59.1 91.0333 58.0667 91 57.2 91H35.3C33.3667 91 31.3 91.0333 29.1 91.1C26.9 91.2333 24.8 91.3667 22.8 91.5C22.6667 90.8333 22.6 90.3 22.6 89.9C22.6 88.9667 22.9333 88.4333 23.6 88.3C26.1333 87.8333 27.9333 87.3333 29 86.8C30.1333 86.2667 30.7 85.3333 30.7 84V33.1C30.7 31.7667 30.2 30.8667 29.2 30.4C28.2667 29.8667 26.4 29.3333 23.6 28.8C22.9333 28.6667 22.6 28.1 22.6 27.1C22.6 26.7667 22.6 26.5 22.6 26.3C22.6667 26.0333 22.7333 25.7667 22.8 25.5C25.6667 25.7 28.0667 25.8333 30 25.9C31.9333 25.9667 33.6667 26 35.2 26H54.9C57.9 26 60.5 25.9 62.7 25.7C64.9 25.5 66.3667 25.4 67.1 25.4C67.9667 25.4 68.5333 25.9667 68.8 27.1C69.1333 28.1667 69.4 29.4667 69.6 31C69.8 32.5333 70.0333 34.1667 70.3 35.9C70.5667 37.6333 71.0667 39.1 71.8 40.3C71.2667 40.7 70.6667 40.9 70 40.9C69.1333 40.9 68.5667 40.6 68.3 40C67.5 38.2667 66.7333 36.8 66 35.6C65.2667 34.3333 64.4 33.3 63.4 32.5C62.4667 31.7 61.3 31.1 59.9 30.7C58.5667 30.3 56.9 30.1 54.9 30.1H40.1Z" fill="#B09676"/>
<path fill-rule="evenodd" clip-rule="evenodd" d="M88.7485 62.1558C89.8891 62.1663 90.7902 62.1745 93.2556 62.1437V62.8794C93.2556 62.8794 93.0871 63.0472 92.4624 63.4504C91.8377 63.8536 91.357 64.3056 91.357 64.3056L91.3424 65.3806L91.327 66.6165L91.3138 67.532C91.3138 67.922 91.4274 67.9531 91.5722 67.9512C91.5722 67.9512 93.0871 66.7566 94.7269 66.8222C96.3666 66.8878 97.8407 67.9512 97.8407 67.9512C97.8407 67.9512 98.1061 68.0469 98.1061 67.532C98.1061 67.0172 98.1207 66.6165 98.1207 66.6165L98.1313 65.3806L98.1457 64.3056C98.1457 64.3056 97.8503 64.0149 97.0198 63.5118C96.1893 63.0088 96.05 62.8794 96.05 62.8794C96.0544 62.4944 96.0568 62.2648 96.0578 62.1437H98.8601C99.4489 62.1368 99.9373 61.6663 99.9454 61.0552L99.9492 60.6218C99.9573 60.0107 99.4811 59.3564 98.8909 59.3649C94.7638 59.4401 91.9872 59.4172 88.9133 59.3918C86.9703 59.3757 86.9845 59.3587 84.3877 59.3649C83.2591 62.1437 84.3877 59.3649 83.2591 62.1437C85.0265 62.1395 87.9212 62.1482 88.7485 62.1558ZM96.0578 62.1437C96.0592 61.974 96.0579 62.017 96.0555 62.1437H96.0578ZM96.0555 62.1437C96.0537 62.2361 96.0514 62.3731 96.0492 62.5045C96.0424 62.9037 96.0365 63.2515 96.05 62.1437H96.0555ZM5.73483 66.0195C6.39131 66.9671 7.30947 67.5848 8.52572 67.584C10.524 67.5835 11.3569 66.0792 11.3575 64.0243C11.358 62.8073 9.89189 61.7279 8.96962 61.049C8.94679 61.0322 8.9243 61.0156 8.90217 60.9993C8.92407 60.9832 8.94633 60.9668 8.96892 60.9501C9.89121 60.2712 11.3589 59.1907 11.3595 57.9734C11.36 55.9185 10.5282 54.4154 8.52999 54.4159C7.14898 54.4162 6.10558 55.212 5.49558 56.382C5.14945 57.046 5.17857 57.5553 5.21254 58.1491C5.2185 58.2535 5.22462 58.3605 5.22888 58.4713C4.07399 58.5373 3.25104 58.9525 2.8114 59.9906C2.65186 60.3662 2.56338 60.7814 2.56301 61.2169C2.56314 61.7005 2.67178 62.1574 2.86475 62.564C3.3273 63.5394 4.12079 63.9015 5.23255 63.9613C5.27958 64.6654 5.35969 65.4778 5.73483 66.0195ZM20.6077 59.5999C20.7844 59.603 22.2135 59.6064 22.492 59.6103C23.3027 62.3378 22.492 59.6103 23.3027 62.3378C20.485 62.3385 21.2996 62.33 21.3206 62.3291C21.3456 62.3281 21.3682 62.3271 16.5631 62.3292C16.5631 62.3292 15.8281 62.2202 15.2769 62.4149C14.7257 62.7067 14.5538 63.14 14.5538 63.14C14.2934 64.5954 13.7862 66.0864 13.0636 67.1953C11.8838 69.0032 10.2717 69.9988 8.52572 70C6.77878 70.0004 5.32449 69.0048 4.14556 67.1971C3.90603 66.8297 3.69003 66.4364 3.49925 66.0223C2.68373 65.774 1.94635 65.317 1.34788 64.6755C0.478833 63.7436 -0.000429015 62.5149 2.88164e-07 61.2177C0.000682558 59.9202 0.480177 58.692 1.35022 57.7592C1.89514 57.1745 2.55596 56.7429 3.28645 56.4823C3.52649 55.8818 3.81465 55.3184 4.14902 54.8047C5.32882 52.9968 6.78307 52.0004 8.53 52C10.2769 51.9996 11.8882 52.9951 13.0663 54.802C13.6186 55.6488 14.143 57.4265 14.4004 58.2993C14.4799 58.5688 14.5339 58.752 14.5555 58.7949C14.6469 58.9769 14.9831 59.3633 15.242 59.4634C15.711 59.6448 16.5636 59.6057 16.5636 59.6057C18.5465 59.6052 19.8227 59.6029 20.6077 59.5999Z" fill="#B09676"/>
<path fill-rule="evenodd" clip-rule="evenodd" d="M51.506 75.4779C52.367 74.9667 52.9449 74.022 52.9449 72.9411C52.9449 71.3168 51.6399 70 50.0301 70C48.4204 70 47.1154 71.3168 47.1154 72.9411C47.1154 74.0213 47.6925 74.9655 48.5525 75.4769L47 79.9992H53.0582L51.506 75.4779Z" fill="#B09676"/>
</svg>
