<svg width="110" height="100" viewBox="0 0 110 100" fill="none" xmlns="http://www.w3.org/2000/svg">
<path d="M74.3 75.1V33.3C74.3 31.8333 73.7667 30.8 72.7 30.2C71.6333 29.6 69.8333 29.1333 67.3 28.8C66.5667 28.7333 66.2 28.1667 66.2 27.1C66.2 26.7 66.2667 26.1667 66.4 25.5C68.0667 25.6333 69.7667 25.7667 71.5 25.9C73.2333 25.9667 74.8667 26 76.4 26C77.8667 26 79.4 25.9667 81 25.9C82.6 25.7667 84.1667 25.6333 85.7 25.5C85.8333 26.1667 85.9 26.7 85.9 27.1C85.9 28.1667 85.5667 28.7333 84.9 28.8C82.6333 29.1333 81.0667 29.6 80.2 30.2C79.4 30.8 79 31.7667 79 33.1V92C78.8667 92.0667 78.6333 92.1 78.3 92.1C77.9667 92.1667 77.7 92.2 77.5 92.2C77.0333 92.2 76.6 92.0667 76.2 91.8C75.8 91.6 75.3333 91.1333 74.8 90.4L34.2 36.9V84C34.2 85.3333 34.6667 86.2667 35.6 86.8C36.5333 87.3333 38.3333 87.8333 41 88.3C41.6667 88.4333 42 88.9667 42 89.9C42 90.3 41.9333 90.8333 41.8 91.5C40.1333 91.3667 38.4333 91.2333 36.7 91.1C35.0333 91.0333 33.4667 91 32 91C30.6667 91 29.1 91.0333 27.3 91.1C25.5 91.2333 23.8667 91.3667 22.4 91.5C22.2667 90.8333 22.2 90.3 22.2 89.9C22.2 88.9667 22.5667 88.4333 23.3 88.3C25.7 87.8333 27.3 87.3333 28.1 86.8C28.9667 86.2667 29.4 85.3333 29.4 84V32.6C29.4 31.5333 29 30.7333 28.2 30.2C27.4667 29.6 25.9 29.1333 23.5 28.8C22.7667 28.6667 22.4 28.1 22.4 27.1C22.4 26.7667 22.4333 26.4667 22.5 26.2C22.5 26 22.5333 25.7667 22.6 25.5C23.9333 25.6333 25.2 25.7333 26.4 25.8C27.4667 25.8667 28.6 25.9333 29.8 26C31 26 32.0667 26 33 26C34.9333 26 36.2 26.0667 36.8 26.2C37.4667 26.3333 38 26.6667 38.4 27.2L74.3 75.1Z" fill="#B09676"/>
<path fill-rule="evenodd" clip-rule="evenodd" d="M88.7485 62.1558C89.8891 62.1663 90.7902 62.1745 93.2556 62.1437V62.8794C93.2556 62.8794 93.0871 63.0472 92.4624 63.4504C91.8377 63.8536 91.357 64.3056 91.357 64.3056L91.3424 65.3806L91.327 66.6165L91.3138 67.532C91.3138 67.922 91.4274 67.9531 91.5722 67.9512C91.5722 67.9512 93.0871 66.7566 94.7269 66.8222C96.3666 66.8878 97.8407 67.9512 97.8407 67.9512C97.8407 67.9512 98.1061 68.0469 98.1061 67.532C98.1061 67.0172 98.1207 66.6165 98.1207 66.6165L98.1313 65.3806L98.1457 64.3056C98.1457 64.3056 97.8503 64.0149 97.0198 63.5118C96.1893 63.0088 96.05 62.8794 96.05 62.8794C96.0544 62.4944 96.0568 62.2648 96.0578 62.1437H98.8601C99.4489 62.1368 99.9373 61.6663 99.9454 61.0552L99.9492 60.6218C99.9573 60.0107 99.4811 59.3564 98.8909 59.3649C94.7638 59.4401 91.9872 59.4172 88.9133 59.3918C86.9703 59.3757 86.9845 59.3587 84.3877 59.3649C83.2591 62.1437 84.3877 59.3649 83.2591 62.1437C85.0265 62.1395 87.9212 62.1482 88.7485 62.1558ZM96.0578 62.1437C96.0592 61.974 96.0579 62.017 96.0555 62.1437H96.0578ZM96.0555 62.1437C96.0537 62.2361 96.0514 62.3731 96.0492 62.5045C96.0424 62.9037 96.0365 63.2515 96.05 62.1437H96.0555ZM5.73483 66.0195C6.39131 66.9671 7.30947 67.5848 8.52572 67.584C10.524 67.5835 11.3569 66.0792 11.3575 64.0243C11.358 62.8073 9.89189 61.7279 8.96962 61.049C8.94679 61.0322 8.9243 61.0156 8.90217 60.9993C8.92407 60.9832 8.94633 60.9668 8.96892 60.9501C9.89121 60.2712 11.3589 59.1907 11.3595 57.9734C11.36 55.9185 10.5282 54.4154 8.52999 54.4159C7.14898 54.4162 6.10558 55.212 5.49558 56.382C5.14945 57.046 5.17857 57.5553 5.21254 58.1491C5.2185 58.2535 5.22462 58.3605 5.22888 58.4713C4.07399 58.5373 3.25104 58.9525 2.8114 59.9906C2.65186 60.3662 2.56338 60.7814 2.56301 61.2169C2.56314 61.7005 2.67178 62.1574 2.86475 62.564C3.3273 63.5394 4.12079 63.9015 5.23255 63.9613C5.27958 64.6654 5.35969 65.4778 5.73483 66.0195ZM20.6077 59.5999C20.7844 59.603 22.2135 59.6064 22.492 59.6103C23.3027 62.3378 22.492 59.6103 23.3027 62.3378C20.485 62.3385 21.2996 62.33 21.3206 62.3291C21.3456 62.3281 21.3682 62.3271 16.5631 62.3292C16.5631 62.3292 15.8281 62.2202 15.2769 62.4149C14.7257 62.7067 14.5538 63.14 14.5538 63.14C14.2934 64.5954 13.7862 66.0864 13.0636 67.1953C11.8838 69.0032 10.2717 69.9988 8.52572 70C6.77878 70.0004 5.32449 69.0048 4.14556 67.1971C3.90603 66.8297 3.69003 66.4364 3.49925 66.0223C2.68373 65.774 1.94635 65.317 1.34788 64.6755C0.478833 63.7436 -0.000429015 62.5149 2.88164e-07 61.2177C0.000682558 59.9202 0.480177 58.692 1.35022 57.7592C1.89514 57.1745 2.55596 56.7429 3.28645 56.4823C3.52649 55.8818 3.81465 55.3184 4.14902 54.8047C5.32882 52.9968 6.78307 52.0004 8.53 52C10.2769 51.9996 11.8882 52.9951 13.0663 54.802C13.6186 55.6488 14.143 57.4265 14.4004 58.2993C14.4799 58.5688 14.5339 58.752 14.5555 58.7949C14.6469 58.9769 14.9831 59.3633 15.242 59.4634C15.711 59.6448 16.5636 59.6057 16.5636 59.6057C18.5465 59.6052 19.8227 59.6029 20.6077 59.5999Z" fill="#B09676"/>
<path fill-rule="evenodd" clip-rule="evenodd" d="M51.506 78.4779C52.367 77.9667 52.9449 77.022 52.9449 75.9411C52.9449 74.3168 51.6399 73 50.0301 73C48.4204 73 47.1154 74.3168 47.1154 75.9411C47.1154 77.0213 47.6925 77.9655 48.5525 78.4769L47 82.9992H53.0582L51.506 78.4779Z" fill="#B09676"/>
</svg>
