<svg width="110" height="100" viewBox="0 0 110 100" fill="none" xmlns="http://www.w3.org/2000/svg">
<path d="M65.3 41.7C64.6333 41.8333 64.1333 41.9 63.8 41.9C62.9333 41.9 62.3 41.7333 61.9 41.4C61.5 41.0667 61.2 40.7 61 40.3C59.2667 36.5 57.2 33.7333 54.8 32C52.4 30.2667 49.1333 29.4 45 29.4C43.4 29.4 41.8667 29.6333 40.4 30.1C39 30.5 37.7667 31.1333 36.7 32C35.6333 32.8 34.7667 33.8 34.1 35C33.5 36.2 33.2 37.5333 33.2 39C33.2 42.1333 34.5 44.7 37.1 46.7C39.7667 48.7 43.6667 50.7333 48.8 52.8C55.2 55.3333 59.9 58.1667 62.9 61.3C65.9667 64.3667 67.5 68.1667 67.5 72.7C67.5 75.4333 67.0667 78 66.2 80.4C65.4 82.7333 64.1 84.8 62.3 86.6C60.5667 88.3333 58.3 89.7 55.5 90.7C52.7 91.7 49.3333 92.2 45.4 92.2C41.2667 92.2 37.5 91.7667 34.1 90.9C30.7667 90.0333 27.9333 88.9 25.6 87.5C25.4 84.7 25.1 82 24.7 79.4C24.3 76.8 23.8333 74.2 23.3 71.6C23.7667 71.4 24.3333 71.3 25 71.3C25.8 71.3 26.4 71.5 26.8 71.9C27.2667 72.2333 27.6667 72.8 28 73.6C29.6667 78.4 31.8 81.9333 34.4 84.2C37.0667 86.4667 40.7667 87.6 45.5 87.6C47.6333 87.6 49.5 87.3 51.1 86.7C52.7 86.1 54.0333 85.2667 55.1 84.2C56.1667 83.1333 56.9667 81.9333 57.5 80.6C58.0333 79.2667 58.3 77.8333 58.3 76.3C58.3 72.8333 57.1 70.1 54.7 68.1C52.3667 66.1 49 64.3 44.6 62.7C41.7333 61.6333 39.1333 60.5333 36.8 59.4C34.4667 58.2 32.4667 56.8333 30.8 55.3C29.1333 53.7667 27.8333 52 26.9 50C26.0333 47.9333 25.6 45.5 25.6 42.7C25.6 40.2333 26.0333 37.9333 26.9 35.8C27.8333 33.6 29.1333 31.7 30.8 30.1C32.5333 28.5 34.6 27.2333 37 26.3C39.4 25.3667 42.1 24.9 45.1 24.9C48.2333 24.9 51.2333 25.2 54.1 25.8C56.9667 26.4 60.2 27.4 63.8 28.8C63.9333 30.8 64.1 32.9667 64.3 35.3C64.5667 37.5667 64.9 39.7 65.3 41.7Z" fill="#B09676"/>
<path fill-rule="evenodd" clip-rule="evenodd" d="M88.7485 62.1558C89.8891 62.1663 90.7902 62.1745 93.2556 62.1437V62.8794C93.2556 62.8794 93.0871 63.0472 92.4624 63.4504C91.8377 63.8536 91.357 64.3056 91.357 64.3056L91.3424 65.3806L91.327 66.6165L91.3138 67.532C91.3138 67.922 91.4274 67.9531 91.5722 67.9512C91.5722 67.9512 93.0871 66.7566 94.7269 66.8222C96.3666 66.8878 97.8407 67.9512 97.8407 67.9512C97.8407 67.9512 98.1061 68.0469 98.1061 67.532C98.1061 67.0172 98.1207 66.6165 98.1207 66.6165L98.1313 65.3806L98.1457 64.3056C98.1457 64.3056 97.8503 64.0149 97.0198 63.5118C96.1893 63.0088 96.05 62.8794 96.05 62.8794C96.0544 62.4944 96.0568 62.2648 96.0578 62.1437H98.8601C99.4489 62.1368 99.9373 61.6663 99.9454 61.0552L99.9492 60.6218C99.9573 60.0107 99.4811 59.3564 98.8909 59.3649C94.7638 59.4401 91.9872 59.4172 88.9133 59.3918C86.9703 59.3757 86.9845 59.3587 84.3877 59.3649C83.2591 62.1437 84.3877 59.3649 83.2591 62.1437C85.0265 62.1395 87.9212 62.1482 88.7485 62.1558ZM96.0578 62.1437C96.0592 61.974 96.0579 62.017 96.0555 62.1437H96.0578ZM96.0555 62.1437C96.0537 62.2361 96.0514 62.3731 96.0492 62.5045C96.0424 62.9037 96.0365 63.2515 96.05 62.1437H96.0555ZM5.73483 66.0195C6.39131 66.9671 7.30947 67.5848 8.52572 67.584C10.524 67.5835 11.3569 66.0792 11.3575 64.0243C11.358 62.8073 9.89189 61.7279 8.96962 61.049C8.94679 61.0322 8.9243 61.0156 8.90217 60.9993C8.92407 60.9832 8.94633 60.9668 8.96892 60.9501C9.89121 60.2712 11.3589 59.1907 11.3595 57.9734C11.36 55.9185 10.5282 54.4154 8.52999 54.4159C7.14898 54.4162 6.10558 55.212 5.49558 56.382C5.14945 57.046 5.17857 57.5553 5.21254 58.1491C5.2185 58.2535 5.22462 58.3605 5.22888 58.4713C4.07399 58.5373 3.25104 58.9525 2.8114 59.9906C2.65186 60.3662 2.56338 60.7814 2.56301 61.2169C2.56314 61.7005 2.67178 62.1574 2.86475 62.564C3.3273 63.5394 4.12079 63.9015 5.23255 63.9613C5.27958 64.6654 5.35969 65.4778 5.73483 66.0195ZM20.6077 59.5999C20.7844 59.603 22.2135 59.6064 22.492 59.6103C23.3027 62.3378 22.492 59.6103 23.3027 62.3378C20.485 62.3385 21.2996 62.33 21.3206 62.3291C21.3456 62.3281 21.3682 62.3271 16.5631 62.3292C16.5631 62.3292 15.8281 62.2202 15.2769 62.4149C14.7257 62.7067 14.5538 63.14 14.5538 63.14C14.2934 64.5954 13.7862 66.0864 13.0636 67.1953C11.8838 69.0032 10.2717 69.9988 8.52572 70C6.77878 70.0004 5.32449 69.0048 4.14556 67.1971C3.90603 66.8297 3.69003 66.4364 3.49925 66.0223C2.68373 65.774 1.94635 65.317 1.34788 64.6755C0.478833 63.7436 -0.000429015 62.5149 2.88164e-07 61.2177C0.000682558 59.9202 0.480177 58.692 1.35022 57.7592C1.89514 57.1745 2.55596 56.7429 3.28645 56.4823C3.52649 55.8818 3.81465 55.3184 4.14902 54.8047C5.32882 52.9968 6.78307 52.0004 8.53 52C10.2769 51.9996 11.8882 52.9951 13.0663 54.802C13.6186 55.6488 14.143 57.4265 14.4004 58.2993C14.4799 58.5688 14.5339 58.752 14.5555 58.7949C14.6469 58.9769 14.9831 59.3633 15.242 59.4634C15.711 59.6448 16.5636 59.6057 16.5636 59.6057C18.5465 59.6052 19.8227 59.6029 20.6077 59.5999Z" fill="#B09676"/>
<path fill-rule="evenodd" clip-rule="evenodd" d="M45.506 74.4779C46.367 73.9667 46.9449 73.022 46.9449 71.9411C46.9449 70.3168 45.6399 69 44.0301 69C42.4204 69 41.1154 70.3168 41.1154 71.9411C41.1154 73.0213 41.6925 73.9655 42.5525 74.4769L41 78.9992H47.0582L45.506 74.4779Z" fill="#B09676"/>
</svg>
