<svg width="18" height="18" viewBox="0 0 18 18" fill="none" xmlns="http://www.w3.org/2000/svg">
<path d="M14.7 15.7502L9.9375 10.9877L10.9875 9.9377L15.75 14.7002L14.7 15.7502ZM4.4625 15.2252C3.7125 14.4752 3.15625 13.6314 2.79375 12.6939C2.43125 11.7564 2.25 10.8002 2.25 9.82519C2.25 8.85019 2.43125 7.9002 2.79375 6.97519C3.15625 6.0502 3.7125 5.2127 4.4625 4.4627C5.2125 3.7127 6.05313 3.15332 6.98438 2.78457C7.91563 2.41582 8.86875 2.23145 9.84375 2.23145C10.8188 2.23145 11.7719 2.41582 12.7031 2.78457C13.6344 3.15332 14.475 3.7127 15.225 4.4627L4.4625 15.2252ZM4.6125 12.9377L5.625 11.9252C5.425 11.6627 5.23438 11.3939 5.05313 11.1189C4.87188 10.8439 4.70625 10.5689 4.55625 10.2939C4.40625 10.0189 4.275 9.74394 4.1625 9.46895C4.05 9.19394 3.95 8.92519 3.8625 8.66269C3.725 9.40019 3.71563 10.1377 3.83438 10.8752C3.95313 11.6127 4.2125 12.3002 4.6125 12.9377ZM6.7125 10.8752L10.875 6.6752C10.3375 6.26269 9.79688 5.92832 9.25313 5.67207C8.70938 5.41582 8.2 5.24082 7.725 5.14707C7.25 5.05332 6.82188 5.0377 6.44063 5.1002C6.05938 5.1627 5.7625 5.3002 5.55 5.5127C5.3375 5.7377 5.2 6.04082 5.1375 6.42207C5.075 6.80332 5.09063 7.23457 5.18438 7.71582C5.27813 8.19707 5.45313 8.70644 5.70938 9.24395C5.96563 9.78145 6.3 10.3252 6.7125 10.8752ZM11.925 5.6252L12.975 4.6127C12.3125 4.2127 11.6125 3.9502 10.875 3.8252C10.1375 3.7002 9.4 3.7127 8.6625 3.8627C8.9375 3.9502 9.2125 4.0502 9.4875 4.1627C9.7625 4.2752 10.0375 4.40332 10.3125 4.54707C10.5875 4.69082 10.8594 4.85332 11.1281 5.03457C11.3969 5.21582 11.6625 5.4127 11.925 5.6252Z" fill="#B09676"/>
</svg>
