<svg width="20" height="20" viewBox="0 0 20 20" fill="none" xmlns="http://www.w3.org/2000/svg">
<path d="M16.6654 7.49967V4.99967C16.6654 4.55765 16.4898 4.13372 16.1772 3.82116C15.8646 3.5086 15.4407 3.33301 14.9987 3.33301H4.9987C4.55667 3.33301 4.13275 3.5086 3.82019 3.82116C3.50763 4.13372 3.33203 4.55765 3.33203 4.99967V7.49967" stroke="#B09676" stroke-width="1.04167" stroke-linecap="round" stroke-linejoin="round"/>
<path d="M1.66797 13.3333C1.66797 13.7754 1.84356 14.1993 2.15612 14.5118C2.46868 14.8244 2.89261 15 3.33464 15H16.668C17.11 15 17.5339 14.8244 17.8465 14.5118C18.159 14.1993 18.3346 13.7754 18.3346 13.3333V9.16667C18.3346 8.72464 18.159 8.30072 17.8465 7.98816C17.5339 7.6756 17.11 7.5 16.668 7.5C16.2259 7.5 15.802 7.6756 15.4895 7.98816C15.1769 8.30072 15.0013 8.72464 15.0013 9.16667V10.4167C15.0013 10.5272 14.9574 10.6332 14.8793 10.7113C14.8011 10.7894 14.6951 10.8333 14.5846 10.8333H5.41797C5.30746 10.8333 5.20148 10.7894 5.12334 10.7113C5.0452 10.6332 5.0013 10.5272 5.0013 10.4167V9.16667C5.0013 8.72464 4.82571 8.30072 4.51315 7.98816C4.20059 7.6756 3.77666 7.5 3.33464 7.5C2.89261 7.5 2.46868 7.6756 2.15612 7.98816C1.84356 8.30072 1.66797 8.72464 1.66797 9.16667V13.3333Z" stroke="#B09676" stroke-width="1.04167" stroke-linecap="round" stroke-linejoin="round"/>
<path d="M3.33203 15V16.6667" stroke="#B09676" stroke-width="1.04167" stroke-linecap="round" stroke-linejoin="round"/>
<path d="M16.668 15V16.6667" stroke="#B09676" stroke-width="1.04167" stroke-linecap="round" stroke-linejoin="round"/>
<path d="M10 3.33301V10.833" stroke="#B09676" stroke-width="1.04167" stroke-linecap="round" stroke-linejoin="round"/>
</svg>
