<svg width="12" height="15" viewBox="0 0 12 15" fill="none" xmlns="http://www.w3.org/2000/svg">
<path d="M1.5 14.25V13.5L2.625 12.75C1.8875 12.75 1.26562 12.4969 0.759375 11.9906C0.253125 11.4844 0 10.8625 0 10.125V3C0 1.9625 0.48125 1.20312 1.44375 0.721875C2.40625 0.240625 3.925 0 6 0C8.15 0 9.6875 0.23125 10.6125 0.69375C11.5375 1.15625 12 1.925 12 3V10.125C12 10.8625 11.7469 11.4844 11.2406 11.9906C10.7344 12.4969 10.1125 12.75 9.375 12.75L10.5 13.5V14.25H1.5ZM1.5 6H10.5V3.75H1.5V6ZM9.375 7.5H1.5H10.5H9.375ZM6 10.5C6.3125 10.5 6.57813 10.3906 6.79688 10.1719C7.01563 9.95312 7.125 9.6875 7.125 9.375C7.125 9.0625 7.01563 8.79688 6.79688 8.57812C6.57813 8.35938 6.3125 8.25 6 8.25C5.6875 8.25 5.42188 8.35938 5.20312 8.57812C4.98438 8.79688 4.875 9.0625 4.875 9.375C4.875 9.6875 4.98438 9.95312 5.20312 10.1719C5.42188 10.3906 5.6875 10.5 6 10.5ZM2.625 11.25H9.375C9.7 11.25 9.96875 11.1438 10.1813 10.9313C10.3938 10.7188 10.5 10.45 10.5 10.125V7.5H1.5V10.125C1.5 10.45 1.60625 10.7188 1.81875 10.9313C2.03125 11.1438 2.3 11.25 2.625 11.25ZM6 1.5C4.925 1.5 4.03438 1.5625 3.32813 1.6875C2.62188 1.8125 2.125 2 1.8375 2.25H10.2375C10.0125 2 9.54688 1.8125 8.84063 1.6875C8.13438 1.5625 7.1875 1.5 6 1.5ZM6 2.25H10.2375H1.8375H6Z" fill="#B09676"/>
</svg>
