<svg width="20" height="20" viewBox="0 0 20 20" fill="none" xmlns="http://www.w3.org/2000/svg">
<path d="M13.3346 17.5V15.8333C13.3346 14.9493 12.9834 14.1014 12.3583 13.4763C11.7332 12.8512 10.8854 12.5 10.0013 12.5H5.0013C4.11725 12.5 3.2694 12.8512 2.64428 13.4763C2.01916 14.1014 1.66797 14.9493 1.66797 15.8333V17.5" stroke="#B09676" stroke-width="1.04167" stroke-linecap="round" stroke-linejoin="round"/>
<path d="M7.5013 9.16667C9.34225 9.16667 10.8346 7.67428 10.8346 5.83333C10.8346 3.99238 9.34225 2.5 7.5013 2.5C5.66035 2.5 4.16797 3.99238 4.16797 5.83333C4.16797 7.67428 5.66035 9.16667 7.5013 9.16667Z" stroke="#B09676" stroke-width="1.04167" stroke-linecap="round" stroke-linejoin="round"/>
<path d="M18.332 17.5001V15.8334C18.3315 15.0948 18.0857 14.3774 17.6332 13.7937C17.1807 13.2099 16.5471 12.793 15.832 12.6084" stroke="#B09676" stroke-width="1.04167" stroke-linecap="round" stroke-linejoin="round"/>
<path d="M13.332 2.6084C14.049 2.79198 14.6846 3.20898 15.1384 3.79366C15.5922 4.37833 15.8386 5.09742 15.8386 5.83757C15.8386 6.57771 15.5922 7.2968 15.1384 7.88147C14.6846 8.46615 14.049 8.88315 13.332 9.06673" stroke="#B09676" stroke-width="1.04167" stroke-linecap="round" stroke-linejoin="round"/>
</svg>
