<svg width="20" height="20" viewBox="0 0 20 20" fill="none" xmlns="http://www.w3.org/2000/svg">
<path d="M12.4992 10L5.52167 16.9775C5.19015 17.309 4.74051 17.4953 4.27167 17.4953C3.80283 17.4953 3.35319 17.309 3.02167 16.9775C2.69015 16.646 2.50391 16.1963 2.50391 15.7275C2.50391 15.2587 2.69015 14.809 3.02167 14.4775L9.99917 7.5" stroke="#B09676" stroke-width="1.04167" stroke-linecap="round" stroke-linejoin="round"/>
<path d="M15 12.5003L18.3333 9.16699" stroke="#B09676" stroke-width="1.04167" stroke-linecap="round" stroke-linejoin="round"/>
<path d="M17.9167 9.58346L16.3217 7.98846C16.0091 7.67598 15.8334 7.25212 15.8333 6.81013V5.83346L13.95 3.95013C13.0204 3.02112 11.7625 2.49543 10.4483 2.4868L7.5 2.4668L8.26667 3.15013C8.81121 3.63296 9.24724 4.22572 9.54602 4.88933C9.84479 5.55295 9.99952 6.27236 10 7.00013V8.33346L11.6667 10.0001H12.6433C13.0853 10.0002 13.5092 10.1759 13.8217 10.4885L15.4167 12.0835" stroke="#B09676" stroke-width="1.04167" stroke-linecap="round" stroke-linejoin="round"/>
</svg>
