<svg width="14" height="14" viewBox="0 0 14 14" fill="none" xmlns="http://www.w3.org/2000/svg">
<path d="M6.75 6C7.1625 6 7.51563 5.85313 7.80938 5.55938C8.10313 5.26562 8.25 4.9125 8.25 4.5C8.25 4.0875 8.10313 3.73438 7.80938 3.44063C7.51563 3.14688 7.1625 3 6.75 3C6.3375 3 5.98438 3.14688 5.69063 3.44063C5.39688 3.73438 5.25 4.0875 5.25 4.5C5.25 4.9125 5.39688 5.26562 5.69063 5.55938C5.98438 5.85313 6.3375 6 6.75 6ZM3 13.5V12H6V9.675C5.3875 9.5375 4.84063 9.27813 4.35938 8.89688C3.87813 8.51562 3.525 8.0375 3.3 7.4625C2.3625 7.35 1.57813 6.94063 0.946875 6.23438C0.315625 5.52813 0 4.7 0 3.75V3C0 2.5875 0.146875 2.23438 0.440625 1.94063C0.734375 1.64688 1.0875 1.5 1.5 1.5H3V0H10.5V1.5H12C12.4125 1.5 12.7656 1.64688 13.0594 1.94063C13.3531 2.23438 13.5 2.5875 13.5 3V3.75C13.5 4.7 13.1844 5.52813 12.5531 6.23438C11.9219 6.94063 11.1375 7.35 10.2 7.4625C9.975 8.0375 9.62188 8.51562 9.14062 8.89688C8.65938 9.27813 8.1125 9.5375 7.5 9.675V12H10.5V13.5H3ZM3 5.85V3H1.5V3.75C1.5 4.225 1.6375 4.65313 1.9125 5.03438C2.1875 5.41563 2.55 5.6875 3 5.85ZM6.75 8.25C7.375 8.25 7.90625 8.03125 8.34375 7.59375C8.78125 7.15625 9 6.625 9 6V1.5H4.5V6C4.5 6.625 4.71875 7.15625 5.15625 7.59375C5.59375 8.03125 6.125 8.25 6.75 8.25ZM10.5 5.85C10.95 5.6875 11.3125 5.41563 11.5875 5.03438C11.8625 4.65313 12 4.225 12 3.75V3H10.5V5.85Z" fill="white"/>
</svg>
