<svg width="20" height="20" viewBox="0 0 20 20" fill="none" xmlns="http://www.w3.org/2000/svg">
<path d="M14.8333 16L13.3333 9.16667L16.25 6.25C17.5 5 17.9167 3.33333 17.5 2.5C16.6667 2.08333 15 2.5 13.75 3.75L10.8333 6.66667L4 5.16667C3.58333 5.08333 3.25 5.25 3.08333 5.58333L2.83333 6C2.66667 6.41667 2.75 6.83333 3.08333 7.08333L7.5 10L5.83333 12.5H3.33333L2.5 13.3333L5 15L6.66667 17.5L7.5 16.6667V14.1667L10 12.5L12.9167 16.9167C13.1667 17.25 13.5833 17.3333 14 17.1667L14.4167 17C14.75 16.75 14.9167 16.4167 14.8333 16Z" stroke="#B09676" stroke-width="1.04167" stroke-linecap="round" stroke-linejoin="round"/>
</svg>
