<svg width="110" height="100" viewBox="0 0 110 100" fill="none" xmlns="http://www.w3.org/2000/svg">
<path d="M71.9 34C72.1667 33.2667 72.3 32.6 72.3 32C72.3 31.0667 71.8333 30.3667 70.9 29.9C69.9667 29.4333 68.4667 29.0667 66.4 28.8C65.6 28.7333 65.2 28.1667 65.2 27.1C65.2 26.7667 65.2333 26.4667 65.3 26.2C65.3 26 65.3333 25.7667 65.4 25.5C65.5333 25.5 65.9667 25.5333 66.7 25.6C67.4333 25.6667 68.3 25.7333 69.3 25.8C70.3667 25.8667 71.5 25.9333 72.7 26C73.9 26 75.0333 26 76.1 26C78.3 26 80.3 25.9333 82.1 25.8C83.9667 25.6667 85.0667 25.5667 85.4 25.5C85.4 25.7 85.4333 25.9333 85.5 26.2C85.5 26.4 85.5 26.6 85.5 26.8C85.5667 26.9333 85.6 27.0667 85.6 27.2C85.6 28.2667 85.2333 28.8667 84.5 29C82.3667 29.1333 80.8 29.4667 79.8 30C78.8 30.5333 78.0333 31.4333 77.5 32.7L52.8 92.1C52.6667 92.1 52.5 92.1 52.3 92.1C52.1667 92.1667 52.0333 92.2 51.9 92.2C51.1667 92.2 50.5667 91.6333 50.1 90.5L26.6 32.2C26.2 31.2667 25.5333 30.5667 24.6 30.1C23.6667 29.6333 22 29.2333 19.6 28.9C18.8667 28.8333 18.5 28.2333 18.5 27.1C18.5 26.5667 18.5667 26.0333 18.7 25.5C20.7 25.6333 22.8667 25.7667 25.2 25.9C27.5333 25.9667 29.5667 26 31.3 26C32.9667 26 35 25.9667 37.4 25.9C39.8 25.7667 42.0333 25.6333 44.1 25.5C44.2333 26.1667 44.3 26.7 44.3 27.1C44.3 28.1 43.9 28.6667 43.1 28.8C39.1667 29.2 37.2 30.2667 37.2 32C37.2 32.4667 37.2667 32.9 37.4 33.3L54.4 76.8L71.9 34Z" fill="#B09676"/>
<path fill-rule="evenodd" clip-rule="evenodd" d="M88.7485 58.1558C89.8891 58.1663 90.7902 58.1745 93.2556 58.1437V58.8794C93.2556 58.8794 93.0871 59.0472 92.4624 59.4504C91.8377 59.8536 91.357 60.3056 91.357 60.3056L91.3424 61.3806L91.327 62.6165L91.3138 63.532C91.3138 63.922 91.4274 63.9531 91.5722 63.9512C91.5722 63.9512 93.0871 62.7566 94.7269 62.8222C96.3666 62.8878 97.8407 63.9512 97.8407 63.9512C97.8407 63.9512 98.1061 64.0469 98.1061 63.532C98.1061 63.0172 98.1207 62.6165 98.1207 62.6165L98.1313 61.3806L98.1457 60.3056C98.1457 60.3056 97.8503 60.0149 97.0198 59.5118C96.1893 59.0088 96.05 58.8794 96.05 58.8794C96.0544 58.4944 96.0568 58.2648 96.0578 58.1437H98.8601C99.4489 58.1368 99.9373 57.6663 99.9454 57.0552L99.9492 56.6218C99.9573 56.0107 99.4811 55.3564 98.8909 55.3649C94.7638 55.4401 91.9872 55.4172 88.9133 55.3918C86.9703 55.3757 86.9845 55.3587 84.3877 55.3649C83.2591 58.1437 84.3877 55.3649 83.2591 58.1437C85.0265 58.1395 87.9212 58.1482 88.7485 58.1558ZM96.0578 58.1437C96.0592 57.974 96.0579 58.017 96.0555 58.1437H96.0578ZM96.0555 58.1437C96.0537 58.2361 96.0514 58.3731 96.0492 58.5045C96.0424 58.9037 96.0365 59.2515 96.05 58.1437H96.0555ZM5.73483 62.0195C6.39131 62.9671 7.30947 63.5848 8.52572 63.584C10.524 63.5835 11.3569 62.0792 11.3575 60.0243C11.358 58.8073 9.89189 57.7279 8.96962 57.049C8.94679 57.0322 8.9243 57.0156 8.90217 56.9993C8.92407 56.9832 8.94633 56.9668 8.96892 56.9501C9.89121 56.2712 11.3589 55.1907 11.3595 53.9734C11.36 51.9185 10.5282 50.4154 8.52999 50.4159C7.14898 50.4162 6.10558 51.212 5.49558 52.382C5.14945 53.046 5.17857 53.5553 5.21254 54.1491C5.2185 54.2535 5.22462 54.3605 5.22888 54.4713C4.07399 54.5373 3.25104 54.9525 2.8114 55.9906C2.65186 56.3662 2.56338 56.7814 2.56301 57.2169C2.56314 57.7005 2.67178 58.1574 2.86475 58.564C3.3273 59.5394 4.12079 59.9015 5.23255 59.9613C5.27958 60.6654 5.35969 61.4778 5.73483 62.0195ZM20.6077 55.5999C20.7844 55.603 22.2135 55.6064 22.492 55.6103C23.3027 58.3378 22.492 55.6103 23.3027 58.3378C20.485 58.3385 21.2996 58.33 21.3206 58.3291C21.3456 58.3281 21.3682 58.3271 16.5631 58.3292C16.5631 58.3292 15.8281 58.2202 15.2769 58.4149C14.7257 58.7067 14.5538 59.14 14.5538 59.14C14.2934 60.5954 13.7862 62.0864 13.0636 63.1953C11.8838 65.0032 10.2717 65.9988 8.52572 66C6.77878 66.0004 5.32449 65.0048 4.14556 63.1971C3.90603 62.8297 3.69003 62.4364 3.49925 62.0223C2.68373 61.774 1.94635 61.317 1.34788 60.6755C0.478833 59.7436 -0.000429015 58.5149 2.88164e-07 57.2177C0.000682558 55.9202 0.480177 54.692 1.35022 53.7592C1.89514 53.1745 2.55596 52.7429 3.28645 52.4823C3.52649 51.8818 3.81465 51.3184 4.14902 50.8047C5.32882 48.9968 6.78307 48.0004 8.53 48C10.2769 47.9996 11.8882 48.9951 13.0663 50.802C13.6186 51.6488 14.143 53.4265 14.4004 54.2993C14.4799 54.5688 14.5339 54.752 14.5555 54.7949C14.6469 54.9769 14.9831 55.3633 15.242 55.4634C15.711 55.6448 16.5636 55.6057 16.5636 55.6057C18.5465 55.6052 19.8227 55.6029 20.6077 55.5999Z" fill="#B09676"/>
<path fill-rule="evenodd" clip-rule="evenodd" d="M55.5061 43.479C56.3681 42.9681 56.9469 42.0228 56.9469 40.9411C56.9469 39.3168 55.6419 38 54.0321 38C52.4223 38 51.1173 39.3168 51.1173 40.9411C51.1173 42.0208 51.6938 42.9645 52.5531 43.4761L51 48.0002H57.0582L55.5061 43.479Z" fill="#B09676"/>
</svg>
