<svg width="110" height="100" viewBox="0 0 110 100" fill="none" xmlns="http://www.w3.org/2000/svg">
<path d="M55.9 83.2C50.3 83.2 45.4 82.3333 41.2 80.6C37 78.8667 33.5 76.5 30.7 73.5C27.9667 70.4333 25.9 66.8667 24.5 62.8C23.1667 58.6667 22.5 54.2333 22.5 49.5C22.5 45.5667 23.1667 41.6 24.5 37.6C25.9 33.6 27.9667 30 30.7 26.8C33.5 23.5333 37 20.9 41.2 18.9C45.4 16.8333 50.3 15.8 55.9 15.8C58.1 15.8 60.1 15.8667 61.9 16C63.7667 16.0667 65.5333 16.2333 67.2 16.5C68.8667 16.7 70.5 17 72.1 17.4C73.7 17.7333 75.3667 18.1333 77.1 18.6C77.1667 20.4 77.4 22.6 77.8 25.2C78.2 27.8 78.7333 30.4333 79.4 33.1C78.8667 33.3667 78.3333 33.5 77.8 33.5C77.2667 33.5 76.7667 33.4333 76.3 33.3C75.9 33.1667 75.6333 32.8 75.5 32.2C74.3 27.8 72.4 24.6667 69.8 22.8C67.2 20.9333 63.4333 20 58.5 20C54.3667 20 50.7 20.6667 47.5 22C44.3667 23.3333 41.7 25.2 39.5 27.6C37.3667 30 35.7333 32.9 34.6 36.3C33.5333 39.6333 33 43.3667 33 47.5C33 52.1 33.7 56.3333 35.1 60.2C36.5 64.0667 38.3667 67.4 40.7 70.2C43.1 73 45.8667 75.1667 49 76.7C52.2 78.2333 55.6 79 59.2 79C62.0667 79 64.4667 78.7333 66.4 78.2C68.4 77.6 70.0333 76.7667 71.3 75.7C72.6333 74.6333 73.7333 73.3333 74.6 71.8C75.5333 70.2 76.4 68.4 77.2 66.4C77.6667 65.4 78.4667 64.9 79.6 64.9C79.9333 64.9 80.2667 64.9667 80.6 65.1C81 65.1667 81.3 65.2667 81.5 65.4C80.7 67.7333 79.9 70.3 79.1 73.1C78.3 75.9 77.6333 78.7 77.1 81.5C73.8333 82.0333 70.5 82.4333 67.1 82.7C63.7 83.0333 59.9667 83.2 55.9 83.2Z" fill="#B09676"/>
<path fill-rule="evenodd" clip-rule="evenodd" d="M88.7485 51.1558C89.8891 51.1663 90.7902 51.1745 93.2556 51.1437V51.8794C93.2556 51.8794 93.0871 52.0472 92.4624 52.4504C91.8377 52.8536 91.357 53.3056 91.357 53.3056L91.3424 54.3806L91.327 55.6165L91.3138 56.532C91.3138 56.922 91.4274 56.9531 91.5722 56.9512C91.5722 56.9512 93.0871 55.7566 94.7269 55.8222C96.3666 55.8878 97.8407 56.9512 97.8407 56.9512C97.8407 56.9512 98.1061 57.0469 98.1061 56.532C98.1061 56.0172 98.1207 55.6165 98.1207 55.6165L98.1313 54.3806L98.1457 53.3056C98.1457 53.3056 97.8503 53.0149 97.0198 52.5118C96.1893 52.0088 96.05 51.8794 96.05 51.8794C96.0544 51.4944 96.0568 51.2648 96.0578 51.1437H98.8601C99.4489 51.1368 99.9373 50.6663 99.9454 50.0552L99.9492 49.6218C99.9573 49.0107 99.4811 48.3564 98.8909 48.3649C94.7638 48.4401 91.9872 48.4172 88.9133 48.3918C86.9703 48.3757 86.9845 48.3587 84.3877 48.3649C83.2591 51.1437 84.3877 48.3649 83.2591 51.1437C85.0265 51.1395 87.9212 51.1482 88.7485 51.1558ZM96.0578 51.1437C96.0592 50.974 96.0579 51.017 96.0555 51.1437H96.0578ZM96.0555 51.1437C96.0537 51.2361 96.0514 51.3731 96.0492 51.5045C96.0424 51.9037 96.0365 52.2515 96.05 51.1437H96.0555ZM5.73483 55.0195C6.39131 55.9671 7.30947 56.5848 8.52572 56.584C10.524 56.5835 11.3569 55.0792 11.3575 53.0243C11.358 51.8073 9.89189 50.7279 8.96962 50.049C8.94679 50.0322 8.9243 50.0156 8.90217 49.9993C8.92407 49.9832 8.94633 49.9668 8.96892 49.9501C9.89121 49.2712 11.3589 48.1907 11.3595 46.9734C11.36 44.9185 10.5282 43.4154 8.52999 43.4159C7.14898 43.4162 6.10558 44.212 5.49558 45.382C5.14945 46.046 5.17857 46.5553 5.21254 47.1491C5.2185 47.2535 5.22462 47.3605 5.22888 47.4713C4.07399 47.5373 3.25104 47.9525 2.8114 48.9906C2.65186 49.3662 2.56338 49.7814 2.56301 50.2169C2.56314 50.7005 2.67178 51.1574 2.86475 51.564C3.3273 52.5394 4.12079 52.9015 5.23255 52.9613C5.27958 53.6654 5.35969 54.4778 5.73483 55.0195ZM20.6077 48.5999C20.7844 48.603 22.2135 48.6064 22.492 48.6103C23.3027 51.3378 22.492 48.6103 23.3027 51.3378C20.485 51.3385 21.2996 51.33 21.3206 51.3291C21.3456 51.3281 21.3682 51.3271 16.5631 51.3292C16.5631 51.3292 15.8281 51.2202 15.2769 51.4149C14.7257 51.7067 14.5538 52.14 14.5538 52.14C14.2934 53.5954 13.7862 55.0864 13.0636 56.1953C11.8838 58.0032 10.2717 58.9988 8.52572 59C6.77878 59.0004 5.32449 58.0048 4.14556 56.1971C3.90603 55.8297 3.69003 55.4364 3.49925 55.0223C2.68373 54.774 1.94635 54.317 1.34788 53.6755C0.478833 52.7436 -0.000429015 51.5149 2.88164e-07 50.2177C0.000682558 48.9202 0.480177 47.692 1.35022 46.7592C1.89514 46.1745 2.55596 45.7429 3.28645 45.4823C3.52649 44.8818 3.81465 44.3184 4.14902 43.8047C5.32882 41.9968 6.78307 41.0004 8.53 41C10.2769 40.9996 11.8882 41.9951 13.0663 43.802C13.6186 44.6488 14.143 46.4265 14.4004 47.2993C14.4799 47.5688 14.5339 47.752 14.5555 47.7949C14.6469 47.9769 14.9831 48.3633 15.242 48.4634C15.711 48.6448 16.5636 48.6057 16.5636 48.6057C18.5465 48.6052 19.8227 48.6029 20.6077 48.5999Z" fill="#B09676"/>
<path fill-rule="evenodd" clip-rule="evenodd" d="M59.3078 49.6686C60.5128 48.9529 61.3215 47.6305 61.3215 46.1176C61.3215 43.8435 59.4945 42 57.2408 42C54.9871 42 53.1602 43.8435 53.1602 46.1176C53.1602 47.6305 53.9688 48.9528 55.1737 49.6685L53 56.0002H61.4815L59.3078 49.6686Z" fill="#B09676"/>
</svg>
