<svg width="1252" height="392" viewBox="0 0 1252 392" fill="none" xmlns="http://www.w3.org/2000/svg">
<path d="M28 237.133L23.2422 238.809L23.2422 245.359L28 247.035L28 250L10.7969 243.625L10.7969 240.508L28 234.145L28 237.133ZM20.8281 239.535L16.1406 241.164C15.9375 241.227 15.6523 241.316 15.2852 241.434C14.9102 241.551 14.5312 241.668 14.1484 241.785C13.7578 241.902 13.4297 242 13.1641 242.078C13.4844 242.156 13.8437 242.254 14.2422 242.371C14.6328 242.48 15 242.59 15.3437 242.699C15.6875 242.801 15.9531 242.879 16.1406 242.934L20.8281 244.574L20.8281 239.535ZM28 222.18L28 231.883L10.8672 231.883L10.8672 222.18L13.2344 222.18L13.2344 229.07L17.8867 229.07L17.8867 222.613L20.2422 222.613L20.2422 229.07L25.6211 229.07L25.6211 222.18L28 222.18ZM19.2695 204.566C21.1992 204.566 22.8125 204.926 24.1094 205.645C25.3984 206.363 26.3711 207.406 27.0273 208.773C27.6758 210.141 28 211.789 28 213.719L28 218.477L10.8672 218.477L10.8672 213.203C10.8672 211.43 11.1875 209.898 11.8281 208.609C12.4609 207.32 13.4023 206.324 14.6523 205.621C15.8945 204.918 17.4336 204.566 19.2695 204.566ZM19.3516 207.496C17.9453 207.496 16.7891 207.719 15.8828 208.164C14.9766 208.602 14.3047 209.25 13.8672 210.109C13.4219 210.961 13.1992 212.012 13.1992 213.262L13.1992 215.664L25.6445 215.664L25.6445 213.672C25.6445 211.602 25.1172 210.055 24.0625 209.031C23.0078 208.008 21.4375 207.496 19.3516 207.496ZM10.8672 193.949L28 200.336L28 202.914L10.8672 196.527L10.8672 193.949ZM24.2969 176.828C25.1484 176.828 25.8672 177.035 26.4531 177.449C27.0391 177.863 27.4844 178.469 27.7891 179.266C28.0859 180.055 28.2344 181.023 28.2344 182.172C28.2344 183.078 28.168 183.859 28.0352 184.516C27.9102 185.164 27.7148 185.777 27.4492 186.355L25.0703 186.355C25.3594 185.738 25.6094 185.047 25.8203 184.281C26.0312 183.508 26.1367 182.777 26.1367 182.09C26.1367 181.184 25.9961 180.531 25.7148 180.133C25.4258 179.734 25.043 179.535 24.5664 179.535C24.2852 179.535 24.0352 179.617 23.8164 179.781C23.5898 179.937 23.3594 180.234 23.125 180.672C22.8828 181.102 22.5937 181.734 22.2578 182.57C21.9297 183.391 21.6016 184.082 21.2734 184.645C20.9453 185.207 20.5508 185.633 20.0898 185.922C19.6211 186.211 19.0234 186.355 18.2969 186.355C17.1484 186.355 16.2773 185.902 15.6836 184.996C15.082 184.082 14.7812 182.875 14.7812 181.375C14.7812 180.578 14.8633 179.828 15.0273 179.125C15.1836 178.414 15.4141 177.719 15.7187 177.039L17.793 177.906C17.5352 178.492 17.3242 179.082 17.1602 179.676C16.9883 180.262 16.9023 180.859 16.9023 181.469C16.9023 182.18 17.0117 182.723 17.2305 183.098C17.4492 183.465 17.7617 183.648 18.168 183.648C18.4727 183.648 18.7305 183.559 18.9414 183.379C19.1523 183.199 19.3633 182.891 19.5742 182.453C19.7852 182.008 20.0469 181.391 20.3594 180.602C20.6562 179.828 20.9687 179.16 21.2969 178.598C21.6172 178.027 22.0117 177.59 22.4805 177.285C22.9492 176.98 23.5547 176.828 24.2969 176.828ZM33.7539 165.613L28.2461 165.613C27.9336 165.613 27.5937 165.605 27.2266 165.59C26.8594 165.566 26.5234 165.531 26.2187 165.484L26.2187 165.625C26.7891 165.977 27.2695 166.465 27.6602 167.09C28.043 167.715 28.2344 168.531 28.2344 169.539C28.2344 171.062 27.6719 172.289 26.5469 173.219C25.4141 174.148 23.7422 174.613 21.5312 174.613C20.0625 174.613 18.8281 174.398 17.8281 173.969C16.8281 173.539 16.0703 172.937 15.5547 172.164C15.0391 171.383 14.7812 170.477 14.7812 169.445C14.7812 168.453 14.9766 167.648 15.3672 167.031C15.75 166.406 16.2227 165.906 16.7852 165.531L16.7852 165.437L15.0273 165.133L15.0273 162.848L33.7539 162.848L33.7539 165.613ZM26.0195 168.719C26.0195 167.937 25.8711 167.312 25.5742 166.844C25.2773 166.375 24.8281 166.035 24.2266 165.824C23.6172 165.613 22.8633 165.5 21.9648 165.484L21.543 165.484C20.0742 165.484 18.957 165.723 18.1914 166.199C17.4258 166.676 17.043 167.523 17.043 168.742C17.043 169.773 17.4453 170.539 18.25 171.039C19.0469 171.539 20.1562 171.789 21.5781 171.789C23.0156 171.789 24.1172 171.539 24.8828 171.039C25.6406 170.531 26.0195 169.758 26.0195 168.719ZM17.125 152.418L17.125 155.57L28 155.57L28 158.324L17.125 158.324L17.125 160.445L15.8008 160.445L14.9922 158.324L14.0898 158.324C12.9883 158.324 12.1133 158.152 11.4648 157.809C10.8164 157.457 10.3516 156.957 10.0703 156.309C9.78125 155.652 9.63671 154.871 9.63671 153.965C9.63671 153.371 9.6875 152.828 9.78906 152.336C9.88281 151.844 9.99218 151.43 10.1172 151.094L12.2031 151.809C12.1172 152.074 12.0391 152.371 11.9687 152.699C11.8906 153.027 11.8516 153.379 11.8516 153.754C11.8516 154.379 12.0469 154.84 12.4375 155.137C12.8281 155.426 13.3984 155.57 14.1484 155.57L15.0273 155.57L15.0273 152.418L17.125 152.418ZM26.0078 145.375C26.0078 145.016 25.9766 144.66 25.9141 144.309C25.8437 143.957 25.7617 143.637 25.668 143.348L27.7539 143.348C27.8867 143.652 28 144.047 28.0937 144.531C28.1875 145.016 28.2344 145.52 28.2344 146.043C28.2344 146.777 28.1133 147.437 27.8711 148.023C27.6211 148.609 27.1953 149.074 26.5937 149.418C25.9922 149.762 25.1602 149.934 24.0977 149.934L17.125 149.934L17.125 151.703L15.8945 151.703L14.9219 149.805L12.1445 148.902L12.1445 147.168L15.0273 147.168L15.0273 143.453L17.125 143.453L17.125 147.168L24.0625 147.168C24.7187 147.168 25.207 147.004 25.5273 146.676C25.8477 146.348 26.0078 145.914 26.0078 145.375Z" fill="#1B393B"/>
<path d="M55.1016 20.6992C55.1016 19.6914 55.1719 18.6992 55.3125 17.7227C55.4609 16.7461 55.7109 15.832 56.0625 14.9805C56.4141 14.1289 56.8984 13.3789 57.5156 12.7305C58.1406 12.082 58.9258 11.5742 59.8711 11.207C60.8164 10.832 61.9531 10.6445 63.2812 10.6445C63.625 10.6445 64.0117 10.6602 64.4414 10.6914C64.8711 10.7227 65.2266 10.7734 65.5078 10.8438V13.1289C65.2031 13.043 64.8672 12.9766 64.5 12.9297C64.1406 12.8828 63.7812 12.8594 63.4219 12.8594C61.9844 12.8594 60.8633 13.1328 60.0586 13.6797C59.2539 14.2188 58.6797 14.9609 58.3359 15.9062C57.9922 16.8438 57.793 17.918 57.7383 19.1289H57.8789C58.1133 18.7383 58.4062 18.3906 58.7578 18.0859C59.1094 17.7812 59.5391 17.5391 60.0469 17.3594C60.5547 17.1719 61.1445 17.0781 61.8164 17.0781C62.8164 17.0781 63.6875 17.2891 64.4297 17.7109C65.1719 18.125 65.7422 18.7266 66.1406 19.5156C66.5469 20.3047 66.75 21.2617 66.75 22.3867C66.75 23.5977 66.5195 24.6406 66.0586 25.5156C65.6055 26.3906 64.957 27.0625 64.1133 27.5312C63.2773 28 62.2812 28.2344 61.125 28.2344C60.2734 28.2344 59.4805 28.0781 58.7461 27.7656C58.0195 27.4531 57.3828 26.9844 56.8359 26.3594C56.2891 25.7344 55.8633 24.9531 55.5586 24.0156C55.2539 23.0703 55.1016 21.9648 55.1016 20.6992ZM61.0781 25.9609C61.9688 25.9609 62.6836 25.6719 63.2227 25.0938C63.7695 24.5078 64.043 23.6133 64.043 22.4102C64.043 21.4336 63.8008 20.6602 63.3164 20.0898C62.8398 19.5195 62.1211 19.2344 61.1602 19.2344C60.5039 19.2344 59.9297 19.375 59.4375 19.6562C58.9453 19.9375 58.5625 20.293 58.2891 20.7227C58.0234 21.1523 57.8906 21.5898 57.8906 22.0352C57.8906 22.4883 57.957 22.9453 58.0898 23.4062C58.2227 23.8672 58.4219 24.293 58.6875 24.6836C58.9531 25.0664 59.2852 25.375 59.6836 25.6094C60.082 25.8438 60.5469 25.9609 61.0781 25.9609ZM83.0508 28H79.8164L74.4844 20.2188L72.7969 21.5898V28H69.9844V10.8672H72.7969V19.0586C73.1406 18.6367 73.4883 18.2148 73.8398 17.793C74.1914 17.3711 74.543 16.9492 74.8945 16.5273L79.7227 10.8672H82.8984L76.5 18.3672L83.0508 28Z" fill="#1B393B"/>
<path d="M67.3008 142.238H64.9805V146H62.2617V142.238H54.4688V140.152L62.2969 128.82H64.9805V139.953H67.3008V142.238ZM62.2617 139.953V135.699C62.2617 135.348 62.2656 134.992 62.2734 134.633C62.2891 134.266 62.3047 133.914 62.3203 133.578C62.3359 133.242 62.3516 132.934 62.3672 132.652C62.3828 132.363 62.3945 132.125 62.4023 131.938H62.3086C62.1602 132.25 61.9961 132.57 61.8164 132.898C61.6367 133.219 61.4453 133.531 61.2422 133.836L57.0234 139.953H62.2617ZM83.0508 146H79.8164L74.4844 138.219L72.7969 139.59V146H69.9844V128.867H72.7969V137.059C73.1406 136.637 73.4883 136.215 73.8398 135.793C74.1914 135.371 74.543 134.949 74.8945 134.527L79.7227 128.867H82.8984L76.5 136.367L83.0508 146Z" fill="#1B393B"/>
<path d="M66.6797 264H55.0781V261.926L59.5195 257.426C60.3789 256.551 61.0859 255.797 61.6406 255.164C62.1953 254.523 62.6055 253.918 62.8711 253.348C63.1445 252.777 63.2812 252.156 63.2812 251.484C63.2812 250.656 63.043 250.031 62.5664 249.609C62.0898 249.18 61.4609 248.965 60.6797 248.965C59.9375 248.965 59.25 249.113 58.6172 249.41C57.9922 249.699 57.3438 250.113 56.6719 250.652L55.1602 248.836C55.6367 248.43 56.1445 248.059 56.6836 247.723C57.2305 247.387 57.8398 247.121 58.5117 246.926C59.1836 246.723 59.9492 246.621 60.8086 246.621C61.8945 246.621 62.832 246.816 63.6211 247.207C64.4102 247.59 65.0156 248.125 65.4375 248.812C65.8672 249.5 66.082 250.301 66.082 251.215C66.082 252.137 65.8984 252.988 65.5312 253.77C65.1641 254.551 64.6406 255.324 63.9609 256.09C63.2812 256.848 62.4727 257.672 61.5352 258.562L58.5703 261.457V261.586H66.6797V264ZM83.0508 264H79.8164L74.4844 256.219L72.7969 257.59V264H69.9844V246.867H72.7969V255.059C73.1406 254.637 73.4883 254.215 73.8398 253.793C74.1914 253.371 74.543 252.949 74.8945 252.527L79.7227 246.867H82.8984L76.5 254.367L83.0508 264Z" fill="#1B393B"/>
<path d="M66.6797 373.422C66.6797 374.805 66.5703 376.043 66.3516 377.137C66.1406 378.223 65.8047 379.145 65.3438 379.902C64.8828 380.66 64.2812 381.238 63.5391 381.637C62.7969 382.035 61.8984 382.234 60.8438 382.234C59.5234 382.234 58.4336 381.887 57.5742 381.191C56.7148 380.488 56.0781 379.48 55.6641 378.168C55.25 376.848 55.043 375.266 55.043 373.422C55.043 371.578 55.2305 370 55.6055 368.688C55.9883 367.367 56.6055 366.355 57.457 365.652C58.3086 364.949 59.4375 364.598 60.8438 364.598C62.1719 364.598 63.2656 364.949 64.125 365.652C64.9922 366.348 65.6328 367.355 66.0469 368.676C66.4688 369.988 66.6797 371.57 66.6797 373.422ZM57.8203 373.422C57.8203 374.867 57.9141 376.074 58.1016 377.043C58.2969 378.012 58.6172 378.738 59.0625 379.223C59.5078 379.699 60.1016 379.938 60.8438 379.938C61.5859 379.938 62.1797 379.699 62.625 379.223C63.0703 378.746 63.3906 378.023 63.5859 377.055C63.7891 376.086 63.8906 374.875 63.8906 373.422C63.8906 371.984 63.793 370.781 63.5977 369.812C63.4023 368.844 63.082 368.117 62.6367 367.633C62.1914 367.141 61.5938 366.895 60.8438 366.895C60.0938 366.895 59.4961 367.141 59.0508 367.633C58.6133 368.117 58.2969 368.844 58.1016 369.812C57.9141 370.781 57.8203 371.984 57.8203 373.422Z" fill="#1B393B"/>
<line x1="132" y1="9.5" x2="1228" y2="9.5" stroke="#B09676"/>
<line x1="132" y1="130.167" x2="1228" y2="130.167" stroke="#B09676"/>
<line x1="132" y1="250.833" x2="1228" y2="250.833" stroke="#B09676"/>
<line x1="132" y1="371.5" x2="1228" y2="371.5" stroke="#B09676"/>
<line x1="132.31" y1="4.21452" x2="1228.04" y2="36.5007" stroke="#FF0000" stroke-width="3"/>
<line x1="131.956" y1="129.83" x2="1227.69" y2="97.5006" stroke="#5CACEE" stroke-width="3" stroke-dasharray="6 6"/>
</svg>
