<svg width="187" height="156" viewBox="0 0 187 156" fill="none" xmlns="http://www.w3.org/2000/svg">
<path d="M186.675 86.6782C186.675 86.6726 186.677 86.6671 186.675 86.6597C186.675 86.6524 186.672 86.645 186.672 86.6357C185.858 76.7809 183.511 67.2066 179.653 58.0824C174.944 46.9489 168.202 36.9483 159.615 28.3629C151.027 19.7757 141.029 13.0354 129.895 8.32484C118.367 3.44816 106.123 0.977539 93.5 0.977539C80.8775 0.977539 68.6332 3.45001 57.1049 8.32484C45.9714 13.0336 35.9708 19.7757 27.3854 28.3629C18.7982 36.9501 12.0579 46.9489 7.3473 58.0824C2.47247 69.6108 0 81.855 0 94.4775C0 114.593 6.48378 134.098 18.3756 150.14C18.4033 150.187 18.4365 150.232 18.4734 150.272C19.861 152.138 21.3168 153.957 22.8501 155.725C23.0087 155.907 23.2302 156 23.4534 156C23.5217 156 23.5881 155.989 23.6545 155.972H27.5016H38.0521H39.9507H48.3903H58.5182H62.9502H68.8583H70.757H72.4452H77.0876H79.8719H89.747H96.9209H110.638H114.913C115.354 155.972 115.712 155.614 115.712 155.173V138.951C115.712 138.51 115.354 138.152 114.913 138.152H111.436V110.438C111.436 109.997 111.079 109.639 110.638 109.639H96.9209C96.4799 109.639 96.1219 109.997 96.1219 110.438V138.152H90.5478V101.277C91.7545 101.282 92.9575 101.269 94.1292 101.258C104.008 101.153 112.545 101.063 117.621 110.811C118.369 112.244 119.208 113.501 120.12 114.554V154.909C120.12 155.35 120.478 155.708 120.919 155.708H126.185C126.33 155.87 126.541 155.974 126.777 155.974H142.483H144.878H163.117C163.194 155.974 163.268 155.959 163.34 155.939C163.631 156.027 163.962 155.944 164.174 155.699C165.246 154.463 166.279 153.197 167.279 151.913C167.318 151.872 167.351 151.828 167.383 151.78C180.064 135.438 187 115.285 187 94.4812C187 91.8612 186.887 89.2614 186.675 86.6782ZM185.011 86.0342C182.92 86.3996 177.439 87.8757 176.438 93.3686C175.189 100.225 173.78 103.605 169.141 104.266C166.907 104.585 165.486 105.493 164.578 106.519V91.0198C164.578 90.5788 164.22 90.2208 163.779 90.2208H161.65V81.9676C161.65 81.5266 161.292 81.1686 160.851 81.1686H160.585V57.7429C160.585 57.3019 160.227 56.944 159.786 56.944H159.521V47.0947C159.521 46.6537 159.163 46.2957 158.722 46.2957H156.858V34.0496C156.858 33.6086 156.5 33.2507 156.059 33.2507H152.596V26.2705H155.028C171.706 41.3305 182.848 62.4018 185.011 86.0342ZM145.254 18.5745C148.018 20.4658 150.673 22.5028 153.21 24.6745H125.393C126.043 23.5545 127.753 21.9234 132.124 22.619C135.835 23.2113 137.396 21.5359 138.77 20.0598C140.232 18.4915 141.392 17.2497 145.254 18.5745ZM18.2612 147.254C7.46354 131.865 1.59604 113.449 1.59604 94.4794C1.59604 89.6821 1.96691 84.9696 2.67913 80.3697C3.60354 80.1409 5.78079 79.7737 7.61115 80.7701C8.94702 81.4971 9.86405 82.844 10.3327 84.7722C11.414 89.2134 13.6521 90.8353 15.4493 92.1398C16.7667 93.0955 17.811 93.8557 18.2612 95.5108V147.254ZM26.7027 65.4943V154.376H23.8003C22.4275 152.78 21.1138 151.14 19.8591 149.462V58.2743H39.1518V64.6953H27.4998C27.0606 64.6953 26.7027 65.0533 26.7027 65.4943ZM37.2531 119.514V154.376H28.3006V66.2932H47.5932V118.715H38.0521C37.6111 118.715 37.2531 119.073 37.2531 119.514ZM71.6481 154.376H69.9599H69.6573H63.7492H59.3172H47.5932H39.1536H38.851V120.313H71.6481V154.376ZM49.1893 118.715V104.201C49.8609 103.316 52.9053 99.5535 57.7211 97.4095V118.715H49.1893ZM59.319 118.715V69.072C63.1273 69.4115 67.8952 72.1072 69.9599 76.4322V94.1583L68.4764 94.9665C68.2199 95.1067 68.0594 95.3761 68.0594 95.6677V99.5111H62.9502C62.5092 99.5111 62.1513 99.869 62.1513 100.31V118.713H59.319V118.715ZM76.2905 154.376H73.246V119.514C73.246 119.073 72.8881 118.715 72.4471 118.715H63.751V101.111H76.2923V154.376H76.2905ZM79.0748 138.952V154.376H77.8865V100.312C77.8865 99.8708 77.5286 99.5129 77.0876 99.5129H69.6573V96.1437L88.9499 85.6209V138.154H79.8719C79.4327 138.154 79.0748 138.512 79.0748 138.952ZM97.7216 111.239H109.84V138.154H97.7216V111.239ZM114.117 139.75V154.376H109.842H97.7235H88.9518H80.6727V139.75H114.117ZM120.92 58.2743C120.479 58.2743 120.122 58.6322 120.122 59.0732V81.7019V84.2758V111.91C119.743 111.34 119.382 110.729 119.04 110.073C113.51 99.4557 104.087 99.5572 94.1144 99.6605C92.9465 99.6734 91.7471 99.6845 90.5496 99.679V84.274C90.5496 83.9917 90.4002 83.7315 90.1585 83.5876C89.9168 83.4437 89.616 83.4381 89.3688 83.5728L71.5577 93.2874V76.2551C71.5577 76.1407 71.5338 76.0263 71.4858 75.9229C68.9598 70.4115 62.9207 67.439 58.5219 67.439C58.0809 67.439 57.723 67.797 57.723 68.238V95.675C53.7061 97.2969 50.8019 99.952 49.1911 101.712V65.4943C49.1911 65.0533 48.8332 64.6953 48.3922 64.6953H40.7496V57.4753C40.7496 57.0344 40.3917 56.6764 39.9507 56.6764H19.0602C18.6192 56.6764 18.2612 57.0344 18.2612 57.4753V92.3833C17.6856 91.7874 17.0324 91.3113 16.3866 90.8445C14.6374 89.575 12.8273 88.2632 11.8845 84.3921C11.3033 82.0082 10.1224 80.3162 8.37319 79.3659C6.4395 78.3142 4.28439 78.4415 2.95959 78.6777C10.4729 35.5054 48.2113 2.57542 93.5 2.57542C111.283 2.57542 127.899 7.6569 141.981 16.4379C139.82 16.591 138.663 17.8309 137.6 18.9694C136.336 20.3256 135.244 21.4972 132.373 21.0415C124.546 19.7923 123.454 25.2742 123.445 25.3295C123.402 25.562 123.465 25.8019 123.616 25.9846C123.767 26.1672 123.993 26.2724 124.229 26.2724H150.998V34.0496V35.9224V50.2886H149.262C148.821 50.2886 148.463 50.6465 148.463 51.0875V59.3408H147.538C147.097 59.3408 146.739 59.6987 146.739 60.1397V81.1705H144.876C144.435 81.1705 144.077 81.5284 144.077 81.9694V110.093C143.222 110.875 140.173 113.532 136.357 115.375V94.4794C136.357 94.2487 136.257 94.0292 136.084 93.8779L121.716 81.3384V59.0732C121.718 58.6322 121.361 58.2743 120.92 58.2743ZM144.08 112.215V116.042H142.483C142.042 116.042 141.684 116.4 141.684 116.84V130.563H136.359V117.138C139.702 115.643 142.507 113.53 144.08 112.215ZM124.231 130.563C123.79 130.563 123.432 130.921 123.432 131.362C123.432 131.803 123.79 132.161 124.231 132.161H125.976V134.358H124.231C123.79 134.358 123.432 134.716 123.432 135.157C123.432 135.598 123.79 135.956 124.231 135.956H125.976V138.154H124.231C123.79 138.154 123.432 138.512 123.432 138.952C123.432 139.393 123.79 139.751 124.231 139.751H125.976V141.949H124.231C123.79 141.949 123.432 142.307 123.432 142.748C123.432 143.189 123.79 143.547 124.231 143.547H125.976V145.744H124.231C123.79 145.744 123.432 146.102 123.432 146.543C123.432 146.984 123.79 147.342 124.231 147.342H125.976V154.376H121.718V84.274V83.4566L134.763 94.841V130.561H132.25H126.777H124.231V130.563ZM144.08 154.376H143.282H127.576V132.159H132.25H144.08V154.376ZM165.908 151.073C165.03 152.195 164.126 153.298 163.194 154.383C163.168 154.381 163.144 154.376 163.117 154.376H145.677V131.362C145.677 130.921 145.319 130.563 144.878 130.563H143.28V117.639H144.878H153.374C153.815 117.639 154.173 117.281 154.173 116.84C154.173 116.4 153.815 116.042 153.374 116.042H145.675V82.7665H147.538H151.603C152.044 82.7665 152.402 82.4086 152.402 81.9676C152.402 81.5266 152.044 81.1686 151.603 81.1686H148.337V60.9368H149.262H155.397C155.838 60.9368 156.196 60.5789 156.196 60.1379C156.196 59.6969 155.838 59.3389 155.397 59.3389H150.059V51.8846H151.795C152.236 51.8846 152.594 51.5267 152.594 51.0857V34.8486H155.256V47.0947C155.256 47.5356 155.614 47.8936 156.055 47.8936H157.919V57.7429C157.919 58.1839 158.277 58.5418 158.718 58.5418H158.984V81.9676C158.984 82.4086 159.342 82.7665 159.783 82.7665H160.048V90.2208H154.59C154.149 90.2208 153.791 90.5788 153.791 91.0198C153.791 91.4608 154.149 91.8187 154.59 91.8187H160.847H162.976V128.555H155.79C155.349 128.555 154.991 128.913 154.991 129.354C154.991 129.795 155.349 130.153 155.79 130.153H163.775H165.905V151.073H165.908ZM167.506 148.968V129.352C167.506 128.911 167.148 128.553 166.707 128.553H164.578V110.44C164.578 110.279 164.632 106.521 169.366 105.847C175.464 104.978 176.889 99.8118 178.009 93.6546C178.826 89.171 183.299 87.9403 185.146 87.6192C185.314 89.885 185.402 92.1711 185.402 94.4775C185.404 114.158 179.09 133.242 167.506 148.968Z" fill="#1B393B"/>
<path d="M124.231 98.0012H132.25C132.69 98.0012 133.048 97.6432 133.048 97.2023C133.048 96.7613 132.69 96.4033 132.25 96.4033H124.231C123.79 96.4033 123.432 96.7613 123.432 97.2023C123.432 97.6432 123.79 98.0012 124.231 98.0012Z" fill="#1B393B"/>
<path d="M124.231 101.796H132.25C132.69 101.796 133.048 101.438 133.048 100.997C133.048 100.556 132.69 100.198 132.25 100.198H124.231C123.79 100.198 123.432 100.556 123.432 100.997C123.432 101.438 123.79 101.796 124.231 101.796Z" fill="#1B393B"/>
<path d="M124.231 105.591H132.25C132.69 105.591 133.048 105.233 133.048 104.792C133.048 104.351 132.69 103.993 132.25 103.993H124.231C123.79 103.993 123.432 104.351 123.432 104.792C123.433 105.235 123.79 105.591 124.231 105.591Z" fill="#1B393B"/>
<path d="M124.231 109.387H132.25C132.69 109.387 133.048 109.029 133.048 108.588C133.048 108.147 132.69 107.789 132.25 107.789H124.231C123.79 107.789 123.432 108.147 123.432 108.588C123.432 109.029 123.79 109.387 124.231 109.387Z" fill="#1B393B"/>
<path d="M107.271 114.021H105.094C104.653 114.021 104.295 114.379 104.295 114.82C104.295 115.261 104.653 115.619 105.094 115.619H107.271C107.712 115.619 108.07 115.261 108.07 114.82C108.07 114.379 107.714 114.021 107.271 114.021Z" fill="#1B393B"/>
<path d="M102.468 114.021H100.291C99.8501 114.021 99.4922 114.379 99.4922 114.82C99.4922 115.261 99.8501 115.619 100.291 115.619H102.468C102.909 115.619 103.267 115.261 103.267 114.82C103.267 114.379 102.909 114.021 102.468 114.021Z" fill="#1B393B"/>
<path d="M107.271 118.291H105.094C104.653 118.291 104.295 118.649 104.295 119.09C104.295 119.531 104.653 119.889 105.094 119.889H107.271C107.712 119.889 108.07 119.531 108.07 119.09C108.07 118.647 107.714 118.291 107.271 118.291Z" fill="#1B393B"/>
<path d="M102.468 118.291H100.291C99.8501 118.291 99.4922 118.649 99.4922 119.09C99.4922 119.531 99.8501 119.889 100.291 119.889H102.468C102.909 119.889 103.267 119.531 103.267 119.09C103.267 118.647 102.909 118.291 102.468 118.291Z" fill="#1B393B"/>
<path d="M107.271 122.561H105.094C104.653 122.561 104.295 122.919 104.295 123.359C104.295 123.8 104.653 124.158 105.094 124.158H107.271C107.712 124.158 108.07 123.8 108.07 123.359C108.07 122.919 107.714 122.561 107.271 122.561Z" fill="#1B393B"/>
<path d="M102.468 122.561H100.291C99.8501 122.561 99.4922 122.919 99.4922 123.359C99.4922 123.8 99.8501 124.158 100.291 124.158H102.468C102.909 124.158 103.267 123.8 103.267 123.359C103.267 122.919 102.909 122.561 102.468 122.561Z" fill="#1B393B"/>
<path d="M107.271 126.83H105.094C104.653 126.83 104.295 127.188 104.295 127.629C104.295 128.07 104.653 128.428 105.094 128.428H107.271C107.712 128.428 108.07 128.07 108.07 127.629C108.07 127.188 107.714 126.83 107.271 126.83Z" fill="#1B393B"/>
<path d="M102.468 126.83H100.291C99.8501 126.83 99.4922 127.188 99.4922 127.629C99.4922 128.07 99.8501 128.428 100.291 128.428H102.468C102.909 128.428 103.267 128.07 103.267 127.629C103.267 127.188 102.909 126.83 102.468 126.83Z" fill="#1B393B"/>
<path d="M107.271 131.101H105.094C104.653 131.101 104.295 131.459 104.295 131.9C104.295 132.341 104.653 132.698 105.094 132.698H107.271C107.712 132.698 108.07 132.341 108.07 131.9C108.07 131.459 107.714 131.101 107.271 131.101Z" fill="#1B393B"/>
<path d="M102.468 131.101H100.291C99.8501 131.101 99.4922 131.459 99.4922 131.9C99.4922 132.341 99.8501 132.698 100.291 132.698H102.468C102.909 132.698 103.267 132.341 103.267 131.9C103.267 131.459 102.909 131.101 102.468 131.101Z" fill="#1B393B"/>
<path d="M107.271 135.37H105.094C104.653 135.37 104.295 135.728 104.295 136.169C104.295 136.61 104.653 136.968 105.094 136.968H107.271C107.712 136.968 108.07 136.61 108.07 136.169C108.07 135.728 107.714 135.37 107.271 135.37Z" fill="#1B393B"/>
<path d="M102.468 135.37H100.291C99.8501 135.37 99.4922 135.728 99.4922 136.169C99.4922 136.61 99.8501 136.968 100.291 136.968H102.468C102.909 136.968 103.267 136.61 103.267 136.169C103.267 135.728 102.909 135.37 102.468 135.37Z" fill="#1B393B"/>
<path d="M124.231 113.183H132.25C132.69 113.183 133.048 112.825 133.048 112.384C133.048 111.943 132.69 111.585 132.25 111.585H124.231C123.79 111.585 123.432 111.943 123.432 112.384C123.433 112.827 123.79 113.183 124.231 113.183Z" fill="#1B393B"/>
<path d="M124.231 116.977H132.25C132.69 116.977 133.048 116.619 133.048 116.178C133.048 115.737 132.69 115.379 132.25 115.379H124.231C123.79 115.379 123.432 115.737 123.432 116.178C123.433 116.621 123.79 116.977 124.231 116.977Z" fill="#1B393B"/>
<path d="M124.231 120.773H132.25C132.69 120.773 133.048 120.415 133.048 119.974C133.048 119.533 132.69 119.175 132.25 119.175H124.231C123.79 119.175 123.432 119.533 123.432 119.974C123.433 120.417 123.79 120.773 124.231 120.773Z" fill="#1B393B"/>
<path d="M124.231 124.569H132.25C132.69 124.569 133.048 124.211 133.048 123.77C133.048 123.329 132.69 122.971 132.25 122.971H124.231C123.79 122.971 123.432 123.329 123.432 123.77C123.433 124.212 123.79 124.569 124.231 124.569Z" fill="#1B393B"/>
<path d="M133.048 127.566C133.048 127.125 132.69 126.767 132.25 126.767H124.231C123.79 126.767 123.432 127.125 123.432 127.566C123.432 128.007 123.79 128.364 124.231 128.364H132.25C132.69 128.363 133.048 128.007 133.048 127.566Z" fill="#1B393B"/>
<path d="M41.4728 124.158H49.0636C49.5046 124.158 49.8626 123.8 49.8626 123.359C49.8626 122.919 49.5046 122.561 49.0636 122.561H41.4728C41.0318 122.561 40.6738 122.919 40.6738 123.359C40.6738 123.8 41.0318 124.158 41.4728 124.158Z" fill="#1B393B"/>
<path d="M52.506 124.158H56.3014C56.7424 124.158 57.1003 123.8 57.1003 123.359C57.1003 122.919 56.7424 122.561 56.3014 122.561H52.506C52.065 122.561 51.707 122.919 51.707 123.359C51.707 123.8 52.065 124.158 52.506 124.158Z" fill="#1B393B"/>
<path d="M59.1525 124.158H62.9479C63.3889 124.158 63.7468 123.8 63.7468 123.359C63.7468 122.919 63.3889 122.561 62.9479 122.561H59.1525C58.7115 122.561 58.3535 122.919 58.3535 123.359C58.3535 123.8 58.7115 124.158 59.1525 124.158Z" fill="#1B393B"/>
<path d="M65.8068 124.158H69.6022C70.0432 124.158 70.4011 123.8 70.4011 123.359C70.4011 122.919 70.0432 122.561 69.6022 122.561H65.8068C65.3658 122.561 65.0078 122.919 65.0078 123.359C65.0078 123.8 65.3639 124.158 65.8068 124.158Z" fill="#1B393B"/>
<path d="M41.4728 128.542H49.0636C49.5046 128.542 49.8626 128.184 49.8626 127.743C49.8626 127.302 49.5046 126.944 49.0636 126.944H41.4728C41.0318 126.944 40.6738 127.302 40.6738 127.743C40.6738 128.184 41.0318 128.542 41.4728 128.542Z" fill="#1B393B"/>
<path d="M52.506 128.542H56.3014C56.7424 128.542 57.1003 128.184 57.1003 127.743C57.1003 127.302 56.7424 126.944 56.3014 126.944H52.506C52.065 126.944 51.707 127.302 51.707 127.743C51.707 128.184 52.065 128.542 52.506 128.542Z" fill="#1B393B"/>
<path d="M59.1525 128.542H62.9479C63.3889 128.542 63.7468 128.184 63.7468 127.743C63.7468 127.302 63.3889 126.944 62.9479 126.944H59.1525C58.7115 126.944 58.3535 127.302 58.3535 127.743C58.3554 128.184 58.7115 128.542 59.1525 128.542Z" fill="#1B393B"/>
<path d="M65.8068 128.542H69.6022C70.0432 128.542 70.4011 128.184 70.4011 127.743C70.4011 127.302 70.0432 126.944 69.6022 126.944H65.8068C65.3658 126.944 65.0078 127.302 65.0078 127.743C65.0078 128.184 65.3639 128.542 65.8068 128.542Z" fill="#1B393B"/>
<path d="M41.4728 132.926H49.0636C49.5046 132.926 49.8626 132.568 49.8626 132.127C49.8626 131.686 49.5046 131.328 49.0636 131.328H41.4728C41.0318 131.328 40.6738 131.686 40.6738 132.127C40.6738 132.568 41.0318 132.926 41.4728 132.926Z" fill="#1B393B"/>
<path d="M52.506 132.926H56.3014C56.7424 132.926 57.1003 132.568 57.1003 132.127C57.1003 131.686 56.7424 131.328 56.3014 131.328H52.506C52.065 131.328 51.707 131.686 51.707 132.127C51.707 132.568 52.065 132.926 52.506 132.926Z" fill="#1B393B"/>
<path d="M59.1525 132.926H62.9479C63.3889 132.926 63.7468 132.568 63.7468 132.127C63.7468 131.686 63.3889 131.328 62.9479 131.328H59.1525C58.7115 131.328 58.3535 131.686 58.3535 132.127C58.3535 132.568 58.7115 132.926 59.1525 132.926Z" fill="#1B393B"/>
<path d="M65.8068 132.926H69.6022C70.0432 132.926 70.4011 132.568 70.4011 132.127C70.4011 131.686 70.0432 131.328 69.6022 131.328H65.8068C65.3658 131.328 65.0078 131.686 65.0078 132.127C65.0078 132.568 65.3639 132.926 65.8068 132.926Z" fill="#1B393B"/>
<path d="M41.4728 137.311H49.0636C49.5046 137.311 49.8626 136.953 49.8626 136.512C49.8626 136.071 49.5046 135.713 49.0636 135.713H41.4728C41.0318 135.713 40.6738 136.071 40.6738 136.512C40.6738 136.953 41.0318 137.311 41.4728 137.311Z" fill="#1B393B"/>
<path d="M52.506 137.311H56.3014C56.7424 137.311 57.1003 136.953 57.1003 136.512C57.1003 136.071 56.7424 135.713 56.3014 135.713H52.506C52.065 135.713 51.707 136.071 51.707 136.512C51.707 136.953 52.065 137.311 52.506 137.311Z" fill="#1B393B"/>
<path d="M59.1525 137.311H62.9479C63.3889 137.311 63.7468 136.953 63.7468 136.512C63.7468 136.071 63.3889 135.713 62.9479 135.713H59.1525C58.7115 135.713 58.3535 136.071 58.3535 136.512C58.3554 136.953 58.7115 137.311 59.1525 137.311Z" fill="#1B393B"/>
<path d="M65.8068 137.311H69.6022C70.0432 137.311 70.4011 136.953 70.4011 136.512C70.4011 136.071 70.0432 135.713 69.6022 135.713H65.8068C65.3658 135.713 65.0078 136.071 65.0078 136.512C65.0078 136.953 65.3639 137.311 65.8068 137.311Z" fill="#1B393B"/>
<path d="M41.4728 141.695H49.0636C49.5046 141.695 49.8626 141.337 49.8626 140.896C49.8626 140.455 49.5046 140.097 49.0636 140.097H41.4728C41.0318 140.097 40.6738 140.455 40.6738 140.896C40.6738 141.338 41.0318 141.695 41.4728 141.695Z" fill="#1B393B"/>
<path d="M52.506 141.695H56.3014C56.7424 141.695 57.1003 141.337 57.1003 140.896C57.1003 140.455 56.7424 140.097 56.3014 140.097H52.506C52.065 140.097 51.707 140.455 51.707 140.896C51.707 141.338 52.065 141.695 52.506 141.695Z" fill="#1B393B"/>
<path d="M59.1525 141.695H62.9479C63.3889 141.695 63.7468 141.337 63.7468 140.896C63.7468 140.455 63.3889 140.097 62.9479 140.097H59.1525C58.7115 140.097 58.3535 140.455 58.3535 140.896C58.3554 141.338 58.7115 141.695 59.1525 141.695Z" fill="#1B393B"/>
<path d="M65.8068 141.695H69.6022C70.0432 141.695 70.4011 141.337 70.4011 140.896C70.4011 140.455 70.0432 140.097 69.6022 140.097H65.8068C65.3658 140.097 65.0078 140.455 65.0078 140.896C65.0078 141.338 65.3639 141.695 65.8068 141.695Z" fill="#1B393B"/>
<path d="M41.4728 146.078H49.0636C49.5046 146.078 49.8626 145.72 49.8626 145.279C49.8626 144.838 49.5046 144.48 49.0636 144.48H41.4728C41.0318 144.48 40.6738 144.838 40.6738 145.279C40.6738 145.722 41.0318 146.078 41.4728 146.078Z" fill="#1B393B"/>
<path d="M52.506 146.078H56.3014C56.7424 146.078 57.1003 145.72 57.1003 145.279C57.1003 144.838 56.7424 144.48 56.3014 144.48H52.506C52.065 144.48 51.707 144.838 51.707 145.279C51.707 145.722 52.065 146.078 52.506 146.078Z" fill="#1B393B"/>
<path d="M59.1525 146.078H62.9479C63.3889 146.078 63.7468 145.72 63.7468 145.279C63.7468 144.838 63.3889 144.48 62.9479 144.48H59.1525C58.7115 144.48 58.3535 144.838 58.3535 145.279C58.3554 145.722 58.7115 146.078 59.1525 146.078Z" fill="#1B393B"/>
<path d="M65.8068 146.078H69.6022C70.0432 146.078 70.4011 145.72 70.4011 145.279C70.4011 144.838 70.0432 144.48 69.6022 144.48H65.8068C65.3658 144.48 65.0078 144.838 65.0078 145.279C65.0078 145.722 65.3639 146.078 65.8068 146.078Z" fill="#1B393B"/>
<path d="M44.1281 69.2666H40.2423C39.8013 69.2666 39.4434 69.6246 39.4434 70.0655C39.4434 70.5065 39.8013 70.8645 40.2423 70.8645H44.1281C44.5691 70.8645 44.9271 70.5065 44.9271 70.0655C44.9271 69.6246 44.5691 69.2666 44.1281 69.2666Z" fill="#1B393B"/>
<path d="M36.0455 69.2666H31.9825C31.5416 69.2666 31.1836 69.6246 31.1836 70.0655C31.1836 70.5065 31.5416 70.8645 31.9825 70.8645H36.0455C36.4865 70.8645 36.8444 70.5065 36.8444 70.0655C36.8444 69.6246 36.4865 69.2666 36.0455 69.2666Z" fill="#1B393B"/>
<path d="M44.1281 74.1055H40.2423C39.8013 74.1055 39.4434 74.4634 39.4434 74.9044C39.4434 75.3454 39.8013 75.7033 40.2423 75.7033H44.1281C44.5691 75.7033 44.9271 75.3454 44.9271 74.9044C44.9271 74.4634 44.5691 74.1055 44.1281 74.1055Z" fill="#1B393B"/>
<path d="M36.0455 74.1055H31.9825C31.5416 74.1055 31.1836 74.4634 31.1836 74.9044C31.1836 75.3454 31.5416 75.7033 31.9825 75.7033H36.0455C36.4865 75.7033 36.8444 75.3454 36.8444 74.9044C36.8444 74.4634 36.4865 74.1055 36.0455 74.1055Z" fill="#1B393B"/>
<path d="M44.1281 78.9443H40.2423C39.8013 78.9443 39.4434 79.3023 39.4434 79.7433C39.4434 80.1843 39.8013 80.5422 40.2423 80.5422H44.1281C44.5691 80.5422 44.9271 80.1843 44.9271 79.7433C44.9271 79.3023 44.5691 78.9443 44.1281 78.9443Z" fill="#1B393B"/>
<path d="M36.0455 78.9443H31.9825C31.5416 78.9443 31.1836 79.3023 31.1836 79.7433C31.1836 80.1843 31.5416 80.5422 31.9825 80.5422H36.0455C36.4865 80.5422 36.8444 80.1843 36.8444 79.7433C36.8444 79.3023 36.4865 78.9443 36.0455 78.9443Z" fill="#1B393B"/>
<path d="M44.1281 83.7842H40.2423C39.8013 83.7842 39.4434 84.1421 39.4434 84.5831C39.4434 85.0241 39.8013 85.3821 40.2423 85.3821H44.1281C44.5691 85.3821 44.9271 85.0241 44.9271 84.5831C44.9271 84.1421 44.5691 83.7842 44.1281 83.7842Z" fill="#1B393B"/>
<path d="M36.0455 83.7842H31.9825C31.5416 83.7842 31.1836 84.1421 31.1836 84.5831C31.1836 85.0241 31.5416 85.3821 31.9825 85.3821H36.0455C36.4865 85.3821 36.8444 85.0241 36.8444 84.5831C36.8444 84.1421 36.4865 83.7842 36.0455 83.7842Z" fill="#1B393B"/>
<path d="M44.1281 88.623H40.2423C39.8013 88.623 39.4434 88.981 39.4434 89.422C39.4434 89.863 39.8013 90.2209 40.2423 90.2209H44.1281C44.5691 90.2209 44.9271 89.863 44.9271 89.422C44.9271 88.981 44.5691 88.623 44.1281 88.623Z" fill="#1B393B"/>
<path d="M36.0455 88.623H31.9825C31.5416 88.623 31.1836 88.981 31.1836 89.422C31.1836 89.863 31.5416 90.2209 31.9825 90.2209H36.0455C36.4865 90.2209 36.8444 89.863 36.8444 89.422C36.8444 88.981 36.4865 88.623 36.0455 88.623Z" fill="#1B393B"/>
<path d="M44.1281 93.4619H40.2423C39.8013 93.4619 39.4434 93.8199 39.4434 94.2609C39.4434 94.7018 39.8013 95.0598 40.2423 95.0598H44.1281C44.5691 95.0598 44.9271 94.7018 44.9271 94.2609C44.9271 93.8199 44.5691 93.4619 44.1281 93.4619Z" fill="#1B393B"/>
<path d="M36.0455 93.4619H31.9825C31.5416 93.4619 31.1836 93.8199 31.1836 94.2609C31.1836 94.7018 31.5416 95.0598 31.9825 95.0598H36.0455C36.4865 95.0598 36.8444 94.7018 36.8444 94.2609C36.8444 93.8199 36.4865 93.4619 36.0455 93.4619Z" fill="#1B393B"/>
<path d="M44.1281 98.3018H40.2423C39.8013 98.3018 39.4434 98.6597 39.4434 99.1007C39.4434 99.5417 39.8013 99.8996 40.2423 99.8996H44.1281C44.5691 99.8996 44.9271 99.5417 44.9271 99.1007C44.9271 98.6597 44.5691 98.3018 44.1281 98.3018Z" fill="#1B393B"/>
<path d="M36.0455 98.3018H31.9825C31.5416 98.3018 31.1836 98.6597 31.1836 99.1007C31.1836 99.5417 31.5416 99.8996 31.9825 99.8996H36.0455C36.4865 99.8996 36.8444 99.5417 36.8444 99.1007C36.8444 98.6597 36.4865 98.3018 36.0455 98.3018Z" fill="#1B393B"/>
<path d="M44.1281 103.141H40.2423C39.8013 103.141 39.4434 103.499 39.4434 103.94C39.4434 104.381 39.8013 104.739 40.2423 104.739H44.1281C44.5691 104.739 44.9271 104.381 44.9271 103.94C44.9271 103.499 44.5691 103.141 44.1281 103.141Z" fill="#1B393B"/>
<path d="M36.0455 103.141H31.9825C31.5416 103.141 31.1836 103.499 31.1836 103.94C31.1836 104.381 31.5416 104.739 31.9825 104.739H36.0455C36.4865 104.739 36.8444 104.381 36.8444 103.94C36.8444 103.499 36.4865 103.141 36.0455 103.141Z" fill="#1B393B"/>
<path d="M44.1281 107.98H40.2423C39.8013 107.98 39.4434 108.338 39.4434 108.779C39.4434 109.22 39.8013 109.578 40.2423 109.578H44.1281C44.5691 109.578 44.9271 109.22 44.9271 108.779C44.9271 108.338 44.5691 107.98 44.1281 107.98Z" fill="#1B393B"/>
<path d="M36.0455 107.98H31.9825C31.5416 107.98 31.1836 108.338 31.1836 108.779C31.1836 109.22 31.5416 109.578 31.9825 109.578H36.0455C36.4865 109.578 36.8444 109.22 36.8444 108.779C36.8444 108.338 36.4865 107.98 36.0455 107.98Z" fill="#1B393B"/>
<path d="M44.1281 112.819H40.2423C39.8013 112.819 39.4434 113.177 39.4434 113.618C39.4434 114.059 39.8013 114.417 40.2423 114.417H44.1281C44.5691 114.417 44.9271 114.059 44.9271 113.618C44.9271 113.177 44.5691 112.819 44.1281 112.819Z" fill="#1B393B"/>
<path d="M36.0455 112.819H31.9825C31.5416 112.819 31.1836 113.177 31.1836 113.618C31.1836 114.059 31.5416 114.417 31.9825 114.417H36.0455C36.4865 114.417 36.8444 114.059 36.8444 113.618C36.8444 113.177 36.4865 112.819 36.0455 112.819Z" fill="#1B393B"/>
<path d="M151.843 120.095H147.984C147.544 120.095 147.186 120.453 147.186 120.894C147.186 121.335 147.544 121.693 147.984 121.693H151.843C152.284 121.693 152.642 121.335 152.642 120.894C152.642 120.453 152.285 120.095 151.843 120.095Z" fill="#1B393B"/>
<path d="M151.843 124.522H147.984C147.544 124.522 147.186 124.88 147.186 125.321C147.186 125.762 147.544 126.12 147.984 126.12H151.843C152.284 126.12 152.642 125.762 152.642 125.321C152.642 124.879 152.285 124.522 151.843 124.522Z" fill="#1B393B"/>
<path d="M151.843 128.951H147.984C147.544 128.951 147.186 129.309 147.186 129.75C147.186 130.191 147.544 130.549 147.984 130.549H151.843C152.284 130.549 152.642 130.191 152.642 129.75C152.642 129.309 152.285 128.951 151.843 128.951Z" fill="#1B393B"/>
<path d="M151.843 133.377H147.984C147.544 133.377 147.186 133.735 147.186 134.176C147.186 134.617 147.544 134.975 147.984 134.975H151.843C152.284 134.975 152.642 134.617 152.642 134.176C152.642 133.735 152.285 133.377 151.843 133.377Z" fill="#1B393B"/>
<path d="M162.8 133.377H158.942C158.501 133.377 158.143 133.735 158.143 134.176C158.143 134.617 158.501 134.975 158.942 134.975H162.8C163.241 134.975 163.599 134.617 163.599 134.176C163.599 133.735 163.243 133.377 162.8 133.377Z" fill="#1B393B"/>
<path d="M162.8 137.805H158.942C158.501 137.805 158.143 138.163 158.143 138.604C158.143 139.045 158.501 139.403 158.942 139.403H162.8C163.241 139.403 163.599 139.045 163.599 138.604C163.599 138.163 163.243 137.805 162.8 137.805Z" fill="#1B393B"/>
<path d="M162.8 142.233H158.942C158.501 142.233 158.143 142.591 158.143 143.032C158.143 143.473 158.501 143.831 158.942 143.831H162.8C163.241 143.831 163.599 143.473 163.599 143.032C163.599 142.591 163.243 142.233 162.8 142.233Z" fill="#1B393B"/>
<path d="M162.8 146.661H158.942C158.501 146.661 158.143 147.019 158.143 147.46C158.143 147.901 158.501 148.259 158.942 148.259H162.8C163.241 148.259 163.599 147.901 163.599 147.46C163.599 147.019 163.243 146.661 162.8 146.661Z" fill="#1B393B"/>
<path d="M151.843 137.805H147.984C147.544 137.805 147.186 138.163 147.186 138.604C147.186 139.045 147.544 139.403 147.984 139.403H151.843C152.284 139.403 152.642 139.045 152.642 138.604C152.642 138.163 152.285 137.805 151.843 137.805Z" fill="#1B393B"/>
<path d="M151.843 142.233H147.984C147.544 142.233 147.186 142.591 147.186 143.032C147.186 143.473 147.544 143.831 147.984 143.831H151.843C152.284 143.831 152.642 143.473 152.642 143.032C152.642 142.591 152.285 142.233 151.843 142.233Z" fill="#1B393B"/>
<path d="M151.843 146.661H147.984C147.544 146.661 147.186 147.019 147.186 147.46C147.186 147.901 147.544 148.259 147.984 148.259H151.843C152.284 148.259 152.642 147.901 152.642 147.46C152.642 147.019 152.285 146.661 151.843 146.661Z" fill="#1B393B"/>
<path d="M150.848 64.8244H153.567C154.008 64.8244 154.366 64.4665 154.366 64.0255C154.366 63.5845 154.008 63.2266 153.567 63.2266H150.848C150.407 63.2266 150.049 63.5845 150.049 64.0255C150.049 64.4665 150.405 64.8244 150.848 64.8244Z" fill="#1B393B"/>
<path d="M150.848 68.7073H153.567C154.008 68.7073 154.366 68.3493 154.366 67.9083C154.366 67.4673 154.008 67.1094 153.567 67.1094H150.848C150.407 67.1094 150.049 67.4673 150.049 67.9083C150.049 68.3493 150.405 68.7073 150.848 68.7073Z" fill="#1B393B"/>
<path d="M150.848 72.593H153.567C154.008 72.593 154.366 72.235 154.366 71.7941C154.366 71.3531 154.008 70.9951 153.567 70.9951H150.848C150.407 70.9951 150.049 71.3531 150.049 71.7941C150.049 72.235 150.405 72.593 150.848 72.593Z" fill="#1B393B"/>
<path d="M154.366 75.6798C154.366 75.2388 154.008 74.8809 153.567 74.8809H150.848C150.407 74.8809 150.049 75.2388 150.049 75.6798C150.049 76.1208 150.407 76.4787 150.848 76.4787H153.567C154.008 76.4769 154.366 76.1208 154.366 75.6798Z" fill="#1B393B"/>
<path d="M156.791 96.5783H160.397C160.838 96.5783 161.195 96.2204 161.195 95.7794C161.195 95.3384 160.838 94.9805 160.397 94.9805H156.791C156.35 94.9805 155.992 95.3384 155.992 95.7794C155.992 96.2204 156.35 96.5783 156.791 96.5783Z" fill="#1B393B"/>
<path d="M156.791 101.339H160.397C160.838 101.339 161.195 100.981 161.195 100.54C161.195 100.099 160.838 99.7412 160.397 99.7412H156.791C156.35 99.7412 155.992 100.099 155.992 100.54C155.992 100.981 156.35 101.339 156.791 101.339Z" fill="#1B393B"/>
<path d="M156.791 106.099H160.397C160.838 106.099 161.195 105.741 161.195 105.3C161.195 104.859 160.838 104.501 160.397 104.501H156.791C156.35 104.501 155.992 104.859 155.992 105.3C155.992 105.741 156.35 106.099 156.791 106.099Z" fill="#1B393B"/>
<path d="M156.791 110.857H160.397C160.838 110.857 161.195 110.499 161.195 110.058C161.195 109.617 160.838 109.259 160.397 109.259H156.791C156.35 109.259 155.992 109.617 155.992 110.058C155.992 110.501 156.35 110.857 156.791 110.857Z" fill="#1B393B"/>
<path d="M150.073 85.0176H147.986C147.545 85.0176 147.188 85.3755 147.188 85.8165C147.188 86.2575 147.545 86.6155 147.986 86.6155H150.073C150.514 86.6155 150.872 86.2575 150.872 85.8165C150.872 85.3755 150.514 85.0176 150.073 85.0176Z" fill="#1B393B"/>
<path d="M150.073 88.8643H147.986C147.545 88.8643 147.188 89.2222 147.188 89.6632C147.188 90.1042 147.545 90.4621 147.986 90.4621H150.073C150.514 90.4621 150.872 90.1042 150.872 89.6632C150.87 89.2222 150.514 88.8643 150.073 88.8643Z" fill="#1B393B"/>
<path d="M150.073 92.7139H147.986C147.545 92.7139 147.188 93.0718 147.188 93.5128C147.188 93.9538 147.545 94.3117 147.986 94.3117H150.073C150.514 94.3117 150.872 93.9538 150.872 93.5128C150.872 93.0718 150.514 92.7139 150.073 92.7139Z" fill="#1B393B"/>
<path d="M150.073 96.5605H147.986C147.545 96.5605 147.188 96.9185 147.188 97.3595C147.188 97.8005 147.545 98.1584 147.986 98.1584H150.073C150.514 98.1584 150.872 97.8005 150.872 97.3595C150.87 96.9185 150.514 96.5605 150.073 96.5605Z" fill="#1B393B"/>
<path d="M150.073 100.41H147.986C147.545 100.41 147.188 100.768 147.188 101.209C147.188 101.65 147.545 102.008 147.986 102.008H150.073C150.514 102.008 150.872 101.65 150.872 101.209C150.872 100.768 150.514 100.41 150.073 100.41Z" fill="#1B393B"/>
<path d="M150.073 104.257H147.986C147.545 104.257 147.188 104.615 147.188 105.056C147.188 105.497 147.545 105.855 147.986 105.855H150.073C150.514 105.855 150.872 105.497 150.872 105.056C150.872 104.615 150.514 104.257 150.073 104.257Z" fill="#1B393B"/>
<path d="M150.073 108.106H147.986C147.545 108.106 147.188 108.464 147.188 108.905C147.188 109.346 147.545 109.704 147.986 109.704H150.073C150.514 109.704 150.872 109.346 150.872 108.905C150.87 108.464 150.514 108.106 150.073 108.106Z" fill="#1B393B"/>
<path d="M85.754 90.9951C85.313 90.9951 84.9551 91.3531 84.9551 91.7941V133.418C84.9551 133.859 85.313 134.217 85.754 134.217C86.195 134.217 86.553 133.859 86.553 133.418V91.7941C86.5511 91.3531 86.195 90.9951 85.754 90.9951Z" fill="#1B393B"/>
<path d="M82.9379 93.6807H79.8732C79.4322 93.6807 79.0742 94.0386 79.0742 94.4796C79.0742 94.9206 79.4322 95.2786 79.8732 95.2786H82.9379C83.3789 95.2786 83.7369 94.9206 83.7369 94.4796C83.7369 94.0386 83.3789 93.6807 82.9379 93.6807Z" fill="#1B393B"/>
<path d="M82.9379 97.6367H79.8732C79.4322 97.6367 79.0742 97.9947 79.0742 98.4357C79.0742 98.8766 79.4322 99.2346 79.8732 99.2346H82.9379C83.3789 99.2346 83.7369 98.8766 83.7369 98.4357C83.7369 97.9947 83.3789 97.6367 82.9379 97.6367Z" fill="#1B393B"/>
<path d="M82.9379 101.593H79.8732C79.4322 101.593 79.0742 101.951 79.0742 102.392C79.0742 102.833 79.4322 103.191 79.8732 103.191H82.9379C83.3789 103.191 83.7369 102.833 83.7369 102.392C83.7369 101.951 83.3789 101.593 82.9379 101.593Z" fill="#1B393B"/>
<path d="M82.9379 105.549H79.8732C79.4322 105.549 79.0742 105.907 79.0742 106.348C79.0742 106.789 79.4322 107.147 79.8732 107.147H82.9379C83.3789 107.147 83.7369 106.789 83.7369 106.348C83.7369 105.907 83.3789 105.549 82.9379 105.549Z" fill="#1B393B"/>
<path d="M82.9379 109.507H79.8732C79.4322 109.507 79.0742 109.865 79.0742 110.306C79.0742 110.747 79.4322 111.105 79.8732 111.105H82.9379C83.3789 111.105 83.7369 110.747 83.7369 110.306C83.7369 109.863 83.3789 109.507 82.9379 109.507Z" fill="#1B393B"/>
<path d="M82.9379 113.462H79.8732C79.4322 113.462 79.0742 113.82 79.0742 114.261C79.0742 114.702 79.4322 115.06 79.8732 115.06H82.9379C83.3789 115.06 83.7369 114.702 83.7369 114.261C83.7369 113.818 83.3789 113.462 82.9379 113.462Z" fill="#1B393B"/>
<path d="M82.9379 117.418H79.8732C79.4322 117.418 79.0742 117.776 79.0742 118.217C79.0742 118.658 79.4322 119.016 79.8732 119.016H82.9379C83.3789 119.016 83.7369 118.658 83.7369 118.217C83.7369 117.776 83.3789 117.418 82.9379 117.418Z" fill="#1B393B"/>
<path d="M82.9379 121.375H79.8732C79.4322 121.375 79.0742 121.733 79.0742 122.174C79.0742 122.615 79.4322 122.973 79.8732 122.973H82.9379C83.3789 122.973 83.7369 122.615 83.7369 122.174C83.7369 121.733 83.3789 121.375 82.9379 121.375Z" fill="#1B393B"/>
<path d="M72.1153 104.737H74.0509C74.4919 104.737 74.8498 104.379 74.8498 103.938C74.8498 103.497 74.4919 103.139 74.0509 103.139H72.1153C71.6744 103.139 71.3164 103.497 71.3164 103.938C71.3164 104.379 71.6744 104.737 72.1153 104.737Z" fill="#1B393B"/>
<path d="M66.2696 104.737H68.124C68.565 104.737 68.9229 104.379 68.9229 103.938C68.9229 103.497 68.565 103.139 68.124 103.139H66.2696C65.8286 103.139 65.4707 103.497 65.4707 103.938C65.4707 104.379 65.8286 104.737 66.2696 104.737Z" fill="#1B393B"/>
<path d="M72.1153 109.577H74.0509C74.4919 109.577 74.8498 109.219 74.8498 108.778C74.8498 108.337 74.4919 107.979 74.0509 107.979H72.1153C71.6744 107.979 71.3164 108.337 71.3164 108.778C71.3164 109.219 71.6744 109.577 72.1153 109.577Z" fill="#1B393B"/>
<path d="M66.2696 109.577H68.124C68.565 109.577 68.9229 109.219 68.9229 108.778C68.9229 108.337 68.565 107.979 68.124 107.979H66.2696C65.8286 107.979 65.4707 108.337 65.4707 108.778C65.4707 109.219 65.8286 109.577 66.2696 109.577Z" fill="#1B393B"/>
<path d="M72.1153 114.417H74.0509C74.4919 114.417 74.8498 114.059 74.8498 113.618C74.8498 113.177 74.4919 112.819 74.0509 112.819H72.1153C71.6744 112.819 71.3164 113.177 71.3164 113.618C71.3164 114.059 71.6744 114.417 72.1153 114.417Z" fill="#1B393B"/>
<path d="M66.2696 114.417H68.124C68.565 114.417 68.9229 114.059 68.9229 113.618C68.9229 113.177 68.565 112.819 68.124 112.819H66.2696C65.8286 112.819 65.4707 113.177 65.4707 113.618C65.4725 114.059 65.8286 114.417 66.2696 114.417Z" fill="#1B393B"/>
<path d="M62.2521 77.4104H67.0254C67.4664 77.4104 67.8243 77.0524 67.8243 76.6114C67.8243 76.1704 67.4664 75.8125 67.0254 75.8125H62.2521C61.8111 75.8125 61.4531 76.1704 61.4531 76.6114C61.4531 77.0524 61.8111 77.4104 62.2521 77.4104Z" fill="#1B393B"/>
<path d="M62.2521 81.4592H67.0254C67.4664 81.4592 67.8243 81.1012 67.8243 80.6603C67.8243 80.2193 67.4664 79.8613 67.0254 79.8613H62.2521C61.8111 79.8613 61.4531 80.2193 61.4531 80.6603C61.4531 81.1012 61.8111 81.4592 62.2521 81.4592Z" fill="#1B393B"/>
<path d="M62.2521 85.508H67.0254C67.4664 85.508 67.8243 85.1501 67.8243 84.7091C67.8243 84.2681 67.4664 83.9102 67.0254 83.9102H62.2521C61.8111 83.9102 61.4531 84.2681 61.4531 84.7091C61.4531 85.1501 61.8111 85.508 62.2521 85.508Z" fill="#1B393B"/>
<path d="M62.2521 89.5549H67.0254C67.4664 89.5549 67.8243 89.1969 67.8243 88.756C67.8243 88.315 67.4664 87.957 67.0254 87.957H62.2521C61.8111 87.957 61.4531 88.315 61.4531 88.756C61.4531 89.1988 61.8111 89.5549 62.2521 89.5549Z" fill="#1B393B"/>
<path d="M67.0254 93.6057C67.4664 93.6057 67.8243 93.2477 67.8243 92.8068C67.8243 92.3658 67.4664 92.0078 67.0254 92.0078H62.2521C61.8111 92.0078 61.4531 92.3658 61.4531 92.8068C61.4531 93.2477 61.8111 93.6057 62.2521 93.6057H67.0254Z" fill="#1B393B"/>
<path d="M23.0646 60.6309C22.6236 60.6309 22.2656 60.9888 22.2656 61.4298V133.417C22.2656 133.858 22.6236 134.216 23.0646 134.216C23.5055 134.216 23.8635 133.858 23.8635 133.417V61.4298C23.8635 60.9888 23.5055 60.6309 23.0646 60.6309Z" fill="#1B393B"/>
<path d="M85.4083 143.167H88.5875C89.0285 143.167 89.3864 142.809 89.3864 142.368C89.3864 141.927 89.0285 141.569 88.5875 141.569H85.4083C84.9673 141.569 84.6094 141.927 84.6094 142.368C84.6112 142.809 84.9673 143.167 85.4083 143.167Z" fill="#1B393B"/>
<path d="M92.34 143.167H95.5191C95.9601 143.167 96.3181 142.809 96.3181 142.368C96.3181 141.927 95.9601 141.569 95.5191 141.569H92.34C91.899 141.569 91.541 141.927 91.541 142.368C91.541 142.809 91.899 143.167 92.34 143.167Z" fill="#1B393B"/>
<path d="M99.2716 143.167H102.451C102.892 143.167 103.25 142.809 103.25 142.368C103.25 141.927 102.892 141.569 102.451 141.569H99.2716C98.8306 141.569 98.4727 141.927 98.4727 142.368C98.4727 142.809 98.8288 143.167 99.2716 143.167Z" fill="#1B393B"/>
<path d="M106.203 143.167H109.382C109.823 143.167 110.181 142.809 110.181 142.368C110.181 141.927 109.823 141.569 109.382 141.569H106.203C105.762 141.569 105.404 141.927 105.404 142.368C105.404 142.809 105.762 143.167 106.203 143.167Z" fill="#1B393B"/>
<path d="M85.4083 147.343H88.5875C89.0285 147.343 89.3864 146.985 89.3864 146.544C89.3864 146.103 89.0285 145.745 88.5875 145.745H85.4083C84.9673 145.745 84.6094 146.103 84.6094 146.544C84.6094 146.985 84.9673 147.343 85.4083 147.343Z" fill="#1B393B"/>
<path d="M92.34 147.343H95.5191C95.9601 147.343 96.3181 146.985 96.3181 146.544C96.3181 146.103 95.9601 145.745 95.5191 145.745H92.34C91.899 145.745 91.541 146.103 91.541 146.544C91.541 146.985 91.899 147.343 92.34 147.343Z" fill="#1B393B"/>
<path d="M99.2716 147.343H102.451C102.892 147.343 103.25 146.985 103.25 146.544C103.25 146.103 102.892 145.745 102.451 145.745H99.2716C98.8306 145.745 98.4727 146.103 98.4727 146.544C98.4727 146.985 98.8288 147.343 99.2716 147.343Z" fill="#1B393B"/>
<path d="M106.203 147.343H109.382C109.823 147.343 110.181 146.985 110.181 146.544C110.181 146.103 109.823 145.745 109.382 145.745H106.203C105.762 145.745 105.404 146.103 105.404 146.544C105.404 146.985 105.762 147.343 106.203 147.343Z" fill="#1B393B"/>
<path d="M131.521 133.884H130.002C129.561 133.884 129.203 134.242 129.203 134.683C129.203 135.124 129.561 135.482 130.002 135.482H131.521C131.962 135.482 132.32 135.124 132.32 134.683C132.32 134.24 131.962 133.884 131.521 133.884Z" fill="#1B393B"/>
<path d="M134.803 135.481H136.321C136.762 135.481 137.12 135.123 137.12 134.682C137.12 134.241 136.762 133.883 136.321 133.883H134.803C134.362 133.883 134.004 134.241 134.004 134.682C134.004 135.125 134.362 135.481 134.803 135.481Z" fill="#1B393B"/>
<path d="M139.604 135.481H141.122C141.563 135.481 141.921 135.123 141.921 134.682C141.921 134.241 141.563 133.883 141.122 133.883H139.604C139.163 133.883 138.805 134.241 138.805 134.682C138.805 135.125 139.161 135.481 139.604 135.481Z" fill="#1B393B"/>
<path d="M131.521 137.805H130.002C129.561 137.805 129.203 138.163 129.203 138.604C129.203 139.045 129.561 139.403 130.002 139.403H131.521C131.962 139.403 132.32 139.045 132.32 138.604C132.32 138.163 131.962 137.805 131.521 137.805Z" fill="#1B393B"/>
<path d="M134.803 139.403H136.321C136.762 139.403 137.12 139.045 137.12 138.604C137.12 138.163 136.762 137.805 136.321 137.805H134.803C134.362 137.805 134.004 138.163 134.004 138.604C134.004 139.045 134.362 139.403 134.803 139.403Z" fill="#1B393B"/>
<path d="M139.604 139.403H141.122C141.563 139.403 141.921 139.045 141.921 138.604C141.921 138.163 141.563 137.805 141.122 137.805H139.604C139.163 137.805 138.805 138.163 138.805 138.604C138.805 139.045 139.161 139.403 139.604 139.403Z" fill="#1B393B"/>
<path d="M131.521 141.728H130.002C129.561 141.728 129.203 142.085 129.203 142.526C129.203 142.967 129.561 143.325 130.002 143.325H131.521C131.962 143.325 132.32 142.967 132.32 142.526C132.32 142.085 131.962 141.728 131.521 141.728Z" fill="#1B393B"/>
<path d="M134.803 143.325H136.321C136.762 143.325 137.12 142.967 137.12 142.526C137.12 142.085 136.762 141.728 136.321 141.728H134.803C134.362 141.728 134.004 142.085 134.004 142.526C134.004 142.967 134.362 143.325 134.803 143.325Z" fill="#1B393B"/>
<path d="M139.604 143.325H141.122C141.563 143.325 141.921 142.967 141.921 142.526C141.921 142.085 141.563 141.728 141.122 141.728H139.604C139.163 141.728 138.805 142.085 138.805 142.526C138.805 142.967 139.161 143.325 139.604 143.325Z" fill="#1B393B"/>
<path d="M131.521 145.649H130.002C129.561 145.649 129.203 146.007 129.203 146.448C129.203 146.889 129.561 147.247 130.002 147.247H131.521C131.962 147.247 132.32 146.889 132.32 146.448C132.32 146.007 131.962 145.649 131.521 145.649Z" fill="#1B393B"/>
<path d="M134.803 147.247H136.321C136.762 147.247 137.12 146.889 137.12 146.448C137.12 146.007 136.762 145.649 136.321 145.649H134.803C134.362 145.649 134.004 146.007 134.004 146.448C134.004 146.889 134.362 147.247 134.803 147.247Z" fill="#1B393B"/>
<path d="M139.604 147.247H141.122C141.563 147.247 141.921 146.889 141.921 146.448C141.921 146.007 141.563 145.649 141.122 145.649H139.604C139.163 145.649 138.805 146.007 138.805 146.448C138.805 146.889 139.161 147.247 139.604 147.247Z" fill="#1B393B"/>
<path d="M87.1219 40.1497C83.0146 40.9357 81.0699 37.561 79.0089 33.9888C77.2265 30.8982 75.3813 27.6988 71.9882 28.2523C68.7204 28.7837 68.488 31.2894 68.3034 33.3043C68.0599 35.9502 67.8495 38.2363 62.2533 38.2363C53.9428 38.2363 48.4296 40.7826 46.6509 43.3049C45.9516 44.2957 45.9995 45.0467 46.1619 45.5024C46.2763 45.8198 46.5771 46.032 46.9147 46.032H98.9123C99.1909 46.032 99.4492 45.8881 99.5931 45.65C99.7389 45.412 99.75 45.1168 99.6226 44.8696C99.5894 44.8087 96.211 38.4134 87.1219 40.1497ZM47.8225 44.4378C47.8594 44.3732 47.9037 44.3031 47.9572 44.2274C49.0274 42.7089 53.393 39.836 62.2533 39.836C69.3054 39.836 69.6448 36.1476 69.8939 33.4537C70.0932 31.2931 70.2888 30.1491 72.2446 29.8318C74.3942 29.483 75.7116 31.4721 77.6269 34.7896C79.4646 37.9762 81.7083 41.8657 85.9613 41.8638C86.4244 41.8638 86.9116 41.8177 87.4227 41.7199C93.0023 40.6516 96.032 42.9395 97.3605 44.4378H47.8225Z" fill="#1B393B"/>
<path d="M95.1784 48.8662H81.4064C80.9654 48.8662 80.6074 49.2242 80.6074 49.6651C80.6074 50.1061 80.9654 50.4641 81.4064 50.4641H95.1784C95.6194 50.4641 95.9773 50.1061 95.9773 49.6651C95.9773 49.2223 95.6194 48.8662 95.1784 48.8662Z" fill="#1B393B"/>
<path d="M131.52 29.7893H139.815C140.256 29.7893 140.614 29.4313 140.614 28.9903C140.614 28.5494 140.256 28.1914 139.815 28.1914H131.52C131.079 28.1914 130.721 28.5494 130.721 28.9903C130.721 29.4313 131.079 29.7893 131.52 29.7893Z" fill="#1B393B"/>
<path d="M128.242 52.0788C132.015 52.0788 135.086 49.0085 135.086 45.2352C135.086 41.4619 132.015 38.3916 128.242 38.3916C124.469 38.3916 121.398 41.4619 121.398 45.2352C121.398 49.0085 124.469 52.0788 128.242 52.0788ZM128.242 39.9895C131.135 39.9895 133.488 42.342 133.488 45.2352C133.488 48.1283 131.135 50.4809 128.242 50.4809C125.349 50.4809 122.996 48.1283 122.996 45.2352C122.996 42.3439 125.351 39.9895 128.242 39.9895Z" fill="#1B393B"/>
</svg>
