<svg width="112" height="96" viewBox="0 0 112 96" fill="none" xmlns="http://www.w3.org/2000/svg">
<path d="M62.1728 31.4596V55.9856H77.1184C78.3958 55.9856 79.2899 55.3789 79.8009 54.1653C80.3757 52.8879 80.8228 51.3551 81.1422 49.5667C81.3338 48.7364 81.9086 48.3213 82.8666 48.3213C83.0583 48.3213 83.3137 48.3532 83.6331 48.4171C83.9524 48.4809 84.2079 48.5448 84.3995 48.6087C84.2718 50.0138 84.144 51.6105 84.0163 53.3989C83.9524 55.1873 83.9205 56.7521 83.9205 58.0933C83.9205 59.1791 83.9524 60.5204 84.0163 62.1171C84.0802 63.65 84.2079 65.4064 84.3995 67.3864C83.8886 67.5141 83.4095 67.578 82.9625 67.578C81.9405 67.578 81.3338 67.1628 81.1422 66.3325C80.8228 64.5442 80.3757 63.0432 79.8009 61.8297C79.2899 60.5523 78.3958 59.9136 77.1184 59.9136H62.1728V82.5235C62.1728 83.8648 63.0351 84.759 64.7596 85.2061C66.484 85.6532 69.3263 85.8767 73.2862 85.8767H78.5554C80.4077 85.8767 82.0044 85.6212 83.3457 85.1103C84.7508 84.5354 85.9643 83.8009 86.9863 82.9067C88.072 81.9487 89.0301 80.831 89.8604 79.5536C90.6907 78.2762 91.4891 76.8711 92.2555 75.3382C92.4471 74.8911 92.9261 74.6675 93.6926 74.6675C94.0119 74.6675 94.3313 74.7634 94.6506 74.955C95.0338 75.1466 95.3851 75.3382 95.7045 75.5298C95.1297 76.7433 94.6187 78.2123 94.1716 79.9368C93.7884 81.5974 93.4052 83.1942 93.0219 84.727C92.6387 86.2599 92.2236 87.5692 91.7765 88.655C91.3933 89.7408 90.8823 90.2837 90.2436 90.2837C89.7327 90.2837 88.9982 90.2518 88.0401 90.1879C87.0821 90.124 86.0282 90.0602 84.8786 89.9963C83.7928 89.9963 82.675 89.9644 81.5254 89.9005C80.3757 89.8366 79.3857 89.8047 78.5554 89.8047H57.5742C55.722 89.8047 53.742 89.8366 51.6343 89.9005C49.5266 90.0282 47.5147 90.156 45.5986 90.2837C45.4709 89.645 45.407 89.1341 45.407 88.7508C45.407 87.8567 45.7264 87.3457 46.3651 87.218C48.7921 86.7709 50.5166 86.2918 51.5385 85.7809C52.6243 85.2699 53.1672 84.3758 53.1672 83.0984V34.3338C53.1672 33.0564 52.6882 32.1941 51.7301 31.747C50.8359 31.2361 49.0476 30.7251 46.3651 30.2142C45.7264 30.0864 45.407 29.5435 45.407 28.5855C45.407 28.2661 45.407 28.0107 45.407 27.8191C45.4709 27.5636 45.5348 27.3081 45.5986 27.0526C48.345 27.2442 50.6443 27.372 52.4966 27.4358C54.3488 27.4997 56.0094 27.5316 57.4784 27.5316H76.3519C79.2261 27.5316 81.717 27.4358 83.8247 27.2442C85.9324 27.0526 87.3375 26.9568 88.0401 26.9568C88.8704 26.9568 89.4133 27.4997 89.6688 28.5855C89.9881 29.6074 90.2436 30.8529 90.4352 32.3219C90.6268 33.7909 90.8504 35.3557 91.1059 37.0163C91.3613 38.6769 91.8404 40.0821 92.5429 41.2317C92.032 41.6149 91.4571 41.8065 90.8184 41.8065C89.9881 41.8065 89.4452 41.5191 89.1898 40.9443C88.4233 39.2837 87.6888 37.8785 86.9863 36.7289C86.2837 35.5154 85.4534 34.5254 84.4953 33.7589C83.6012 32.9925 82.4834 32.4177 81.1422 32.0345C79.8648 31.6512 78.268 31.4596 76.3519 31.4596H62.1728Z" fill="#B09676"/>
<path fill-rule="evenodd" clip-rule="evenodd" d="M100.934 57.8196C102.027 57.8296 102.891 57.8375 105.253 57.8079V58.5128C105.253 58.5128 105.091 58.6736 104.493 59.0598C103.894 59.4461 103.434 59.8791 103.434 59.8791L103.42 60.909L103.405 62.0931L103.392 62.9702C103.392 63.3438 103.501 63.3736 103.64 63.3718C103.64 63.3718 105.091 62.2273 106.662 62.2902C108.233 62.353 109.645 63.3718 109.645 63.3718C109.645 63.3718 109.9 63.4634 109.9 62.9702C109.9 62.4769 109.913 62.0931 109.913 62.0931L109.924 60.909L109.937 59.8791C109.937 59.8791 109.654 59.6006 108.859 59.1187C108.063 58.6367 107.93 58.5128 107.93 58.5128C107.934 58.1439 107.936 57.924 107.937 57.8079H110.622C111.186 57.8013 111.654 57.3506 111.662 56.7651L111.665 56.3499C111.673 55.7644 111.217 55.1376 110.651 55.1457C106.697 55.2178 104.037 55.1958 101.092 55.1715C99.2308 55.1561 99.2444 55.1398 96.7566 55.1457C95.6754 57.8079 96.7566 55.1457 95.6754 57.8079C97.3686 57.8039 100.142 57.8123 100.934 57.8196ZM107.937 57.8079C107.938 57.6454 107.937 57.6866 107.935 57.8079H107.937ZM107.935 57.8079C107.933 57.8965 107.931 58.0277 107.929 58.1536C107.922 58.536 107.917 58.8693 107.93 57.8079H107.935ZM24.4942 63.4372C25.1232 64.3451 26.0028 64.9369 27.168 64.9361C29.0825 64.9356 29.8805 63.4945 29.881 61.5257C29.8815 60.3598 28.4769 59.3257 27.5933 58.6752C27.5714 58.6591 27.5499 58.6433 27.5287 58.6276C27.5497 58.6122 27.571 58.5965 27.5926 58.5805C28.4762 57.9301 29.8824 56.8949 29.8829 55.7287C29.8834 53.76 29.0865 52.32 27.1721 52.3205C25.8491 52.3207 24.8494 53.0832 24.265 54.204C23.9334 54.8402 23.9613 55.3281 23.9939 55.8971C23.9996 55.997 24.0054 56.0995 24.0095 56.2057C22.9031 56.2689 22.1147 56.6667 21.6934 57.6613C21.5406 58.0211 21.4558 58.4189 21.4555 58.8361C21.4556 59.2994 21.5597 59.7371 21.7446 60.1267C22.1877 61.0612 22.9479 61.408 24.013 61.4654C24.0581 62.1399 24.1348 62.9182 24.4942 63.4372ZM38.7431 57.287C38.9125 57.2899 40.2816 57.2932 40.5484 57.2969C41.325 59.91 40.5484 57.2969 41.325 59.91C38.6256 59.9107 39.4061 59.9025 39.4262 59.9016C39.4501 59.9007 39.4717 59.8998 34.8682 59.9017C34.8682 59.9017 34.1641 59.7973 33.636 59.9839C33.1079 60.2634 32.9432 60.6785 32.9432 60.6785C32.6937 62.0728 32.2078 63.5013 31.5156 64.5637C30.3853 66.2957 28.8408 67.2496 27.168 67.2507C25.4944 67.2511 24.1011 66.2973 22.9716 64.5654C22.7422 64.2135 22.5352 63.8366 22.3524 63.4399C21.5711 63.202 20.8647 62.7642 20.2913 62.1496C19.4587 61.2568 18.9996 60.0797 19 58.8369C19.0007 57.5938 19.46 56.4172 20.2936 55.5234C20.8156 54.9633 21.4487 54.5498 22.1486 54.3001C22.3785 53.7248 22.6546 53.1851 22.975 52.6929C24.1053 50.9608 25.4985 50.0062 27.1721 50.0059C28.8457 50.0056 30.3894 50.9593 31.5181 52.6903C32.0472 53.5016 32.5496 55.2048 32.7963 56.0409C32.8724 56.2991 32.9242 56.4746 32.9449 56.5157C33.0324 56.6901 33.3545 57.0602 33.6026 57.1562C34.0518 57.33 34.8687 57.2925 34.8687 57.2925C36.7684 57.292 37.9911 57.2899 38.7431 57.287Z" fill="#B09676"/>
</svg>
