<svg width="107" height="96" viewBox="0 0 107 96" fill="none" xmlns="http://www.w3.org/2000/svg">
<path d="M67.6938 83.0984C67.6938 84.3758 68.1409 85.2699 69.0351 85.7809C69.9293 86.228 71.5899 86.707 74.0169 87.218C74.6556 87.3457 74.975 87.8567 74.975 88.7508C74.975 89.1341 74.9111 89.645 74.7834 90.2837C72.8034 90.156 70.8234 90.0282 68.8435 89.9005C66.8635 89.8366 64.9793 89.8047 63.191 89.8047C61.4665 89.8047 59.5504 89.8366 57.4427 89.9005C55.3989 90.0282 53.4508 90.156 51.5986 90.2837C51.4709 89.645 51.407 89.1341 51.407 88.7508C51.407 87.8567 51.7264 87.3457 52.3651 87.218C54.7921 86.7709 56.4527 86.2918 57.3469 85.7809C58.2411 85.2699 58.6882 84.3758 58.6882 83.0984V34.3338C58.6882 33.0564 58.2411 32.1622 57.3469 31.6512C56.4527 31.0764 54.7921 30.5974 52.3651 30.2142C51.9818 30.1503 51.7264 29.9587 51.5986 29.6393C51.4709 29.32 51.407 28.9687 51.407 28.5855C51.407 28.2023 51.4709 27.6913 51.5986 27.0526C53.5147 27.1804 55.4947 27.3081 57.5385 27.4358C59.6462 27.4997 61.5304 27.5316 63.191 27.5316C64.7877 27.5316 66.608 27.4997 68.6519 27.4358C70.7596 27.3081 72.8034 27.1804 74.7834 27.0526C74.9111 27.6913 74.975 28.2023 74.975 28.5855C74.975 29.5435 74.6556 30.0864 74.0169 30.2142C71.5899 30.5974 69.9293 31.0764 69.0351 31.6512C68.1409 32.1622 67.6938 33.0564 67.6938 34.3338V83.0984Z" fill="#B09676"/>
<path fill-rule="evenodd" clip-rule="evenodd" d="M95.9344 57.8196C97.0272 57.8296 97.8905 57.8375 100.253 57.8079V58.5128C100.253 58.5128 100.091 58.6736 99.4925 59.0598C98.8941 59.4461 98.4335 59.8791 98.4335 59.8791L98.4196 60.909L98.4047 62.0931L98.3921 62.9702C98.3921 63.3438 98.501 63.3736 98.6397 63.3718C98.6397 63.3718 100.091 62.2273 101.662 62.2902C103.233 62.353 104.645 63.3718 104.645 63.3718C104.645 63.3718 104.9 63.4634 104.9 62.9702C104.9 62.4769 104.913 62.0931 104.913 62.0931L104.924 60.909L104.937 59.8791C104.937 59.8791 104.654 59.6006 103.859 59.1187C103.063 58.6367 102.93 58.5128 102.93 58.5128C102.934 58.1439 102.936 57.924 102.937 57.8079H105.622C106.186 57.8013 106.654 57.3506 106.662 56.7651L106.665 56.3499C106.673 55.7644 106.217 55.1376 105.651 55.1457C101.697 55.2178 99.0373 55.1958 96.0924 55.1715C94.2308 55.1561 94.2444 55.1398 91.7566 55.1457C90.6754 57.8079 91.7566 55.1457 90.6754 57.8079C92.3686 57.8039 95.1419 57.8123 95.9344 57.8196ZM102.937 57.8079C102.938 57.6454 102.937 57.6866 102.935 57.8079H102.937ZM102.935 57.8079C102.933 57.8965 102.931 58.0277 102.929 58.1536C102.922 58.536 102.917 58.8693 102.93 57.8079H102.935ZM24.4942 63.4372C25.1232 64.3451 26.0028 64.9369 27.168 64.9361C29.0825 64.9356 29.8805 63.4945 29.881 61.5257C29.8815 60.3598 28.4769 59.3257 27.5933 58.6752C27.5714 58.6591 27.5499 58.6433 27.5287 58.6276C27.5497 58.6122 27.571 58.5965 27.5926 58.5805C28.4762 57.9301 29.8824 56.8949 29.8829 55.7287C29.8834 53.76 29.0865 52.32 27.1721 52.3205C25.8491 52.3207 24.8494 53.0832 24.265 54.204C23.9334 54.8402 23.9613 55.3281 23.9939 55.8971C23.9996 55.997 24.0054 56.0995 24.0095 56.2057C22.9031 56.2689 22.1147 56.6667 21.6934 57.6613C21.5406 58.0211 21.4558 58.4189 21.4555 58.8361C21.4556 59.2994 21.5597 59.7371 21.7446 60.1267C22.1877 61.0612 22.9479 61.408 24.013 61.4654C24.0581 62.1399 24.1348 62.9182 24.4942 63.4372ZM38.7431 57.287C38.9125 57.2899 40.2816 57.2932 40.5484 57.2969C41.325 59.91 40.5484 57.2969 41.325 59.91C38.6256 59.9107 39.4061 59.9025 39.4262 59.9016C39.4501 59.9007 39.4717 59.8998 34.8682 59.9017C34.8682 59.9017 34.1641 59.7973 33.636 59.9839C33.1079 60.2634 32.9432 60.6785 32.9432 60.6785C32.6937 62.0728 32.2078 63.5013 31.5156 64.5637C30.3853 66.2957 28.8408 67.2496 27.168 67.2507C25.4944 67.2511 24.1011 66.2973 22.9716 64.5654C22.7422 64.2135 22.5352 63.8366 22.3524 63.4399C21.5711 63.202 20.8647 62.7642 20.2913 62.1496C19.4587 61.2568 18.9996 60.0797 19 58.8369C19.0007 57.5938 19.46 56.4172 20.2936 55.5234C20.8156 54.9633 21.4487 54.5498 22.1486 54.3001C22.3785 53.7248 22.6546 53.1851 22.975 52.6929C24.1053 50.9608 25.4985 50.0062 27.1721 50.0059C28.8457 50.0056 30.3894 50.9593 31.5181 52.6903C32.0472 53.5016 32.5496 55.2048 32.7963 56.0409C32.8724 56.2991 32.9242 56.4746 32.9449 56.5157C33.0324 56.6901 33.3545 57.0602 33.6026 57.1562C34.0518 57.33 34.8687 57.2925 34.8687 57.2925C36.7684 57.292 37.9911 57.2899 38.7431 57.287Z" fill="#B09676"/>
</svg>
