<svg width="106" height="96" viewBox="0 0 106 96" fill="none" xmlns="http://www.w3.org/2000/svg">
<path d="M68.5602 40.5779C67.9216 40.7056 67.4425 40.7695 67.1232 40.7695C66.2929 40.7695 65.6861 40.6098 65.3029 40.2904C64.9197 39.9711 64.6323 39.6198 64.4406 39.2366C62.78 35.596 60.8001 32.9454 58.5008 31.2848C56.2014 29.6242 53.0718 28.7939 49.1119 28.7939C47.579 28.7939 46.11 29.0174 44.7049 29.4645C43.3636 29.8477 42.182 30.4545 41.1601 31.2848C40.1382 32.0512 39.3079 33.0093 38.6692 34.1589C38.0944 35.3086 37.8069 36.586 37.8069 37.9911C37.8069 40.993 39.0524 43.452 41.5433 45.3681C44.0981 47.2842 47.8345 49.2322 52.7525 51.2122C58.884 53.6392 63.3868 56.3537 66.2609 59.3556C69.1989 62.2936 70.668 65.9342 70.668 70.2773C70.668 72.896 70.2528 75.355 69.4225 77.6543C68.6561 79.8897 67.4106 81.8697 65.6861 83.5942C64.0255 85.2548 61.8539 86.5641 59.1714 87.5222C56.4889 88.4802 53.2634 88.9592 49.4951 88.9592C45.5352 88.9592 41.9265 88.5441 38.6692 87.7138C35.4757 86.8835 32.7612 85.7977 30.5258 84.4564C30.3342 81.7739 30.0468 79.1871 29.6635 76.6962C29.2803 74.2053 28.8332 71.7144 28.3223 69.2235C28.7694 69.0319 29.3123 68.936 29.951 68.936C30.7174 68.936 31.2922 69.1277 31.6754 69.5109C32.1225 69.8302 32.5057 70.3731 32.8251 71.1396C34.4218 75.7382 36.4657 79.1233 38.9566 81.2949C41.5114 83.4664 45.0562 84.5522 49.5909 84.5522C51.6348 84.5522 53.4231 84.2648 54.956 83.69C56.4889 83.1151 57.7663 82.3168 58.7882 81.2949C59.8101 80.2729 60.5765 79.1233 61.0875 77.8459C61.5984 76.5685 61.8539 75.1953 61.8539 73.7263C61.8539 70.4051 60.7043 67.7864 58.405 65.8703C56.1695 63.9542 52.9441 62.2297 48.7287 60.6968C45.9823 59.6749 43.4914 58.6211 41.2559 57.5353C39.0205 56.3856 37.1044 55.0763 35.5076 53.6073C33.9109 52.1383 32.6654 50.4457 31.7712 48.5296C30.9409 46.5497 30.5258 44.2184 30.5258 41.5359C30.5258 39.1727 30.9409 36.9692 31.7712 34.9254C32.6654 32.8177 33.9109 30.9974 35.5076 29.4645C37.1682 27.9316 39.1482 26.7181 41.4475 25.8239C43.7468 24.9298 46.3336 24.4827 49.2077 24.4827C52.2096 24.4827 55.0837 24.7701 57.8301 25.3449C60.5765 25.9197 63.6742 26.8778 67.1232 28.2191C67.2509 30.1351 67.4106 32.2109 67.6022 34.4464C67.8577 36.6179 68.177 38.6618 68.5602 40.5779Z" fill="#B09676"/>
<path fill-rule="evenodd" clip-rule="evenodd" d="M90.9344 57.8196C92.0272 57.8296 92.8905 57.8375 95.2525 57.8079V58.5128C95.2525 58.5128 95.091 58.6736 94.4925 59.0598C93.8941 59.4461 93.4335 59.8791 93.4335 59.8791L93.4196 60.909L93.4047 62.0931L93.3921 62.9702C93.3921 63.3438 93.501 63.3736 93.6397 63.3718C93.6397 63.3718 95.091 62.2273 96.662 62.2902C98.233 62.353 99.6452 63.3718 99.6452 63.3718C99.6452 63.3718 99.8995 63.4634 99.8995 62.9702C99.8995 62.4769 99.9134 62.0931 99.9134 62.0931L99.9236 60.909L99.9374 59.8791C99.9374 59.8791 99.6544 59.6006 98.8587 59.1187C98.063 58.6367 97.9296 58.5128 97.9296 58.5128C97.9339 58.1439 97.9361 57.924 97.9371 57.8079H100.622C101.186 57.8013 101.654 57.3506 101.662 56.7651L101.665 56.3499C101.673 55.7644 101.217 55.1376 100.651 55.1457C96.6974 55.2178 94.0373 55.1958 91.0924 55.1715C89.2308 55.1561 89.2444 55.1398 86.7566 55.1457C85.6754 57.8079 86.7566 55.1457 85.6754 57.8079C87.3686 57.8039 90.1419 57.8123 90.9344 57.8196ZM97.9371 57.8079C97.9385 57.6454 97.9372 57.6866 97.9349 57.8079H97.9371ZM97.9349 57.8079C97.9332 57.8965 97.931 58.0277 97.9288 58.1536C97.9224 58.536 97.9167 58.8693 97.9296 57.8079H97.9349ZM5.49424 63.4372C6.12318 64.3451 7.00281 64.9369 8.16804 64.9361C10.0825 64.9356 10.8805 63.4945 10.881 61.5257C10.8815 60.3598 9.47689 59.3257 8.59332 58.6752C8.57145 58.6591 8.5499 58.6433 8.5287 58.6276C8.54968 58.6122 8.57101 58.5965 8.59265 58.5805C9.47624 57.9301 10.8824 56.8949 10.8829 55.7287C10.8834 53.76 10.0865 52.32 8.17213 52.3205C6.84906 52.3207 5.84943 53.0832 5.26503 54.204C4.93341 54.8402 4.96132 55.3281 4.99386 55.8971C4.99957 55.997 5.00543 56.0995 5.00951 56.2057C3.90308 56.2689 3.11465 56.6667 2.69345 57.6613C2.5406 58.0211 2.45584 58.4189 2.45549 58.8361C2.45561 59.2994 2.55969 59.7371 2.74457 60.1267C3.18771 61.0612 3.94791 61.408 5.01303 61.4654C5.05809 62.1399 5.13483 62.9182 5.49424 63.4372ZM19.7431 57.287C19.9125 57.2899 21.2816 57.2932 21.5484 57.2969C22.325 59.91 21.5484 57.2969 22.325 59.91C19.6256 59.9107 20.4061 59.9025 20.4262 59.9016C20.4501 59.9007 20.4717 59.8998 15.8682 59.9017C15.8682 59.9017 15.1641 59.7973 14.636 59.9839C14.1079 60.2634 13.9432 60.6785 13.9432 60.6785C13.6937 62.0728 13.2078 63.5013 12.5156 64.5637C11.3853 66.2957 9.84079 67.2496 8.16804 67.2507C6.49439 67.2511 5.10111 66.2973 3.97164 64.5654C3.74216 64.2135 3.53522 63.8366 3.35245 63.4399C2.57114 63.202 1.86469 62.7642 1.29133 62.1496C0.458744 61.2568 -0.000411016 60.0797 2.76074e-07 58.8369C0.000653923 57.5938 0.460032 56.4172 1.29358 55.5234C1.81564 54.9633 2.44873 54.5498 3.14857 54.3001C3.37854 53.7248 3.65462 53.1851 3.97495 52.6929C5.10526 50.9608 6.4985 50.0062 8.17214 50.0059C9.84571 50.0056 11.3894 50.9593 12.5181 52.6903C13.0472 53.5016 13.5496 55.2048 13.7963 56.0409C13.8724 56.2991 13.9242 56.4746 13.9449 56.5157C14.0324 56.6901 14.3545 57.0602 14.6026 57.1562C15.0518 57.33 15.8687 57.2925 15.8687 57.2925C17.7684 57.292 18.9911 57.2899 19.7431 57.287Z" fill="#B09676"/>
<path d="M47.9307 70.125C49.4728 70.125 50.7234 71.3864 50.7236 72.9424C50.7236 73.9776 50.1682 74.8793 49.3438 75.3691L50.832 79.7041H45.0283L46.5156 75.3682C45.6926 74.878 45.1387 73.9766 45.1387 72.9424C45.1389 71.3865 46.3888 70.1253 47.9307 70.125Z" fill="#B09676"/>
</svg>
