<svg width="121" height="96" viewBox="0 0 121 96" fill="none" xmlns="http://www.w3.org/2000/svg">
<path d="M66.3924 24.5785C66.7757 24.4507 67.095 24.3869 67.3505 24.3869C67.9892 24.3869 68.4363 24.802 68.6917 25.6323L84.8827 72.0976L98.487 33.2009C98.6147 32.8177 98.7106 32.4664 98.7744 32.147C98.8383 31.8277 98.8702 31.5403 98.8702 31.2848C98.8702 30.3906 98.3912 29.72 97.4332 29.2729C96.539 28.8258 95.07 28.4745 93.0261 28.2191C92.3236 28.1552 91.9723 27.6123 91.9723 26.5904C91.9723 26.0794 92.0362 25.5685 92.1639 25.0575C93.8245 25.1852 95.549 25.313 97.3374 25.4407C99.1896 25.5046 100.818 25.5365 102.223 25.5365C103.756 25.5365 105.385 25.5046 107.109 25.4407C108.898 25.313 110.303 25.1852 111.325 25.0575C111.325 25.2491 111.357 25.5046 111.421 25.8239C111.485 26.1433 111.516 26.3988 111.516 26.5904C111.516 27.6123 111.133 28.1871 110.367 28.3149C108.451 28.5703 106.982 28.9536 105.96 29.4645C105.002 29.9116 104.299 30.7419 103.852 31.9554L83.6373 88.7676C83.2541 88.8954 82.9028 88.9592 82.5834 88.9592C81.817 88.9592 81.2422 88.3844 80.8589 87.2347L64.8596 42.1107L48.5728 88.7676C48.3173 88.8954 47.9979 88.9592 47.6147 88.9592C46.8483 88.9592 46.2735 88.3844 45.8902 87.2347L25.2922 31.4764C24.9729 30.5822 24.3661 29.9116 23.4719 29.4645C22.6416 29.0174 21.0768 28.6342 18.7775 28.3149C18.0749 28.1232 17.7237 27.5165 17.7237 26.4946C17.7237 26.1752 17.7875 25.6962 17.9153 25.0575C18.8094 25.1214 19.7675 25.1852 20.7894 25.2491C21.8752 25.313 22.929 25.3768 23.951 25.4407C25.0367 25.4407 26.0587 25.4727 27.0167 25.5365C28.0386 25.5365 28.9328 25.5365 29.6992 25.5365C31.296 25.5365 33.2121 25.5046 35.4475 25.4407C37.7468 25.313 39.8865 25.1852 41.8664 25.0575C41.9942 25.6962 42.058 26.2072 42.058 26.5904C42.058 27.5484 41.7068 28.0913 41.0042 28.2191C39.152 28.4107 37.7149 28.7619 36.693 29.2729C35.6711 29.72 35.1601 30.4226 35.1601 31.3806C35.1601 31.7638 35.2559 32.147 35.4475 32.5303L49.914 72.0976L66.3924 24.5785Z" fill="#B09676"/>
<path fill-rule="evenodd" clip-rule="evenodd" d="M109.934 57.8196C111.027 57.8296 111.891 57.8375 114.252 57.8079V58.5128C114.252 58.5128 114.091 58.6736 113.493 59.0598C112.894 59.4461 112.434 59.8791 112.434 59.8791L112.42 60.909L112.405 62.0931L112.392 62.9702C112.392 63.3438 112.501 63.3736 112.64 63.3718C112.64 63.3718 114.091 62.2273 115.662 62.2902C117.233 62.353 118.645 63.3718 118.645 63.3718C118.645 63.3718 118.9 63.4634 118.9 62.9702C118.9 62.4769 118.913 62.0931 118.913 62.0931L118.924 60.909L118.937 59.8791C118.937 59.8791 118.654 59.6006 117.859 59.1187C117.063 58.6367 116.93 58.5128 116.93 58.5128C116.934 58.1439 116.936 57.924 116.937 57.8079H119.622C120.186 57.8013 120.654 57.3506 120.662 56.7651L120.665 56.3499C120.673 55.7644 120.217 55.1376 119.651 55.1457C115.697 55.2178 113.037 55.1958 110.092 55.1715C108.231 55.1561 108.244 55.1398 105.757 55.1457C104.675 57.8079 105.757 55.1457 104.675 57.8079C106.369 57.8039 109.142 57.8123 109.934 57.8196ZM116.937 57.8079C116.938 57.6454 116.937 57.6866 116.935 57.8079H116.937ZM116.935 57.8079C116.933 57.8965 116.931 58.0277 116.929 58.1536C116.922 58.536 116.917 58.8693 116.93 57.8079H116.935ZM5.49424 63.4372C6.12318 64.3451 7.00281 64.9369 8.16804 64.9361C10.0825 64.9356 10.8805 63.4945 10.881 61.5257C10.8815 60.3598 9.47689 59.3257 8.59332 58.6752C8.57145 58.6591 8.5499 58.6433 8.5287 58.6276C8.54968 58.6122 8.57101 58.5965 8.59265 58.5805C9.47624 57.9301 10.8824 56.8949 10.8829 55.7287C10.8834 53.76 10.0865 52.32 8.17213 52.3205C6.84906 52.3207 5.84943 53.0832 5.26503 54.204C4.93341 54.8402 4.96132 55.3281 4.99385 55.8971C4.99957 55.997 5.00543 56.0995 5.00951 56.2057C3.90308 56.2689 3.11465 56.6667 2.69345 57.6613C2.5406 58.0211 2.45584 58.4189 2.45549 58.8361C2.45561 59.2994 2.55969 59.7371 2.74457 60.1267C3.18771 61.0612 3.94791 61.408 5.01303 61.4654C5.05809 62.1399 5.13483 62.9182 5.49424 63.4372ZM19.7431 57.287C19.9125 57.2899 21.2816 57.2932 21.5484 57.2969C22.325 59.91 21.5484 57.2969 22.325 59.91C19.6256 59.9107 20.4061 59.9025 20.4261 59.9016C20.4501 59.9007 20.4717 59.8998 15.8682 59.9017C15.8682 59.9017 15.1641 59.7973 14.636 59.9839C14.1079 60.2634 13.9432 60.6785 13.9432 60.6785C13.6937 62.0728 13.2078 63.5013 12.5156 64.5637C11.3853 66.2957 9.84079 67.2496 8.16804 67.2507C6.49439 67.2511 5.10111 66.2973 3.97164 64.5654C3.74216 64.2135 3.53522 63.8366 3.35245 63.4399C2.57114 63.202 1.86469 62.7642 1.29133 62.1496C0.458744 61.2568 -0.000411016 60.0797 2.76074e-07 58.8369C0.000653923 57.5938 0.460032 56.4172 1.29358 55.5234C1.81564 54.9633 2.44873 54.5498 3.14857 54.3001C3.37854 53.7248 3.65462 53.1851 3.97495 52.6929C5.10526 50.9608 6.4985 50.0062 8.17214 50.0059C9.84571 50.0056 11.3894 50.9593 12.5181 52.6903C13.0472 53.5016 13.5496 55.2048 13.7963 56.0409C13.8724 56.2991 13.9242 56.4746 13.9449 56.5157C14.0324 56.6901 14.3545 57.0602 14.6026 57.1562C15.0518 57.33 15.8687 57.2925 15.8687 57.2925C17.7684 57.292 18.9911 57.2899 19.7431 57.287Z" fill="#B09676"/>
<path d="M47.9307 70.125C49.4728 70.125 50.7234 71.3864 50.7236 72.9424C50.7236 73.9776 50.1682 74.8793 49.3438 75.3691L50.832 79.7041H45.0283L46.5156 75.3682C45.6926 74.878 45.1387 73.9766 45.1387 72.9424C45.1389 71.3865 46.3888 70.1253 47.9307 70.125Z" fill="#B09676"/>
</svg>
