<svg width="194" height="40" viewBox="0 0 194 40" fill="none" xmlns="http://www.w3.org/2000/svg">
<path d="M178.858 1.05548C178.958 1.02188 179.059 1.02188 179.126 1.02188C179.194 0.988283 179.294 0.988281 179.328 0.988281C179.496 0.988281 179.597 1.02188 179.664 1.12267C179.731 1.18986 179.832 1.32425 179.899 1.52583L185.006 14.9644L188.802 3.97837C188.903 3.7096 188.97 3.50802 188.97 3.34004C188.97 3.03767 188.836 2.83609 188.567 2.7017C188.298 2.56732 187.828 2.43293 187.156 2.36574C186.921 2.33214 186.786 2.16416 186.786 1.76101C186.786 1.72741 186.786 1.69381 186.786 1.62661C186.82 1.55942 186.82 1.49223 186.82 1.42504L186.854 1.18986C187.223 1.22346 187.693 1.25705 188.332 1.32425C189.004 1.35784 189.608 1.35784 190.18 1.35784C190.784 1.35784 191.355 1.35784 191.893 1.32425C192.431 1.29065 192.901 1.25706 193.338 1.18986L193.371 1.42504C193.371 1.49223 193.371 1.55942 193.371 1.62661C193.405 1.69381 193.405 1.7274 193.405 1.7946C193.405 2.19775 193.27 2.39934 193.002 2.43294C192.363 2.50013 191.893 2.60092 191.557 2.7353C191.255 2.86969 191.053 3.17206 190.919 3.57522L184.334 21.9189C184.233 21.9525 184.166 21.9525 184.132 21.9525C184.099 21.9525 184.031 21.9525 183.931 21.9525C183.796 21.9525 183.662 21.9189 183.595 21.8517C183.527 21.7845 183.46 21.6501 183.359 21.415L178.286 7.90916L173.348 21.8853C173.247 21.9189 173.146 21.9189 173.113 21.9189C173.079 21.9189 173.012 21.9189 172.911 21.9189C172.743 21.9189 172.609 21.8853 172.541 21.8181C172.474 21.7509 172.407 21.6165 172.34 21.3814L165.52 3.37363C165.419 3.07127 165.217 2.86969 164.949 2.7353C164.713 2.56732 164.176 2.43293 163.403 2.36574C163.134 2.33214 163 2.13057 163 1.72741C163 1.66022 163 1.59302 163 1.49223C163 1.35784 163.034 1.29065 163.067 1.22346C163.37 1.25706 163.739 1.25705 164.142 1.29065C164.545 1.32424 164.915 1.32425 165.318 1.35784C165.721 1.35784 166.124 1.35785 166.494 1.39144C166.897 1.39144 167.233 1.39144 167.536 1.39144C168.207 1.39144 168.98 1.39144 169.786 1.35784C170.593 1.32425 171.332 1.29065 171.97 1.22346C172.004 1.32425 172.004 1.42504 172.004 1.52583C172.037 1.62662 172.037 1.72741 172.037 1.76101C172.037 2.13057 171.903 2.33214 171.634 2.36574C170.962 2.43293 170.492 2.53372 170.223 2.66811C169.954 2.80249 169.82 3.00408 169.82 3.27285C169.82 3.34004 169.82 3.44083 169.854 3.50802C169.887 3.57521 169.921 3.64241 169.954 3.7432L174.02 14.9644L178.858 1.05548Z" fill="#B09676"/>
<path d="M148.822 2.73647V10.1949H153.156C153.559 10.1949 153.828 10.0269 153.963 9.72453C154.097 9.38857 154.231 8.85103 154.332 8.14551C154.366 7.97752 154.399 7.87673 154.5 7.84313C154.601 7.77594 154.735 7.74234 154.903 7.74234C154.971 7.74234 155.071 7.74235 155.172 7.77594C155.307 7.77594 155.407 7.77594 155.475 7.80954C155.441 8.27989 155.407 8.85103 155.34 9.48937C155.307 10.0941 155.307 10.6316 155.307 11.0684C155.307 11.438 155.307 11.8747 155.34 12.4123C155.374 12.9162 155.407 13.4873 155.475 14.1257C155.407 14.1593 155.307 14.1929 155.172 14.2265C155.038 14.2265 154.971 14.2265 154.903 14.2265C154.534 14.2265 154.332 14.0921 154.332 13.7897C154.198 13.017 154.063 12.4794 153.895 12.2107C153.761 11.9083 153.492 11.7739 153.156 11.7739H148.822V18.7284C148.822 19.1652 149.091 19.4675 149.629 19.6019C150.166 19.7363 151.073 19.8035 152.35 19.8035H153.627C154.231 19.8035 154.769 19.7363 155.172 19.5683C155.609 19.4003 155.978 19.1652 156.314 18.8964C156.65 18.594 156.919 18.2245 157.188 17.8549C157.423 17.4517 157.692 16.9814 157.927 16.4774C157.994 16.343 158.129 16.2759 158.364 16.2759C158.465 16.2759 158.599 16.3095 158.733 16.3766C158.868 16.4438 159.036 16.511 159.17 16.5782C159.137 16.7462 159.069 16.9142 159.002 17.0486C158.969 17.183 158.935 17.3509 158.868 17.4853C158.767 17.7205 158.7 17.9557 158.633 18.2245C158.565 18.4932 158.498 18.6948 158.465 18.8628C158.431 19.0644 158.364 19.2995 158.297 19.5683C158.263 19.8035 158.196 20.0723 158.129 20.3074C158.095 20.5426 158.028 20.7442 157.961 20.9122C157.927 21.1138 157.893 21.2145 157.86 21.2817C157.793 21.4497 157.625 21.5169 157.356 21.5169C157.188 21.5169 156.953 21.5169 156.65 21.4833C156.348 21.4497 156.012 21.4497 155.642 21.4161C155.307 21.4161 154.937 21.4161 154.567 21.3825C154.198 21.3489 153.895 21.3489 153.627 21.3489H146.639C146.034 21.3489 145.362 21.3489 144.589 21.3825C143.817 21.4161 143.145 21.4497 142.54 21.5169C142.506 21.4497 142.473 21.3153 142.473 21.2145C142.473 21.0802 142.473 20.9794 142.473 20.9122C142.473 20.6098 142.573 20.4418 142.775 20.4082C143.548 20.2738 144.119 20.1059 144.421 19.9379C144.757 19.7699 144.959 19.4675 144.959 19.0644V3.54278C144.959 3.3412 144.925 3.17322 144.858 3.03883C144.791 2.90445 144.69 2.77006 144.488 2.70287C144.32 2.60208 144.085 2.50128 143.817 2.46769C143.548 2.40049 143.212 2.29971 142.775 2.23252C142.573 2.16533 142.473 1.99734 142.473 1.66137C142.473 1.56058 142.473 1.4598 142.473 1.39261C142.473 1.29182 142.506 1.19103 142.54 1.09024C143.413 1.15743 144.186 1.19103 144.892 1.22462C145.564 1.25822 146.168 1.25822 146.639 1.25822H152.955C153.862 1.25822 154.668 1.22462 155.307 1.15743C155.978 1.09023 156.449 1.05664 156.684 1.05664C156.919 1.05664 157.087 1.15743 157.188 1.32541C157.255 1.49339 157.289 1.79577 157.356 2.26612C157.389 2.70287 157.457 3.13962 157.557 3.64357C157.625 3.97953 157.692 4.34909 157.759 4.65146C157.826 4.98743 157.961 5.39059 158.129 5.86094C158.028 5.89453 157.927 5.92813 157.793 5.99532C157.658 6.02892 157.557 6.06252 157.423 6.06252C157.188 6.06252 157.02 5.96173 156.919 5.79375C156.684 5.25621 156.415 4.78585 156.18 4.41629C155.945 4.01313 155.676 3.71076 155.374 3.47558C155.071 3.24041 154.735 3.03884 154.332 2.93805C153.929 2.83726 153.459 2.77006 152.921 2.77006H148.822V2.73647Z" fill="#B09676"/>
<path d="M134.007 19.0292C134.007 19.2308 134.007 19.3988 134.04 19.5668C134.074 19.7011 134.175 19.8019 134.309 19.9027C134.444 20.0035 134.645 20.1043 134.914 20.1715C135.183 20.2387 135.552 20.3059 135.989 20.3731C136.191 20.4067 136.291 20.5747 136.291 20.9106C136.291 20.9778 136.291 21.0786 136.258 21.1794C136.258 21.3138 136.258 21.4146 136.224 21.4818C135.552 21.4482 134.813 21.4146 134.04 21.3474C133.268 21.3138 132.596 21.3138 132.025 21.3138C131.42 21.3138 130.714 21.3138 129.975 21.3474C129.202 21.381 128.497 21.4146 127.825 21.4818C127.791 21.4146 127.758 21.2802 127.758 21.1794C127.758 21.045 127.758 20.9778 127.758 20.9106C127.758 20.5747 127.859 20.4067 128.06 20.3731C128.497 20.3059 128.866 20.2387 129.102 20.1715C129.37 20.1043 129.572 20.0035 129.706 19.9027C129.841 19.8019 129.908 19.7011 129.975 19.5668C130.009 19.4324 130.042 19.2308 130.042 19.0292V3.47403C130.042 3.27245 130.009 3.10446 129.975 2.97008C129.942 2.83569 129.841 2.70131 129.706 2.60052C129.572 2.49973 129.37 2.39894 129.102 2.36534C128.833 2.29815 128.497 2.19736 128.06 2.16376C127.859 2.09657 127.758 1.92859 127.758 1.62622C127.758 1.55902 127.758 1.45824 127.758 1.35745C127.758 1.22306 127.791 1.12227 127.825 1.02148C128.497 1.05508 129.236 1.08868 129.975 1.15587C130.748 1.18946 131.42 1.18947 132.025 1.18947C132.629 1.18947 133.301 1.18946 134.04 1.15587C134.813 1.12227 135.552 1.08868 136.224 1.02148C136.258 1.12227 136.258 1.22306 136.258 1.35745C136.291 1.49184 136.291 1.55902 136.291 1.62622C136.291 1.92859 136.191 2.09657 135.989 2.16376C135.552 2.23096 135.183 2.29815 134.914 2.36534C134.645 2.43254 134.444 2.49973 134.309 2.60052C134.175 2.70131 134.108 2.83569 134.04 2.97008C134.007 3.10446 134.007 3.27245 134.007 3.47403V19.0292Z" fill="#B09676"/>
<path d="M118.283 3.81039C118.384 3.54161 118.451 3.30644 118.451 3.13846C118.451 2.83609 118.317 2.63451 118.048 2.50012C117.779 2.36574 117.309 2.23135 116.637 2.16416C116.402 2.13056 116.268 1.92899 116.268 1.55943C116.268 1.52583 116.268 1.49223 116.268 1.42504C116.301 1.35785 116.301 1.29065 116.301 1.22346L116.335 0.988281C116.536 1.02188 116.738 1.02188 117.007 1.05548C117.275 1.08907 117.578 1.08907 117.88 1.12267C118.216 1.12267 118.519 1.12267 118.855 1.15626C119.19 1.15626 119.493 1.15626 119.762 1.15626C120.366 1.15626 120.937 1.15626 121.475 1.12267C122.046 1.08907 122.517 1.05547 122.92 0.988281L122.953 1.22346C122.987 1.29065 122.987 1.35785 122.987 1.42504C122.987 1.49223 122.987 1.52583 122.987 1.59302C122.987 1.99618 122.852 2.19776 122.617 2.23136C121.945 2.29855 121.475 2.39934 121.173 2.56732C120.904 2.70171 120.669 2.97048 120.534 3.37363L112.841 21.9189C112.74 21.9525 112.639 21.9525 112.606 21.9525C112.538 21.9525 112.471 21.9525 112.404 21.9525C112.236 21.9525 112.102 21.9189 112.034 21.8517C111.967 21.7845 111.9 21.6501 111.833 21.415L104.542 3.23925C104.475 3.10486 104.408 2.97048 104.341 2.86969C104.274 2.7353 104.173 2.63451 104.038 2.56732C103.904 2.50013 103.702 2.43293 103.434 2.36574C103.199 2.29855 102.896 2.26495 102.493 2.19776C102.224 2.16416 102.09 1.96258 102.09 1.52583C102.09 1.45863 102.09 1.39144 102.09 1.29065C102.09 1.15626 102.123 1.05548 102.157 1.02188C102.459 1.05548 102.829 1.05548 103.232 1.08908C103.635 1.12267 104.005 1.12267 104.408 1.15626C104.811 1.15626 105.214 1.15627 105.584 1.18986C105.987 1.18986 106.323 1.18986 106.625 1.18986C107.297 1.18986 108.07 1.18986 108.876 1.15626C109.683 1.12267 110.422 1.08907 111.06 1.02188C111.094 1.12267 111.127 1.22346 111.127 1.32425C111.127 1.42504 111.127 1.52583 111.127 1.55943C111.127 1.92899 110.993 2.13056 110.758 2.16416C110.086 2.23135 109.615 2.33214 109.347 2.46653C109.078 2.60091 108.944 2.8025 108.944 3.07127C108.944 3.20565 108.977 3.37364 109.044 3.57522L113.58 15.9723L118.283 3.81039Z" fill="#B09676"/>
<path d="M76.9255 2.73647V10.1949H81.2595C81.6626 10.1949 81.9314 10.0269 82.0658 9.72453C82.2002 9.38857 82.3346 8.85103 82.4353 8.14551C82.4689 7.97752 82.5025 7.87673 82.6369 7.84313C82.7377 7.77594 82.8721 7.74234 83.0401 7.74234C83.1073 7.74234 83.2081 7.74235 83.3088 7.77594C83.4432 7.77594 83.544 7.77594 83.6112 7.80954C83.5776 8.27989 83.544 8.85103 83.4768 9.48937C83.4432 10.0941 83.4432 10.6316 83.4432 11.0684C83.4432 11.438 83.4432 11.8747 83.4768 12.4123C83.5104 12.9162 83.544 13.4873 83.6112 14.1257C83.544 14.1593 83.4432 14.1929 83.3088 14.2265C83.1745 14.2265 83.1073 14.2265 83.0401 14.2265C82.6705 14.2265 82.4689 14.0921 82.4689 13.7897C82.3346 13.017 82.2002 12.4794 82.0322 12.2107C81.8978 11.9083 81.629 11.7739 81.2931 11.7739H76.9591V18.7284C76.9591 19.1652 77.2279 19.4675 77.7654 19.6019C78.303 19.7363 79.2101 19.8035 80.4867 19.8035H81.7634C82.3682 19.8035 82.9057 19.7363 83.3088 19.5683C83.7456 19.4003 84.1152 19.1652 84.4511 18.8964C84.7871 18.594 85.0559 18.2245 85.3246 17.8549C85.5598 17.4517 85.8286 16.9814 86.0638 16.4774C86.131 16.343 86.2653 16.2759 86.5005 16.2759C86.6013 16.2759 86.7357 16.3095 86.8701 16.3766C87.0045 16.4438 87.1724 16.511 87.3068 16.5782C87.2732 16.7462 87.206 16.9142 87.1388 17.0486C87.1053 17.183 87.0717 17.3509 87.0045 17.4853C86.9037 17.7205 86.8365 17.9557 86.7693 18.2245C86.7021 18.4932 86.6349 18.6948 86.6013 18.8628C86.5677 19.0644 86.5005 19.2995 86.4333 19.5683C86.3997 19.8035 86.3325 20.0723 86.2653 20.3074C86.2318 20.5426 86.1646 20.7442 86.0974 20.9122C86.0638 21.1138 86.0302 21.2145 85.9966 21.2817C85.9294 21.4497 85.7614 21.5169 85.4926 21.5169C85.3246 21.5169 85.0895 21.5169 84.7871 21.4833C84.4847 21.4497 84.1488 21.4497 83.7792 21.4161C83.4432 21.4161 83.0737 21.4161 82.7041 21.3825C82.3346 21.3489 82.0322 21.3489 81.7634 21.3489H74.7753C74.1706 21.3489 73.4987 21.3489 72.726 21.3825C71.9532 21.4161 71.2813 21.4497 70.6766 21.5169C70.643 21.4497 70.6094 21.3153 70.6094 21.2145C70.6094 21.0802 70.6094 20.9794 70.6094 20.9122C70.6094 20.6098 70.7102 20.4418 70.9117 20.4082C71.6845 20.2738 72.2556 20.1059 72.558 19.9379C72.8939 19.7699 73.0955 19.4675 73.0955 19.0644V3.54278C73.0955 3.3412 73.0619 3.17322 72.9947 3.03883C72.9275 2.90445 72.8267 2.77006 72.6252 2.70287C72.4572 2.60208 72.222 2.50128 71.9532 2.46769C71.6845 2.40049 71.3485 2.29971 70.9117 2.23252C70.7102 2.16533 70.6094 1.99734 70.6094 1.66137C70.6094 1.56058 70.6094 1.4598 70.6094 1.39261C70.6094 1.29182 70.643 1.19103 70.6766 1.09024C71.5501 1.15743 72.3228 1.19103 73.0283 1.22462C73.7003 1.25822 74.305 1.25822 74.7753 1.25822H81.0915C81.9986 1.25822 82.8049 1.22462 83.4432 1.15743C84.1152 1.09023 84.5855 1.05664 84.8207 1.05664C85.0559 1.05664 85.2239 1.15743 85.3246 1.32541C85.3918 1.49339 85.4254 1.79577 85.4926 2.26612C85.5262 2.70287 85.5934 3.13962 85.6942 3.64357C85.7614 3.97953 85.8286 4.34909 85.8958 4.65146C85.963 4.98743 86.0974 5.39059 86.2653 5.86094C86.1646 5.89453 86.0638 5.92813 85.9294 5.99532C85.795 6.02892 85.6942 6.06252 85.5598 6.06252C85.3246 6.06252 85.1567 5.96173 85.0559 5.79375C84.8207 5.25621 84.5519 4.78585 84.3167 4.41629C84.0816 4.01313 83.8128 3.71076 83.5104 3.47558C83.2081 3.24041 82.8721 3.03884 82.4689 2.93805C82.0658 2.83726 81.5954 2.77006 81.0579 2.77006H76.9255V2.73647Z" fill="#B09676"/>
<path d="M63.5519 6.39772C63.3503 6.46491 63.1487 6.4985 62.9471 6.4985C62.6448 6.4985 62.4432 6.43131 62.3088 6.33052C62.1744 6.19613 62.1072 6.09535 62.0736 5.96096C61.6033 4.78509 60.965 3.94517 60.1922 3.40763C59.4531 2.90368 58.4116 2.6349 57.1685 2.6349C56.1607 2.6349 55.3207 2.87008 54.6152 3.37403C53.9097 3.84438 53.5737 4.58351 53.5737 5.5914C53.5737 6.36412 53.8425 6.96886 54.3464 7.47281C54.884 7.94316 55.5559 8.34631 56.3622 8.68227C57.1685 9.01824 58.0421 9.3878 58.9492 9.72377C59.8899 10.0597 60.7634 10.4629 61.5361 10.9668C62.3424 11.4708 63.0143 12.1091 63.5519 12.8482C64.0894 13.621 64.3582 14.5953 64.3582 15.8047C64.3582 16.5775 64.2238 17.3502 63.955 18.0893C63.6863 18.8284 63.2495 19.5004 62.6784 20.0715C62.1072 20.6426 61.3681 21.0794 60.461 21.4489C59.5539 21.7849 58.4788 21.9529 57.2357 21.9529C55.8583 21.9529 54.6152 21.8185 53.5401 21.5161C52.465 21.2138 51.5579 20.8778 50.8524 20.5082C50.7852 19.6011 50.6844 18.7612 50.55 17.8877C50.4156 17.0142 50.2813 16.1743 50.1133 15.368C50.3149 15.3008 50.55 15.2336 50.8188 15.2336C51.054 15.2336 51.2556 15.3008 51.3899 15.4016C51.5243 15.4688 51.6251 15.6368 51.6923 15.8719C51.9611 16.6447 52.2635 17.3502 52.5994 17.9213C52.9354 18.4925 53.3049 18.9628 53.7753 19.3324C54.2121 19.6683 54.716 19.9371 55.2871 20.1051C55.8583 20.2731 56.5302 20.3403 57.3029 20.3403C57.9413 20.3403 58.5124 20.2731 58.9492 20.1051C59.4195 19.9035 59.7891 19.6683 60.0914 19.3996C60.3938 19.0972 60.5954 18.7612 60.7634 18.3581C60.8978 17.9549 60.9985 17.5518 60.9985 17.1486C60.9985 16.2415 60.7298 15.5696 60.2258 15.0656C59.7219 14.5617 59.0835 14.1249 58.3108 13.7889C57.5717 13.453 56.7318 13.117 55.8247 12.8146C54.9512 12.5123 54.1113 12.1091 53.3385 11.6724C52.5994 11.202 51.9611 10.5973 51.4235 9.85815C50.9196 9.11903 50.6844 8.11113 50.6844 6.86806C50.6844 6.02815 50.8188 5.28903 51.1212 4.58351C51.4235 3.84438 51.8939 3.23964 52.465 2.7021C53.0362 2.16456 53.7417 1.72781 54.548 1.42544C55.3879 1.12307 56.3286 0.955078 57.4037 0.955078C58.2772 0.955078 59.1507 1.05587 60.0243 1.22386C60.9314 1.42544 61.9393 1.7278 63.0479 2.16455C63.0815 2.80289 63.1487 3.47482 63.2495 4.28114C63.3167 5.08746 63.4511 5.79298 63.5519 6.39772Z" fill="#B09676"/>
<path d="M42.0849 19.0292C42.0849 19.2308 42.0849 19.3988 42.1185 19.5668C42.1521 19.7011 42.2529 19.8019 42.3873 19.9027C42.5216 20.0035 42.7232 20.1043 42.992 20.1715C43.2608 20.2387 43.6303 20.3059 44.0671 20.3731C44.2687 20.4067 44.3695 20.5747 44.3695 20.9106C44.3695 20.9778 44.3695 21.0786 44.3359 21.1794C44.3359 21.3138 44.3359 21.4146 44.3023 21.4818C43.6303 21.4482 42.8912 21.4146 42.1185 21.3474C41.3458 21.3138 40.6738 21.3138 40.1027 21.3138C39.498 21.3138 38.7924 21.3138 38.0533 21.3474C37.2806 21.381 36.5751 21.4146 35.9031 21.4818C35.8695 21.4146 35.8359 21.2802 35.8359 21.1794C35.8359 21.045 35.8359 20.9778 35.8359 20.9106C35.8359 20.5747 35.9367 20.4067 36.1383 20.3731C36.5751 20.3059 36.9446 20.2387 37.1798 20.1715C37.4486 20.1043 37.6502 20.0035 37.7845 19.9027C37.9189 19.8019 37.9861 19.7011 38.0533 19.5668C38.0869 19.4324 38.1205 19.2308 38.1205 19.0292V3.47403C38.1205 3.27245 38.0869 3.10446 38.0533 2.97008C38.0197 2.83569 37.9189 2.70131 37.7845 2.60052C37.6502 2.49973 37.4486 2.39894 37.1798 2.36534C36.911 2.29815 36.5751 2.19736 36.1383 2.16376C35.9367 2.09657 35.8359 1.92859 35.8359 1.62622C35.8359 1.55902 35.8359 1.45824 35.8359 1.35745C35.8359 1.22306 35.8695 1.12227 35.9031 1.02148C36.5751 1.05508 37.3142 1.08868 38.0533 1.15587C38.826 1.18946 39.498 1.18947 40.1027 1.18947C40.7074 1.18947 41.3794 1.18946 42.1185 1.15587C42.8912 1.12227 43.6303 1.08868 44.3023 1.02148C44.3359 1.12227 44.3359 1.22306 44.3359 1.35745C44.3695 1.49184 44.3695 1.55902 44.3695 1.62622C44.3695 1.92859 44.2687 2.09657 44.0671 2.16376C43.6303 2.23096 43.2608 2.29815 42.992 2.36534C42.7232 2.43254 42.5216 2.49973 42.3873 2.60052C42.2529 2.70131 42.1857 2.83569 42.1185 2.97008C42.0849 3.10446 42.0849 3.27245 42.0849 3.47403V19.0292Z" fill="#B09676"/>
<path d="M16.2161 1.05548C16.3169 1.02188 16.4177 1.02188 16.4849 1.02188C16.5521 0.988283 16.6529 0.988281 16.6865 0.988281C16.8545 0.988281 16.9552 1.02188 17.0224 1.12267C17.0896 1.18986 17.1904 1.32425 17.2576 1.52583L22.2971 14.9644L26.0263 3.97837C26.1271 3.7096 26.1943 3.50802 26.1943 3.34004C26.1943 3.03767 26.0599 2.83609 25.7911 2.7017C25.5224 2.56732 25.052 2.43293 24.4137 2.36574C24.1785 2.33214 24.0441 2.16416 24.0441 1.76101C24.0441 1.72741 24.0441 1.69381 24.0441 1.62661C24.0777 1.55942 24.0777 1.49223 24.0777 1.42504L24.1113 1.18986C24.4473 1.22346 24.9512 1.25705 25.5896 1.32425C26.2279 1.35784 26.8326 1.35784 27.4038 1.35784C28.0085 1.35784 28.546 1.35784 29.0836 1.32425C29.6211 1.29065 30.0915 1.25706 30.4946 1.18986L30.5282 1.42504C30.5282 1.49223 30.5282 1.55942 30.5282 1.62661C30.5618 1.69381 30.5618 1.7274 30.5618 1.7946C30.5618 2.19775 30.4274 2.39934 30.1587 2.43294C29.5203 2.50013 29.05 2.60092 28.7476 2.7353C28.4453 2.86969 28.2437 3.17206 28.1093 3.57522L21.6588 21.9189C21.558 21.9525 21.4908 21.9525 21.4572 21.9525C21.4236 21.9525 21.3564 21.9525 21.2556 21.9525C21.1212 21.9525 20.9868 21.9189 20.9196 21.8517C20.8524 21.7845 20.7852 21.6501 20.6845 21.415L15.6786 7.90916L10.7735 21.9189C10.6727 21.9525 10.6055 21.9525 10.5383 21.9525C10.5047 21.9525 10.4375 21.9525 10.3703 21.9525C10.2024 21.9525 10.068 21.9189 10.0008 21.8517C9.93358 21.7845 9.86639 21.6501 9.79919 21.415L3.07989 3.40723C2.9791 3.10486 2.77752 2.90329 2.54235 2.7689C2.30717 2.60092 1.80322 2.46653 0.996908 2.39934C0.728136 2.36574 0.59375 2.16416 0.59375 1.76101C0.59375 1.69381 0.59375 1.62662 0.59375 1.52583C0.59375 1.39144 0.627346 1.32425 0.660943 1.25706C0.963311 1.29066 1.29928 1.29065 1.70243 1.32425C2.10559 1.35784 2.47515 1.35785 2.87831 1.39144C3.28147 1.39144 3.68463 1.39145 4.05419 1.42504C4.45735 1.42504 4.79331 1.42504 5.06209 1.42504C5.73402 1.42504 6.47314 1.42504 7.27946 1.39144C8.08577 1.35785 8.7913 1.32425 9.42963 1.25706C9.46323 1.35785 9.46323 1.45864 9.46323 1.55943C9.49682 1.66022 9.49682 1.761 9.49682 1.7946C9.49682 2.16416 9.36244 2.36574 9.09367 2.39934C8.45533 2.46653 7.98498 2.56732 7.71621 2.7017C7.44744 2.83609 7.31305 3.03767 7.31305 3.30644C7.31305 3.37363 7.31305 3.47442 7.34665 3.54162C7.38024 3.60881 7.41384 3.67601 7.44744 3.7768L11.4454 14.998L16.2161 1.05548Z" fill="#B09676"/>
<path d="M4.55804 35.7609C4.15488 35.7609 3.85251 35.5929 3.65094 35.3242C3.51655 35.1562 3.51655 34.9546 3.48295 34.753C3.11339 34.7194 2.84462 34.6186 2.71023 34.3499C2.64304 34.2491 2.60944 34.1147 2.60944 33.9803C2.60944 33.8459 2.64304 33.7451 2.67664 33.6443C2.81102 33.342 3.07979 33.2412 3.48295 33.2076C3.48295 33.006 3.44936 32.838 3.58374 32.6028C3.78532 32.2669 4.12129 32.0317 4.59164 32.0317C5.22997 32.0317 5.53234 32.4684 5.53234 33.0396C5.53234 33.4091 5.02839 33.7115 4.72602 33.9131C5.02839 34.1147 5.53234 34.417 5.53234 34.7866C5.46515 35.3577 5.19637 35.7609 4.55804 35.7609ZM9.66471 33.5099C8.11927 33.4763 10.8406 33.5099 7.21217 33.5099C7.21217 33.5099 6.94339 33.5099 6.77541 33.4763C6.67462 33.4427 6.57383 33.342 6.54024 33.2748C6.50664 33.2076 6.30506 32.4685 6.03629 32.1325C5.66673 31.6285 5.12918 31.3262 4.55804 31.3262C3.9869 31.3262 3.51655 31.5949 3.11339 32.1325C3.0126 32.2669 2.91181 32.4349 2.84462 32.6028C2.60944 32.67 2.37427 32.8044 2.20629 32.9724C1.93751 33.2412 1.76953 33.5771 1.76953 33.9467C1.76953 34.3163 1.93751 34.6522 2.20629 34.921C2.40786 35.089 2.64304 35.2234 2.91181 35.2906C2.97901 35.3913 3.0462 35.5257 3.11339 35.6265C3.48295 36.1305 3.9869 36.4328 4.55804 36.4328C5.12918 36.4328 5.66673 36.1641 6.03629 35.6265C6.27146 35.3241 6.43945 34.8874 6.54024 34.4842C6.54024 34.4842 6.60743 34.3499 6.77541 34.2827C6.94339 34.2155 7.21217 34.2491 7.21217 34.2491C10.1015 34.2491 7.64892 34.2491 9.66471 34.2491C9.7991 34.1483 9.93348 33.7787 9.66471 33.5099Z" fill="#B09676"/>
<path d="M17.9978 36.365C18.1658 36.5329 18.3337 36.6673 18.5353 36.7681C18.7369 36.8689 18.9721 36.9025 19.2073 36.9025C19.5768 36.9025 19.8792 36.7345 20.0808 36.4322C20.2823 36.1298 20.3831 35.693 20.3831 35.2227C20.3831 34.9539 20.3495 34.7187 20.2823 34.5172C20.2151 34.282 20.148 34.0804 20.0472 33.9124C19.9464 33.7444 19.812 33.6101 19.644 33.5093C19.476 33.4085 19.308 33.3749 19.1065 33.3749C18.9721 33.3749 18.8377 33.4085 18.7033 33.5093C18.5689 33.5765 18.4345 33.6772 18.3337 33.8116C18.233 33.946 18.1322 34.0804 18.065 34.2148C17.9978 34.3492 17.9642 34.5172 17.9642 34.6515V36.365H17.9978ZM17.1915 31.2247C17.1915 31.0231 17.1579 30.8887 17.0907 30.8215C17.0235 30.7208 16.8891 30.6872 16.6539 30.6536C16.5531 30.6536 16.5195 30.5864 16.5195 30.5192C16.5195 30.4856 16.5195 30.4184 16.5531 30.3848C16.6539 30.3848 16.7547 30.3848 16.9227 30.3848C17.0907 30.3848 17.2251 30.3512 17.3258 30.3512C17.4938 30.3176 17.6282 30.3176 17.729 30.284C17.8634 30.2504 17.9306 30.2504 17.9978 30.2504C18.0986 30.2504 18.1322 30.284 18.1322 30.3848C18.1322 30.4856 18.1322 30.62 18.0986 30.7879C18.065 30.9223 18.065 31.1239 18.065 31.3255V33.8116C18.3001 33.4757 18.5689 33.2405 18.8041 33.1061C19.0393 32.9717 19.3416 32.8709 19.6776 32.8709C19.9128 32.8709 20.1144 32.9045 20.3159 33.0053C20.5175 33.1061 20.7191 33.2405 20.8871 33.4085C21.0551 33.5764 21.1558 33.8116 21.2566 34.0804C21.3574 34.3492 21.391 34.6515 21.391 34.9875C21.391 35.3571 21.3238 35.693 21.1894 35.9618C21.0551 36.2642 20.8871 36.4993 20.6855 36.7009C20.4839 36.9025 20.2487 37.0369 20.0136 37.1377C19.7784 37.2385 19.5432 37.2721 19.3416 37.2721C19.0729 37.2721 18.8377 37.2385 18.6025 37.1713C18.3673 37.1041 18.1658 37.0369 17.9642 36.9361C17.897 36.9361 17.8298 36.9697 17.7626 37.0033C17.6954 37.0369 17.6282 37.0705 17.5946 37.1041C17.5274 37.1377 17.4938 37.1713 17.4602 37.2049C17.4266 37.2385 17.393 37.2385 17.3594 37.2385C17.2923 37.2385 17.2587 37.2385 17.2251 37.2049C17.2251 37.1041 17.2251 37.0033 17.2587 36.9361C17.2587 36.8353 17.2587 36.7681 17.2923 36.7009C17.2923 36.6337 17.2923 36.5329 17.2923 36.4657C17.2923 36.365 17.2923 36.2978 17.2923 36.1634V31.2247H17.1915ZM24.0451 35.0547C24.0451 34.7523 24.1123 34.45 24.2131 34.1812C24.3475 33.9124 24.4819 33.6772 24.6835 33.4757C24.8851 33.2741 25.1202 33.1061 25.389 33.0053C25.6578 32.8709 25.9601 32.8373 26.2625 32.8373C26.5985 32.8373 26.9009 32.9045 27.1696 33.0053C27.4384 33.1061 27.6736 33.2741 27.8752 33.4421C28.0767 33.6436 28.2111 33.8788 28.3455 34.1476C28.4463 34.4164 28.5135 34.7187 28.5135 35.0547C28.5135 35.3571 28.4463 35.6594 28.3455 35.9282C28.2447 36.197 28.0767 36.4322 27.8752 36.6337C27.6736 36.8353 27.4384 37.0033 27.1696 37.1041C26.9009 37.2049 26.5985 37.2721 26.2961 37.2721C25.9601 37.2721 25.6578 37.2049 25.389 37.1041C25.1202 37.0033 24.8851 36.8353 24.6835 36.6337C24.4819 36.4322 24.3475 36.197 24.2131 35.9282C24.0787 35.693 24.0451 35.3907 24.0451 35.0547ZM24.9859 34.7187C24.9859 34.9539 25.0194 35.2227 25.053 35.4915C25.1202 35.7602 25.1874 35.9954 25.2882 36.197C25.389 36.3986 25.557 36.5665 25.725 36.7009C25.893 36.8353 26.0945 36.9025 26.3633 36.9025C26.7329 36.9025 27.0352 36.7681 27.2368 36.4993C27.4384 36.2306 27.5392 35.8946 27.5392 35.4579C27.5392 35.2227 27.5056 34.9539 27.472 34.6851C27.4384 34.4164 27.3376 34.1812 27.2368 33.946C27.136 33.7108 27.0016 33.5428 26.8001 33.3749C26.6321 33.2405 26.3969 33.1397 26.1617 33.1397C25.8258 33.1397 25.5234 33.2741 25.2882 33.5093C25.0866 33.8116 24.9859 34.1812 24.9859 34.7187ZM31.7052 33.8788C31.7052 33.6436 31.6716 33.5093 31.6044 33.4421C31.5372 33.3749 31.4028 33.3077 31.1676 33.3077C31.0668 33.3077 31.0332 33.2405 31.0332 33.1733C31.0332 33.1397 31.0332 33.0725 31.0668 33.0389C31.1676 33.0389 31.2684 33.0389 31.4028 33.0389C31.5372 33.0389 31.6716 33.0053 31.7723 33.0053C31.9067 32.9717 32.0411 32.9717 32.1419 32.9381C32.2427 32.9045 32.3435 32.9045 32.3771 32.9045C32.4779 32.9045 32.5115 32.9381 32.5115 33.0389V35.5251C32.5115 35.693 32.5115 35.8274 32.5451 35.9954C32.5787 36.1298 32.6123 36.2642 32.6459 36.365C32.713 36.4658 32.7802 36.5329 32.881 36.6001C32.9818 36.6673 33.1162 36.6673 33.2506 36.6673C33.4186 36.6673 33.5866 36.6337 33.7545 36.6001C33.9225 36.5329 34.0569 36.4658 34.1577 36.365C34.2921 36.2642 34.3929 36.1298 34.4601 35.9618C34.5273 35.7938 34.5609 35.6258 34.5609 35.3907V33.946C34.5609 33.7444 34.5273 33.5765 34.4601 33.5093C34.3929 33.4421 34.2585 33.3749 34.0233 33.3749C33.9225 33.3749 33.8889 33.3077 33.8889 33.2405C33.8889 33.2069 33.8889 33.1397 33.9225 33.1061C34.0233 33.1061 34.1241 33.1061 34.2585 33.1061C34.3929 33.1061 34.5273 33.0725 34.628 33.0725C34.7624 33.0389 34.8968 33.0389 34.9976 33.0053C35.0984 32.9717 35.1992 32.9717 35.2328 32.9717C35.3336 32.9717 35.3672 33.0053 35.3672 33.1061V36.3314C35.3672 36.4322 35.3672 36.5329 35.4008 36.6001C35.4008 36.6673 35.4344 36.7345 35.468 36.7681C35.5016 36.8017 35.5688 36.8353 35.6359 36.8689C35.7031 36.9025 35.8039 36.9025 35.9047 36.9025C36.0055 36.9025 36.0391 36.9697 36.0391 37.0369C36.0391 37.0705 36.0391 37.1377 36.0055 37.1713C35.8711 37.1713 35.7367 37.1713 35.6023 37.2049C35.468 37.2385 35.3336 37.2385 35.1992 37.2721C35.0648 37.3057 34.964 37.3057 34.8632 37.3393C34.7624 37.3729 34.6952 37.3729 34.6616 37.3729C34.5609 37.3729 34.5273 37.3393 34.5273 37.2385V36.3986C34.4937 36.4321 34.4601 36.4657 34.3593 36.6001C34.2585 36.7009 34.1577 36.8353 33.9897 36.9361C33.8553 37.0705 33.6873 37.1713 33.4858 37.2721C33.2842 37.3729 33.0826 37.4064 32.8474 37.4064C32.4443 37.4064 32.1419 37.3057 31.9403 37.0705C31.7387 36.8353 31.638 36.4993 31.638 36.0962V33.8788H31.7052ZM41.0114 36.5665C41.045 36.5329 41.0786 36.4993 41.0786 36.4993C41.1122 36.4993 41.1122 36.4993 41.1458 36.4993C41.213 36.4993 41.2466 36.5329 41.3138 36.6337C41.1458 36.8353 40.9442 36.9697 40.7426 37.1041C40.541 37.2385 40.3395 37.2721 40.1043 37.2721C39.9699 37.2721 39.8355 37.2721 39.7347 37.2385C39.6003 37.2049 39.4995 37.1713 39.4324 37.0705C39.3316 36.9697 39.2644 36.8689 39.2308 36.7345C39.1972 36.5665 39.1636 36.3986 39.1636 36.1634V33.4085H38.5588V33.2741C38.5588 33.2405 38.5588 33.1733 38.5924 33.1397C38.626 33.1061 38.6596 33.0725 38.6932 33.0725C38.8612 33.0725 39.0292 33.0389 39.13 32.9381C39.2308 32.8373 39.3316 32.7365 39.3988 32.5686C39.4659 32.4006 39.5331 32.2662 39.6003 32.1318C39.6675 31.9974 39.7347 31.9302 39.8019 31.9302H39.9699V32.9717H41.1458C41.1458 33.1061 41.1458 33.2069 41.1122 33.2741C41.0786 33.3413 41.045 33.3749 40.9442 33.3749H40.0035V35.861C40.0035 36.0626 40.0035 36.2306 40.0371 36.365C40.0707 36.4993 40.0707 36.6001 40.1379 36.6673C40.1715 36.7345 40.2387 36.7681 40.2723 36.8017C40.3395 36.8353 40.3731 36.8353 40.4402 36.8353C40.541 36.8353 40.6418 36.8017 40.7426 36.7681C40.8434 36.7009 40.9442 36.6337 41.0114 36.5665ZM44.7742 37.1713C44.6734 37.1713 44.539 37.1713 44.4382 37.1713C44.3374 37.1713 44.2031 37.1713 44.1359 37.2049C44.0351 37.2049 43.9343 37.2049 43.8671 37.2385C43.7999 37.2385 43.7327 37.2385 43.7327 37.2385C43.7327 37.2385 43.7327 37.2049 43.7327 37.1713C43.7327 37.1377 43.7327 37.1041 43.7327 37.0705C43.7327 37.0033 43.7663 36.9697 43.8335 36.9361C44.0015 36.9025 44.1359 36.8689 44.2367 36.8017C44.3374 36.7681 44.4046 36.6673 44.4046 36.5665V33.8452C44.4046 33.6436 44.371 33.5093 44.3038 33.4085C44.2367 33.3077 44.1023 33.2741 43.8671 33.2405C43.7663 33.2405 43.7327 33.1733 43.7327 33.1061C43.7327 33.0725 43.7327 33.0389 43.7663 32.9717C43.8671 32.9717 43.9679 32.9717 44.1359 32.9717C44.3038 32.9717 44.4382 32.9381 44.539 32.9381C44.707 32.9045 44.8414 32.8709 44.9422 32.8709C45.0766 32.8373 45.1438 32.8373 45.2109 32.8373C45.3117 32.8373 45.3453 32.8709 45.3453 32.9717C45.3453 33.0725 45.3453 33.1733 45.3117 33.3077C45.2781 33.4421 45.2781 33.61 45.2781 33.8116V36.5665C45.2781 36.6673 45.3117 36.7345 45.4125 36.8017C45.5133 36.8353 45.6813 36.9025 45.8493 36.9361C45.9165 36.9361 45.9165 37.0033 45.9165 37.0705C45.9165 37.1041 45.9165 37.1041 45.9165 37.1713C45.9165 37.2049 45.9165 37.2385 45.9165 37.2385C45.8829 37.2385 45.8493 37.2385 45.7821 37.2385C45.7149 37.2385 45.6477 37.2385 45.5469 37.2049C45.4461 37.2049 45.3453 37.2049 45.2109 37.1713C45.0094 37.1713 44.9086 37.1713 44.7742 37.1713ZM44.2031 31.1575C44.2031 30.9895 44.2702 30.8551 44.371 30.7543C44.4718 30.62 44.6398 30.5864 44.7742 30.5864C44.9422 30.5864 45.0766 30.6536 45.1773 30.7543C45.2781 30.8551 45.3453 30.9895 45.3453 31.1575C45.3453 31.3255 45.2781 31.4599 45.1773 31.5607C45.0766 31.6614 44.9422 31.7286 44.7742 31.7286C44.6062 31.7286 44.4718 31.6614 44.371 31.5607C44.2702 31.4935 44.2031 31.3591 44.2031 31.1575ZM51.7623 33.7444C51.5943 33.5764 51.4263 33.4421 51.2247 33.3413C51.0231 33.2405 50.788 33.2069 50.5528 33.2069C50.3512 33.2069 50.1832 33.2405 50.0488 33.3413C49.9145 33.4421 49.7801 33.5428 49.6793 33.7108C49.5785 33.8452 49.5113 34.0468 49.4441 34.2484C49.4105 34.45 49.3769 34.6851 49.3769 34.9203C49.3769 35.1891 49.4105 35.4243 49.4441 35.6594C49.5113 35.8946 49.5785 36.0962 49.6793 36.2642C49.7801 36.4322 49.9145 36.5665 50.0824 36.6673C50.2504 36.7681 50.4184 36.8017 50.62 36.8017C50.7544 36.8017 50.8888 36.7681 51.0231 36.6673C51.1575 36.6001 51.2919 36.4993 51.3927 36.365C51.4935 36.2306 51.5943 36.0962 51.6615 35.9618C51.7287 35.7938 51.7623 35.6594 51.7623 35.4915V33.7444ZM52.6022 38.9855C52.6022 39.0863 52.6694 39.1535 52.7702 39.2207C52.871 39.2879 53.0053 39.3215 53.1733 39.3551C53.2405 39.3551 53.2741 39.4222 53.2741 39.4894C53.2741 39.523 53.2741 39.5902 53.2405 39.6574C53.0725 39.6574 52.871 39.6238 52.6694 39.6238C52.4678 39.6238 52.2662 39.6238 52.0982 39.6238C51.8631 39.6238 51.6279 39.6238 51.4263 39.6238C51.2247 39.6238 51.0231 39.6574 50.8888 39.6574C50.8888 39.5902 50.8552 39.523 50.8552 39.4894C50.8552 39.4222 50.8888 39.3886 50.956 39.3551C51.1239 39.3215 51.2583 39.3215 51.3591 39.2879C51.4599 39.2543 51.5607 39.2543 51.5943 39.1871C51.6615 39.1535 51.6951 39.1199 51.7287 39.0527C51.7623 38.9855 51.7623 38.9183 51.7623 38.8511V36.2978C51.6615 36.4322 51.5607 36.5329 51.4935 36.6673C51.3927 36.7681 51.2919 36.8689 51.1575 36.9697C51.0231 37.0705 50.8888 37.1377 50.7544 37.1713C50.5864 37.2385 50.4184 37.2385 50.1832 37.2385C49.9481 37.2385 49.7465 37.2049 49.5113 37.1041C49.3097 37.0033 49.1081 36.8689 48.9738 36.7009C48.8058 36.5329 48.705 36.2978 48.6042 36.029C48.5034 35.7602 48.4698 35.4579 48.4698 35.0883C48.4698 34.7187 48.537 34.3828 48.6714 34.114C48.8058 33.8116 48.9738 33.5764 49.1753 33.3749C49.3769 33.1733 49.6121 33.0389 49.8473 32.9381C50.0824 32.8373 50.3176 32.7701 50.5192 32.7701C50.9895 32.7701 51.4599 32.8709 51.9638 33.1061C52.1318 33.0725 52.2326 33.0389 52.2998 32.9717C52.367 32.9045 52.4342 32.8373 52.5014 32.8373C52.535 32.8373 52.5686 32.8373 52.5686 32.8373C52.6022 32.8373 52.6022 32.8373 52.6358 32.8709C52.6358 33.0725 52.6022 33.2405 52.6022 33.4085C52.6022 33.5764 52.5686 33.7444 52.5686 33.946V38.9855H52.6022ZM56.2978 33.8788C56.2978 33.6436 56.2642 33.5093 56.197 33.4421C56.1298 33.3749 55.9954 33.3077 55.7603 33.3077C55.6595 33.3077 55.6259 33.2405 55.6259 33.1733C55.6259 33.1397 55.6259 33.0725 55.6595 33.0389C55.7603 33.0389 55.861 33.0389 55.9954 33.0389C56.1298 33.0389 56.2642 33.0053 56.365 33.0053C56.4994 32.9717 56.6338 32.9717 56.7346 32.9381C56.8353 32.9045 56.9361 32.9045 56.9697 32.9045C57.0705 32.9045 57.1041 32.9381 57.1041 33.0389V35.5251C57.1041 35.693 57.1041 35.8274 57.1377 35.9954C57.1713 36.1298 57.2049 36.2642 57.2385 36.365C57.3057 36.4658 57.3729 36.5329 57.4737 36.6001C57.5745 36.6673 57.7089 36.6673 57.8432 36.6673C58.0112 36.6673 58.1792 36.6337 58.3472 36.6001C58.5152 36.5329 58.6496 36.4658 58.7503 36.365C58.8847 36.2642 58.9855 36.1298 59.0527 35.9618C59.1199 35.7938 59.1535 35.6258 59.1535 35.3907V33.946C59.1535 33.7444 59.1199 33.5765 59.0527 33.5093C58.9855 33.4421 58.8511 33.3749 58.616 33.3749C58.5152 33.3749 58.4816 33.3077 58.4816 33.2405C58.4816 33.2069 58.4816 33.1397 58.5152 33.1061C58.616 33.1061 58.7167 33.1061 58.8511 33.1061C58.9855 33.1061 59.1199 33.0725 59.2207 33.0725C59.3551 33.0389 59.4895 33.0389 59.5903 33.0053C59.691 32.9717 59.7918 32.9717 59.8254 32.9717C59.9262 32.9717 59.9598 33.0053 59.9598 33.1061V36.3314C59.9598 36.4322 59.9598 36.5329 59.9934 36.6001C59.9934 36.6673 60.027 36.7345 60.0606 36.7681C60.0942 36.8017 60.1614 36.8353 60.2286 36.8689C60.2958 36.9025 60.3966 36.9025 60.4974 36.9025C60.5981 36.9025 60.6317 36.9697 60.6317 37.0369C60.6317 37.0705 60.6317 37.1377 60.5982 37.1713C60.4638 37.1713 60.3294 37.1713 60.195 37.2049C60.0606 37.2385 59.9262 37.2385 59.7918 37.2721C59.6574 37.3057 59.5567 37.3057 59.4559 37.3393C59.3551 37.3729 59.2879 37.3729 59.2543 37.3729C59.1535 37.3729 59.1199 37.3393 59.1199 37.2385V36.3986C59.0863 36.4321 59.0527 36.4657 58.9519 36.6001C58.8511 36.7009 58.7503 36.8353 58.5824 36.9361C58.448 37.0705 58.28 37.1713 58.0784 37.2721C57.8768 37.3729 57.6753 37.4064 57.4401 37.4064C57.0369 37.4064 56.7346 37.3057 56.533 37.0705C56.3314 36.8353 56.2306 36.4993 56.2306 36.0962V33.8788H56.2978ZM66.9143 36.2306C66.9479 36.197 67.0151 36.1634 67.0487 36.1634C67.1159 36.1634 67.1831 36.2306 67.2503 36.3314C67.1495 36.4658 67.0487 36.5665 66.9479 36.6673C66.8471 36.7681 66.7127 36.8689 66.5447 36.9697C66.3767 37.0705 66.2088 37.1377 66.0072 37.1713C65.8056 37.2385 65.5704 37.2385 65.3353 37.2385C65.0665 37.2385 64.8313 37.2049 64.5625 37.1041C64.3274 37.0033 64.1258 36.8689 63.9242 36.7009C63.7562 36.5329 63.5882 36.2978 63.4874 36.029C63.3867 35.7602 63.3195 35.4579 63.3195 35.0883C63.3195 34.7523 63.3867 34.45 63.521 34.1476C63.6554 33.8788 63.8234 33.61 64.025 33.4085C64.2266 33.2069 64.4617 33.0389 64.6969 32.9381C64.9657 32.8373 65.2009 32.7701 65.436 32.7701C66.0408 32.7701 66.5111 32.9381 66.7799 33.3077C67.0487 33.6772 67.2167 34.1476 67.2167 34.7187C67.2167 34.7523 67.1831 34.7859 67.1495 34.7859L64.2602 34.9203C64.2602 35.1891 64.2938 35.4243 64.361 35.6258C64.4281 35.861 64.5289 36.029 64.6633 36.197C64.7977 36.365 64.9657 36.4993 65.1337 36.5665C65.3353 36.6673 65.5368 36.7009 65.772 36.7009C65.9736 36.7009 66.1752 36.6673 66.3767 36.5665C66.6119 36.4993 66.7799 36.3986 66.9143 36.2306ZM65.3017 33.2069C64.9657 33.2069 64.6969 33.3413 64.5289 33.61C64.3274 33.8788 64.2602 34.2148 64.2602 34.6179L66.1416 34.5172C66.2424 34.5172 66.276 34.4836 66.276 34.3828C66.276 34.2484 66.2424 34.114 66.2088 33.9796C66.1752 33.8452 66.108 33.7108 66.0408 33.61C65.9736 33.4757 65.8728 33.4085 65.7384 33.3077C65.604 33.2405 65.4696 33.2069 65.3017 33.2069ZM76.8589 32.8373C77.0604 32.8373 77.1948 32.8709 77.2956 32.9717C77.3964 33.0725 77.43 33.1733 77.43 33.2741C77.43 33.3077 77.43 33.3413 77.3964 33.3749C77.3964 33.4085 77.3628 33.4421 77.2956 33.4757C77.262 33.5093 77.1948 33.5429 77.094 33.61C76.9932 33.6436 76.8925 33.7108 76.7245 33.778C76.6573 33.7108 76.5901 33.6436 76.4893 33.5764C76.4221 33.5093 76.3213 33.5093 76.2205 33.5093C76.1197 33.5093 76.0189 33.5429 75.9182 33.61C75.8174 33.6772 75.7502 33.7444 75.683 33.8788C75.6158 33.9796 75.5486 34.114 75.515 34.2484C75.4814 34.3828 75.4814 34.5508 75.4814 34.6851V36.3986C75.4814 36.5329 75.5486 36.6673 75.7166 36.7345C75.8846 36.8017 76.0861 36.8689 76.3885 36.9025C76.4557 36.9025 76.4893 36.9697 76.4893 37.0369C76.4893 37.0705 76.4893 37.1377 76.4557 37.2049C76.3885 37.2049 76.2877 37.2049 76.1869 37.1713C76.0861 37.1713 75.9518 37.1713 75.851 37.1713C75.7166 37.1713 75.6158 37.1713 75.4814 37.1377C75.347 37.1377 75.2462 37.1377 75.1454 37.1377C74.9775 37.1377 74.7759 37.1377 74.5743 37.1377C74.3727 37.1377 74.2047 37.1713 74.0368 37.1713C74.0368 37.1041 74.0032 37.0369 74.0032 37.0033C74.0032 36.9361 74.0367 36.9025 74.1039 36.8689C74.2719 36.8353 74.3727 36.8017 74.5071 36.7345C74.6415 36.6673 74.6751 36.6001 74.6751 36.4993V33.9796C74.6751 33.8452 74.6751 33.7108 74.6415 33.6436C74.6415 33.5429 74.6079 33.4757 74.5743 33.4085C74.5407 33.3413 74.4735 33.3077 74.4063 33.2741C74.3391 33.2405 74.2383 33.2405 74.1039 33.2069C74.0032 33.2069 73.9696 33.1397 73.9696 33.0725C73.9696 33.0389 73.9696 32.9717 74.0032 32.9381C74.1039 32.9381 74.2047 32.9381 74.3727 32.9381C74.5407 32.9381 74.6751 32.9045 74.7759 32.9045C74.9103 32.8709 75.0446 32.8373 75.1454 32.8373C75.2462 32.8037 75.347 32.8037 75.3806 32.8037C75.4814 32.8037 75.515 32.8373 75.515 32.9381V33.61C75.7166 33.3749 75.9518 33.1733 76.1533 33.0389C76.3549 32.9381 76.5901 32.8373 76.8589 32.8373ZM83.1414 36.2306C83.175 36.197 83.2422 36.1634 83.2758 36.1634C83.343 36.1634 83.4102 36.2306 83.4774 36.3314C83.3766 36.4658 83.2758 36.5665 83.175 36.6673C83.0742 36.7681 82.9398 36.8689 82.7718 36.9697C82.6039 37.0705 82.4359 37.1377 82.2343 37.1713C82.0327 37.2385 81.7975 37.2385 81.5624 37.2385C81.2936 37.2385 81.0584 37.2049 80.7896 37.1041C80.5545 37.0033 80.3529 36.8689 80.1513 36.7009C79.9833 36.5329 79.8154 36.2978 79.7146 36.029C79.6138 35.7602 79.5466 35.4579 79.5466 35.0883C79.5466 34.7523 79.6138 34.45 79.7482 34.1476C79.8825 33.8788 80.0505 33.61 80.2521 33.4085C80.4537 33.2069 80.6889 33.0389 80.924 32.9381C81.1928 32.8373 81.428 32.7701 81.6632 32.7701C82.2679 32.7701 82.7382 32.9381 83.007 33.3077C83.3094 33.6772 83.4438 34.1476 83.4438 34.7187C83.4438 34.7523 83.4102 34.7859 83.3766 34.7859L80.4873 34.9203C80.4873 35.1891 80.5209 35.4243 80.5881 35.6258C80.6553 35.861 80.7561 36.029 80.8904 36.197C81.0248 36.365 81.1928 36.4993 81.3608 36.5665C81.5624 36.6673 81.7639 36.7009 81.9991 36.7009C82.2007 36.7009 82.4023 36.6673 82.6039 36.5665C82.839 36.4993 83.007 36.3986 83.1414 36.2306ZM81.5288 33.2069C81.1928 33.2069 80.924 33.3413 80.7561 33.61C80.5545 33.8788 80.4873 34.2148 80.4873 34.6179L82.3687 34.5172C82.4695 34.5172 82.5031 34.4836 82.5031 34.3828C82.5031 34.2484 82.4695 34.114 82.4359 33.9796C82.4023 33.8452 82.3351 33.7108 82.2679 33.61C82.2007 33.4757 82.0999 33.4085 81.9655 33.3077C81.8311 33.2405 81.6968 33.2069 81.5288 33.2069ZM90.331 36.9025C90.3982 36.9025 90.4318 36.9697 90.4654 37.1041C90.2975 37.2385 90.0623 37.2721 89.7935 37.2721C89.6591 37.2721 89.5247 37.2385 89.424 37.2049C89.3232 37.1713 89.2224 37.1041 89.1552 37.0369C89.088 36.9697 89.0208 36.8689 88.9872 36.8017C88.9536 36.7009 88.92 36.6001 88.92 36.4993C88.752 36.8017 88.5504 37.0033 88.3153 37.1041C88.0801 37.2049 87.8113 37.2721 87.5425 37.2721C87.4082 37.2721 87.2738 37.2721 87.1058 37.2385C86.9714 37.2049 86.837 37.1713 86.7026 37.1041C86.5682 37.0369 86.4675 36.9361 86.3667 36.8017C86.2659 36.6673 86.2323 36.4993 86.2323 36.2642C86.2323 36.029 86.2995 35.8274 86.4003 35.6594C86.5347 35.4915 86.669 35.3571 86.837 35.2563C87.0386 35.1555 87.2066 35.0547 87.4418 34.9875C87.6769 34.9203 87.8785 34.8531 88.0801 34.8195C88.1809 34.7859 88.2817 34.7859 88.3825 34.7523C88.4832 34.7187 88.584 34.6851 88.6512 34.6851C88.752 34.6515 88.7856 34.6179 88.8192 34.5843C88.8528 34.5507 88.8528 34.45 88.8528 34.3156C88.8528 34.0132 88.7856 33.7444 88.6848 33.5428C88.5504 33.3413 88.3489 33.2405 88.0465 33.2405C87.9457 33.2405 87.8449 33.2405 87.7441 33.2741C87.6769 33.3077 87.6097 33.3413 87.5425 33.4085C87.4753 33.4757 87.4418 33.5429 87.4082 33.6436C87.3746 33.7444 87.341 33.8452 87.2738 33.9796C87.2402 34.0468 87.2066 34.114 87.1394 34.1476C87.0722 34.1812 86.9714 34.2148 86.8034 34.282C86.7698 34.282 86.7026 34.3156 86.669 34.3156C86.6018 34.3156 86.5682 34.3492 86.5347 34.3492C86.4675 34.3492 86.4339 34.282 86.4339 34.1476C86.4339 34.0132 86.5011 33.8452 86.6018 33.7108C86.7026 33.5764 86.8706 33.4421 87.0386 33.3077C87.2066 33.2069 87.4082 33.1061 87.6097 33.0389C87.8113 32.9717 88.0129 32.9381 88.1809 32.9381C88.4161 32.9381 88.6176 32.9717 88.8192 33.0053C89.0208 33.0389 89.1552 33.1061 89.2896 33.2405C89.424 33.3413 89.5247 33.4757 89.5919 33.6772C89.6591 33.8452 89.6927 34.0804 89.6927 34.3828V36.0962C89.6927 36.3314 89.6927 36.4993 89.7263 36.6001C89.7599 36.7009 89.7599 36.7681 89.7935 36.8353C89.8271 36.9361 89.8943 37.0033 89.9279 37.0369C89.9951 37.0705 90.0623 37.0705 90.0959 37.0705C90.1631 37.0705 90.2303 37.0705 90.2303 37.0369C90.2639 36.9025 90.2975 36.9025 90.331 36.9025ZM88.8192 34.9539L88.5168 34.9875C88.3489 35.0211 88.1809 35.0547 88.0129 35.1219C87.8449 35.1555 87.7105 35.2227 87.5761 35.3235C87.4418 35.3907 87.341 35.4915 87.2738 35.6258C87.2066 35.7602 87.173 35.8946 87.173 36.0962C87.173 36.365 87.2402 36.5329 87.3746 36.6673C87.5089 36.8017 87.6769 36.8689 87.8785 36.8689C88.0129 36.8689 88.1137 36.8353 88.2481 36.8017C88.3825 36.7345 88.4832 36.6673 88.5504 36.5665C88.6512 36.4657 88.7184 36.3314 88.7856 36.197C88.8528 36.0626 88.8864 35.8946 88.8864 35.7266V34.9539H88.8192ZM95.0346 37.2049C94.8666 37.2049 94.6986 37.1713 94.497 37.1713C94.329 37.1713 94.1275 37.1713 93.9595 37.1713C93.7915 37.1713 93.5899 37.1713 93.3883 37.1713C93.1868 37.1713 93.0188 37.2049 92.8508 37.2049C92.8508 37.1377 92.8172 37.0705 92.8172 37.0369C92.8172 36.9697 92.8508 36.9361 92.918 36.9025C93.0524 36.8689 93.1868 36.8353 93.3211 36.8017C93.4555 36.7345 93.5227 36.6673 93.5227 36.5665V31.1911C93.5227 30.9895 93.4891 30.8215 93.3883 30.7543C93.3211 30.6872 93.1532 30.62 92.918 30.62C92.8172 30.62 92.7836 30.5528 92.7836 30.4856C92.7836 30.452 92.7836 30.3848 92.8172 30.3512C92.918 30.3512 93.0188 30.3512 93.1868 30.3512C93.3547 30.3512 93.4891 30.3176 93.5899 30.3176C93.7579 30.284 93.8923 30.284 93.9931 30.2504C94.1275 30.2168 94.1947 30.2168 94.2618 30.2168C94.329 30.2168 94.3626 30.2168 94.3962 30.2504C94.4298 30.284 94.4298 30.3176 94.4298 30.3512C94.4298 30.452 94.4298 30.5864 94.3962 30.7543C94.3626 30.8887 94.3626 31.0567 94.3626 31.2583V36.6001C94.3626 36.7009 94.4298 36.8017 94.5306 36.8353C94.665 36.8689 94.7994 36.9025 94.9338 36.9361C95.001 36.9361 95.001 37.0033 95.001 37.0705C95.0682 37.0705 95.0346 37.1377 95.0346 37.2049ZM105.349 36.2306C105.382 36.197 105.449 36.1634 105.483 36.1634C105.55 36.1634 105.617 36.2306 105.685 36.3314C105.584 36.4658 105.483 36.5665 105.382 36.6673C105.282 36.7681 105.147 36.8689 104.979 36.9697C104.811 37.0705 104.643 37.1377 104.442 37.1713C104.24 37.2385 104.005 37.2385 103.77 37.2385C103.501 37.2385 103.266 37.2049 102.997 37.1041C102.762 37.0033 102.56 36.8689 102.359 36.7009C102.191 36.5329 102.023 36.2978 101.922 36.029C101.821 35.7602 101.754 35.4579 101.754 35.0883C101.754 34.7523 101.821 34.45 101.955 34.1476C102.09 33.8788 102.258 33.61 102.459 33.4085C102.661 33.2069 102.896 33.0389 103.131 32.9381C103.4 32.8373 103.635 32.7701 103.87 32.7701C104.475 32.7701 104.946 32.9381 105.214 33.3077C105.483 33.6772 105.651 34.1476 105.651 34.7187C105.651 34.7523 105.617 34.7859 105.584 34.7859L102.695 34.9203C102.695 35.1891 102.728 35.4243 102.795 35.6258C102.863 35.861 102.963 36.029 103.098 36.197C103.232 36.365 103.4 36.4993 103.568 36.5665C103.77 36.6673 103.971 36.7009 104.206 36.7009C104.408 36.7009 104.61 36.6673 104.811 36.5665C105.046 36.4993 105.214 36.3986 105.349 36.2306ZM103.736 33.2069C103.4 33.2069 103.131 33.3413 102.963 33.61C102.762 33.8788 102.695 34.2148 102.695 34.6179L104.576 34.5172C104.677 34.5172 104.71 34.4836 104.71 34.3828C104.71 34.2484 104.677 34.114 104.643 33.9796C104.61 33.8452 104.542 33.7108 104.475 33.61C104.408 33.4757 104.307 33.4085 104.173 33.3077C104.038 33.2405 103.904 33.2069 103.736 33.2069ZM111.06 34.0468C110.993 34.0468 110.959 34.0468 110.926 34.0132C110.892 33.9796 110.892 33.946 110.892 33.946C110.859 33.6772 110.724 33.4757 110.556 33.3749C110.388 33.2405 110.187 33.2069 109.918 33.2069C109.716 33.2069 109.548 33.2741 109.414 33.3749C109.279 33.4757 109.179 33.6436 109.179 33.8116C109.179 33.9796 109.246 34.114 109.38 34.2484C109.515 34.3492 109.783 34.4836 110.119 34.5843C110.321 34.6515 110.489 34.7187 110.657 34.7859C110.825 34.8531 110.959 34.9539 111.06 35.0547C111.194 35.1555 111.262 35.2899 111.329 35.4243C111.396 35.5586 111.43 35.7602 111.43 35.9618C111.43 36.1298 111.396 36.2978 111.329 36.4657C111.262 36.6337 111.161 36.7681 111.026 36.8689C110.892 37.0033 110.724 37.0705 110.523 37.1713C110.321 37.2385 110.086 37.2721 109.817 37.2721C109.615 37.2721 109.38 37.2385 109.112 37.2049C108.843 37.1713 108.608 37.0705 108.406 36.9697C108.406 36.8017 108.372 36.6337 108.372 36.4322C108.372 36.2306 108.372 36.0626 108.372 35.861H108.473C108.54 35.861 108.608 35.861 108.641 35.8946C108.675 35.9282 108.708 35.9618 108.708 35.9954C108.742 36.2642 108.843 36.4993 109.011 36.6673C109.212 36.8353 109.481 36.9025 109.817 36.9025C110.086 36.9025 110.287 36.8353 110.455 36.7345C110.59 36.6001 110.691 36.4321 110.691 36.2306C110.691 35.9954 110.623 35.861 110.455 35.7266C110.287 35.5922 110.052 35.4914 109.75 35.4243C109.347 35.2899 109.044 35.1555 108.809 34.9539C108.574 34.7523 108.473 34.4836 108.473 34.114C108.473 33.946 108.507 33.778 108.574 33.61C108.641 33.4421 108.742 33.3413 108.843 33.2069C108.977 33.1061 109.112 33.0053 109.279 32.9381C109.447 32.8709 109.649 32.8373 109.851 32.8373C110.119 32.8373 110.355 32.8709 110.59 32.9381C110.825 33.0053 111.026 33.0725 111.161 33.1733C111.161 33.2405 111.161 33.3077 111.194 33.3749C111.194 33.4421 111.194 33.5429 111.194 33.61C111.194 33.6772 111.194 33.778 111.194 33.8452C111.194 33.9124 111.194 34.0132 111.194 34.0804L111.06 34.0468ZM116.536 36.5665C116.57 36.5329 116.604 36.4993 116.604 36.4993C116.637 36.4993 116.637 36.4993 116.671 36.4993C116.738 36.4993 116.772 36.5329 116.839 36.6337C116.671 36.8353 116.469 36.9697 116.268 37.1041C116.066 37.2385 115.864 37.2721 115.629 37.2721C115.495 37.2721 115.36 37.2721 115.26 37.2385C115.125 37.2049 115.024 37.1713 114.957 37.0705C114.857 36.9697 114.789 36.8689 114.756 36.7345C114.722 36.5665 114.689 36.3986 114.689 36.1634V33.4085H114.084V33.2741C114.084 33.2405 114.084 33.1733 114.117 33.1397C114.151 33.1061 114.185 33.0725 114.218 33.0725C114.386 33.0725 114.554 33.0389 114.655 32.9381C114.756 32.8373 114.857 32.7365 114.924 32.5686C114.991 32.4006 115.058 32.2662 115.125 32.1318C115.192 31.9974 115.26 31.9302 115.327 31.9302H115.495V32.9717H116.671C116.671 33.1061 116.671 33.2069 116.637 33.2741C116.604 33.3413 116.57 33.3749 116.469 33.3749H115.528V35.861C115.528 36.0626 115.528 36.2306 115.562 36.365C115.596 36.4993 115.596 36.6001 115.663 36.6673C115.696 36.7345 115.764 36.7681 115.797 36.8017C115.864 36.8353 115.898 36.8353 115.965 36.8353C116.066 36.8353 116.167 36.8017 116.268 36.7681C116.368 36.7009 116.469 36.6337 116.536 36.5665ZM123.424 36.9025C123.491 36.9025 123.524 36.9697 123.558 37.1041C123.39 37.2385 123.155 37.2721 122.886 37.2721C122.752 37.2721 122.617 37.2385 122.517 37.2049C122.416 37.1713 122.315 37.1041 122.248 37.0369C122.181 36.9697 122.113 36.8689 122.08 36.8017C122.046 36.7009 122.013 36.6001 122.013 36.4993C121.845 36.8017 121.643 37.0033 121.408 37.1041C121.173 37.2049 120.904 37.2721 120.635 37.2721C120.501 37.2721 120.366 37.2721 120.198 37.2385C120.064 37.2049 119.93 37.1713 119.795 37.1041C119.661 37.0369 119.56 36.9361 119.459 36.8017C119.358 36.6673 119.325 36.4993 119.325 36.2642C119.325 36.029 119.392 35.8274 119.493 35.6594C119.627 35.4915 119.762 35.3571 119.93 35.2563C120.131 35.1555 120.299 35.0547 120.534 34.9875C120.769 34.9203 120.971 34.8531 121.173 34.8195C121.273 34.7859 121.374 34.7859 121.475 34.7523C121.576 34.7187 121.677 34.6851 121.744 34.6851C121.845 34.6515 121.878 34.6179 121.912 34.5843C121.945 34.5507 121.945 34.45 121.945 34.3156C121.945 34.0132 121.878 33.7444 121.777 33.5428C121.643 33.3413 121.441 33.2405 121.139 33.2405C121.038 33.2405 120.937 33.2405 120.837 33.2741C120.769 33.3077 120.702 33.3413 120.635 33.4085C120.568 33.4757 120.534 33.5429 120.501 33.6436C120.467 33.7444 120.434 33.8452 120.366 33.9796C120.333 34.0468 120.299 34.114 120.232 34.1476C120.165 34.1812 120.064 34.2148 119.896 34.282C119.862 34.282 119.795 34.3156 119.762 34.3156C119.694 34.3156 119.661 34.3492 119.627 34.3492C119.56 34.3492 119.526 34.282 119.526 34.1476C119.526 34.0132 119.594 33.8452 119.694 33.7108C119.795 33.5764 119.963 33.4421 120.131 33.3077C120.299 33.2069 120.501 33.1061 120.702 33.0389C120.904 32.9717 121.105 32.9381 121.273 32.9381C121.509 32.9381 121.71 32.9717 121.912 33.0053C122.113 33.0389 122.248 33.1061 122.382 33.2405C122.517 33.3413 122.617 33.4757 122.684 33.6772C122.752 33.8452 122.785 34.0804 122.785 34.3828V36.0962C122.785 36.3314 122.785 36.4993 122.819 36.6001C122.852 36.7009 122.852 36.7681 122.886 36.8353C122.92 36.9361 122.987 37.0033 123.02 37.0369C123.088 37.0705 123.155 37.0705 123.188 37.0705C123.256 37.0705 123.323 37.0705 123.323 37.0369C123.356 36.9025 123.39 36.9025 123.424 36.9025ZM121.912 34.9539L121.609 34.9875C121.441 35.0211 121.273 35.0547 121.105 35.1219C120.937 35.1555 120.803 35.2227 120.669 35.3235C120.534 35.3907 120.434 35.4915 120.366 35.6258C120.299 35.7602 120.266 35.8946 120.266 36.0962C120.266 36.365 120.333 36.5329 120.467 36.6673C120.602 36.8017 120.769 36.8689 120.971 36.8689C121.105 36.8689 121.206 36.8353 121.341 36.8017C121.475 36.7345 121.576 36.6673 121.643 36.5665C121.744 36.4657 121.811 36.3314 121.878 36.197C121.945 36.0626 121.979 35.8946 121.979 35.7266V34.9539H121.912ZM128.262 36.5665C128.295 36.5329 128.329 36.4993 128.329 36.4993C128.362 36.4993 128.362 36.4993 128.396 36.4993C128.463 36.4993 128.497 36.5329 128.564 36.6337C128.396 36.8353 128.194 36.9697 127.993 37.1041C127.791 37.2385 127.59 37.2721 127.354 37.2721C127.22 37.2721 127.086 37.2721 126.985 37.2385C126.85 37.2049 126.75 37.1713 126.682 37.0705C126.582 36.9697 126.514 36.8689 126.481 36.7345C126.447 36.5665 126.414 36.3986 126.414 36.1634V33.4085H125.809V33.2741C125.809 33.2405 125.809 33.1733 125.843 33.1397C125.876 33.1061 125.91 33.0725 125.943 33.0725C126.111 33.0725 126.279 33.0389 126.38 32.9381C126.481 32.8373 126.582 32.7365 126.649 32.5686C126.716 32.4006 126.783 32.2662 126.85 32.1318C126.918 31.9974 126.985 31.9302 127.052 31.9302H127.22V32.9717H128.396C128.396 33.1061 128.396 33.2069 128.362 33.2741C128.329 33.3413 128.295 33.3749 128.194 33.3749H127.254V35.861C127.254 36.0626 127.254 36.2306 127.287 36.365C127.321 36.4993 127.321 36.6001 127.388 36.6673C127.422 36.7345 127.489 36.7681 127.522 36.8017C127.59 36.8353 127.623 36.8353 127.69 36.8353C127.791 36.8353 127.892 36.8017 127.993 36.7681C128.06 36.7009 128.161 36.6337 128.262 36.5665ZM134.477 36.2306C134.51 36.197 134.578 36.1634 134.611 36.1634C134.678 36.1634 134.746 36.2306 134.813 36.3314C134.712 36.4658 134.611 36.5665 134.51 36.6673C134.41 36.7681 134.275 36.8689 134.107 36.9697C133.939 37.0705 133.771 37.1377 133.57 37.1713C133.368 37.2385 133.133 37.2385 132.898 37.2385C132.629 37.2385 132.394 37.2049 132.125 37.1041C131.89 37.0033 131.688 36.8689 131.487 36.7009C131.319 36.5329 131.151 36.2978 131.05 36.029C130.949 35.7602 130.882 35.4579 130.882 35.0883C130.882 34.7523 130.949 34.45 131.084 34.1476C131.218 33.8788 131.386 33.61 131.588 33.4085C131.789 33.2069 132.024 33.0389 132.259 32.9381C132.528 32.8373 132.763 32.7701 132.999 32.7701C133.603 32.7701 134.074 32.9381 134.342 33.3077C134.611 33.6772 134.779 34.1476 134.779 34.7187C134.779 34.7523 134.746 34.7859 134.712 34.7859L131.823 34.9203C131.823 35.1891 131.856 35.4243 131.924 35.6258C131.991 35.861 132.092 36.029 132.226 36.197C132.36 36.365 132.528 36.4993 132.696 36.5665C132.898 36.6673 133.099 36.7009 133.335 36.7009C133.536 36.7009 133.738 36.6673 133.939 36.5665C134.174 36.4993 134.342 36.3986 134.477 36.2306ZM132.864 33.2069C132.528 33.2069 132.259 33.3413 132.092 33.61C131.89 33.8788 131.823 34.2148 131.823 34.6179L133.704 34.5172C133.805 34.5172 133.839 34.4836 133.839 34.3828C133.839 34.2484 133.805 34.114 133.771 33.9796C133.738 33.8452 133.671 33.7108 133.603 33.61C133.536 33.4757 133.435 33.4085 133.301 33.3077C133.167 33.2405 133.032 33.2069 132.864 33.2069ZM145.732 36.9025C145.799 36.9025 145.832 36.9697 145.866 37.1041C145.698 37.2385 145.463 37.2721 145.194 37.2721C145.06 37.2721 144.925 37.2385 144.825 37.2049C144.724 37.1713 144.623 37.1041 144.556 37.0369C144.489 36.9697 144.421 36.8689 144.388 36.8017C144.354 36.7009 144.321 36.6001 144.321 36.4993C144.153 36.8017 143.951 37.0033 143.716 37.1041C143.481 37.2049 143.212 37.2721 142.943 37.2721C142.809 37.2721 142.674 37.2721 142.506 37.2385C142.372 37.2049 142.204 37.1713 142.103 37.1041C141.969 37.0369 141.868 36.9361 141.767 36.8017C141.667 36.6673 141.633 36.4993 141.633 36.2642C141.633 36.029 141.7 35.8274 141.801 35.6594C141.935 35.4915 142.07 35.3571 142.238 35.2563C142.439 35.1555 142.607 35.0547 142.842 34.9875C143.078 34.9203 143.279 34.8531 143.481 34.8195C143.582 34.7859 143.682 34.7859 143.783 34.7523C143.884 34.7187 143.985 34.6851 144.052 34.6851C144.153 34.6515 144.186 34.6179 144.22 34.5843C144.253 34.5507 144.253 34.45 144.253 34.3156C144.253 34.0132 144.186 33.7444 144.085 33.5428C143.951 33.3413 143.749 33.2405 143.447 33.2405C143.346 33.2405 143.246 33.2405 143.145 33.2741C143.078 33.3077 143.01 33.3413 142.943 33.4085C142.876 33.4757 142.842 33.5429 142.809 33.6436C142.775 33.7444 142.742 33.8452 142.674 33.9796C142.641 34.0468 142.607 34.114 142.54 34.1476C142.473 34.1812 142.372 34.2148 142.204 34.282C142.17 34.282 142.103 34.3156 142.07 34.3156C142.002 34.3156 141.969 34.3492 141.935 34.3492C141.868 34.3492 141.835 34.282 141.835 34.1476C141.835 34.0132 141.902 33.8452 142.002 33.7108C142.103 33.5764 142.271 33.4421 142.439 33.3077C142.607 33.2069 142.809 33.1061 143.01 33.0389C143.212 32.9717 143.414 32.9381 143.582 32.9381C143.817 32.9381 144.018 32.9717 144.22 33.0053C144.421 33.0389 144.556 33.1061 144.69 33.2405C144.825 33.3413 144.925 33.4757 144.993 33.6772C145.06 33.8452 145.093 34.0804 145.093 34.3828V36.0962C145.093 36.3314 145.093 36.4993 145.127 36.6001C145.161 36.7009 145.161 36.7681 145.194 36.8353C145.228 36.9361 145.295 37.0033 145.329 37.0369C145.396 37.0705 145.463 37.0705 145.497 37.0705C145.564 37.0705 145.631 37.0705 145.631 37.0369C145.665 36.9025 145.698 36.9025 145.732 36.9025ZM144.22 34.9539L143.917 34.9875C143.749 35.0211 143.582 35.0547 143.414 35.1219C143.246 35.1555 143.111 35.2227 142.977 35.3235C142.842 35.3907 142.742 35.4915 142.674 35.6258C142.607 35.7602 142.574 35.8946 142.574 36.0962C142.574 36.365 142.641 36.5329 142.775 36.6673C142.91 36.8017 143.078 36.8689 143.279 36.8689C143.414 36.8689 143.514 36.8353 143.649 36.8017C143.783 36.7345 143.884 36.6673 143.951 36.5665C144.052 36.4657 144.119 36.3314 144.186 36.197C144.253 36.0626 144.287 35.8946 144.287 35.7266V34.9539H144.22ZM148.856 36.9361C148.587 36.7681 148.419 36.5329 148.419 36.2306C148.419 35.8946 148.655 35.6258 149.091 35.4243C148.89 35.3235 148.755 35.1555 148.655 34.9875C148.554 34.7859 148.487 34.5507 148.487 34.282C148.487 34.0804 148.52 33.9124 148.621 33.7444C148.722 33.5764 148.823 33.4085 148.991 33.2741C149.159 33.1397 149.327 33.0389 149.495 32.9717C149.696 32.9045 149.898 32.8373 150.133 32.8373C150.469 32.8373 150.738 32.8709 150.939 32.9717C151.141 33.0389 151.309 33.1397 151.443 33.2741L152.417 32.8373C152.485 32.8709 152.552 32.9381 152.585 33.0389C152.619 33.1061 152.619 33.1733 152.619 33.2405C152.619 33.3749 152.585 33.4757 152.485 33.4757H152.115C151.981 33.4757 151.846 33.5093 151.645 33.5428C151.813 33.7444 151.88 34.0132 151.88 34.3156C151.88 34.5172 151.846 34.7187 151.745 34.8867C151.645 35.0547 151.51 35.2227 151.376 35.3235C151.208 35.4579 151.04 35.525 150.805 35.6258C150.57 35.693 150.368 35.7266 150.099 35.7266C149.965 35.7266 149.83 35.7266 149.696 35.693C149.562 35.6594 149.461 35.6594 149.327 35.5922C149.159 35.6594 149.024 35.7602 148.957 35.8274C148.89 35.8946 148.856 35.9954 148.856 36.0626C148.856 36.1298 148.856 36.1634 148.89 36.2306C148.923 36.2642 148.991 36.3314 149.058 36.365C149.159 36.3986 149.293 36.4322 149.427 36.4657C149.595 36.4993 149.797 36.4993 150.066 36.4993C150.368 36.4993 150.637 36.5329 150.906 36.5665C151.174 36.6001 151.41 36.7009 151.611 36.8017C151.813 36.9025 151.981 37.0369 152.081 37.2049C152.216 37.3729 152.249 37.5744 152.249 37.8432C152.249 38.112 152.182 38.3471 152.081 38.5823C151.981 38.8175 151.813 38.9855 151.611 39.1535C151.41 39.3215 151.174 39.4222 150.906 39.523C150.637 39.6238 150.334 39.6574 149.998 39.6574C149.36 39.6574 148.89 39.5566 148.52 39.3215C148.184 39.0863 147.983 38.7503 147.983 38.2464C147.983 38.112 148.016 37.9776 148.05 37.8432C148.083 37.7088 148.151 37.608 148.218 37.5072C148.285 37.4065 148.386 37.3057 148.453 37.2385C148.688 37.0705 148.789 37.0033 148.856 36.9361ZM149.091 37.0705C148.923 37.2385 148.856 37.4065 148.823 37.6416C148.823 37.7088 148.823 37.7424 148.823 37.8096C148.823 37.8768 148.823 37.9104 148.823 37.9776C148.823 38.112 148.856 38.2464 148.923 38.3808C148.991 38.5151 149.091 38.6495 149.226 38.7503C149.36 38.8511 149.495 38.9519 149.696 39.0191C149.898 39.0863 150.099 39.1199 150.334 39.1199C150.805 39.1199 151.141 39.0191 151.342 38.8175C151.544 38.6159 151.645 38.3807 151.645 38.0784C151.645 37.944 151.611 37.8432 151.577 37.7424C151.51 37.6416 151.443 37.5408 151.309 37.4736C151.174 37.4065 151.006 37.3393 150.805 37.3057C150.603 37.2721 150.334 37.2385 150.032 37.2385C149.864 37.2385 149.696 37.2385 149.528 37.2049C149.36 37.1377 149.226 37.1041 149.091 37.0705ZM150.234 35.2899C150.469 35.2899 150.67 35.2227 150.805 35.0547C150.939 34.8867 151.04 34.6851 151.04 34.3828C151.04 34.2484 151.04 34.0804 151.006 33.946C150.973 33.8116 150.939 33.6772 150.872 33.5428C150.805 33.4085 150.704 33.3413 150.57 33.2405C150.435 33.1733 150.301 33.1397 150.099 33.1397C149.864 33.1397 149.696 33.2069 149.528 33.3749C149.394 33.5428 149.327 33.7444 149.327 34.0132C149.327 34.1812 149.327 34.3156 149.36 34.4836C149.394 34.6179 149.427 34.7523 149.495 34.8867C149.562 35.0211 149.662 35.0883 149.763 35.1891C149.898 35.2563 150.032 35.2899 150.234 35.2899ZM158.498 36.2306C158.532 36.197 158.599 36.1634 158.633 36.1634C158.7 36.1634 158.767 36.2306 158.834 36.3314C158.734 36.4658 158.633 36.5665 158.532 36.6673C158.431 36.7681 158.297 36.8689 158.129 36.9697C157.961 37.0705 157.793 37.1377 157.591 37.1713C157.39 37.2385 157.155 37.2385 156.919 37.2385C156.651 37.2385 156.415 37.2049 156.147 37.1041C155.911 37.0033 155.71 36.8689 155.508 36.7009C155.34 36.5329 155.172 36.2978 155.072 36.029C154.971 35.7602 154.904 35.4579 154.904 35.0883C154.904 34.7523 154.971 34.45 155.105 34.1476C155.24 33.8788 155.407 33.61 155.609 33.4085C155.811 33.2069 156.046 33.0389 156.281 32.9381C156.55 32.8373 156.785 32.7701 157.02 32.7701C157.625 32.7701 158.095 32.9381 158.364 33.3077C158.633 33.6772 158.801 34.1476 158.801 34.7187C158.801 34.7523 158.767 34.7859 158.734 34.7859L155.844 34.9203C155.844 35.1891 155.878 35.4243 155.945 35.6258C156.012 35.861 156.113 36.029 156.247 36.197C156.382 36.365 156.55 36.4993 156.718 36.5665C156.919 36.6673 157.121 36.7009 157.356 36.7009C157.558 36.7009 157.759 36.6673 157.961 36.5665C158.196 36.4993 158.364 36.3986 158.498 36.2306ZM156.886 33.2069C156.55 33.2069 156.281 33.3413 156.113 33.61C155.911 33.8788 155.844 34.2148 155.844 34.6179L157.726 34.5172C157.826 34.5172 157.86 34.4836 157.86 34.3828C157.86 34.2484 157.826 34.114 157.793 33.9796C157.759 33.8452 157.692 33.7108 157.625 33.61C157.558 33.4757 157.457 33.4085 157.322 33.3077C157.188 33.2405 157.054 33.2069 156.886 33.2069ZM165.89 36.6001C165.89 36.7009 165.957 36.7681 166.058 36.8353C166.192 36.8689 166.326 36.9025 166.461 36.9361C166.528 36.9361 166.562 37.0033 166.562 37.0705C166.562 37.1041 166.562 37.1713 166.528 37.2385C166.36 37.2385 166.192 37.2049 166.024 37.2049C165.856 37.2049 165.688 37.2049 165.486 37.2049C165.318 37.2049 165.117 37.2049 164.949 37.2049C164.781 37.2049 164.613 37.2385 164.445 37.2385C164.445 37.1713 164.411 37.1041 164.411 37.0705C164.411 37.0033 164.445 36.9697 164.512 36.9361C164.647 36.9025 164.781 36.8689 164.882 36.8353C164.982 36.7681 165.05 36.7009 165.05 36.6001V34.6515C165.05 34.4836 165.05 34.3492 165.016 34.1812C164.982 34.0468 164.949 33.9124 164.882 33.8116C164.815 33.7108 164.747 33.61 164.647 33.5764C164.546 33.5093 164.445 33.4757 164.277 33.4757C164.109 33.4757 163.941 33.5093 163.773 33.5764C163.605 33.6436 163.471 33.7108 163.336 33.8116C163.202 33.9124 163.135 34.0468 163.034 34.2148C162.967 34.3828 162.933 34.5507 162.933 34.7523V36.5665C162.933 36.6673 163 36.7345 163.101 36.8017C163.235 36.8353 163.336 36.8689 163.471 36.9025C163.538 36.9025 163.571 36.9697 163.571 37.0369C163.571 37.0705 163.571 37.1377 163.538 37.2049C163.37 37.2049 163.202 37.1713 163.034 37.1713C162.866 37.1713 162.698 37.1713 162.496 37.1713C162.295 37.1713 162.127 37.1713 161.959 37.1713C161.791 37.1713 161.623 37.2049 161.455 37.2049C161.455 37.1377 161.421 37.0705 161.421 37.0369C161.421 36.9697 161.455 36.9361 161.522 36.9025C161.656 36.8689 161.791 36.8353 161.925 36.8017C162.06 36.7345 162.093 36.6673 162.093 36.5665V33.8452C162.093 33.6436 162.06 33.5093 161.992 33.4085C161.925 33.3077 161.791 33.2741 161.556 33.2405C161.455 33.2405 161.421 33.1733 161.421 33.1061C161.421 33.0725 161.421 33.0389 161.455 32.9717C161.556 32.9717 161.656 32.9717 161.824 32.9717C161.992 32.9717 162.127 32.9381 162.228 32.9381C162.396 32.9045 162.53 32.8709 162.631 32.8709C162.765 32.8373 162.832 32.8373 162.9 32.8373C163 32.8373 163.034 32.8709 163.034 32.9717C163.034 33.0725 163.034 33.1733 163 33.3077C162.967 33.4421 162.967 33.61 162.967 33.8116C163.235 33.5093 163.538 33.2405 163.773 33.0725C164.042 32.9045 164.344 32.8037 164.647 32.8037C165.05 32.8037 165.352 32.9381 165.554 33.1733C165.755 33.4085 165.856 33.7444 165.856 34.1476V36.6001H165.89ZM171.131 33.2069C170.828 33.2069 170.56 33.3413 170.358 33.61C170.156 33.8788 170.056 34.2484 170.056 34.7187C170.056 35.3571 170.19 35.861 170.492 36.2306C170.795 36.6001 171.164 36.7681 171.635 36.7681C171.836 36.7681 172.038 36.7345 172.172 36.6673C172.307 36.6001 172.441 36.5329 172.542 36.4657C172.575 36.4657 172.575 36.4322 172.609 36.4322C172.643 36.3986 172.676 36.3986 172.676 36.3986C172.71 36.3986 172.743 36.4322 172.777 36.4657C172.81 36.4993 172.844 36.5329 172.844 36.5665C172.777 36.6337 172.71 36.7345 172.609 36.8017C172.508 36.8689 172.374 36.9697 172.239 37.0369C172.105 37.1041 171.937 37.1713 171.735 37.2049C171.534 37.2385 171.332 37.2721 171.097 37.2721C170.828 37.2721 170.56 37.2385 170.324 37.1377C170.089 37.0369 169.888 36.9025 169.686 36.7345C169.518 36.5665 169.35 36.3314 169.249 36.0626C169.148 35.7938 169.081 35.4915 169.081 35.1219C169.081 34.7859 169.148 34.4836 169.283 34.1812C169.417 33.9124 169.585 33.6436 169.787 33.4421C169.988 33.2405 170.224 33.0725 170.459 32.9717C170.727 32.8709 170.963 32.8037 171.198 32.8037C171.433 32.8037 171.668 32.8373 171.87 32.8709C172.071 32.9381 172.239 33.0053 172.374 33.0725C172.508 33.1733 172.609 33.2741 172.676 33.3749C172.743 33.4757 172.81 33.61 172.81 33.7444C172.81 33.778 172.777 33.8116 172.71 33.8452C172.643 33.8788 172.575 33.8788 172.475 33.9124C172.407 33.9124 172.307 33.946 172.239 33.946C172.172 33.946 172.139 33.946 172.105 33.946C172.004 33.946 171.937 33.9124 171.903 33.8116C171.87 33.7108 171.803 33.6436 171.735 33.5428C171.668 33.4421 171.601 33.3413 171.5 33.2741C171.467 33.2405 171.332 33.2069 171.131 33.2069ZM177.648 36.0626C177.749 35.7938 177.85 35.5586 177.984 35.2899C178.119 35.0211 178.22 34.7523 178.32 34.5172C178.421 34.282 178.522 34.0468 178.589 33.8788C178.656 33.6772 178.69 33.5429 178.69 33.4421C178.69 33.3749 178.656 33.3413 178.623 33.3077C178.555 33.2741 178.522 33.2405 178.455 33.2405C178.387 33.2069 178.354 33.2069 178.287 33.1733C178.22 33.1397 178.22 33.1061 178.22 33.0389C178.22 33.0389 178.22 33.0053 178.22 32.9717C178.22 32.9381 178.22 32.9381 178.253 32.9045C178.522 32.9381 178.791 32.9381 179.093 32.9381C179.261 32.9381 179.395 32.9381 179.496 32.9381C179.597 32.9381 179.731 32.9381 179.799 32.9045C179.799 32.9381 179.832 32.9381 179.832 32.9717C179.832 33.0053 179.832 33.0053 179.832 33.0389C179.832 33.1061 179.799 33.1733 179.698 33.1733C179.597 33.2069 179.53 33.2069 179.463 33.2405C179.395 33.2741 179.362 33.2741 179.328 33.3077C179.295 33.3413 179.261 33.3749 179.227 33.4421C179.194 33.5093 179.16 33.5765 179.127 33.6772L177.077 38.5151C176.943 38.8175 176.741 39.0863 176.473 39.2879C176.204 39.4894 175.935 39.5566 175.633 39.5566C175.565 39.5566 175.532 39.5566 175.498 39.523C175.465 39.4894 175.465 39.4558 175.465 39.4222C175.465 39.355 175.465 39.2543 175.498 39.1871C175.532 39.1199 175.532 39.0191 175.565 38.9519C175.599 38.8847 175.633 38.8175 175.666 38.7839C175.7 38.7503 175.767 38.7167 175.801 38.7167C175.868 38.7167 175.901 38.7167 175.935 38.7167C175.969 38.7167 176.036 38.7503 176.069 38.7503C176.237 38.7503 176.372 38.7167 176.473 38.6495C176.573 38.5823 176.64 38.4815 176.708 38.3136L177.212 37.1377L175.666 33.7108C175.633 33.61 175.565 33.5429 175.532 33.4757C175.498 33.4085 175.465 33.3749 175.431 33.3413C175.397 33.3077 175.33 33.2741 175.297 33.2741C175.229 33.2405 175.162 33.2405 175.095 33.2405C174.994 33.2069 174.961 33.1733 174.961 33.1061C174.961 33.1061 174.961 33.0725 174.961 33.0389C174.961 33.0053 174.994 33.0053 174.994 32.9717C175.129 32.9717 175.263 33.0053 175.397 33.0053C175.532 33.0053 175.7 33.0053 175.868 33.0053H176.17C176.338 33.0053 176.472 33.0053 176.607 33.0053C176.741 33.0053 176.876 33.0053 177.01 32.9717C177.01 33.0053 177.044 33.0053 177.044 33.0389C177.044 33.0725 177.044 33.0725 177.044 33.1061C177.044 33.1733 177.01 33.2405 176.909 33.2405C176.741 33.2741 176.64 33.3077 176.607 33.3413C176.54 33.3749 176.54 33.4085 176.54 33.4757C176.54 33.5093 176.573 33.5764 176.607 33.7108C176.64 33.8452 176.708 34.0132 176.808 34.2148L177.648 36.0626Z" fill="#B09676"/>
<path fill-rule="evenodd" clip-rule="evenodd" d="M186.484 33.4762C187.861 33.4762 188.667 33.4762 190.045 33.4762C190.045 33.9466 190.045 33.409 190.045 33.6778C190.045 33.6778 189.978 33.7114 189.776 33.8458C189.574 33.9466 189.406 34.081 189.406 34.081V34.3833V34.7193V34.9881C189.406 35.0889 189.44 35.1225 189.474 35.1225C189.474 35.1225 189.978 34.7865 190.515 34.8201C191.053 34.8537 191.523 35.1225 191.523 35.1225C191.523 35.1225 191.624 35.1561 191.624 34.9881C191.624 34.8537 191.624 34.7193 191.624 34.7193V34.3833V34.081C191.624 34.081 191.523 34.0138 191.254 33.8458C190.986 33.7114 190.952 33.6778 190.952 33.6778C190.952 32.9723 190.952 34.1146 190.952 33.4762H191.859C192.061 33.4762 192.195 33.3419 192.229 33.1739V33.0395C192.229 32.8715 192.061 32.6699 191.893 32.6699C189.709 32.7035 188.667 32.6699 186.517 32.6699C186.349 32.8379 186.181 33.2411 186.484 33.4762Z" fill="#B09676"/>
</svg>
