<svg width="8" height="6" viewBox="0 0 8 6" fill="none" xmlns="http://www.w3.org/2000/svg">
<path d="M7.7745 0.305638C7.72221 0.252916 7.65999 0.211069 7.59145 0.182512C7.5229 0.153954 7.44938 0.139252 7.37512 0.139252C7.30087 0.139252 7.22735 0.153954 7.1588 0.182512C7.09025 0.211069 7.02804 0.252916 6.97575 0.305638L2.78512 4.50189L1.0245 2.73564C0.970206 2.68319 0.906114 2.64195 0.835883 2.61428C0.765652 2.5866 0.690657 2.57302 0.615181 2.57433C0.539704 2.57564 0.465224 2.5918 0.395992 2.62189C0.326761 2.65198 0.264133 2.69541 0.211687 2.7497C0.15924 2.80399 0.118001 2.86809 0.0903238 2.93832C0.0626466 3.00855 0.0490732 3.08354 0.050379 3.15902C0.0516848 3.2345 0.0678442 3.30898 0.0979343 3.37821C0.128024 3.44744 0.171456 3.51007 0.225749 3.56251L2.38575 5.72251C2.43804 5.77524 2.50025 5.81708 2.5688 5.84564C2.63735 5.8742 2.71087 5.8889 2.78512 5.8889C2.85938 5.8889 2.9329 5.8742 3.00145 5.84564C3.06999 5.81708 3.13221 5.77524 3.1845 5.72251L7.7745 1.13251C7.83159 1.07984 7.87716 1.01591 7.90833 0.944755C7.9395 0.873599 7.95559 0.796758 7.95559 0.719076C7.95559 0.641394 7.9395 0.564553 7.90833 0.493397C7.87716 0.422241 7.83159 0.358312 7.7745 0.305638Z" fill="white"/>
</svg>
