<svg width="411" height="246" viewBox="0 0 411 246" fill="none" xmlns="http://www.w3.org/2000/svg">
<path opacity="0.7" d="M6.57422 239H3.84961V228.418H0.360352V226.15H10.0635V228.418H6.57422V239ZM24.3703 239H21.6545V233.454H16.5656V239H13.841V226.15H16.5656V231.187H21.6545V226.15H24.3703V239ZM36.8227 239H29.4223V226.15H36.8227V228.383H32.1469V231.204H36.4975V233.437H32.1469V236.75H36.8227V239ZM44.0367 231.854H44.9156C45.777 231.854 46.4127 231.711 46.8229 231.424C47.233 231.137 47.4381 230.686 47.4381 230.07C47.4381 229.461 47.2271 229.027 46.8053 228.77C46.3893 228.512 45.7418 228.383 44.8629 228.383H44.0367V231.854ZM44.0367 234.069V239H41.3121V226.15H45.0563C46.8023 226.15 48.0943 226.47 48.9322 227.108C49.7701 227.741 50.1891 228.705 50.1891 230C50.1891 230.756 49.9811 231.43 49.565 232.021C49.149 232.607 48.5602 233.067 47.7984 233.401C49.732 236.29 50.9918 238.156 51.5777 239H48.5543L45.4869 234.069H44.0367ZM62.3953 239H54.9949V226.15H62.3953V228.383H57.7195V231.204H62.0701V233.437H57.7195V236.75H62.3953V239ZM81.2268 239L80.2951 235.941H75.6105L74.6789 239H71.7434L76.2785 226.098H79.6096L84.1623 239H81.2268ZM79.6447 233.656C78.7834 230.885 78.2971 229.317 78.1857 228.954C78.0803 228.591 78.0041 228.304 77.9572 228.093C77.7639 228.843 77.2102 230.697 76.2961 233.656H79.6447ZM90.3129 231.854H91.1918C92.0531 231.854 92.6889 231.711 93.099 231.424C93.5092 231.137 93.7143 230.686 93.7143 230.07C93.7143 229.461 93.5033 229.027 93.0814 228.77C92.6654 228.512 92.018 228.383 91.1391 228.383H90.3129V231.854ZM90.3129 234.069V239H87.5883V226.15H91.3324C93.0785 226.15 94.3705 226.47 95.2084 227.108C96.0463 227.741 96.4652 228.705 96.4652 230C96.4652 230.756 96.2572 231.43 95.8412 232.021C95.4252 232.607 94.8363 233.067 94.0746 233.401C96.0082 236.29 97.268 238.156 97.8539 239H94.8305L91.7631 234.069H90.3129ZM108.671 239H101.271V226.15H108.671V228.383H103.996V231.204H108.346V233.437H103.996V236.75H108.671V239ZM131.036 239H127.573L121.983 229.279H121.904C122.016 230.996 122.071 232.221 122.071 232.953V239H119.637V226.15H123.073L128.654 235.774H128.716C128.628 234.104 128.584 232.924 128.584 232.232V226.15H131.036V239ZM147.742 232.558C147.742 234.685 147.215 236.319 146.16 237.462C145.106 238.604 143.594 239.176 141.625 239.176C139.656 239.176 138.145 238.604 137.09 237.462C136.035 236.319 135.508 234.679 135.508 232.54C135.508 230.401 136.035 228.77 137.09 227.645C138.151 226.514 139.668 225.948 141.643 225.948C143.617 225.948 145.126 226.517 146.169 227.653C147.218 228.79 147.742 230.425 147.742 232.558ZM138.364 232.558C138.364 233.993 138.637 235.074 139.182 235.801C139.727 236.527 140.541 236.891 141.625 236.891C143.799 236.891 144.886 235.446 144.886 232.558C144.886 229.663 143.805 228.216 141.643 228.216C140.559 228.216 139.741 228.582 139.191 229.314C138.64 230.041 138.364 231.122 138.364 232.558ZM161.406 232.197H162.302C163.14 232.197 163.767 232.033 164.183 231.705C164.599 231.371 164.807 230.888 164.807 230.255C164.807 229.616 164.631 229.145 164.28 228.84C163.934 228.535 163.389 228.383 162.645 228.383H161.406V232.197ZM167.558 230.158C167.558 231.541 167.125 232.599 166.257 233.331C165.396 234.063 164.169 234.43 162.575 234.43H161.406V239H158.681V226.15H162.786C164.344 226.15 165.528 226.487 166.337 227.161C167.151 227.829 167.558 228.828 167.558 230.158ZM174.509 231.854H175.387C176.249 231.854 176.885 231.711 177.295 231.424C177.705 231.137 177.91 230.686 177.91 230.07C177.91 229.461 177.699 229.027 177.277 228.77C176.861 228.512 176.214 228.383 175.335 228.383H174.509V231.854ZM174.509 234.069V239H171.784V226.15H175.528C177.274 226.15 178.566 226.47 179.404 227.108C180.242 227.741 180.661 228.705 180.661 230C180.661 230.756 180.453 231.43 180.037 232.021C179.621 232.607 179.032 233.067 178.27 233.401C180.204 236.29 181.464 238.156 182.05 239H179.026L175.959 234.069H174.509ZM197.13 232.558C197.13 234.685 196.603 236.319 195.548 237.462C194.493 238.604 192.981 239.176 191.013 239.176C189.044 239.176 187.532 238.604 186.478 237.462C185.423 236.319 184.896 234.679 184.896 232.54C184.896 230.401 185.423 228.77 186.478 227.645C187.538 226.514 189.056 225.948 191.03 225.948C193.005 225.948 194.514 226.517 195.557 227.653C196.605 228.79 197.13 230.425 197.13 232.558ZM187.752 232.558C187.752 233.993 188.024 235.074 188.569 235.801C189.114 236.527 189.929 236.891 191.013 236.891C193.187 236.891 194.273 235.446 194.273 232.558C194.273 229.663 193.192 228.216 191.03 228.216C189.946 228.216 189.129 228.582 188.578 229.314C188.027 230.041 187.752 231.122 187.752 232.558ZM204.318 232.197H205.214C206.052 232.197 206.679 232.033 207.095 231.705C207.511 231.371 207.719 230.888 207.719 230.255C207.719 229.616 207.543 229.145 207.192 228.84C206.846 228.535 206.301 228.383 205.557 228.383H204.318V232.197ZM210.47 230.158C210.47 231.541 210.036 232.599 209.169 233.331C208.308 234.063 207.08 234.43 205.487 234.43H204.318V239H201.593V226.15H205.697C207.256 226.15 208.44 226.487 209.248 227.161C210.063 227.829 210.47 228.828 210.47 230.158ZM222.096 239H214.696V226.15H222.096V228.383H217.42V231.204H221.771V233.437H217.42V236.75H222.096V239ZM229.31 231.854H230.189C231.05 231.854 231.686 231.711 232.096 231.424C232.506 231.137 232.712 230.686 232.712 230.07C232.712 229.461 232.501 229.027 232.079 228.77C231.663 228.512 231.015 228.383 230.136 228.383H229.31V231.854ZM229.31 234.069V239H226.586V226.15H230.33C232.076 226.15 233.368 226.47 234.206 227.108C235.044 227.741 235.462 228.705 235.462 230C235.462 230.756 235.254 231.43 234.838 232.021C234.422 232.607 233.834 233.067 233.072 233.401C235.005 236.29 236.265 238.156 236.851 239H233.828L230.76 234.069H229.31ZM245.225 239H242.501V228.418H239.012V226.15H248.715V228.418H245.225V239ZM252.492 239V226.15H255.217V239H252.492ZM267.652 239H260.251V226.15H267.652V228.383H262.976V231.204H267.326V233.437H262.976V236.75H267.652V239ZM279.726 235.432C279.726 236.592 279.307 237.506 278.469 238.174C277.637 238.842 276.477 239.176 274.989 239.176C273.618 239.176 272.405 238.918 271.35 238.402V235.871C272.217 236.258 272.95 236.53 273.547 236.688C274.151 236.847 274.702 236.926 275.2 236.926C275.797 236.926 276.254 236.812 276.571 236.583C276.893 236.354 277.054 236.015 277.054 235.563C277.054 235.312 276.984 235.089 276.843 234.896C276.703 234.696 276.495 234.506 276.219 234.324C275.95 234.143 275.396 233.853 274.558 233.454C273.773 233.085 273.184 232.73 272.791 232.391C272.399 232.051 272.085 231.655 271.851 231.204C271.617 230.753 271.499 230.226 271.499 229.622C271.499 228.485 271.883 227.592 272.651 226.941C273.424 226.291 274.491 225.966 275.85 225.966C276.518 225.966 277.154 226.045 277.757 226.203C278.367 226.361 279.002 226.584 279.664 226.871L278.786 228.989C278.1 228.708 277.532 228.512 277.08 228.4C276.635 228.289 276.196 228.233 275.762 228.233C275.246 228.233 274.851 228.354 274.576 228.594C274.3 228.834 274.163 229.147 274.163 229.534C274.163 229.774 274.218 229.985 274.329 230.167C274.441 230.343 274.617 230.516 274.857 230.686C275.103 230.85 275.68 231.148 276.588 231.582C277.789 232.156 278.613 232.733 279.058 233.313C279.503 233.888 279.726 234.594 279.726 235.432ZM295.288 239H292.563V228.418H289.074V226.15H298.777V228.418H295.288V239ZM314.218 232.558C314.218 234.685 313.69 236.319 312.636 237.462C311.581 238.604 310.069 239.176 308.101 239.176C306.132 239.176 304.62 238.604 303.565 237.462C302.511 236.319 301.983 234.679 301.983 232.54C301.983 230.401 302.511 228.77 303.565 227.645C304.626 226.514 306.144 225.948 308.118 225.948C310.093 225.948 311.602 226.517 312.645 227.653C313.693 228.79 314.218 230.425 314.218 232.558ZM304.84 232.558C304.84 233.993 305.112 235.074 305.657 235.801C306.202 236.527 307.017 236.891 308.101 236.891C310.274 236.891 311.361 235.446 311.361 232.558C311.361 229.663 310.28 228.216 308.118 228.216C307.034 228.216 306.217 228.582 305.666 229.314C305.115 230.041 304.84 231.122 304.84 232.558ZM335.818 232.452C335.818 234.567 335.214 236.188 334.007 237.312C332.806 238.438 331.069 239 328.795 239H325.157V226.15H329.191C331.288 226.15 332.917 226.704 334.078 227.812C335.238 228.919 335.818 230.466 335.818 232.452ZM332.988 232.522C332.988 229.763 331.769 228.383 329.331 228.383H327.881V236.75H329.05C331.675 236.75 332.988 235.341 332.988 232.522ZM340.281 239V226.15H343.005V239H340.281ZM355.625 235.432C355.625 236.592 355.206 237.506 354.368 238.174C353.536 238.842 352.376 239.176 350.888 239.176C349.516 239.176 348.304 238.918 347.249 238.402V235.871C348.116 236.258 348.848 236.53 349.446 236.688C350.05 236.847 350.6 236.926 351.098 236.926C351.696 236.926 352.153 236.812 352.47 236.583C352.792 236.354 352.953 236.015 352.953 235.563C352.953 235.312 352.883 235.089 352.742 234.896C352.601 234.696 352.393 234.506 352.118 234.324C351.848 234.143 351.295 233.853 350.457 233.454C349.672 233.085 349.083 232.73 348.69 232.391C348.298 232.051 347.984 231.655 347.75 231.204C347.515 230.753 347.398 230.226 347.398 229.622C347.398 228.485 347.782 227.592 348.55 226.941C349.323 226.291 350.389 225.966 351.749 225.966C352.417 225.966 353.053 226.045 353.656 226.203C354.265 226.361 354.901 226.584 355.563 226.871L354.684 228.989C353.999 228.708 353.43 228.512 352.979 228.4C352.534 228.289 352.095 228.233 351.661 228.233C351.145 228.233 350.75 228.354 350.474 228.594C350.199 228.834 350.061 229.147 350.061 229.534C350.061 229.774 350.117 229.985 350.228 230.167C350.34 230.343 350.515 230.516 350.756 230.686C351.002 230.85 351.579 231.148 352.487 231.582C353.688 232.156 354.512 232.733 354.957 233.313C355.402 233.888 355.625 234.594 355.625 235.432ZM362.479 232.197H363.375C364.213 232.197 364.84 232.033 365.256 231.705C365.672 231.371 365.88 230.888 365.88 230.255C365.88 229.616 365.704 229.145 365.353 228.84C365.007 228.535 364.462 228.383 363.718 228.383H362.479V232.197ZM368.631 230.158C368.631 231.541 368.197 232.599 367.33 233.331C366.469 234.063 365.241 234.43 363.647 234.43H362.479V239H359.754V226.15H363.858C365.417 226.15 366.601 226.487 367.409 227.161C368.224 227.829 368.631 228.828 368.631 230.158ZM372.857 239V226.15H375.581V236.75H380.793V239H372.857ZM392.701 239L391.769 235.941H387.084L386.153 239H383.217L387.752 226.098H391.083L395.636 239H392.701ZM391.119 233.656C390.257 230.885 389.771 229.317 389.66 228.954C389.554 228.591 389.478 228.304 389.431 228.093C389.238 228.843 388.684 230.697 387.77 233.656H391.119ZM403.061 231.441L405.742 226.15H408.677L404.415 233.999V239H401.708V234.087L397.445 226.15H400.398L403.061 231.441Z" fill="#B09676"/>
<path opacity="0.3" fill-rule="evenodd" clip-rule="evenodd" d="M155.057 0.636719H74.3631V6.50811H95.6748L159.167 185.52H168.21L210.644 70.2453L252.066 185.52H261.109L326.878 6.50811H348V0.636719H298.547V6.50811H320.048L274.136 132.873L229.236 6.50811H252.508V0.636719H173.649V6.50811H187.815L207.356 61.8296L181.491 132.612L136.844 6.50811H154.993V0.636719H155.057ZM214.944 145.334C216.715 144.29 217.853 142.333 217.853 140.115C217.853 136.788 215.197 134.048 211.972 134.048C208.684 134.048 206.091 136.788 206.091 140.115C206.091 142.333 207.229 144.29 209 145.334L205.838 154.663H218.106L214.944 145.334ZM327.89 103.908C320.681 103.973 318.025 103.973 314.673 103.973C312.27 103.973 303.732 103.908 298.547 103.908L301.835 95.5575C307.084 95.5575 308.728 95.5575 311.068 95.6227C312.143 95.6227 313.345 95.6227 315.116 95.688C324.159 95.7532 332.317 95.8184 344.395 95.6227C346.103 95.6227 347.557 97.5798 347.494 99.4065V100.711C347.494 102.538 346.04 103.973 344.332 103.973H336.111C336.111 103.451 336.111 103.582 336.111 103.973C336.048 107.3 336.111 106.256 336.111 105.082C336.111 104.691 336.111 104.299 336.111 103.973C336.111 104.365 336.111 105.017 336.111 106.191C336.111 106.191 336.49 106.583 338.957 108.083C341.423 109.584 342.245 110.497 342.245 110.497L342.182 113.694V117.412C342.182 117.412 342.119 118.586 342.119 120.152C342.119 121.718 341.36 121.392 341.36 121.392C341.36 121.392 337.06 118.195 332.19 117.999C327.321 117.804 322.957 121.392 322.957 121.392C322.514 121.392 322.198 121.326 322.198 120.152L322.262 117.412L322.325 113.694L322.388 110.497C322.388 110.497 323.779 109.127 325.613 107.953C327.447 106.713 327.953 106.256 327.953 106.256V103.908H327.89ZM79.106 120.217C75.5646 120.217 72.8453 118.391 70.8849 115.52C69.8099 113.889 69.5569 111.475 69.4304 109.323C66.142 109.127 63.8653 108.083 62.4741 105.147C61.9049 103.908 61.5887 102.538 61.5887 101.103C61.5887 99.7979 61.8417 98.5584 62.3476 97.4494C63.6124 94.318 66.0787 93.0785 69.4304 92.8827C69.4304 92.5565 69.4304 92.2304 69.3672 91.9042C69.2407 90.1428 69.1775 88.577 70.1893 86.6199C71.96 83.0971 75.0587 80.7485 79.106 80.7485C84.9873 80.7485 87.3904 85.2499 87.3904 91.4475C87.3904 95.1008 83.0901 98.3627 80.3708 100.385L80.1811 100.516L80.3708 100.646C83.0901 102.668 87.3904 105.93 87.3904 109.584C87.3904 115.716 84.9873 120.217 79.106 120.217ZM117.05 96.2751C115.911 96.2751 114.773 96.2751 114.52 96.2751C112.243 96.2751 108.449 96.2751 102.631 96.2751C102.631 96.2751 100.102 96.4056 98.7735 95.8184C98.0146 95.4922 97.0028 94.3832 96.7498 93.7961C96.6866 93.6656 96.4969 93.1437 96.3072 92.2956C95.5483 89.6861 94.0305 84.3366 92.3863 81.7923C88.9082 76.3776 84.1652 73.3767 79.0428 73.3767C73.9204 73.3767 69.6201 76.3776 66.2052 81.7923C65.1934 83.358 64.3713 85.0542 63.6756 86.8156C61.5255 87.5985 59.5651 88.9032 57.9841 90.6647C55.4545 93.4699 54 97.1232 54 101.037C54 104.952 55.3913 108.605 57.9841 111.41C59.7548 113.367 61.9049 114.737 64.308 115.455C64.8772 116.694 65.5096 117.869 66.2052 118.978C69.6834 124.393 73.9204 127.393 79.0428 127.393C84.1652 127.393 88.9082 124.393 92.3863 118.978C94.5365 115.651 95.991 111.149 96.7498 106.778C96.7498 106.778 97.2558 105.474 98.9 104.626C100.544 104.038 102.694 104.365 102.694 104.365C116.797 104.365 116.733 104.365 116.67 104.365H116.607C116.228 104.365 115.026 104.365 122.488 104.365L120.085 96.2099C119.706 96.2751 118.314 96.2751 117.05 96.2751Z" fill="#B09676"/>
</svg>
