<svg width="194" height="40" viewBox="0 0 194 40" fill="none" xmlns="http://www.w3.org/2000/svg">
<path d="M178.859 0.604306C178.96 0.57071 179.061 0.570708 179.128 0.570708C179.195 0.537111 179.296 0.537109 179.33 0.537109C179.498 0.537109 179.599 0.570704 179.666 0.671493C179.733 0.738686 179.834 0.873076 179.901 1.07466L185.008 14.5133L188.804 3.5272C188.905 3.25842 188.972 3.05685 188.972 2.88886C188.972 2.5865 188.838 2.38492 188.569 2.25053C188.3 2.11615 187.83 1.98176 187.158 1.91457C186.923 1.88097 186.788 1.71299 186.788 1.30984C186.788 1.27624 186.788 1.24263 186.788 1.17544C186.822 1.10825 186.822 1.04106 186.822 0.97387L186.855 0.73869C187.225 0.772287 187.695 0.805881 188.334 0.873074C189.006 0.906671 189.61 0.906673 190.182 0.906673C190.786 0.906673 191.357 0.906671 191.895 0.873074C192.432 0.839478 192.903 0.805883 193.34 0.73869L193.373 0.97387C193.373 1.04106 193.373 1.10825 193.373 1.17544C193.407 1.24263 193.407 1.27623 193.407 1.34342C193.407 1.74658 193.272 1.94817 193.004 1.98177C192.365 2.04896 191.895 2.14975 191.559 2.28413C191.257 2.41852 191.055 2.72089 190.921 3.12404L184.336 21.4677C184.235 21.5013 184.168 21.5013 184.134 21.5013C184.101 21.5013 184.033 21.5013 183.933 21.5013C183.798 21.5013 183.664 21.4677 183.597 21.4005C183.529 21.3333 183.462 21.199 183.361 20.9638L178.288 7.45799L173.35 21.4341C173.249 21.4677 173.148 21.4677 173.115 21.4677C173.081 21.4677 173.014 21.4677 172.913 21.4677C172.745 21.4677 172.611 21.4341 172.543 21.3669C172.476 21.2997 172.409 21.1654 172.342 20.9302L165.522 2.92246C165.421 2.62009 165.219 2.41852 164.951 2.28413C164.715 2.11615 164.178 1.98176 163.405 1.91457C163.136 1.88097 163.002 1.67939 163.002 1.27624C163.002 1.20904 163.002 1.14185 163.002 1.04106C163.002 0.906671 163.036 0.839482 163.069 0.772289C163.372 0.805885 163.741 0.805879 164.144 0.839476C164.547 0.873072 164.917 0.873076 165.32 0.906673C165.723 0.906673 166.126 0.906675 166.496 0.940271C166.899 0.940271 167.235 0.940271 167.537 0.940271C168.209 0.940271 168.982 0.940269 169.788 0.906673C170.595 0.873076 171.334 0.839482 171.972 0.772289C172.006 0.873078 172.006 0.973866 172.006 1.07466C172.039 1.17544 172.039 1.27624 172.039 1.30984C172.039 1.6794 171.905 1.88097 171.636 1.91457C170.964 1.98176 170.494 2.08255 170.225 2.21693C169.956 2.35132 169.822 2.55291 169.822 2.82168C169.822 2.88887 169.822 2.98965 169.856 3.05685C169.889 3.12404 169.923 3.19124 169.956 3.29203L174.022 14.5133L178.859 0.604306Z" fill="#1B393B"/>
<path d="M148.824 2.28529V9.74371H153.158C153.561 9.74371 153.83 9.57573 153.965 9.27336C154.099 8.9374 154.233 8.39986 154.334 7.69433C154.368 7.52635 154.401 7.42555 154.502 7.39196C154.603 7.32476 154.737 7.29117 154.905 7.29117C154.973 7.29117 155.073 7.29117 155.174 7.32477C155.308 7.32477 155.409 7.32477 155.476 7.35837C155.443 7.82872 155.409 8.39986 155.342 9.03819C155.308 9.64293 155.308 10.1805 155.308 10.6172C155.308 10.9868 155.308 11.4235 155.342 11.9611C155.376 12.465 155.409 13.0362 155.476 13.6745C155.409 13.7081 155.308 13.7417 155.174 13.7753C155.04 13.7753 154.973 13.7753 154.905 13.7753C154.536 13.7753 154.334 13.6409 154.334 13.3385C154.2 12.5658 154.065 12.0283 153.897 11.7595C153.763 11.4571 153.494 11.3228 153.158 11.3228H148.824V18.2772C148.824 18.714 149.093 19.0163 149.631 19.1507C150.168 19.2851 151.075 19.3523 152.352 19.3523H153.629C154.233 19.3523 154.771 19.2851 155.174 19.1171C155.611 18.9492 155.98 18.714 156.316 18.4452C156.652 18.1428 156.921 17.7733 157.19 17.4037C157.425 17.0006 157.694 16.5302 157.929 16.0263C157.996 15.8919 158.131 15.8247 158.366 15.8247C158.467 15.8247 158.601 15.8583 158.735 15.9255C158.87 15.9927 159.038 16.0599 159.172 16.127C159.138 16.295 159.071 16.463 159.004 16.5974C158.97 16.7318 158.937 16.8998 158.87 17.0342C158.769 17.2693 158.702 17.5045 158.635 17.7733C158.567 18.0421 158.5 18.2436 158.467 18.4116C158.433 18.6132 158.366 18.8484 158.299 19.1171C158.265 19.3523 158.198 19.6211 158.131 19.8563C158.097 20.0914 158.03 20.293 157.963 20.461C157.929 20.6626 157.895 20.7634 157.862 20.8306C157.795 20.9985 157.627 21.0657 157.358 21.0657C157.19 21.0657 156.955 21.0657 156.652 21.0321C156.35 20.9985 156.014 20.9986 155.644 20.965C155.308 20.965 154.939 20.965 154.569 20.9314C154.2 20.8978 153.897 20.8978 153.629 20.8978H146.641C146.036 20.8978 145.364 20.8978 144.591 20.9314C143.818 20.965 143.147 20.9985 142.542 21.0657C142.508 20.9985 142.475 20.8642 142.475 20.7634C142.475 20.629 142.475 20.5282 142.475 20.461C142.475 20.1586 142.575 19.9907 142.777 19.9571C143.55 19.8227 144.121 19.6547 144.423 19.4867C144.759 19.3187 144.961 19.0164 144.961 18.6132V3.09161C144.961 2.89003 144.927 2.72205 144.86 2.58766C144.793 2.45327 144.692 2.31889 144.49 2.2517C144.322 2.15091 144.087 2.05011 143.818 2.01652C143.55 1.94932 143.214 1.84854 142.777 1.78135C142.575 1.71415 142.475 1.54617 142.475 1.2102C142.475 1.10941 142.475 1.00863 142.475 0.941434C142.475 0.840644 142.508 0.739857 142.542 0.639067C143.415 0.70626 144.188 0.739855 144.894 0.773451C145.565 0.807048 146.17 0.80705 146.641 0.80705H152.957C153.864 0.80705 154.67 0.773447 155.308 0.706254C155.98 0.639061 156.451 0.605469 156.686 0.605469C156.921 0.605469 157.089 0.706254 157.19 0.874237C157.257 1.04222 157.291 1.34459 157.358 1.81495C157.391 2.2517 157.459 2.68845 157.559 3.19239C157.627 3.52836 157.694 3.89792 157.761 4.20029C157.828 4.53625 157.963 4.93941 158.131 5.40977C158.03 5.44336 157.929 5.47696 157.795 5.54415C157.66 5.57775 157.559 5.61135 157.425 5.61135C157.19 5.61135 157.022 5.51056 156.921 5.34258C156.686 4.80503 156.417 4.33468 156.182 3.96512C155.947 3.56196 155.678 3.25959 155.376 3.02441C155.073 2.78924 154.737 2.58766 154.334 2.48688C153.931 2.38609 153.461 2.31889 152.923 2.31889H148.824V2.28529Z" fill="#1B393B"/>
<path d="M134.007 18.578C134.007 18.7796 134.007 18.9476 134.04 19.1156C134.074 19.25 134.175 19.3508 134.309 19.4516C134.444 19.5523 134.645 19.6531 134.914 19.7203C135.183 19.7875 135.552 19.8547 135.989 19.9219C136.191 19.9555 136.291 20.1235 136.291 20.4594C136.291 20.5266 136.291 20.6274 136.258 20.7282C136.258 20.8626 136.258 20.9634 136.224 21.0306C135.552 20.997 134.813 20.9634 134.04 20.8962C133.268 20.8626 132.596 20.8626 132.025 20.8626C131.42 20.8626 130.714 20.8626 129.975 20.8962C129.202 20.9298 128.497 20.9634 127.825 21.0306C127.791 20.9634 127.758 20.829 127.758 20.7282C127.758 20.5938 127.758 20.5266 127.758 20.4594C127.758 20.1235 127.859 19.9555 128.06 19.9219C128.497 19.8547 128.866 19.7875 129.102 19.7203C129.37 19.6531 129.572 19.5523 129.706 19.4516C129.841 19.3508 129.908 19.25 129.975 19.1156C130.009 18.9812 130.042 18.7796 130.042 18.578V3.02285C130.042 2.82127 130.009 2.65329 129.975 2.51891C129.942 2.38452 129.841 2.25014 129.706 2.14935C129.572 2.04856 129.37 1.94777 129.102 1.91417C128.833 1.84698 128.497 1.74619 128.06 1.71259C127.859 1.6454 127.758 1.47741 127.758 1.17505C127.758 1.10785 127.758 1.00707 127.758 0.906278C127.758 0.771892 127.791 0.671102 127.825 0.570312C128.497 0.603909 129.236 0.637503 129.975 0.704696C130.748 0.738293 131.42 0.738295 132.025 0.738295C132.629 0.738295 133.301 0.738293 134.04 0.704696C134.813 0.6711 135.552 0.637506 136.224 0.570312C136.258 0.671102 136.258 0.771892 136.258 0.906278C136.291 1.04066 136.291 1.10785 136.291 1.17505C136.291 1.47741 136.191 1.6454 135.989 1.71259C135.552 1.77978 135.183 1.84698 134.914 1.91417C134.645 1.98137 134.444 2.04856 134.309 2.14935C134.175 2.25014 134.108 2.38452 134.04 2.51891C134.007 2.65329 134.007 2.82127 134.007 3.02285V18.578Z" fill="#1B393B"/>
<path d="M118.283 3.35921C118.384 3.09044 118.451 2.85527 118.451 2.68728C118.451 2.38491 118.317 2.18334 118.048 2.04895C117.779 1.91457 117.309 1.78018 116.637 1.71299C116.402 1.67939 116.268 1.47782 116.268 1.10825C116.268 1.07466 116.268 1.04106 116.268 0.97387C116.301 0.906677 116.301 0.839482 116.301 0.772289L116.335 0.537109C116.536 0.570706 116.738 0.57071 117.007 0.604306C117.275 0.637903 117.578 0.637897 117.88 0.671493C118.216 0.671493 118.519 0.671495 118.855 0.705092C119.19 0.705092 119.493 0.705092 119.762 0.705092C120.366 0.705092 120.937 0.70509 121.475 0.671493C122.046 0.637897 122.517 0.604302 122.92 0.537109L122.953 0.772289C122.987 0.839482 122.987 0.906677 122.987 0.97387C122.987 1.04106 122.987 1.07466 122.987 1.14185C122.987 1.54501 122.852 1.74659 122.617 1.78018C121.945 1.84738 121.475 1.94817 121.173 2.11615C120.904 2.25054 120.669 2.5193 120.534 2.92246L112.841 21.4677C112.74 21.5013 112.639 21.5013 112.606 21.5013C112.538 21.5013 112.471 21.5013 112.404 21.5013C112.236 21.5013 112.102 21.4677 112.034 21.4005C111.967 21.3333 111.9 21.199 111.833 20.9638L104.542 2.78808C104.475 2.65369 104.408 2.5193 104.341 2.41852C104.274 2.28413 104.173 2.18334 104.038 2.11615C103.904 2.04896 103.702 1.98176 103.434 1.91457C103.199 1.84737 102.896 1.81378 102.493 1.74659C102.224 1.71299 102.09 1.51141 102.09 1.07466C102.09 1.00746 102.09 0.940265 102.09 0.839476C102.09 0.70509 102.123 0.604304 102.157 0.570708C102.459 0.604304 102.829 0.604309 103.232 0.637905C103.635 0.671502 104.005 0.671495 104.408 0.705092C104.811 0.705092 105.214 0.705094 105.584 0.73869C105.987 0.73869 106.323 0.73869 106.625 0.73869C107.297 0.73869 108.07 0.738688 108.876 0.705092C109.683 0.671495 110.422 0.637901 111.06 0.570708C111.094 0.671497 111.127 0.772285 111.127 0.873074C111.127 0.973864 111.127 1.07466 111.127 1.10825C111.127 1.47782 110.993 1.67939 110.758 1.71299C110.086 1.78018 109.615 1.88097 109.347 2.01535C109.078 2.14974 108.944 2.35132 108.944 2.6201C108.944 2.75448 108.977 2.92247 109.044 3.12404L113.58 15.5212L118.283 3.35921Z" fill="#1B393B"/>
<path d="M76.9275 2.28529V9.74371H81.2614C81.6646 9.74371 81.9333 9.57573 82.0677 9.27336C82.2021 8.9374 82.3365 8.39986 82.4373 7.69433C82.4709 7.52635 82.5045 7.42555 82.6389 7.39196C82.7397 7.32476 82.8741 7.29117 83.042 7.29117C83.1092 7.29117 83.21 7.29117 83.3108 7.32477C83.4452 7.32477 83.546 7.32477 83.6132 7.35837C83.5796 7.82872 83.546 8.39986 83.4788 9.03819C83.4452 9.64293 83.4452 10.1805 83.4452 10.6172C83.4452 10.9868 83.4452 11.4235 83.4788 11.9611C83.5124 12.465 83.546 13.0362 83.6132 13.6745C83.546 13.7081 83.4452 13.7417 83.3108 13.7753C83.1764 13.7753 83.1092 13.7753 83.042 13.7753C82.6725 13.7753 82.4709 13.6409 82.4709 13.3385C82.3365 12.5658 82.2021 12.0283 82.0341 11.7595C81.8998 11.4571 81.631 11.3228 81.295 11.3228H76.9611V18.2772C76.9611 18.714 77.2298 19.0163 77.7674 19.1507C78.3049 19.2851 79.212 19.3523 80.4887 19.3523H81.7654C82.3701 19.3523 82.9076 19.2851 83.3108 19.1171C83.7476 18.9492 84.1171 18.714 84.4531 18.4452C84.789 18.1428 85.0578 17.7733 85.3266 17.4037C85.5618 17.0006 85.8305 16.5302 86.0657 16.0263C86.1329 15.8919 86.2673 15.8247 86.5025 15.8247C86.6033 15.8247 86.7376 15.8583 86.872 15.9255C87.0064 15.9927 87.1744 16.0599 87.3088 16.127C87.2752 16.295 87.208 16.463 87.1408 16.5974C87.1072 16.7318 87.0736 16.8998 87.0064 17.0342C86.9056 17.2693 86.8384 17.5045 86.7712 17.7733C86.7041 18.0421 86.6369 18.2436 86.6033 18.4116C86.5697 18.6132 86.5025 18.8484 86.4353 19.1171C86.4017 19.3523 86.3345 19.6211 86.2673 19.8563C86.2337 20.0914 86.1665 20.293 86.0993 20.461C86.0657 20.6626 86.0321 20.7634 85.9985 20.8306C85.9313 20.9985 85.7633 21.0657 85.4946 21.0657C85.3266 21.0657 85.0914 21.0657 84.789 21.0321C84.4867 20.9985 84.1507 20.9986 83.7812 20.965C83.4452 20.965 83.0756 20.965 82.7061 20.9314C82.3365 20.8978 82.0341 20.8978 81.7654 20.8978H74.7773C74.1726 20.8978 73.5006 20.8978 72.7279 20.9314C71.9552 20.965 71.2833 20.9985 70.6785 21.0657C70.6449 20.9985 70.6113 20.8642 70.6113 20.7634C70.6113 20.629 70.6113 20.5282 70.6113 20.461C70.6113 20.1586 70.7121 19.9907 70.9137 19.9571C71.6864 19.8227 72.2576 19.6547 72.5599 19.4867C72.8959 19.3187 73.0975 19.0164 73.0975 18.6132V3.09161C73.0975 2.89003 73.0639 2.72205 72.9967 2.58766C72.9295 2.45327 72.8287 2.31889 72.6271 2.2517C72.4591 2.15091 72.224 2.05011 71.9552 2.01652C71.6864 1.94932 71.3504 1.84854 70.9137 1.78135C70.7121 1.71415 70.6113 1.54617 70.6113 1.2102C70.6113 1.10941 70.6113 1.00863 70.6113 0.941434C70.6113 0.840644 70.6449 0.739857 70.6785 0.639067C71.552 0.70626 72.3247 0.739855 73.0303 0.773451C73.7022 0.807048 74.3069 0.80705 74.7773 0.80705H81.0934C82.0005 0.80705 82.8069 0.773447 83.4452 0.706254C84.1171 0.639061 84.5875 0.605469 84.8226 0.605469C85.0578 0.605469 85.2258 0.706254 85.3266 0.874237C85.3938 1.04222 85.4274 1.34459 85.4946 1.81495C85.5282 2.2517 85.5954 2.68845 85.6962 3.19239C85.7633 3.52836 85.8305 3.89792 85.8977 4.20029C85.9649 4.53625 86.0993 4.93941 86.2673 5.40977C86.1665 5.44336 86.0657 5.47696 85.9313 5.54415C85.7969 5.57775 85.6962 5.61135 85.5618 5.61135C85.3266 5.61135 85.1586 5.51056 85.0578 5.34258C84.8226 4.80503 84.5539 4.33468 84.3187 3.96512C84.0835 3.56196 83.8148 3.25959 83.5124 3.02441C83.21 2.78924 82.874 2.58766 82.4709 2.48688C82.0677 2.38609 81.5974 2.31889 81.0598 2.31889H76.9275V2.28529Z" fill="#1B393B"/>
<path d="M63.5558 5.94654C63.3542 6.01374 63.1526 6.04733 62.9511 6.04733C62.6487 6.04733 62.4471 5.98014 62.3127 5.87935C62.1783 5.74496 62.1111 5.64418 62.0775 5.50979C61.6072 4.33392 60.9689 3.494 60.1961 2.95646C59.457 2.45251 58.4155 2.18373 57.1725 2.18373C56.1646 2.18373 55.3246 2.41891 54.6191 2.92286C53.9136 3.39321 53.5776 4.13233 53.5776 5.14023C53.5776 5.91295 53.8464 6.51769 54.3503 7.02164C54.8879 7.49199 55.5598 7.89514 56.3661 8.2311C57.1725 8.56707 58.046 8.93663 58.9531 9.27259C59.8938 9.60856 60.7673 10.0117 61.54 10.5157C62.3463 11.0196 63.0182 11.658 63.5558 12.3971C64.0933 13.1698 64.3621 14.1441 64.3621 15.3536C64.3621 16.1263 64.2277 16.899 63.959 17.6381C63.6902 18.3772 63.2534 19.0492 62.6823 19.6203C62.1111 20.1915 61.372 20.6282 60.4649 20.9978C59.5578 21.3337 58.4827 21.5017 57.2396 21.5017C55.8622 21.5017 54.6191 21.3673 53.544 21.065C52.4689 20.7626 51.5618 20.4266 50.8563 20.0571C50.7891 19.15 50.6883 18.3101 50.5539 17.4366C50.4196 16.563 50.2852 15.7231 50.1172 14.9168C50.3188 14.8496 50.5539 14.7824 50.8227 14.7824C51.0579 14.7824 51.2595 14.8496 51.3939 14.9504C51.5282 15.0176 51.629 15.1856 51.6962 15.4208C51.965 16.1935 52.2674 16.899 52.6033 17.4701C52.9393 18.0413 53.3089 18.5116 53.7792 18.8812C54.216 19.2172 54.7199 19.4859 55.291 19.6539C55.8622 19.8219 56.5341 19.8891 57.3068 19.8891C57.9452 19.8891 58.5163 19.8219 58.9531 19.6539C59.4234 19.4523 59.793 19.2172 60.0954 18.9484C60.3977 18.646 60.5993 18.3101 60.7673 17.9069C60.9017 17.5037 61.0025 17.1006 61.0025 16.6974C61.0025 15.7903 60.7337 15.1184 60.2297 14.6144C59.7258 14.1105 59.0875 13.6737 58.3147 13.3378C57.5756 13.0018 56.7357 12.6658 55.8286 12.3635C54.9551 12.0611 54.1152 11.658 53.3424 11.2212C52.6033 10.7508 51.965 10.1461 51.4274 9.40698C50.9235 8.66786 50.6883 7.65996 50.6883 6.41689C50.6883 5.57698 50.8227 4.83786 51.1251 4.13233C51.4275 3.39321 51.8978 2.78847 52.4689 2.25093C53.0401 1.71338 53.7456 1.27663 54.5519 0.974265C55.3918 0.671897 56.3325 0.503906 57.4076 0.503906C58.2811 0.503906 59.1546 0.604702 60.0282 0.772684C60.9353 0.974263 61.9432 1.27663 63.0518 1.71338C63.0854 2.35172 63.1526 3.02365 63.2534 3.82997C63.3206 4.63628 63.455 5.34181 63.5558 5.94654Z" fill="#1B393B"/>
<path d="M42.0868 18.578C42.0868 18.7796 42.0868 18.9476 42.1204 19.1156C42.154 19.25 42.2548 19.3508 42.3892 19.4516C42.5236 19.5523 42.7252 19.6531 42.9939 19.7203C43.2627 19.7875 43.6323 19.8547 44.069 19.9219C44.2706 19.9555 44.3714 20.1235 44.3714 20.4594C44.3714 20.5266 44.3714 20.6274 44.3378 20.7282C44.3378 20.8626 44.3378 20.9634 44.3042 21.0306C43.6323 20.997 42.8932 20.9634 42.1204 20.8962C41.3477 20.8626 40.6758 20.8626 40.1047 20.8626C39.4999 20.8626 38.7944 20.8626 38.0553 20.8962C37.2825 20.9298 36.577 20.9634 35.9051 21.0306C35.8715 20.9634 35.8379 20.829 35.8379 20.7282C35.8379 20.5938 35.8379 20.5266 35.8379 20.4594C35.8379 20.1235 35.9387 19.9555 36.1403 19.9219C36.577 19.8547 36.9466 19.7875 37.1818 19.7203C37.4505 19.6531 37.6521 19.5523 37.7865 19.4516C37.9209 19.3508 37.9881 19.25 38.0553 19.1156C38.0889 18.9812 38.1225 18.7796 38.1225 18.578V3.02285C38.1225 2.82127 38.0889 2.65329 38.0553 2.51891C38.0217 2.38452 37.9209 2.25014 37.7865 2.14935C37.6521 2.04856 37.4505 1.94777 37.1818 1.91417C36.913 1.84698 36.577 1.74619 36.1403 1.71259C35.9387 1.6454 35.8379 1.47741 35.8379 1.17505C35.8379 1.10785 35.8379 1.00707 35.8379 0.906278C35.8379 0.771892 35.8715 0.671102 35.9051 0.570312C36.577 0.603909 37.3161 0.637503 38.0553 0.704696C38.828 0.738293 39.4999 0.738295 40.1047 0.738295C40.7094 0.738295 41.3813 0.738293 42.1204 0.704696C42.8932 0.6711 43.6323 0.637506 44.3042 0.570312C44.3378 0.671102 44.3378 0.771892 44.3378 0.906278C44.3714 1.04066 44.3714 1.10785 44.3714 1.17505C44.3714 1.47741 44.2706 1.6454 44.069 1.71259C43.6323 1.77978 43.2627 1.84698 42.9939 1.91417C42.7252 1.98137 42.5236 2.04856 42.3892 2.14935C42.2548 2.25014 42.1876 2.38452 42.1204 2.51891C42.0868 2.65329 42.0868 2.82127 42.0868 3.02285V18.578Z" fill="#1B393B"/>
<path d="M16.2181 0.604306C16.3189 0.57071 16.4197 0.570708 16.4869 0.570708C16.554 0.537111 16.6548 0.537109 16.6884 0.537109C16.8564 0.537109 16.9572 0.570704 17.0244 0.671493C17.0916 0.738686 17.1924 0.873076 17.2596 1.07466L22.299 14.5133L26.0283 3.5272C26.129 3.25842 26.1962 3.05685 26.1962 2.88886C26.1962 2.5865 26.0619 2.38492 25.7931 2.25053C25.5243 2.11615 25.054 1.98176 24.4156 1.91457C24.1805 1.88097 24.0461 1.71299 24.0461 1.30984C24.0461 1.27624 24.0461 1.24263 24.0461 1.17544C24.0797 1.10825 24.0797 1.04106 24.0797 0.97387L24.1133 0.73869C24.4492 0.772287 24.9532 0.805881 25.5915 0.873074C26.2298 0.906671 26.8346 0.906673 27.4057 0.906673C28.0105 0.906673 28.548 0.906671 29.0855 0.873074C29.6231 0.839478 30.0934 0.805883 30.4966 0.73869L30.5302 0.97387C30.5302 1.04106 30.5302 1.10825 30.5302 1.17544C30.5638 1.24263 30.5638 1.27623 30.5638 1.34342C30.5638 1.74658 30.4294 1.94817 30.1606 1.98177C29.5223 2.04896 29.0519 2.14975 28.7496 2.28413C28.4472 2.41852 28.2456 2.72089 28.1112 3.12404L21.6607 21.4677C21.5599 21.5013 21.4927 21.5013 21.4591 21.5013C21.4255 21.5013 21.3583 21.5013 21.2576 21.5013C21.1232 21.5013 20.9888 21.4677 20.9216 21.4005C20.8544 21.3333 20.7872 21.199 20.6864 20.9638L15.6805 7.45799L10.7754 21.4677C10.6747 21.5013 10.6075 21.5013 10.5403 21.5013C10.5067 21.5013 10.4395 21.5013 10.3723 21.5013C10.2043 21.5013 10.0699 21.4677 10.0027 21.4005C9.93553 21.3333 9.86834 21.199 9.80115 20.9638L3.08184 2.95606C2.98106 2.65369 2.77948 2.45212 2.5443 2.31773C2.30913 2.14975 1.80518 2.01536 0.998861 1.94817C0.730089 1.91457 0.595703 1.71299 0.595703 1.30984C0.595703 1.24264 0.595703 1.17544 0.595703 1.07466C0.595703 0.940269 0.6293 0.873081 0.662896 0.805888C0.965265 0.839484 1.30123 0.839478 1.70439 0.873074C2.10755 0.906671 2.47711 0.906675 2.88027 0.940271C3.28342 0.940271 3.68658 0.940274 4.05614 0.97387C4.4593 0.97387 4.79527 0.97387 5.06404 0.97387C5.73597 0.97387 6.47509 0.973868 7.28141 0.940271C8.08772 0.906675 8.79325 0.873081 9.43158 0.805888C9.46518 0.906677 9.46518 1.00746 9.46518 1.10825C9.49878 1.20904 9.49878 1.30983 9.49878 1.34342C9.49878 1.71298 9.36439 1.91457 9.09562 1.94817C8.45729 2.01536 7.98693 2.11615 7.71816 2.25053C7.44939 2.38492 7.315 2.58649 7.315 2.85527C7.315 2.92246 7.315 3.02325 7.3486 3.09045C7.3822 3.15764 7.41579 3.22484 7.44939 3.32563L11.4474 14.5469L16.2181 0.604306Z" fill="#1B393B"/>
<path d="M4.55999 35.3097C4.15684 35.3097 3.85447 35.1418 3.65289 34.873C3.5185 34.705 3.5185 34.5034 3.48491 34.3018C3.11534 34.2682 2.84657 34.1675 2.71219 33.8987C2.64499 33.7979 2.6114 33.6635 2.6114 33.5291C2.6114 33.3947 2.64499 33.2939 2.67859 33.1932C2.81298 32.8908 3.08175 32.79 3.48491 32.7564C3.48491 32.5548 3.45131 32.3868 3.5857 32.1517C3.78728 31.8157 4.12324 31.5805 4.59359 31.5805C5.23192 31.5805 5.53429 32.0173 5.53429 32.5884C5.53429 32.958 5.03035 33.2603 4.72798 33.4619C5.03035 33.6635 5.53429 33.9659 5.53429 34.3354C5.4671 34.9066 5.19833 35.3097 4.55999 35.3097ZM9.66666 33.0588C8.12122 33.0252 10.8425 33.0588 7.21412 33.0588C7.21412 33.0588 6.94535 33.0588 6.77736 33.0252C6.67657 32.9916 6.57578 32.8908 6.54219 32.8236C6.50859 32.7564 6.30701 32.0173 6.03824 31.6813C5.66868 31.1774 5.13114 30.875 4.55999 30.875C3.98885 30.875 3.5185 31.1438 3.11535 31.6813C3.01456 31.8157 2.91377 31.9837 2.84657 32.1517C2.6114 32.2189 2.37622 32.3532 2.20824 32.5212C1.93947 32.79 1.77148 33.126 1.77148 33.4955C1.77148 33.8651 1.93947 34.201 2.20824 34.4698C2.40982 34.6378 2.64499 34.7722 2.91377 34.8394C2.98096 34.9402 3.04815 35.0746 3.11535 35.1753C3.48491 35.6793 3.98885 35.9817 4.55999 35.9817C5.13114 35.9817 5.66868 35.7129 6.03824 35.1753C6.27342 34.873 6.4414 34.4362 6.54219 34.0331C6.54219 34.0331 6.60938 33.8987 6.77736 33.8315C6.94535 33.7643 7.21412 33.7979 7.21412 33.7979C10.1034 33.7979 7.65087 33.7979 9.66666 33.7979C9.80105 33.6971 9.93544 33.3275 9.66666 33.0588Z" fill="#1B393B"/>
<path d="M17.9978 35.9138C18.1658 36.0818 18.3337 36.2162 18.5353 36.3169C18.7369 36.4177 18.9721 36.4513 19.2073 36.4513C19.5768 36.4513 19.8792 36.2833 20.0808 35.981C20.2823 35.6786 20.3831 35.2419 20.3831 34.7715C20.3831 34.5027 20.3495 34.2676 20.2823 34.066C20.2151 33.8308 20.148 33.6292 20.0472 33.4612C19.9464 33.2933 19.812 33.1589 19.644 33.0581C19.476 32.9573 19.308 32.9237 19.1065 32.9237C18.9721 32.9237 18.8377 32.9573 18.7033 33.0581C18.5689 33.1253 18.4345 33.2261 18.3337 33.3605C18.233 33.4948 18.1322 33.6292 18.065 33.7636C17.9978 33.898 17.9642 34.066 17.9642 34.2004V35.9138H17.9978ZM17.1915 30.7735C17.1915 30.5719 17.1579 30.4376 17.0907 30.3704C17.0235 30.2696 16.8891 30.236 16.6539 30.2024C16.5531 30.2024 16.5195 30.1352 16.5195 30.068C16.5195 30.0344 16.5195 29.9672 16.5531 29.9336C16.6539 29.9336 16.7547 29.9336 16.9227 29.9336C17.0907 29.9336 17.2251 29.9 17.3258 29.9C17.4938 29.8664 17.6282 29.8664 17.729 29.8328C17.8634 29.7992 17.9306 29.7992 17.9978 29.7992C18.0986 29.7992 18.1322 29.8328 18.1322 29.9336C18.1322 30.0344 18.1322 30.1688 18.0986 30.3368C18.065 30.4712 18.065 30.6727 18.065 30.8743V33.3605C18.3001 33.0245 18.5689 32.7893 18.8041 32.6549C19.0393 32.5205 19.3416 32.4197 19.6776 32.4197C19.9128 32.4197 20.1144 32.4534 20.3159 32.5541C20.5175 32.6549 20.7191 32.7893 20.8871 32.9573C21.0551 33.1253 21.1558 33.3605 21.2566 33.6292C21.3574 33.898 21.391 34.2004 21.391 34.5363C21.391 34.9059 21.3238 35.2419 21.1894 35.5106C21.0551 35.813 20.8871 36.0482 20.6855 36.2498C20.4839 36.4513 20.2487 36.5857 20.0136 36.6865C19.7784 36.7873 19.5432 36.8209 19.3416 36.8209C19.0729 36.8209 18.8377 36.7873 18.6025 36.7201C18.3673 36.6529 18.1658 36.5857 17.9642 36.4849C17.897 36.4849 17.8298 36.5185 17.7626 36.5521C17.6954 36.5857 17.6282 36.6193 17.5946 36.6529C17.5274 36.6865 17.4938 36.7201 17.4602 36.7537C17.4266 36.7873 17.393 36.7873 17.3594 36.7873C17.2923 36.7873 17.2587 36.7873 17.2251 36.7537C17.2251 36.6529 17.2251 36.5521 17.2587 36.4849C17.2587 36.3841 17.2587 36.3169 17.2923 36.2498C17.2923 36.1826 17.2923 36.0818 17.2923 36.0146C17.2923 35.9138 17.2923 35.8466 17.2923 35.7122V30.7735H17.1915ZM24.0451 34.6035C24.0451 34.3012 24.1123 33.9988 24.2131 33.73C24.3475 33.4612 24.4819 33.2261 24.6835 33.0245C24.8851 32.8229 25.1202 32.6549 25.389 32.5541C25.6578 32.4198 25.9601 32.3862 26.2625 32.3862C26.5985 32.3862 26.9009 32.4534 27.1696 32.5541C27.4384 32.6549 27.6736 32.8229 27.8752 32.9909C28.0767 33.1925 28.2111 33.4276 28.3455 33.6964C28.4463 33.9652 28.5135 34.2676 28.5135 34.6035C28.5135 34.9059 28.4463 35.2083 28.3455 35.477C28.2447 35.7458 28.0767 35.981 27.8752 36.1826C27.6736 36.3841 27.4384 36.5521 27.1696 36.6529C26.9009 36.7537 26.5985 36.8209 26.2961 36.8209C25.9601 36.8209 25.6578 36.7537 25.389 36.6529C25.1202 36.5521 24.8851 36.3841 24.6835 36.1826C24.4819 35.981 24.3475 35.7458 24.2131 35.477C24.0787 35.2419 24.0451 34.9395 24.0451 34.6035ZM24.9859 34.2676C24.9859 34.5027 25.0194 34.7715 25.053 35.0403C25.1202 35.3091 25.1874 35.5442 25.2882 35.7458C25.389 35.9474 25.557 36.1154 25.725 36.2498C25.893 36.3841 26.0945 36.4513 26.3633 36.4513C26.7329 36.4513 27.0352 36.3169 27.2368 36.0482C27.4384 35.7794 27.5392 35.4434 27.5392 35.0067C27.5392 34.7715 27.5056 34.5027 27.472 34.234C27.4384 33.9652 27.3376 33.73 27.2368 33.4948C27.136 33.2597 27.0016 33.0917 26.8001 32.9237C26.6321 32.7893 26.3969 32.6885 26.1617 32.6885C25.8258 32.6885 25.5234 32.8229 25.2882 33.0581C25.0866 33.3605 24.9859 33.73 24.9859 34.2676ZM31.7052 33.4276C31.7052 33.1925 31.6716 33.0581 31.6044 32.9909C31.5372 32.9237 31.4028 32.8565 31.1676 32.8565C31.0668 32.8565 31.0332 32.7893 31.0332 32.7221C31.0332 32.6885 31.0332 32.6213 31.0668 32.5877C31.1676 32.5877 31.2684 32.5877 31.4028 32.5877C31.5372 32.5877 31.6716 32.5541 31.7723 32.5541C31.9067 32.5205 32.0411 32.5205 32.1419 32.4869C32.2427 32.4533 32.3435 32.4533 32.3771 32.4533C32.4779 32.4533 32.5115 32.4869 32.5115 32.5877V35.0739C32.5115 35.2419 32.5115 35.3762 32.5451 35.5442C32.5787 35.6786 32.6123 35.813 32.6459 35.9138C32.713 36.0146 32.7802 36.0818 32.881 36.149C32.9818 36.2162 33.1162 36.2162 33.2506 36.2162C33.4186 36.2162 33.5866 36.1826 33.7545 36.149C33.9225 36.0818 34.0569 36.0146 34.1577 35.9138C34.2921 35.813 34.3929 35.6786 34.4601 35.5106C34.5273 35.3426 34.5609 35.1747 34.5609 34.9395V33.4948C34.5609 33.2933 34.5273 33.1253 34.4601 33.0581C34.3929 32.9909 34.2585 32.9237 34.0233 32.9237C33.9225 32.9237 33.8889 32.8565 33.8889 32.7893C33.8889 32.7557 33.8889 32.6885 33.9225 32.6549C34.0233 32.6549 34.1241 32.6549 34.2585 32.6549C34.3929 32.6549 34.5273 32.6213 34.628 32.6213C34.7624 32.5877 34.8968 32.5877 34.9976 32.5541C35.0984 32.5205 35.1992 32.5205 35.2328 32.5205C35.3336 32.5205 35.3672 32.5541 35.3672 32.6549V35.8802C35.3672 35.981 35.3672 36.0818 35.4008 36.149C35.4008 36.2162 35.4344 36.2833 35.468 36.3169C35.5016 36.3505 35.5688 36.3841 35.6359 36.4177C35.7031 36.4513 35.8039 36.4513 35.9047 36.4513C36.0055 36.4513 36.0391 36.5185 36.0391 36.5857C36.0391 36.6193 36.0391 36.6865 36.0055 36.7201C35.8711 36.7201 35.7367 36.7201 35.6023 36.7537C35.468 36.7873 35.3336 36.7873 35.1992 36.8209C35.0648 36.8545 34.964 36.8545 34.8632 36.8881C34.7624 36.9217 34.6952 36.9217 34.6616 36.9217C34.5609 36.9217 34.5273 36.8881 34.5273 36.7873V35.9474C34.4937 35.981 34.4601 36.0146 34.3593 36.149C34.2585 36.2498 34.1577 36.3841 33.9897 36.4849C33.8553 36.6193 33.6873 36.7201 33.4858 36.8209C33.2842 36.9217 33.0826 36.9553 32.8474 36.9553C32.4443 36.9553 32.1419 36.8545 31.9403 36.6193C31.7387 36.3841 31.638 36.0482 31.638 35.645V33.4276H31.7052ZM41.0114 36.1154C41.045 36.0818 41.0786 36.0482 41.0786 36.0482C41.1122 36.0482 41.1122 36.0482 41.1458 36.0482C41.213 36.0482 41.2466 36.0818 41.3138 36.1826C41.1458 36.3841 40.9442 36.5185 40.7426 36.6529C40.541 36.7873 40.3395 36.8209 40.1043 36.8209C39.9699 36.8209 39.8355 36.8209 39.7347 36.7873C39.6003 36.7537 39.4995 36.7201 39.4324 36.6193C39.3316 36.5185 39.2644 36.4177 39.2308 36.2833C39.1972 36.1154 39.1636 35.9474 39.1636 35.7122V32.9573H38.5588V32.8229C38.5588 32.7893 38.5588 32.7221 38.5924 32.6885C38.626 32.6549 38.6596 32.6213 38.6932 32.6213C38.8612 32.6213 39.0292 32.5877 39.13 32.4869C39.2308 32.3862 39.3316 32.2854 39.3988 32.1174C39.4659 31.9494 39.5331 31.815 39.6003 31.6806C39.6675 31.5462 39.7347 31.479 39.8019 31.479H39.9699V32.5205H41.1458C41.1458 32.6549 41.1458 32.7557 41.1122 32.8229C41.0786 32.8901 41.045 32.9237 40.9442 32.9237H40.0035V35.4098C40.0035 35.6114 40.0035 35.7794 40.0371 35.9138C40.0707 36.0482 40.0707 36.149 40.1379 36.2162C40.1715 36.2834 40.2387 36.3169 40.2723 36.3505C40.3395 36.3841 40.3731 36.3841 40.4402 36.3841C40.541 36.3841 40.6418 36.3505 40.7426 36.3169C40.8434 36.2498 40.9442 36.1826 41.0114 36.1154ZM44.7742 36.7201C44.6734 36.7201 44.539 36.7201 44.4382 36.7201C44.3374 36.7201 44.2031 36.7201 44.1359 36.7537C44.0351 36.7537 43.9343 36.7537 43.8671 36.7873C43.7999 36.7873 43.7327 36.7873 43.7327 36.7873C43.7327 36.7873 43.7327 36.7537 43.7327 36.7201C43.7327 36.6865 43.7327 36.6529 43.7327 36.6193C43.7327 36.5521 43.7663 36.5185 43.8335 36.4849C44.0015 36.4513 44.1359 36.4177 44.2367 36.3505C44.3374 36.3169 44.4046 36.2162 44.4046 36.1154V33.3941C44.4046 33.1925 44.371 33.0581 44.3038 32.9573C44.2367 32.8565 44.1023 32.8229 43.8671 32.7893C43.7663 32.7893 43.7327 32.7221 43.7327 32.6549C43.7327 32.6213 43.7327 32.5877 43.7663 32.5205C43.8671 32.5205 43.9679 32.5205 44.1359 32.5205C44.3038 32.5205 44.4382 32.4869 44.539 32.4869C44.707 32.4533 44.8414 32.4197 44.9422 32.4197C45.0766 32.3862 45.1438 32.3862 45.2109 32.3862C45.3117 32.3862 45.3453 32.4198 45.3453 32.5205C45.3453 32.6213 45.3453 32.7221 45.3117 32.8565C45.2781 32.9909 45.2781 33.1589 45.2781 33.3605V36.1154C45.2781 36.2162 45.3117 36.2833 45.4125 36.3505C45.5133 36.3841 45.6813 36.4513 45.8493 36.4849C45.9165 36.4849 45.9165 36.5521 45.9165 36.6193C45.9165 36.6529 45.9165 36.6529 45.9165 36.7201C45.9165 36.7537 45.9165 36.7873 45.9165 36.7873C45.8829 36.7873 45.8493 36.7873 45.7821 36.7873C45.7149 36.7873 45.6477 36.7873 45.5469 36.7537C45.4461 36.7537 45.3453 36.7537 45.2109 36.7201C45.0094 36.7201 44.9086 36.7201 44.7742 36.7201ZM44.2031 30.7063C44.2031 30.5384 44.2702 30.404 44.371 30.3032C44.4718 30.1688 44.6398 30.1352 44.7742 30.1352C44.9422 30.1352 45.0766 30.2024 45.1773 30.3032C45.2781 30.404 45.3453 30.5384 45.3453 30.7063C45.3453 30.8743 45.2781 31.0087 45.1773 31.1095C45.0766 31.2103 44.9422 31.2775 44.7742 31.2775C44.6062 31.2775 44.4718 31.2103 44.371 31.1095C44.2702 31.0423 44.2031 30.9079 44.2031 30.7063ZM51.7623 33.2933C51.5943 33.1253 51.4263 32.9909 51.2247 32.8901C51.0231 32.7893 50.788 32.7557 50.5528 32.7557C50.3512 32.7557 50.1832 32.7893 50.0488 32.8901C49.9145 32.9909 49.7801 33.0917 49.6793 33.2597C49.5785 33.394 49.5113 33.5956 49.4441 33.7972C49.4105 33.9988 49.3769 34.234 49.3769 34.4691C49.3769 34.7379 49.4105 34.9731 49.4441 35.2083C49.5113 35.4434 49.5785 35.645 49.6793 35.813C49.7801 35.981 49.9145 36.1154 50.0824 36.2162C50.2504 36.3169 50.4184 36.3505 50.62 36.3505C50.7544 36.3505 50.8888 36.3169 51.0231 36.2162C51.1575 36.149 51.2919 36.0482 51.3927 35.9138C51.4935 35.7794 51.5943 35.645 51.6615 35.5106C51.7287 35.3426 51.7623 35.2083 51.7623 35.0403V33.2933ZM52.6022 38.5343C52.6022 38.6351 52.6694 38.7023 52.7702 38.7695C52.871 38.8367 53.0053 38.8703 53.1733 38.9039C53.2405 38.9039 53.2741 38.9711 53.2741 39.0383C53.2741 39.0719 53.2741 39.1391 53.2405 39.2062C53.0725 39.2062 52.871 39.1726 52.6694 39.1726C52.4678 39.1726 52.2662 39.1726 52.0982 39.1726C51.8631 39.1726 51.6279 39.1726 51.4263 39.1726C51.2247 39.1726 51.0231 39.2062 50.8888 39.2062C50.8888 39.1391 50.8552 39.0719 50.8552 39.0383C50.8552 38.9711 50.8888 38.9375 50.956 38.9039C51.1239 38.8703 51.2583 38.8703 51.3591 38.8367C51.4599 38.8031 51.5607 38.8031 51.5943 38.7359C51.6615 38.7023 51.6951 38.6687 51.7287 38.6015C51.7623 38.5343 51.7623 38.4671 51.7623 38.3999V35.8466C51.6615 35.981 51.5607 36.0818 51.4935 36.2162C51.3927 36.3169 51.2919 36.4177 51.1575 36.5185C51.0231 36.6193 50.8888 36.6865 50.7544 36.7201C50.5864 36.7873 50.4184 36.7873 50.1832 36.7873C49.9481 36.7873 49.7465 36.7537 49.5113 36.6529C49.3097 36.5521 49.1081 36.4177 48.9738 36.2498C48.8058 36.0818 48.705 35.8466 48.6042 35.5778C48.5034 35.3091 48.4698 35.0067 48.4698 34.6371C48.4698 34.2676 48.537 33.9316 48.6714 33.6628C48.8058 33.3605 48.9738 33.1253 49.1753 32.9237C49.3769 32.7221 49.6121 32.5877 49.8473 32.4869C50.0824 32.3862 50.3176 32.319 50.5192 32.319C50.9895 32.319 51.4599 32.4198 51.9638 32.6549C52.1318 32.6213 52.2326 32.5877 52.2998 32.5205C52.367 32.4533 52.4342 32.3862 52.5014 32.3862C52.535 32.3862 52.5686 32.3862 52.5686 32.3862C52.6022 32.3862 52.6022 32.3862 52.6358 32.4197C52.6358 32.6213 52.6022 32.7893 52.6022 32.9573C52.6022 33.1253 52.5686 33.2933 52.5686 33.4948V38.5343H52.6022ZM56.2978 33.4276C56.2978 33.1925 56.2642 33.0581 56.197 32.9909C56.1298 32.9237 55.9954 32.8565 55.7603 32.8565C55.6595 32.8565 55.6259 32.7893 55.6259 32.7221C55.6259 32.6885 55.6259 32.6213 55.6595 32.5877C55.7603 32.5877 55.861 32.5877 55.9954 32.5877C56.1298 32.5877 56.2642 32.5541 56.365 32.5541C56.4994 32.5205 56.6338 32.5205 56.7346 32.4869C56.8353 32.4533 56.9361 32.4533 56.9697 32.4533C57.0705 32.4533 57.1041 32.4869 57.1041 32.5877V35.0739C57.1041 35.2419 57.1041 35.3762 57.1377 35.5442C57.1713 35.6786 57.2049 35.813 57.2385 35.9138C57.3057 36.0146 57.3729 36.0818 57.4737 36.149C57.5745 36.2162 57.7089 36.2162 57.8432 36.2162C58.0112 36.2162 58.1792 36.1826 58.3472 36.149C58.5152 36.0818 58.6496 36.0146 58.7503 35.9138C58.8847 35.813 58.9855 35.6786 59.0527 35.5106C59.1199 35.3426 59.1535 35.1747 59.1535 34.9395V33.4948C59.1535 33.2933 59.1199 33.1253 59.0527 33.0581C58.9855 32.9909 58.8511 32.9237 58.616 32.9237C58.5152 32.9237 58.4816 32.8565 58.4816 32.7893C58.4816 32.7557 58.4816 32.6885 58.5152 32.6549C58.616 32.6549 58.7167 32.6549 58.8511 32.6549C58.9855 32.6549 59.1199 32.6213 59.2207 32.6213C59.3551 32.5877 59.4895 32.5877 59.5903 32.5541C59.691 32.5205 59.7918 32.5205 59.8254 32.5205C59.9262 32.5205 59.9598 32.5541 59.9598 32.6549V35.8802C59.9598 35.981 59.9598 36.0818 59.9934 36.149C59.9934 36.2162 60.027 36.2833 60.0606 36.3169C60.0942 36.3505 60.1614 36.3841 60.2286 36.4177C60.2958 36.4513 60.3966 36.4513 60.4974 36.4513C60.5981 36.4513 60.6317 36.5185 60.6317 36.5857C60.6317 36.6193 60.6317 36.6865 60.5982 36.7201C60.4638 36.7201 60.3294 36.7201 60.195 36.7537C60.0606 36.7873 59.9262 36.7873 59.7918 36.8209C59.6574 36.8545 59.5567 36.8545 59.4559 36.8881C59.3551 36.9217 59.2879 36.9217 59.2543 36.9217C59.1535 36.9217 59.1199 36.8881 59.1199 36.7873V35.9474C59.0863 35.981 59.0527 36.0146 58.9519 36.149C58.8511 36.2498 58.7503 36.3841 58.5824 36.4849C58.448 36.6193 58.28 36.7201 58.0784 36.8209C57.8768 36.9217 57.6753 36.9553 57.4401 36.9553C57.0369 36.9553 56.7346 36.8545 56.533 36.6193C56.3314 36.3841 56.2306 36.0482 56.2306 35.645V33.4276H56.2978ZM66.9143 35.7794C66.9479 35.7458 67.0151 35.7122 67.0487 35.7122C67.1159 35.7122 67.1831 35.7794 67.2503 35.8802C67.1495 36.0146 67.0487 36.1154 66.9479 36.2162C66.8471 36.3169 66.7127 36.4177 66.5447 36.5185C66.3767 36.6193 66.2088 36.6865 66.0072 36.7201C65.8056 36.7873 65.5704 36.7873 65.3353 36.7873C65.0665 36.7873 64.8313 36.7537 64.5625 36.6529C64.3274 36.5521 64.1258 36.4177 63.9242 36.2498C63.7562 36.0818 63.5882 35.8466 63.4874 35.5778C63.3867 35.3091 63.3195 35.0067 63.3195 34.6371C63.3195 34.3012 63.3867 33.9988 63.521 33.6964C63.6554 33.4276 63.8234 33.1589 64.025 32.9573C64.2266 32.7557 64.4617 32.5877 64.6969 32.4869C64.9657 32.3862 65.2009 32.319 65.436 32.319C66.0408 32.319 66.5111 32.4869 66.7799 32.8565C67.0487 33.2261 67.2167 33.6964 67.2167 34.2676C67.2167 34.3012 67.1831 34.3348 67.1495 34.3348L64.2602 34.4691C64.2602 34.7379 64.2938 34.9731 64.361 35.1747C64.4281 35.4098 64.5289 35.5778 64.6633 35.7458C64.7977 35.9138 64.9657 36.0482 65.1337 36.1154C65.3353 36.2162 65.5368 36.2498 65.772 36.2498C65.9736 36.2498 66.1752 36.2162 66.3767 36.1154C66.6119 36.0482 66.7799 35.9474 66.9143 35.7794ZM65.3017 32.7557C64.9657 32.7557 64.6969 32.8901 64.5289 33.1589C64.3274 33.4276 64.2602 33.7636 64.2602 34.1668L66.1416 34.066C66.2424 34.066 66.276 34.0324 66.276 33.9316C66.276 33.7972 66.2424 33.6628 66.2088 33.5284C66.1752 33.3941 66.108 33.2597 66.0408 33.1589C65.9736 33.0245 65.8728 32.9573 65.7384 32.8565C65.604 32.7893 65.4696 32.7557 65.3017 32.7557ZM76.8589 32.3862C77.0604 32.3862 77.1948 32.4198 77.2956 32.5205C77.3964 32.6213 77.43 32.7221 77.43 32.8229C77.43 32.8565 77.43 32.8901 77.3964 32.9237C77.3964 32.9573 77.3628 32.9909 77.2956 33.0245C77.262 33.0581 77.1948 33.0917 77.094 33.1589C76.9932 33.1925 76.8925 33.2597 76.7245 33.3269C76.6573 33.2597 76.5901 33.1925 76.4893 33.1253C76.4221 33.0581 76.3213 33.0581 76.2205 33.0581C76.1197 33.0581 76.0189 33.0917 75.9182 33.1589C75.8174 33.2261 75.7502 33.2933 75.683 33.4276C75.6158 33.5284 75.5486 33.6628 75.515 33.7972C75.4814 33.9316 75.4814 34.0996 75.4814 34.234V35.9474C75.4814 36.0818 75.5486 36.2162 75.7166 36.2833C75.8846 36.3505 76.0861 36.4177 76.3885 36.4513C76.4557 36.4513 76.4893 36.5185 76.4893 36.5857C76.4893 36.6193 76.4893 36.6865 76.4557 36.7537C76.3885 36.7537 76.2877 36.7537 76.1869 36.7201C76.0861 36.7201 75.9518 36.7201 75.851 36.7201C75.7166 36.7201 75.6158 36.7201 75.4814 36.6865C75.347 36.6865 75.2462 36.6865 75.1454 36.6865C74.9775 36.6865 74.7759 36.6865 74.5743 36.6865C74.3727 36.6865 74.2047 36.7201 74.0368 36.7201C74.0368 36.6529 74.0032 36.5857 74.0032 36.5521C74.0032 36.4849 74.0367 36.4513 74.1039 36.4177C74.2719 36.3841 74.3727 36.3505 74.5071 36.2833C74.6415 36.2162 74.6751 36.149 74.6751 36.0482V33.5284C74.6751 33.3941 74.6751 33.2597 74.6415 33.1925C74.6415 33.0917 74.6079 33.0245 74.5743 32.9573C74.5407 32.8901 74.4735 32.8565 74.4063 32.8229C74.3391 32.7893 74.2383 32.7893 74.1039 32.7557C74.0032 32.7557 73.9696 32.6885 73.9696 32.6213C73.9696 32.5877 73.9696 32.5205 74.0032 32.4869C74.1039 32.4869 74.2047 32.4869 74.3727 32.4869C74.5407 32.4869 74.6751 32.4533 74.7759 32.4533C74.9103 32.4197 75.0446 32.3862 75.1454 32.3862C75.2462 32.3526 75.347 32.3526 75.3806 32.3526C75.4814 32.3526 75.515 32.3862 75.515 32.4869V33.1589C75.7166 32.9237 75.9518 32.7221 76.1533 32.5877C76.3549 32.4869 76.5901 32.3862 76.8589 32.3862ZM83.1414 35.7794C83.175 35.7458 83.2422 35.7122 83.2758 35.7122C83.343 35.7122 83.4102 35.7794 83.4774 35.8802C83.3766 36.0146 83.2758 36.1154 83.175 36.2162C83.0742 36.3169 82.9398 36.4177 82.7718 36.5185C82.6039 36.6193 82.4359 36.6865 82.2343 36.7201C82.0327 36.7873 81.7975 36.7873 81.5624 36.7873C81.2936 36.7873 81.0584 36.7537 80.7896 36.6529C80.5545 36.5521 80.3529 36.4177 80.1513 36.2498C79.9833 36.0818 79.8154 35.8466 79.7146 35.5778C79.6138 35.3091 79.5466 35.0067 79.5466 34.6371C79.5466 34.3012 79.6138 33.9988 79.7482 33.6964C79.8825 33.4276 80.0505 33.1589 80.2521 32.9573C80.4537 32.7557 80.6889 32.5877 80.924 32.4869C81.1928 32.3862 81.428 32.319 81.6632 32.319C82.2679 32.319 82.7382 32.4869 83.007 32.8565C83.3094 33.2261 83.4438 33.6964 83.4438 34.2676C83.4438 34.3012 83.4102 34.3348 83.3766 34.3348L80.4873 34.4691C80.4873 34.7379 80.5209 34.9731 80.5881 35.1747C80.6553 35.4098 80.7561 35.5778 80.8904 35.7458C81.0248 35.9138 81.1928 36.0482 81.3608 36.1154C81.5624 36.2162 81.7639 36.2498 81.9991 36.2498C82.2007 36.2498 82.4023 36.2162 82.6039 36.1154C82.839 36.0482 83.007 35.9474 83.1414 35.7794ZM81.5288 32.7557C81.1928 32.7557 80.924 32.8901 80.7561 33.1589C80.5545 33.4276 80.4873 33.7636 80.4873 34.1668L82.3687 34.066C82.4695 34.066 82.5031 34.0324 82.5031 33.9316C82.5031 33.7972 82.4695 33.6628 82.4359 33.5284C82.4023 33.3941 82.3351 33.2597 82.2679 33.1589C82.2007 33.0245 82.0999 32.9573 81.9655 32.8565C81.8311 32.7893 81.6968 32.7557 81.5288 32.7557ZM90.331 36.4513C90.3982 36.4513 90.4318 36.5185 90.4654 36.6529C90.2975 36.7873 90.0623 36.8209 89.7935 36.8209C89.6591 36.8209 89.5247 36.7873 89.424 36.7537C89.3232 36.7201 89.2224 36.6529 89.1552 36.5857C89.088 36.5185 89.0208 36.4177 88.9872 36.3505C88.9536 36.2498 88.92 36.149 88.92 36.0482C88.752 36.3505 88.5504 36.5521 88.3153 36.6529C88.0801 36.7537 87.8113 36.8209 87.5425 36.8209C87.4082 36.8209 87.2738 36.8209 87.1058 36.7873C86.9714 36.7537 86.837 36.7201 86.7026 36.6529C86.5682 36.5857 86.4675 36.4849 86.3667 36.3505C86.2659 36.2162 86.2323 36.0482 86.2323 35.813C86.2323 35.5778 86.2995 35.3762 86.4003 35.2083C86.5347 35.0403 86.669 34.9059 86.837 34.8051C87.0386 34.7043 87.2066 34.6035 87.4418 34.5363C87.6769 34.4691 87.8785 34.4019 88.0801 34.3684C88.1809 34.3348 88.2817 34.3347 88.3825 34.3012C88.4832 34.2676 88.584 34.234 88.6512 34.234C88.752 34.2004 88.7856 34.1668 88.8192 34.1332C88.8528 34.0996 88.8528 33.9988 88.8528 33.8644C88.8528 33.562 88.7856 33.2933 88.6848 33.0917C88.5504 32.8901 88.3489 32.7893 88.0465 32.7893C87.9457 32.7893 87.8449 32.7893 87.7441 32.8229C87.6769 32.8565 87.6097 32.8901 87.5425 32.9573C87.4753 33.0245 87.4418 33.0917 87.4082 33.1925C87.3746 33.2933 87.341 33.3941 87.2738 33.5284C87.2402 33.5956 87.2066 33.6628 87.1394 33.6964C87.0722 33.73 86.9714 33.7636 86.8034 33.8308C86.7698 33.8308 86.7026 33.8644 86.669 33.8644C86.6018 33.8644 86.5682 33.898 86.5347 33.898C86.4675 33.898 86.4339 33.8308 86.4339 33.6964C86.4339 33.562 86.5011 33.394 86.6018 33.2597C86.7026 33.1253 86.8706 32.9909 87.0386 32.8565C87.2066 32.7557 87.4082 32.6549 87.6097 32.5877C87.8113 32.5205 88.0129 32.4869 88.1809 32.4869C88.4161 32.4869 88.6176 32.5205 88.8192 32.5541C89.0208 32.5877 89.1552 32.6549 89.2896 32.7893C89.424 32.8901 89.5247 33.0245 89.5919 33.2261C89.6591 33.3941 89.6927 33.6292 89.6927 33.9316V35.645C89.6927 35.8802 89.6927 36.0482 89.7263 36.149C89.7599 36.2498 89.7599 36.3169 89.7935 36.3841C89.8271 36.4849 89.8943 36.5521 89.9279 36.5857C89.9951 36.6193 90.0623 36.6193 90.0959 36.6193C90.1631 36.6193 90.2303 36.6193 90.2303 36.5857C90.2639 36.4513 90.2975 36.4513 90.331 36.4513ZM88.8192 34.5027L88.5168 34.5363C88.3489 34.5699 88.1809 34.6035 88.0129 34.6707C87.8449 34.7043 87.7105 34.7715 87.5761 34.8723C87.4418 34.9395 87.341 35.0403 87.2738 35.1747C87.2066 35.3091 87.173 35.4434 87.173 35.645C87.173 35.9138 87.2402 36.0818 87.3746 36.2162C87.5089 36.3505 87.6769 36.4177 87.8785 36.4177C88.0129 36.4177 88.1137 36.3841 88.2481 36.3505C88.3825 36.2833 88.4832 36.2162 88.5504 36.1154C88.6512 36.0146 88.7184 35.8802 88.7856 35.7458C88.8528 35.6114 88.8864 35.4434 88.8864 35.2755V34.5027H88.8192ZM95.0346 36.7537C94.8666 36.7537 94.6986 36.7201 94.497 36.7201C94.329 36.7201 94.1275 36.7201 93.9595 36.7201C93.7915 36.7201 93.5899 36.7201 93.3883 36.7201C93.1868 36.7201 93.0188 36.7537 92.8508 36.7537C92.8508 36.6865 92.8172 36.6193 92.8172 36.5857C92.8172 36.5185 92.8508 36.4849 92.918 36.4513C93.0524 36.4177 93.1868 36.3841 93.3211 36.3505C93.4555 36.2833 93.5227 36.2162 93.5227 36.1154V30.7399C93.5227 30.5383 93.4891 30.3704 93.3883 30.3032C93.3211 30.236 93.1532 30.1688 92.918 30.1688C92.8172 30.1688 92.7836 30.1016 92.7836 30.0344C92.7836 30.0008 92.7836 29.9336 92.8172 29.9C92.918 29.9 93.0188 29.9 93.1868 29.9C93.3547 29.9 93.4891 29.8664 93.5899 29.8664C93.7579 29.8328 93.8923 29.8328 93.9931 29.7992C94.1275 29.7656 94.1947 29.7656 94.2618 29.7656C94.329 29.7656 94.3626 29.7656 94.3962 29.7992C94.4298 29.8328 94.4298 29.8664 94.4298 29.9C94.4298 30.0008 94.4298 30.1352 94.3962 30.3032C94.3626 30.4376 94.3626 30.6055 94.3626 30.8071V36.149C94.3626 36.2498 94.4298 36.3505 94.5306 36.3841C94.665 36.4177 94.7994 36.4513 94.9338 36.4849C95.001 36.4849 95.001 36.5521 95.001 36.6193C95.0682 36.6193 95.0346 36.6865 95.0346 36.7537ZM105.349 35.7794C105.382 35.7458 105.449 35.7122 105.483 35.7122C105.55 35.7122 105.617 35.7794 105.685 35.8802C105.584 36.0146 105.483 36.1154 105.382 36.2162C105.282 36.3169 105.147 36.4177 104.979 36.5185C104.811 36.6193 104.643 36.6865 104.442 36.7201C104.24 36.7873 104.005 36.7873 103.77 36.7873C103.501 36.7873 103.266 36.7537 102.997 36.6529C102.762 36.5521 102.56 36.4177 102.359 36.2498C102.191 36.0818 102.023 35.8466 101.922 35.5778C101.821 35.3091 101.754 35.0067 101.754 34.6371C101.754 34.3012 101.821 33.9988 101.955 33.6964C102.09 33.4276 102.258 33.1589 102.459 32.9573C102.661 32.7557 102.896 32.5877 103.131 32.4869C103.4 32.3862 103.635 32.319 103.87 32.319C104.475 32.319 104.946 32.4869 105.214 32.8565C105.483 33.2261 105.651 33.6964 105.651 34.2676C105.651 34.3012 105.617 34.3348 105.584 34.3348L102.695 34.4691C102.695 34.7379 102.728 34.9731 102.795 35.1747C102.863 35.4098 102.963 35.5778 103.098 35.7458C103.232 35.9138 103.4 36.0482 103.568 36.1154C103.77 36.2162 103.971 36.2498 104.206 36.2498C104.408 36.2498 104.61 36.2162 104.811 36.1154C105.046 36.0482 105.214 35.9474 105.349 35.7794ZM103.736 32.7557C103.4 32.7557 103.131 32.8901 102.963 33.1589C102.762 33.4276 102.695 33.7636 102.695 34.1668L104.576 34.066C104.677 34.066 104.71 34.0324 104.71 33.9316C104.71 33.7972 104.677 33.6628 104.643 33.5284C104.61 33.3941 104.542 33.2597 104.475 33.1589C104.408 33.0245 104.307 32.9573 104.173 32.8565C104.038 32.7893 103.904 32.7557 103.736 32.7557ZM111.06 33.5956C110.993 33.5956 110.959 33.5956 110.926 33.562C110.892 33.5284 110.892 33.4948 110.892 33.4948C110.859 33.2261 110.724 33.0245 110.556 32.9237C110.388 32.7893 110.187 32.7557 109.918 32.7557C109.716 32.7557 109.548 32.8229 109.414 32.9237C109.279 33.0245 109.179 33.1925 109.179 33.3605C109.179 33.5284 109.246 33.6628 109.38 33.7972C109.515 33.898 109.783 34.0324 110.119 34.1332C110.321 34.2004 110.489 34.2676 110.657 34.3348C110.825 34.4019 110.959 34.5027 111.06 34.6035C111.194 34.7043 111.262 34.8387 111.329 34.9731C111.396 35.1075 111.43 35.3091 111.43 35.5106C111.43 35.6786 111.396 35.8466 111.329 36.0146C111.262 36.1826 111.161 36.3169 111.026 36.4177C110.892 36.5521 110.724 36.6193 110.523 36.7201C110.321 36.7873 110.086 36.8209 109.817 36.8209C109.615 36.8209 109.38 36.7873 109.112 36.7537C108.843 36.7201 108.608 36.6193 108.406 36.5185C108.406 36.3505 108.372 36.1826 108.372 35.981C108.372 35.7794 108.372 35.6114 108.372 35.4098H108.473C108.54 35.4098 108.608 35.4098 108.641 35.4434C108.675 35.477 108.708 35.5106 108.708 35.5442C108.742 35.813 108.843 36.0482 109.011 36.2162C109.212 36.3841 109.481 36.4513 109.817 36.4513C110.086 36.4513 110.287 36.3841 110.455 36.2833C110.59 36.149 110.691 35.981 110.691 35.7794C110.691 35.5442 110.623 35.4098 110.455 35.2755C110.287 35.1411 110.052 35.0403 109.75 34.9731C109.347 34.8387 109.044 34.7043 108.809 34.5027C108.574 34.3012 108.473 34.0324 108.473 33.6628C108.473 33.4948 108.507 33.3269 108.574 33.1589C108.641 32.9909 108.742 32.8901 108.843 32.7557C108.977 32.6549 109.112 32.5541 109.279 32.4869C109.447 32.4198 109.649 32.3862 109.851 32.3862C110.119 32.3862 110.355 32.4198 110.59 32.4869C110.825 32.5541 111.026 32.6213 111.161 32.7221C111.161 32.7893 111.161 32.8565 111.194 32.9237C111.194 32.9909 111.194 33.0917 111.194 33.1589C111.194 33.2261 111.194 33.3269 111.194 33.3941C111.194 33.4612 111.194 33.562 111.194 33.6292L111.06 33.5956ZM116.536 36.1154C116.57 36.0818 116.604 36.0482 116.604 36.0482C116.637 36.0482 116.637 36.0482 116.671 36.0482C116.738 36.0482 116.772 36.0818 116.839 36.1826C116.671 36.3841 116.469 36.5185 116.268 36.6529C116.066 36.7873 115.864 36.8209 115.629 36.8209C115.495 36.8209 115.36 36.8209 115.26 36.7873C115.125 36.7537 115.024 36.7201 114.957 36.6193C114.857 36.5185 114.789 36.4177 114.756 36.2833C114.722 36.1154 114.689 35.9474 114.689 35.7122V32.9573H114.084V32.8229C114.084 32.7893 114.084 32.7221 114.117 32.6885C114.151 32.6549 114.185 32.6213 114.218 32.6213C114.386 32.6213 114.554 32.5877 114.655 32.4869C114.756 32.3862 114.857 32.2854 114.924 32.1174C114.991 31.9494 115.058 31.815 115.125 31.6806C115.192 31.5462 115.26 31.479 115.327 31.479H115.495V32.5205H116.671C116.671 32.6549 116.671 32.7557 116.637 32.8229C116.604 32.8901 116.57 32.9237 116.469 32.9237H115.528V35.4098C115.528 35.6114 115.528 35.7794 115.562 35.9138C115.596 36.0482 115.596 36.149 115.663 36.2162C115.696 36.2834 115.764 36.3169 115.797 36.3505C115.864 36.3841 115.898 36.3841 115.965 36.3841C116.066 36.3841 116.167 36.3505 116.268 36.3169C116.368 36.2498 116.469 36.1826 116.536 36.1154ZM123.424 36.4513C123.491 36.4513 123.524 36.5185 123.558 36.6529C123.39 36.7873 123.155 36.8209 122.886 36.8209C122.752 36.8209 122.617 36.7873 122.517 36.7537C122.416 36.7201 122.315 36.6529 122.248 36.5857C122.181 36.5185 122.113 36.4177 122.08 36.3505C122.046 36.2498 122.013 36.149 122.013 36.0482C121.845 36.3505 121.643 36.5521 121.408 36.6529C121.173 36.7537 120.904 36.8209 120.635 36.8209C120.501 36.8209 120.366 36.8209 120.198 36.7873C120.064 36.7537 119.93 36.7201 119.795 36.6529C119.661 36.5857 119.56 36.4849 119.459 36.3505C119.358 36.2162 119.325 36.0482 119.325 35.813C119.325 35.5778 119.392 35.3762 119.493 35.2083C119.627 35.0403 119.762 34.9059 119.93 34.8051C120.131 34.7043 120.299 34.6035 120.534 34.5363C120.769 34.4691 120.971 34.4019 121.173 34.3684C121.273 34.3348 121.374 34.3347 121.475 34.3012C121.576 34.2676 121.677 34.234 121.744 34.234C121.845 34.2004 121.878 34.1668 121.912 34.1332C121.945 34.0996 121.945 33.9988 121.945 33.8644C121.945 33.562 121.878 33.2933 121.777 33.0917C121.643 32.8901 121.441 32.7893 121.139 32.7893C121.038 32.7893 120.937 32.7893 120.837 32.8229C120.769 32.8565 120.702 32.8901 120.635 32.9573C120.568 33.0245 120.534 33.0917 120.501 33.1925C120.467 33.2933 120.434 33.3941 120.366 33.5284C120.333 33.5956 120.299 33.6628 120.232 33.6964C120.165 33.73 120.064 33.7636 119.896 33.8308C119.862 33.8308 119.795 33.8644 119.762 33.8644C119.694 33.8644 119.661 33.898 119.627 33.898C119.56 33.898 119.526 33.8308 119.526 33.6964C119.526 33.562 119.594 33.394 119.694 33.2597C119.795 33.1253 119.963 32.9909 120.131 32.8565C120.299 32.7557 120.501 32.6549 120.702 32.5877C120.904 32.5205 121.105 32.4869 121.273 32.4869C121.509 32.4869 121.71 32.5205 121.912 32.5541C122.113 32.5877 122.248 32.6549 122.382 32.7893C122.517 32.8901 122.617 33.0245 122.684 33.2261C122.752 33.3941 122.785 33.6292 122.785 33.9316V35.645C122.785 35.8802 122.785 36.0482 122.819 36.149C122.852 36.2498 122.852 36.3169 122.886 36.3841C122.92 36.4849 122.987 36.5521 123.02 36.5857C123.088 36.6193 123.155 36.6193 123.188 36.6193C123.256 36.6193 123.323 36.6193 123.323 36.5857C123.356 36.4513 123.39 36.4513 123.424 36.4513ZM121.912 34.5027L121.609 34.5363C121.441 34.5699 121.273 34.6035 121.105 34.6707C120.937 34.7043 120.803 34.7715 120.669 34.8723C120.534 34.9395 120.434 35.0403 120.366 35.1747C120.299 35.3091 120.266 35.4434 120.266 35.645C120.266 35.9138 120.333 36.0818 120.467 36.2162C120.602 36.3505 120.769 36.4177 120.971 36.4177C121.105 36.4177 121.206 36.3841 121.341 36.3505C121.475 36.2833 121.576 36.2162 121.643 36.1154C121.744 36.0146 121.811 35.8802 121.878 35.7458C121.945 35.6114 121.979 35.4434 121.979 35.2755V34.5027H121.912ZM128.262 36.1154C128.295 36.0818 128.329 36.0482 128.329 36.0482C128.362 36.0482 128.362 36.0482 128.396 36.0482C128.463 36.0482 128.497 36.0818 128.564 36.1826C128.396 36.3841 128.194 36.5185 127.993 36.6529C127.791 36.7873 127.59 36.8209 127.354 36.8209C127.22 36.8209 127.086 36.8209 126.985 36.7873C126.85 36.7537 126.75 36.7201 126.682 36.6193C126.582 36.5185 126.514 36.4177 126.481 36.2833C126.447 36.1154 126.414 35.9474 126.414 35.7122V32.9573H125.809V32.8229C125.809 32.7893 125.809 32.7221 125.843 32.6885C125.876 32.6549 125.91 32.6213 125.943 32.6213C126.111 32.6213 126.279 32.5877 126.38 32.4869C126.481 32.3862 126.582 32.2854 126.649 32.1174C126.716 31.9494 126.783 31.815 126.85 31.6806C126.918 31.5462 126.985 31.479 127.052 31.479H127.22V32.5205H128.396C128.396 32.6549 128.396 32.7557 128.362 32.8229C128.329 32.8901 128.295 32.9237 128.194 32.9237H127.254V35.4098C127.254 35.6114 127.254 35.7794 127.287 35.9138C127.321 36.0482 127.321 36.149 127.388 36.2162C127.422 36.2834 127.489 36.3169 127.522 36.3505C127.59 36.3841 127.623 36.3841 127.69 36.3841C127.791 36.3841 127.892 36.3505 127.993 36.3169C128.06 36.2498 128.161 36.1826 128.262 36.1154ZM134.477 35.7794C134.51 35.7458 134.578 35.7122 134.611 35.7122C134.678 35.7122 134.746 35.7794 134.813 35.8802C134.712 36.0146 134.611 36.1154 134.51 36.2162C134.41 36.3169 134.275 36.4177 134.107 36.5185C133.939 36.6193 133.771 36.6865 133.57 36.7201C133.368 36.7873 133.133 36.7873 132.898 36.7873C132.629 36.7873 132.394 36.7537 132.125 36.6529C131.89 36.5521 131.688 36.4177 131.487 36.2498C131.319 36.0818 131.151 35.8466 131.05 35.5778C130.949 35.3091 130.882 35.0067 130.882 34.6371C130.882 34.3012 130.949 33.9988 131.084 33.6964C131.218 33.4276 131.386 33.1589 131.588 32.9573C131.789 32.7557 132.024 32.5877 132.259 32.4869C132.528 32.3862 132.763 32.319 132.999 32.319C133.603 32.319 134.074 32.4869 134.342 32.8565C134.611 33.2261 134.779 33.6964 134.779 34.2676C134.779 34.3012 134.746 34.3348 134.712 34.3348L131.823 34.4691C131.823 34.7379 131.856 34.9731 131.924 35.1747C131.991 35.4098 132.092 35.5778 132.226 35.7458C132.36 35.9138 132.528 36.0482 132.696 36.1154C132.898 36.2162 133.099 36.2498 133.335 36.2498C133.536 36.2498 133.738 36.2162 133.939 36.1154C134.174 36.0482 134.342 35.9474 134.477 35.7794ZM132.864 32.7557C132.528 32.7557 132.259 32.8901 132.092 33.1589C131.89 33.4276 131.823 33.7636 131.823 34.1668L133.704 34.066C133.805 34.066 133.839 34.0324 133.839 33.9316C133.839 33.7972 133.805 33.6628 133.771 33.5284C133.738 33.3941 133.671 33.2597 133.603 33.1589C133.536 33.0245 133.435 32.9573 133.301 32.8565C133.167 32.7893 133.032 32.7557 132.864 32.7557ZM145.732 36.4513C145.799 36.4513 145.832 36.5185 145.866 36.6529C145.698 36.7873 145.463 36.8209 145.194 36.8209C145.06 36.8209 144.925 36.7873 144.825 36.7537C144.724 36.7201 144.623 36.6529 144.556 36.5857C144.489 36.5185 144.421 36.4177 144.388 36.3505C144.354 36.2498 144.321 36.149 144.321 36.0482C144.153 36.3505 143.951 36.5521 143.716 36.6529C143.481 36.7537 143.212 36.8209 142.943 36.8209C142.809 36.8209 142.674 36.8209 142.506 36.7873C142.372 36.7537 142.204 36.7201 142.103 36.6529C141.969 36.5857 141.868 36.4849 141.767 36.3505C141.667 36.2162 141.633 36.0482 141.633 35.813C141.633 35.5778 141.7 35.3762 141.801 35.2083C141.935 35.0403 142.07 34.9059 142.238 34.8051C142.439 34.7043 142.607 34.6035 142.842 34.5363C143.078 34.4691 143.279 34.4019 143.481 34.3684C143.582 34.3348 143.682 34.3347 143.783 34.3012C143.884 34.2676 143.985 34.234 144.052 34.234C144.153 34.2004 144.186 34.1668 144.22 34.1332C144.253 34.0996 144.253 33.9988 144.253 33.8644C144.253 33.562 144.186 33.2933 144.085 33.0917C143.951 32.8901 143.749 32.7893 143.447 32.7893C143.346 32.7893 143.246 32.7893 143.145 32.8229C143.078 32.8565 143.01 32.8901 142.943 32.9573C142.876 33.0245 142.842 33.0917 142.809 33.1925C142.775 33.2933 142.742 33.3941 142.674 33.5284C142.641 33.5956 142.607 33.6628 142.54 33.6964C142.473 33.73 142.372 33.7636 142.204 33.8308C142.17 33.8308 142.103 33.8644 142.07 33.8644C142.002 33.8644 141.969 33.898 141.935 33.898C141.868 33.898 141.835 33.8308 141.835 33.6964C141.835 33.562 141.902 33.394 142.002 33.2597C142.103 33.1253 142.271 32.9909 142.439 32.8565C142.607 32.7557 142.809 32.6549 143.01 32.5877C143.212 32.5205 143.414 32.4869 143.582 32.4869C143.817 32.4869 144.018 32.5205 144.22 32.5541C144.421 32.5877 144.556 32.6549 144.69 32.7893C144.825 32.8901 144.925 33.0245 144.993 33.2261C145.06 33.3941 145.093 33.6292 145.093 33.9316V35.645C145.093 35.8802 145.093 36.0482 145.127 36.149C145.161 36.2498 145.161 36.3169 145.194 36.3841C145.228 36.4849 145.295 36.5521 145.329 36.5857C145.396 36.6193 145.463 36.6193 145.497 36.6193C145.564 36.6193 145.631 36.6193 145.631 36.5857C145.665 36.4513 145.698 36.4513 145.732 36.4513ZM144.22 34.5027L143.917 34.5363C143.749 34.5699 143.582 34.6035 143.414 34.6707C143.246 34.7043 143.111 34.7715 142.977 34.8723C142.842 34.9395 142.742 35.0403 142.674 35.1747C142.607 35.3091 142.574 35.4434 142.574 35.645C142.574 35.9138 142.641 36.0818 142.775 36.2162C142.91 36.3505 143.078 36.4177 143.279 36.4177C143.414 36.4177 143.514 36.3841 143.649 36.3505C143.783 36.2833 143.884 36.2162 143.951 36.1154C144.052 36.0146 144.119 35.8802 144.186 35.7458C144.253 35.6114 144.287 35.4434 144.287 35.2755V34.5027H144.22ZM148.856 36.4849C148.587 36.3169 148.419 36.0818 148.419 35.7794C148.419 35.4434 148.655 35.1747 149.091 34.9731C148.89 34.8723 148.755 34.7043 148.655 34.5363C148.554 34.3348 148.487 34.0996 148.487 33.8308C148.487 33.6292 148.52 33.4612 148.621 33.2933C148.722 33.1253 148.823 32.9573 148.991 32.8229C149.159 32.6885 149.327 32.5877 149.495 32.5205C149.696 32.4533 149.898 32.3862 150.133 32.3862C150.469 32.3862 150.738 32.4198 150.939 32.5205C151.141 32.5877 151.309 32.6885 151.443 32.8229L152.417 32.3862C152.485 32.4198 152.552 32.4869 152.585 32.5877C152.619 32.6549 152.619 32.7221 152.619 32.7893C152.619 32.9237 152.585 33.0245 152.485 33.0245H152.115C151.981 33.0245 151.846 33.0581 151.645 33.0917C151.813 33.2933 151.88 33.562 151.88 33.8644C151.88 34.066 151.846 34.2676 151.745 34.4355C151.645 34.6035 151.51 34.7715 151.376 34.8723C151.208 35.0067 151.04 35.0739 150.805 35.1747C150.57 35.2419 150.368 35.2755 150.099 35.2755C149.965 35.2755 149.83 35.2755 149.696 35.2419C149.562 35.2083 149.461 35.2083 149.327 35.1411C149.159 35.2083 149.024 35.3091 148.957 35.3762C148.89 35.4434 148.856 35.5442 148.856 35.6114C148.856 35.6786 148.856 35.7122 148.89 35.7794C148.923 35.813 148.991 35.8802 149.058 35.9138C149.159 35.9474 149.293 35.981 149.427 36.0146C149.595 36.0482 149.797 36.0482 150.066 36.0482C150.368 36.0482 150.637 36.0818 150.906 36.1154C151.174 36.149 151.41 36.2498 151.611 36.3505C151.813 36.4513 151.981 36.5857 152.081 36.7537C152.216 36.9217 152.249 37.1233 152.249 37.392C152.249 37.6608 152.182 37.896 152.081 38.1312C151.981 38.3663 151.813 38.5343 151.611 38.7023C151.41 38.8703 151.174 38.9711 150.906 39.0719C150.637 39.1727 150.334 39.2062 149.998 39.2062C149.36 39.2062 148.89 39.1055 148.52 38.8703C148.184 38.6351 147.983 38.2991 147.983 37.7952C147.983 37.6608 148.016 37.5264 148.05 37.392C148.083 37.2576 148.151 37.1569 148.218 37.0561C148.285 36.9553 148.386 36.8545 148.453 36.7873C148.688 36.6193 148.789 36.5521 148.856 36.4849ZM149.091 36.6193C148.923 36.7873 148.856 36.9553 148.823 37.1905C148.823 37.2576 148.823 37.2912 148.823 37.3584C148.823 37.4256 148.823 37.4592 148.823 37.5264C148.823 37.6608 148.856 37.7952 148.923 37.9296C148.991 38.064 149.091 38.1983 149.226 38.2991C149.36 38.3999 149.495 38.5007 149.696 38.5679C149.898 38.6351 150.099 38.6687 150.334 38.6687C150.805 38.6687 151.141 38.5679 151.342 38.3663C151.544 38.1648 151.645 37.9296 151.645 37.6272C151.645 37.4928 151.611 37.392 151.577 37.2912C151.51 37.1905 151.443 37.0897 151.309 37.0225C151.174 36.9553 151.006 36.8881 150.805 36.8545C150.603 36.8209 150.334 36.7873 150.032 36.7873C149.864 36.7873 149.696 36.7873 149.528 36.7537C149.36 36.6865 149.226 36.6529 149.091 36.6193ZM150.234 34.8387C150.469 34.8387 150.67 34.7715 150.805 34.6035C150.939 34.4355 151.04 34.234 151.04 33.9316C151.04 33.7972 151.04 33.6292 151.006 33.4948C150.973 33.3605 150.939 33.2261 150.872 33.0917C150.805 32.9573 150.704 32.8901 150.57 32.7893C150.435 32.7221 150.301 32.6885 150.099 32.6885C149.864 32.6885 149.696 32.7557 149.528 32.9237C149.394 33.0917 149.327 33.2933 149.327 33.562C149.327 33.73 149.327 33.8644 149.36 34.0324C149.394 34.1668 149.427 34.3012 149.495 34.4355C149.562 34.5699 149.662 34.6371 149.763 34.7379C149.898 34.8051 150.032 34.8387 150.234 34.8387ZM158.498 35.7794C158.532 35.7458 158.599 35.7122 158.633 35.7122C158.7 35.7122 158.767 35.7794 158.834 35.8802C158.734 36.0146 158.633 36.1154 158.532 36.2162C158.431 36.3169 158.297 36.4177 158.129 36.5185C157.961 36.6193 157.793 36.6865 157.591 36.7201C157.39 36.7873 157.155 36.7873 156.919 36.7873C156.651 36.7873 156.415 36.7537 156.147 36.6529C155.911 36.5521 155.71 36.4177 155.508 36.2498C155.34 36.0818 155.172 35.8466 155.072 35.5778C154.971 35.3091 154.904 35.0067 154.904 34.6371C154.904 34.3012 154.971 33.9988 155.105 33.6964C155.24 33.4276 155.407 33.1589 155.609 32.9573C155.811 32.7557 156.046 32.5877 156.281 32.4869C156.55 32.3862 156.785 32.319 157.02 32.319C157.625 32.319 158.095 32.4869 158.364 32.8565C158.633 33.2261 158.801 33.6964 158.801 34.2676C158.801 34.3012 158.767 34.3348 158.734 34.3348L155.844 34.4691C155.844 34.7379 155.878 34.9731 155.945 35.1747C156.012 35.4098 156.113 35.5778 156.247 35.7458C156.382 35.9138 156.55 36.0482 156.718 36.1154C156.919 36.2162 157.121 36.2498 157.356 36.2498C157.558 36.2498 157.759 36.2162 157.961 36.1154C158.196 36.0482 158.364 35.9474 158.498 35.7794ZM156.886 32.7557C156.55 32.7557 156.281 32.8901 156.113 33.1589C155.911 33.4276 155.844 33.7636 155.844 34.1668L157.726 34.066C157.826 34.066 157.86 34.0324 157.86 33.9316C157.86 33.7972 157.826 33.6628 157.793 33.5284C157.759 33.3941 157.692 33.2597 157.625 33.1589C157.558 33.0245 157.457 32.9573 157.322 32.8565C157.188 32.7893 157.054 32.7557 156.886 32.7557ZM165.89 36.149C165.89 36.2498 165.957 36.3169 166.058 36.3841C166.192 36.4177 166.326 36.4513 166.461 36.4849C166.528 36.4849 166.562 36.5521 166.562 36.6193C166.562 36.6529 166.562 36.7201 166.528 36.7873C166.36 36.7873 166.192 36.7537 166.024 36.7537C165.856 36.7537 165.688 36.7537 165.486 36.7537C165.318 36.7537 165.117 36.7537 164.949 36.7537C164.781 36.7537 164.613 36.7873 164.445 36.7873C164.445 36.7201 164.411 36.6529 164.411 36.6193C164.411 36.5521 164.445 36.5185 164.512 36.4849C164.647 36.4513 164.781 36.4177 164.882 36.3841C164.982 36.3169 165.05 36.2498 165.05 36.149V34.2004C165.05 34.0324 165.05 33.898 165.016 33.73C164.982 33.5956 164.949 33.4612 164.882 33.3605C164.815 33.2597 164.747 33.1589 164.647 33.1253C164.546 33.0581 164.445 33.0245 164.277 33.0245C164.109 33.0245 163.941 33.0581 163.773 33.1253C163.605 33.1925 163.471 33.2597 163.336 33.3605C163.202 33.4612 163.135 33.5956 163.034 33.7636C162.967 33.9316 162.933 34.0996 162.933 34.3012V36.1154C162.933 36.2162 163 36.2833 163.101 36.3505C163.235 36.3841 163.336 36.4177 163.471 36.4513C163.538 36.4513 163.571 36.5185 163.571 36.5857C163.571 36.6193 163.571 36.6865 163.538 36.7537C163.37 36.7537 163.202 36.7201 163.034 36.7201C162.866 36.7201 162.698 36.7201 162.496 36.7201C162.295 36.7201 162.127 36.7201 161.959 36.7201C161.791 36.7201 161.623 36.7537 161.455 36.7537C161.455 36.6865 161.421 36.6193 161.421 36.5857C161.421 36.5185 161.455 36.4849 161.522 36.4513C161.656 36.4177 161.791 36.3841 161.925 36.3505C162.06 36.2833 162.093 36.2162 162.093 36.1154V33.3941C162.093 33.1925 162.06 33.0581 161.992 32.9573C161.925 32.8565 161.791 32.8229 161.556 32.7893C161.455 32.7893 161.421 32.7221 161.421 32.6549C161.421 32.6213 161.421 32.5877 161.455 32.5205C161.556 32.5205 161.656 32.5205 161.824 32.5205C161.992 32.5205 162.127 32.4869 162.228 32.4869C162.396 32.4533 162.53 32.4197 162.631 32.4197C162.765 32.3862 162.832 32.3862 162.9 32.3862C163 32.3862 163.034 32.4198 163.034 32.5205C163.034 32.6213 163.034 32.7221 163 32.8565C162.967 32.9909 162.967 33.1589 162.967 33.3605C163.235 33.0581 163.538 32.7893 163.773 32.6213C164.042 32.4533 164.344 32.3526 164.647 32.3526C165.05 32.3526 165.352 32.4869 165.554 32.7221C165.755 32.9573 165.856 33.2933 165.856 33.6964V36.149H165.89ZM171.131 32.7557C170.828 32.7557 170.56 32.8901 170.358 33.1589C170.156 33.4276 170.056 33.7972 170.056 34.2676C170.056 34.9059 170.19 35.4098 170.492 35.7794C170.795 36.149 171.164 36.3169 171.635 36.3169C171.836 36.3169 172.038 36.2834 172.172 36.2162C172.307 36.149 172.441 36.0818 172.542 36.0146C172.575 36.0146 172.575 35.981 172.609 35.981C172.643 35.9474 172.676 35.9474 172.676 35.9474C172.71 35.9474 172.743 35.981 172.777 36.0146C172.81 36.0482 172.844 36.0818 172.844 36.1154C172.777 36.1826 172.71 36.2833 172.609 36.3505C172.508 36.4177 172.374 36.5185 172.239 36.5857C172.105 36.6529 171.937 36.7201 171.735 36.7537C171.534 36.7873 171.332 36.8209 171.097 36.8209C170.828 36.8209 170.56 36.7873 170.324 36.6865C170.089 36.5857 169.888 36.4513 169.686 36.2833C169.518 36.1154 169.35 35.8802 169.249 35.6114C169.148 35.3426 169.081 35.0403 169.081 34.6707C169.081 34.3348 169.148 34.0324 169.283 33.73C169.417 33.4612 169.585 33.1925 169.787 32.9909C169.988 32.7893 170.224 32.6213 170.459 32.5205C170.727 32.4198 170.963 32.3526 171.198 32.3526C171.433 32.3526 171.668 32.3862 171.87 32.4197C172.071 32.4869 172.239 32.5541 172.374 32.6213C172.508 32.7221 172.609 32.8229 172.676 32.9237C172.743 33.0245 172.81 33.1589 172.81 33.2933C172.81 33.3269 172.777 33.3605 172.71 33.3941C172.643 33.4277 172.575 33.4276 172.475 33.4612C172.407 33.4612 172.307 33.4948 172.239 33.4948C172.172 33.4948 172.139 33.4948 172.105 33.4948C172.004 33.4948 171.937 33.4612 171.903 33.3605C171.87 33.2597 171.803 33.1925 171.735 33.0917C171.668 32.9909 171.601 32.8901 171.5 32.8229C171.467 32.7893 171.332 32.7557 171.131 32.7557ZM177.648 35.6114C177.749 35.3426 177.85 35.1075 177.984 34.8387C178.119 34.5699 178.22 34.3012 178.32 34.066C178.421 33.8308 178.522 33.5956 178.589 33.4276C178.656 33.2261 178.69 33.0917 178.69 32.9909C178.69 32.9237 178.656 32.8901 178.623 32.8565C178.555 32.8229 178.522 32.7893 178.455 32.7893C178.387 32.7557 178.354 32.7557 178.287 32.7221C178.22 32.6885 178.22 32.6549 178.22 32.5877C178.22 32.5877 178.22 32.5541 178.22 32.5205C178.22 32.4869 178.22 32.4869 178.253 32.4533C178.522 32.4869 178.791 32.4869 179.093 32.4869C179.261 32.4869 179.395 32.4869 179.496 32.4869C179.597 32.4869 179.731 32.4869 179.799 32.4533C179.799 32.4869 179.832 32.4869 179.832 32.5205C179.832 32.5541 179.832 32.5541 179.832 32.5877C179.832 32.6549 179.799 32.7221 179.698 32.7221C179.597 32.7557 179.53 32.7557 179.463 32.7893C179.395 32.8229 179.362 32.8229 179.328 32.8565C179.295 32.8901 179.261 32.9237 179.227 32.9909C179.194 33.0581 179.16 33.1253 179.127 33.2261L177.077 38.064C176.943 38.3663 176.741 38.6351 176.473 38.8367C176.204 39.0383 175.935 39.1055 175.633 39.1055C175.565 39.1055 175.532 39.1055 175.498 39.0719C175.465 39.0383 175.465 39.0047 175.465 38.9711C175.465 38.9039 175.465 38.8031 175.498 38.7359C175.532 38.6687 175.532 38.5679 175.565 38.5007C175.599 38.4335 175.633 38.3663 175.666 38.3327C175.7 38.2991 175.767 38.2655 175.801 38.2655C175.868 38.2655 175.901 38.2655 175.935 38.2655C175.969 38.2655 176.036 38.2991 176.069 38.2991C176.237 38.2991 176.372 38.2655 176.473 38.1983C176.573 38.1312 176.64 38.0304 176.708 37.8624L177.212 36.6865L175.666 33.2597C175.633 33.1589 175.565 33.0917 175.532 33.0245C175.498 32.9573 175.465 32.9237 175.431 32.8901C175.397 32.8565 175.33 32.8229 175.297 32.8229C175.229 32.7893 175.162 32.7893 175.095 32.7893C174.994 32.7557 174.961 32.7221 174.961 32.6549C174.961 32.6549 174.961 32.6213 174.961 32.5877C174.961 32.5541 174.994 32.5541 174.994 32.5205C175.129 32.5205 175.263 32.5541 175.397 32.5541C175.532 32.5541 175.7 32.5541 175.868 32.5541H176.17C176.338 32.5541 176.472 32.5541 176.607 32.5541C176.741 32.5541 176.876 32.5541 177.01 32.5205C177.01 32.5541 177.044 32.5541 177.044 32.5877C177.044 32.6213 177.044 32.6213 177.044 32.6549C177.044 32.7221 177.01 32.7893 176.909 32.7893C176.741 32.8229 176.64 32.8565 176.607 32.8901C176.54 32.9237 176.54 32.9573 176.54 33.0245C176.54 33.0581 176.573 33.1253 176.607 33.2597C176.64 33.394 176.708 33.562 176.808 33.7636L177.648 35.6114Z" fill="#1B393B"/>
<path fill-rule="evenodd" clip-rule="evenodd" d="M186.486 33.0251C187.863 33.0251 188.669 33.0251 190.047 33.0251C190.047 33.4954 190.047 32.9579 190.047 33.2266C190.047 33.2266 189.98 33.2602 189.778 33.3946C189.576 33.4954 189.408 33.6298 189.408 33.6298V33.9322V34.2681V34.5369C189.408 34.6377 189.442 34.6713 189.476 34.6713C189.476 34.6713 189.98 34.3353 190.517 34.3689C191.055 34.4025 191.525 34.6713 191.525 34.6713C191.525 34.6713 191.626 34.7049 191.626 34.5369C191.626 34.4025 191.626 34.2681 191.626 34.2681V33.9322V33.6298C191.626 33.6298 191.525 33.5626 191.256 33.3946C190.987 33.2602 190.954 33.2266 190.954 33.2266C190.954 32.5211 190.954 33.6634 190.954 33.0251H191.861C192.063 33.0251 192.197 32.8907 192.231 32.7227V32.5883C192.231 32.4203 192.063 32.2188 191.895 32.2188C189.711 32.2523 188.669 32.2188 186.519 32.2188C186.351 32.3867 186.183 32.7899 186.486 33.0251Z" fill="#1B393B"/>
</svg>
