<svg width="32" height="32" viewBox="0 0 32 32" fill="none" xmlns="http://www.w3.org/2000/svg">
<path d="M7.19789 10.8715H24.8963C25.0906 10.8715 25.2769 10.7943 25.4143 10.6569C25.5517 10.5195 25.6289 10.3331 25.6289 10.1389C25.6289 9.94455 25.5517 9.75821 25.4143 9.62082C25.2769 9.48343 25.0906 9.40625 24.8963 9.40625H7.19789C7.0036 9.40625 6.81726 9.48343 6.67986 9.62082C6.54247 9.75821 6.46529 9.94455 6.46529 10.1389C6.46529 10.3331 6.54247 10.5195 6.67986 10.6569C6.81726 10.7943 7.0036 10.8715 7.19789 10.8715ZM6.58129 15.9997C6.58129 15.8054 6.65847 15.619 6.79586 15.4816C6.93325 15.3442 7.11959 15.2671 7.31389 15.2671H24.8963C25.0906 15.2671 25.2769 15.3442 25.4143 15.4816C25.5517 15.619 25.6289 15.8054 25.6289 15.9997C25.6289 16.194 25.5517 16.3803 25.4143 16.5177C25.2769 16.6551 25.0906 16.7323 24.8963 16.7323H7.31389C7.11959 16.7323 6.93325 16.6551 6.79586 16.5177C6.65847 16.3803 6.58129 16.194 6.58129 15.9997ZM6.3725 21.8605C6.3725 21.6662 6.44968 21.4798 6.58707 21.3424C6.72446 21.205 6.9108 21.1279 7.1051 21.1279H24.8963C25.0906 21.1279 25.2769 21.205 25.4143 21.3424C25.5517 21.4798 25.6289 21.6662 25.6289 21.8605C25.6289 22.0548 25.5517 22.2411 25.4143 22.3785C25.2769 22.5159 25.0906 22.5931 24.8963 22.5931H7.1051C6.9108 22.5931 6.72446 22.5159 6.58707 22.3785C6.44968 22.2411 6.3725 22.0548 6.3725 21.8605Z" fill="#1B393B"/>
</svg>
