<svg width="44" height="30" viewBox="0 0 44 30" fill="none" xmlns="http://www.w3.org/2000/svg">
<g clip-path="url(#clip0_2004_8774)">
<path fill-rule="evenodd" clip-rule="evenodd" d="M15.2065 -0.0625H3.88604V0.735968H6.87585L15.7832 25.0804H17.0519L23.0049 9.40378L28.816 25.0804H30.0846L39.3114 0.735968H42.2746V-0.0625H35.3368V0.735968H38.3532L31.9122 17.9208L25.6132 0.735968H28.8781V-0.0625H17.8149V0.735968H19.8022L22.5436 8.25931L18.915 17.8853L12.6514 0.735968H15.1977V-0.0625H15.2065ZM23.6082 19.6153C23.8566 19.4733 24.0163 19.2072 24.0163 18.9055C24.0163 18.4531 23.6437 18.0805 23.1912 18.0805C22.7299 18.0805 22.3661 18.4531 22.3661 18.9055C22.3661 19.2072 22.5258 19.4733 22.7742 19.6153L22.3306 20.884H24.0518L23.6082 19.6153ZM39.4533 13.9817C38.4419 13.9905 38.0693 13.9905 37.5991 13.9905C37.262 13.9905 36.0643 13.9817 35.3368 13.9817L35.7981 12.8461C36.5345 12.8461 36.7652 12.8461 37.0934 12.8549C37.2442 12.8549 37.4128 12.8549 37.6612 12.8638C38.9299 12.8727 40.0744 12.8815 41.7689 12.8549C42.0084 12.8549 42.2125 13.1211 42.2036 13.3695V13.5469C42.2036 13.7953 41.9996 13.9905 41.76 13.9905H40.6067C40.6067 13.9196 40.6067 13.9373 40.6067 13.9905C40.5978 14.443 40.6067 14.301 40.6067 14.1414C40.6067 14.0881 40.6067 14.0349 40.6067 13.9905C40.6067 14.0438 40.6067 14.1325 40.6067 14.2922C40.6067 14.2922 40.6599 14.3454 41.0059 14.5495C41.3519 14.7535 41.4672 14.8777 41.4672 14.8777L41.4584 15.3124V15.8181C41.4584 15.8181 41.4495 15.9778 41.4495 16.1908C41.4495 16.4037 41.343 16.3593 41.343 16.3593C41.343 16.3593 40.7397 15.9246 40.0566 15.898C39.3735 15.8714 38.7613 16.3593 38.7613 16.3593C38.6992 16.3593 38.6549 16.3504 38.6549 16.1908L38.6637 15.8181L38.6726 15.3124L38.6815 14.8777C38.6815 14.8777 38.8767 14.6914 39.1339 14.5317C39.3912 14.3631 39.4622 14.301 39.4622 14.301V13.9817H39.4533ZM4.55143 16.1996C4.0546 16.1996 3.67311 15.9512 3.39808 15.5608C3.24726 15.3391 3.21178 15.0108 3.19403 14.718C2.73269 14.6914 2.41331 14.5495 2.21813 14.1502C2.13828 13.9817 2.09392 13.7953 2.09392 13.6002C2.09392 13.4227 2.12941 13.2542 2.20038 13.1033C2.37782 12.6775 2.72382 12.5089 3.19403 12.4823C3.19403 12.438 3.19403 12.3936 3.18516 12.3492C3.16742 12.1097 3.15854 11.8968 3.30049 11.6306C3.54891 11.1515 3.98363 10.8321 4.55143 10.8321C5.37651 10.8321 5.71364 11.4443 5.71364 12.2871C5.71364 12.784 5.11035 13.2275 4.72886 13.5026L4.70225 13.5203L4.72886 13.5381C5.11035 13.8131 5.71364 14.2567 5.71364 14.7535C5.71364 15.5875 5.37651 16.1996 4.55143 16.1996ZM9.87454 12.9436C9.71485 12.9436 9.55516 12.9436 9.51967 12.9436C9.20028 12.9436 8.66797 12.9436 7.85176 12.9436C7.85176 12.9436 7.49688 12.9614 7.31057 12.8815C7.20411 12.8372 7.06216 12.6864 7.02668 12.6065C7.0178 12.5888 6.99119 12.5178 6.96457 12.4025C6.85811 12.0476 6.64519 11.3201 6.41452 10.9741C5.92656 10.2377 5.26117 9.82963 4.54255 9.82963C3.82393 9.82963 3.22065 10.2377 2.74157 10.9741C2.59962 11.187 2.48428 11.4177 2.38669 11.6572C2.08505 11.7637 1.81002 11.9411 1.58822 12.1807C1.23335 12.5622 1.0293 13.059 1.0293 13.5913C1.0293 14.1236 1.22448 14.6204 1.58822 15.0019C1.83664 15.2681 2.13828 15.4544 2.47541 15.552C2.55526 15.7205 2.64398 15.8802 2.74157 16.0311C3.22952 16.7674 3.82393 17.1755 4.54255 17.1755C5.26117 17.1755 5.92656 16.7674 6.41452 16.0311C6.71616 15.5786 6.92021 14.9664 7.02668 14.372C7.02668 14.372 7.09765 14.1946 7.32832 14.0792C7.55899 13.9994 7.86063 14.0438 7.86063 14.0438C9.83906 14.0438 9.83018 14.0438 9.82131 14.0438H9.81244C9.75921 14.0438 9.59064 14.0438 10.6375 14.0438L10.3004 12.9348C10.2472 12.9437 10.052 12.9436 9.87454 12.9436Z" fill="#1B393B"/>
</g>
<defs>
<clipPath id="clip0_2004_8774">
<rect width="44" height="29.8571" fill="white"/>
</clipPath>
</defs>
</svg>
