<svg width="20" height="20" viewBox="0 0 20 20" fill="none" xmlns="http://www.w3.org/2000/svg">
<path d="M10.1587 1.25C5.41426 1.25 1.56773 5.06645 1.56773 9.77469C1.56773 11.3852 2.0182 12.8915 2.80051 14.1765L1.25 18.75L6.00641 17.239C7.23719 17.9142 8.6527 18.2994 10.1587 18.2994C14.9037 18.2994 18.75 14.4824 18.75 9.77469C18.75 5.06645 14.9037 1.25 10.1587 1.25ZM14.4306 13.0121C14.2285 13.5132 13.3145 13.9704 12.9111 13.9915C12.5082 14.0129 12.4968 14.3037 10.3002 13.3495C8.10391 12.3951 6.78254 10.0744 6.67836 9.92492C6.5741 9.77602 5.82758 8.71215 5.86785 7.64152C5.9084 6.5707 6.49469 6.06551 6.70395 5.85539C6.91297 5.64496 7.15262 5.60727 7.29895 5.60488C7.47191 5.60207 7.58395 5.59973 7.71195 5.60445C7.83984 5.6093 8.03195 5.5777 8.19828 6.02004C8.36453 6.46234 8.76246 7.54945 8.81336 7.66023C8.86422 7.77113 8.8957 7.89953 8.81734 8.04191C8.73875 8.18461 8.69852 8.27375 8.58449 8.39672C8.46984 8.51969 8.34332 8.6718 8.24105 8.76582C8.12699 8.86992 8.00785 8.98348 8.12777 9.20602C8.24762 9.4284 8.66109 10.1574 9.29102 10.7582C10.1006 11.5305 10.7987 11.7867 11.0136 11.9034C11.229 12.0207 11.3576 12.0077 11.4912 11.8671C11.6241 11.7265 12.063 11.252 12.2176 11.0402C12.3721 10.8278 12.5168 10.8694 12.7153 10.9492C12.9137 11.0294 13.9714 11.5959 14.1869 11.7129C14.4021 11.8297 14.546 11.8898 14.5975 11.9825C14.6489 12.0754 14.6327 12.511 14.4306 13.0121Z" fill="#1B393B"/>
</svg>
